G04 #@! TF.GenerationSoftware,KiCad,Pcbnew,5.0.2-bee76a0~70~ubuntu18.04.1*
G04 #@! TF.CreationDate,2020-04-22T18:31:08+02:00*
G04 #@! TF.ProjectId,Energy_Meter,456e6572-6779-45f4-9d65-7465722e6b69,rev?*
G04 #@! TF.SameCoordinates,Original*
G04 #@! TF.FileFunction,Soldermask,Bot*
G04 #@! TF.FilePolarity,Negative*
%FSLAX46Y46*%
G04 Gerber Fmt 4.6, Leading zero omitted, Abs format (unit mm)*
G04 Created by KiCad (PCBNEW 5.0.2-bee76a0~70~ubuntu18.04.1) date mer. 22 avril 2020 18:31:08 CEST*
%MOMM*%
%LPD*%
G01*
G04 APERTURE LIST*
%ADD10C,0.100000*%
G04 APERTURE END LIST*
D10*
G36*
X234061000Y-174625000D02*
X230251000Y-174625000D01*
X230251000Y-168910000D01*
X234061000Y-168910000D01*
X234061000Y-174625000D01*
X234061000Y-174625000D01*
G37*
G36*
X223774000Y-174625000D02*
X220218000Y-174625000D01*
X220218000Y-168910000D01*
X223774000Y-168910000D01*
X223774000Y-174625000D01*
X223774000Y-174625000D01*
G37*
G36*
X203829256Y-171111298D02*
X203935579Y-171132447D01*
X204236042Y-171256903D01*
X204502852Y-171435180D01*
X204506454Y-171437587D01*
X204736413Y-171667546D01*
X204917098Y-171937960D01*
X205041553Y-172238422D01*
X205105000Y-172557389D01*
X205105000Y-172882611D01*
X205041553Y-173201578D01*
X204917098Y-173502040D01*
X204736413Y-173772454D01*
X204506454Y-174002413D01*
X204506451Y-174002415D01*
X204236042Y-174183097D01*
X203935579Y-174307553D01*
X203864955Y-174321601D01*
X203616611Y-174371000D01*
X203291389Y-174371000D01*
X203043045Y-174321601D01*
X202972421Y-174307553D01*
X202671958Y-174183097D01*
X202401549Y-174002415D01*
X202401546Y-174002413D01*
X202171587Y-173772454D01*
X201990902Y-173502040D01*
X201866447Y-173201578D01*
X201803000Y-172882611D01*
X201803000Y-172557389D01*
X201866447Y-172238422D01*
X201990902Y-171937960D01*
X202171587Y-171667546D01*
X202401546Y-171437587D01*
X202405148Y-171435180D01*
X202671958Y-171256903D01*
X202972421Y-171132447D01*
X203078744Y-171111298D01*
X203291389Y-171069000D01*
X203616611Y-171069000D01*
X203829256Y-171111298D01*
X203829256Y-171111298D01*
G37*
G36*
X227262424Y-170628760D02*
X227262427Y-170628761D01*
X227262428Y-170628761D01*
X227441692Y-170683140D01*
X227441694Y-170683141D01*
X227441697Y-170683142D01*
X227606904Y-170771446D01*
X227751712Y-170890288D01*
X227870552Y-171035095D01*
X227958859Y-171200305D01*
X228013240Y-171379575D01*
X228027000Y-171519282D01*
X228027000Y-173412718D01*
X228013240Y-173552425D01*
X227958859Y-173731695D01*
X227870552Y-173896905D01*
X227751712Y-174041712D01*
X227606905Y-174160552D01*
X227533857Y-174199597D01*
X227441693Y-174248860D01*
X227262429Y-174303239D01*
X227262428Y-174303239D01*
X227262425Y-174303240D01*
X227076000Y-174321601D01*
X226889576Y-174303240D01*
X226889573Y-174303239D01*
X226889572Y-174303239D01*
X226710308Y-174248860D01*
X226618144Y-174199597D01*
X226545096Y-174160552D01*
X226400289Y-174041712D01*
X226281449Y-173896905D01*
X226193142Y-173731695D01*
X226138761Y-173552425D01*
X226125000Y-173412717D01*
X226125000Y-171519283D01*
X226138760Y-171379576D01*
X226138761Y-171379572D01*
X226193140Y-171200308D01*
X226193141Y-171200306D01*
X226193142Y-171200303D01*
X226281446Y-171035096D01*
X226400288Y-170890288D01*
X226545095Y-170771448D01*
X226710305Y-170683141D01*
X226710307Y-170683140D01*
X226889571Y-170628761D01*
X226889572Y-170628761D01*
X226889575Y-170628760D01*
X227076000Y-170610399D01*
X227262424Y-170628760D01*
X227262424Y-170628760D01*
G37*
G36*
X191783562Y-168368181D02*
X191818477Y-168378773D01*
X191850665Y-168395978D01*
X191878873Y-168419127D01*
X191902022Y-168447335D01*
X191919227Y-168479523D01*
X191929819Y-168514438D01*
X191934000Y-168556895D01*
X191934000Y-169698105D01*
X191929819Y-169740562D01*
X191919227Y-169775477D01*
X191902022Y-169807665D01*
X191878873Y-169835873D01*
X191850665Y-169859022D01*
X191818477Y-169876227D01*
X191783562Y-169886819D01*
X191741105Y-169891000D01*
X190274895Y-169891000D01*
X190232438Y-169886819D01*
X190197523Y-169876227D01*
X190165335Y-169859022D01*
X190137127Y-169835873D01*
X190113978Y-169807665D01*
X190096773Y-169775477D01*
X190086181Y-169740562D01*
X190082000Y-169698105D01*
X190082000Y-168556895D01*
X190086181Y-168514438D01*
X190096773Y-168479523D01*
X190113978Y-168447335D01*
X190137127Y-168419127D01*
X190165335Y-168395978D01*
X190197523Y-168378773D01*
X190232438Y-168368181D01*
X190274895Y-168364000D01*
X191741105Y-168364000D01*
X191783562Y-168368181D01*
X191783562Y-168368181D01*
G37*
G36*
X195853499Y-168642445D02*
X195890993Y-168653819D01*
X195925557Y-168672294D01*
X195955847Y-168697153D01*
X195980706Y-168727443D01*
X195999181Y-168762007D01*
X196010555Y-168799501D01*
X196015000Y-168844638D01*
X196015000Y-169483362D01*
X196010555Y-169528499D01*
X195999181Y-169565993D01*
X195980706Y-169600557D01*
X195955847Y-169630847D01*
X195925557Y-169655706D01*
X195890993Y-169674181D01*
X195853499Y-169685555D01*
X195808362Y-169690000D01*
X195069638Y-169690000D01*
X195024501Y-169685555D01*
X194987007Y-169674181D01*
X194952443Y-169655706D01*
X194922153Y-169630847D01*
X194897294Y-169600557D01*
X194878819Y-169565993D01*
X194867445Y-169528499D01*
X194863000Y-169483362D01*
X194863000Y-168844638D01*
X194867445Y-168799501D01*
X194878819Y-168762007D01*
X194897294Y-168727443D01*
X194922153Y-168697153D01*
X194952443Y-168672294D01*
X194987007Y-168653819D01*
X195024501Y-168642445D01*
X195069638Y-168638000D01*
X195808362Y-168638000D01*
X195853499Y-168642445D01*
X195853499Y-168642445D01*
G37*
G36*
X194103499Y-168642445D02*
X194140993Y-168653819D01*
X194175557Y-168672294D01*
X194205847Y-168697153D01*
X194230706Y-168727443D01*
X194249181Y-168762007D01*
X194260555Y-168799501D01*
X194265000Y-168844638D01*
X194265000Y-169483362D01*
X194260555Y-169528499D01*
X194249181Y-169565993D01*
X194230706Y-169600557D01*
X194205847Y-169630847D01*
X194175557Y-169655706D01*
X194140993Y-169674181D01*
X194103499Y-169685555D01*
X194058362Y-169690000D01*
X193319638Y-169690000D01*
X193274501Y-169685555D01*
X193237007Y-169674181D01*
X193202443Y-169655706D01*
X193172153Y-169630847D01*
X193147294Y-169600557D01*
X193128819Y-169565993D01*
X193117445Y-169528499D01*
X193113000Y-169483362D01*
X193113000Y-168844638D01*
X193117445Y-168799501D01*
X193128819Y-168762007D01*
X193147294Y-168727443D01*
X193172153Y-168697153D01*
X193202443Y-168672294D01*
X193237007Y-168653819D01*
X193274501Y-168642445D01*
X193319638Y-168638000D01*
X194058362Y-168638000D01*
X194103499Y-168642445D01*
X194103499Y-168642445D01*
G37*
G36*
X198054000Y-168541000D02*
X197302000Y-168541000D01*
X197302000Y-166739000D01*
X198054000Y-166739000D01*
X198054000Y-168541000D01*
X198054000Y-168541000D01*
G37*
G36*
X199954000Y-168541000D02*
X199202000Y-168541000D01*
X199202000Y-166739000D01*
X199954000Y-166739000D01*
X199954000Y-168541000D01*
X199954000Y-168541000D01*
G37*
G36*
X176716424Y-164170760D02*
X176716427Y-164170761D01*
X176716428Y-164170761D01*
X176895692Y-164225140D01*
X176895694Y-164225141D01*
X176895697Y-164225142D01*
X177060904Y-164313446D01*
X177205712Y-164432288D01*
X177324552Y-164577095D01*
X177324553Y-164577097D01*
X177412860Y-164742307D01*
X177461470Y-164902553D01*
X177467240Y-164921575D01*
X177481000Y-165061282D01*
X177481000Y-166154718D01*
X177467240Y-166294425D01*
X177467239Y-166294428D01*
X177467239Y-166294429D01*
X177412861Y-166473691D01*
X177412859Y-166473695D01*
X177324552Y-166638905D01*
X177205712Y-166783712D01*
X177060905Y-166902552D01*
X177060903Y-166902553D01*
X176895693Y-166990860D01*
X176716429Y-167045239D01*
X176716428Y-167045239D01*
X176716425Y-167045240D01*
X176530000Y-167063601D01*
X176343576Y-167045240D01*
X176343573Y-167045239D01*
X176343572Y-167045239D01*
X176164308Y-166990860D01*
X175999098Y-166902553D01*
X175999096Y-166902552D01*
X175854289Y-166783712D01*
X175735449Y-166638905D01*
X175647140Y-166473691D01*
X175592760Y-166294430D01*
X175579000Y-166154718D01*
X175579000Y-165061283D01*
X175592760Y-164921576D01*
X175592761Y-164921572D01*
X175647140Y-164742308D01*
X175647141Y-164742306D01*
X175647142Y-164742303D01*
X175735446Y-164577096D01*
X175854288Y-164432288D01*
X175999095Y-164313448D01*
X176164305Y-164225141D01*
X176164307Y-164225140D01*
X176343571Y-164170761D01*
X176343572Y-164170761D01*
X176343575Y-164170760D01*
X176530000Y-164152399D01*
X176716424Y-164170760D01*
X176716424Y-164170760D01*
G37*
G36*
X191783562Y-165393181D02*
X191818477Y-165403773D01*
X191850665Y-165420978D01*
X191878873Y-165444127D01*
X191902022Y-165472335D01*
X191919227Y-165504523D01*
X191929819Y-165539438D01*
X191934000Y-165581895D01*
X191934000Y-166723105D01*
X191929819Y-166765562D01*
X191919227Y-166800477D01*
X191902022Y-166832665D01*
X191878873Y-166860873D01*
X191850665Y-166884022D01*
X191818477Y-166901227D01*
X191783562Y-166911819D01*
X191741105Y-166916000D01*
X190274895Y-166916000D01*
X190232438Y-166911819D01*
X190197523Y-166901227D01*
X190165335Y-166884022D01*
X190137127Y-166860873D01*
X190113978Y-166832665D01*
X190096773Y-166800477D01*
X190086181Y-166765562D01*
X190082000Y-166723105D01*
X190082000Y-165581895D01*
X190086181Y-165539438D01*
X190096773Y-165504523D01*
X190113978Y-165472335D01*
X190137127Y-165444127D01*
X190165335Y-165420978D01*
X190197523Y-165403773D01*
X190232438Y-165393181D01*
X190274895Y-165389000D01*
X191741105Y-165389000D01*
X191783562Y-165393181D01*
X191783562Y-165393181D01*
G37*
G36*
X194103499Y-165594445D02*
X194140993Y-165605819D01*
X194175557Y-165624294D01*
X194205847Y-165649153D01*
X194230706Y-165679443D01*
X194249181Y-165714007D01*
X194260555Y-165751501D01*
X194265000Y-165796638D01*
X194265000Y-166435362D01*
X194260555Y-166480499D01*
X194249181Y-166517993D01*
X194230706Y-166552557D01*
X194205847Y-166582847D01*
X194175557Y-166607706D01*
X194140993Y-166626181D01*
X194103499Y-166637555D01*
X194058362Y-166642000D01*
X193319638Y-166642000D01*
X193274501Y-166637555D01*
X193237007Y-166626181D01*
X193202443Y-166607706D01*
X193172153Y-166582847D01*
X193147294Y-166552557D01*
X193128819Y-166517993D01*
X193117445Y-166480499D01*
X193113000Y-166435362D01*
X193113000Y-165796638D01*
X193117445Y-165751501D01*
X193128819Y-165714007D01*
X193147294Y-165679443D01*
X193172153Y-165649153D01*
X193202443Y-165624294D01*
X193237007Y-165605819D01*
X193274501Y-165594445D01*
X193319638Y-165590000D01*
X194058362Y-165590000D01*
X194103499Y-165594445D01*
X194103499Y-165594445D01*
G37*
G36*
X195853499Y-165594445D02*
X195890993Y-165605819D01*
X195925557Y-165624294D01*
X195955847Y-165649153D01*
X195980706Y-165679443D01*
X195999181Y-165714007D01*
X196010555Y-165751501D01*
X196015000Y-165796638D01*
X196015000Y-166435362D01*
X196010555Y-166480499D01*
X195999181Y-166517993D01*
X195980706Y-166552557D01*
X195955847Y-166582847D01*
X195925557Y-166607706D01*
X195890993Y-166626181D01*
X195853499Y-166637555D01*
X195808362Y-166642000D01*
X195069638Y-166642000D01*
X195024501Y-166637555D01*
X194987007Y-166626181D01*
X194952443Y-166607706D01*
X194922153Y-166582847D01*
X194897294Y-166552557D01*
X194878819Y-166517993D01*
X194867445Y-166480499D01*
X194863000Y-166435362D01*
X194863000Y-165796638D01*
X194867445Y-165751501D01*
X194878819Y-165714007D01*
X194897294Y-165679443D01*
X194922153Y-165649153D01*
X194952443Y-165624294D01*
X194987007Y-165605819D01*
X195024501Y-165594445D01*
X195069638Y-165590000D01*
X195808362Y-165590000D01*
X195853499Y-165594445D01*
X195853499Y-165594445D01*
G37*
G36*
X179116424Y-162170760D02*
X179116427Y-162170761D01*
X179116428Y-162170761D01*
X179295692Y-162225140D01*
X179295694Y-162225141D01*
X179295697Y-162225142D01*
X179460904Y-162313446D01*
X179605712Y-162432288D01*
X179724552Y-162577095D01*
X179724553Y-162577097D01*
X179812860Y-162742307D01*
X179820957Y-162769000D01*
X179867240Y-162921575D01*
X179881000Y-163061282D01*
X179881000Y-164154718D01*
X179867240Y-164294425D01*
X179867239Y-164294428D01*
X179867239Y-164294429D01*
X179812861Y-164473691D01*
X179812859Y-164473695D01*
X179724552Y-164638905D01*
X179605712Y-164783712D01*
X179460905Y-164902552D01*
X179460903Y-164902553D01*
X179295693Y-164990860D01*
X179116429Y-165045239D01*
X179116428Y-165045239D01*
X179116425Y-165045240D01*
X178930000Y-165063601D01*
X178743576Y-165045240D01*
X178743573Y-165045239D01*
X178743572Y-165045239D01*
X178564308Y-164990860D01*
X178399098Y-164902553D01*
X178399096Y-164902552D01*
X178254289Y-164783712D01*
X178135449Y-164638905D01*
X178047140Y-164473691D01*
X177992760Y-164294430D01*
X177979000Y-164154718D01*
X177979000Y-163061283D01*
X177992760Y-162921576D01*
X177992761Y-162921572D01*
X178047140Y-162742308D01*
X178047141Y-162742306D01*
X178047142Y-162742303D01*
X178135446Y-162577096D01*
X178254288Y-162432288D01*
X178399095Y-162313448D01*
X178564305Y-162225141D01*
X178564307Y-162225140D01*
X178743571Y-162170761D01*
X178743572Y-162170761D01*
X178743575Y-162170760D01*
X178930000Y-162152399D01*
X179116424Y-162170760D01*
X179116424Y-162170760D01*
G37*
G36*
X184616424Y-162170760D02*
X184616427Y-162170761D01*
X184616428Y-162170761D01*
X184795692Y-162225140D01*
X184795694Y-162225141D01*
X184795697Y-162225142D01*
X184960904Y-162313446D01*
X185105712Y-162432288D01*
X185224552Y-162577095D01*
X185224553Y-162577097D01*
X185312860Y-162742307D01*
X185320957Y-162769000D01*
X185367240Y-162921575D01*
X185381000Y-163061282D01*
X185381000Y-164154718D01*
X185367240Y-164294425D01*
X185367239Y-164294428D01*
X185367239Y-164294429D01*
X185312861Y-164473691D01*
X185312859Y-164473695D01*
X185224552Y-164638905D01*
X185105712Y-164783712D01*
X184960905Y-164902552D01*
X184960903Y-164902553D01*
X184795693Y-164990860D01*
X184616429Y-165045239D01*
X184616428Y-165045239D01*
X184616425Y-165045240D01*
X184430000Y-165063601D01*
X184243576Y-165045240D01*
X184243573Y-165045239D01*
X184243572Y-165045239D01*
X184064308Y-164990860D01*
X183899098Y-164902553D01*
X183899096Y-164902552D01*
X183754289Y-164783712D01*
X183635449Y-164638905D01*
X183547140Y-164473691D01*
X183492760Y-164294430D01*
X183479000Y-164154718D01*
X183479000Y-163061283D01*
X183492760Y-162921576D01*
X183492761Y-162921572D01*
X183547140Y-162742308D01*
X183547141Y-162742306D01*
X183547142Y-162742303D01*
X183635446Y-162577096D01*
X183754288Y-162432288D01*
X183899095Y-162313448D01*
X184064305Y-162225141D01*
X184064307Y-162225140D01*
X184243571Y-162170761D01*
X184243572Y-162170761D01*
X184243575Y-162170760D01*
X184430000Y-162152399D01*
X184616424Y-162170760D01*
X184616424Y-162170760D01*
G37*
G36*
X237236000Y-164528500D02*
X232092500Y-164528500D01*
X232092500Y-156654500D01*
X237236000Y-156654500D01*
X237236000Y-164528500D01*
X237236000Y-164528500D01*
G37*
G36*
X197976499Y-163371445D02*
X198013993Y-163382819D01*
X198048557Y-163401294D01*
X198078847Y-163426153D01*
X198103706Y-163456443D01*
X198122181Y-163491007D01*
X198133555Y-163528501D01*
X198138000Y-163573638D01*
X198138000Y-164312362D01*
X198133555Y-164357499D01*
X198122181Y-164394993D01*
X198103706Y-164429557D01*
X198078847Y-164459847D01*
X198048557Y-164484706D01*
X198013993Y-164503181D01*
X197976499Y-164514555D01*
X197931362Y-164519000D01*
X197292638Y-164519000D01*
X197247501Y-164514555D01*
X197210007Y-164503181D01*
X197175443Y-164484706D01*
X197145153Y-164459847D01*
X197120294Y-164429557D01*
X197101819Y-164394993D01*
X197090445Y-164357499D01*
X197086000Y-164312362D01*
X197086000Y-163573638D01*
X197090445Y-163528501D01*
X197101819Y-163491007D01*
X197120294Y-163456443D01*
X197145153Y-163426153D01*
X197175443Y-163401294D01*
X197210007Y-163382819D01*
X197247501Y-163371445D01*
X197292638Y-163367000D01*
X197931362Y-163367000D01*
X197976499Y-163371445D01*
X197976499Y-163371445D01*
G37*
G36*
X200516499Y-163371445D02*
X200553993Y-163382819D01*
X200588557Y-163401294D01*
X200618847Y-163426153D01*
X200643706Y-163456443D01*
X200662181Y-163491007D01*
X200673555Y-163528501D01*
X200678000Y-163573638D01*
X200678000Y-164312362D01*
X200673555Y-164357499D01*
X200662181Y-164394993D01*
X200643706Y-164429557D01*
X200618847Y-164459847D01*
X200588557Y-164484706D01*
X200553993Y-164503181D01*
X200516499Y-164514555D01*
X200471362Y-164519000D01*
X199832638Y-164519000D01*
X199787501Y-164514555D01*
X199750007Y-164503181D01*
X199715443Y-164484706D01*
X199685153Y-164459847D01*
X199660294Y-164429557D01*
X199641819Y-164394993D01*
X199630445Y-164357499D01*
X199626000Y-164312362D01*
X199626000Y-163573638D01*
X199630445Y-163528501D01*
X199641819Y-163491007D01*
X199660294Y-163456443D01*
X199685153Y-163426153D01*
X199715443Y-163401294D01*
X199750007Y-163382819D01*
X199787501Y-163371445D01*
X199832638Y-163367000D01*
X200471362Y-163367000D01*
X200516499Y-163371445D01*
X200516499Y-163371445D01*
G37*
G36*
X197976499Y-161621445D02*
X198013993Y-161632819D01*
X198048557Y-161651294D01*
X198078847Y-161676153D01*
X198103706Y-161706443D01*
X198122181Y-161741007D01*
X198133555Y-161778501D01*
X198138000Y-161823638D01*
X198138000Y-162562362D01*
X198133555Y-162607499D01*
X198122181Y-162644993D01*
X198103706Y-162679557D01*
X198078847Y-162709847D01*
X198048557Y-162734706D01*
X198013993Y-162753181D01*
X197976499Y-162764555D01*
X197931362Y-162769000D01*
X197292638Y-162769000D01*
X197247501Y-162764555D01*
X197210007Y-162753181D01*
X197175443Y-162734706D01*
X197145153Y-162709847D01*
X197120294Y-162679557D01*
X197101819Y-162644993D01*
X197090445Y-162607499D01*
X197086000Y-162562362D01*
X197086000Y-161823638D01*
X197090445Y-161778501D01*
X197101819Y-161741007D01*
X197120294Y-161706443D01*
X197145153Y-161676153D01*
X197175443Y-161651294D01*
X197210007Y-161632819D01*
X197247501Y-161621445D01*
X197292638Y-161617000D01*
X197931362Y-161617000D01*
X197976499Y-161621445D01*
X197976499Y-161621445D01*
G37*
G36*
X200516499Y-161621445D02*
X200553993Y-161632819D01*
X200588557Y-161651294D01*
X200618847Y-161676153D01*
X200643706Y-161706443D01*
X200662181Y-161741007D01*
X200673555Y-161778501D01*
X200678000Y-161823638D01*
X200678000Y-162562362D01*
X200673555Y-162607499D01*
X200662181Y-162644993D01*
X200643706Y-162679557D01*
X200618847Y-162709847D01*
X200588557Y-162734706D01*
X200553993Y-162753181D01*
X200516499Y-162764555D01*
X200471362Y-162769000D01*
X199832638Y-162769000D01*
X199787501Y-162764555D01*
X199750007Y-162753181D01*
X199715443Y-162734706D01*
X199685153Y-162709847D01*
X199660294Y-162679557D01*
X199641819Y-162644993D01*
X199630445Y-162607499D01*
X199626000Y-162562362D01*
X199626000Y-161823638D01*
X199630445Y-161778501D01*
X199641819Y-161741007D01*
X199660294Y-161706443D01*
X199685153Y-161676153D01*
X199715443Y-161651294D01*
X199750007Y-161632819D01*
X199787501Y-161621445D01*
X199832638Y-161617000D01*
X200471362Y-161617000D01*
X200516499Y-161621445D01*
X200516499Y-161621445D01*
G37*
G36*
X196198499Y-159815445D02*
X196235993Y-159826819D01*
X196270557Y-159845294D01*
X196300847Y-159870153D01*
X196325706Y-159900443D01*
X196344181Y-159935007D01*
X196355555Y-159972501D01*
X196360000Y-160017638D01*
X196360000Y-160756362D01*
X196355555Y-160801499D01*
X196344181Y-160838993D01*
X196325706Y-160873557D01*
X196300847Y-160903847D01*
X196270557Y-160928706D01*
X196235993Y-160947181D01*
X196198499Y-160958555D01*
X196153362Y-160963000D01*
X195514638Y-160963000D01*
X195469501Y-160958555D01*
X195432007Y-160947181D01*
X195397443Y-160928706D01*
X195367153Y-160903847D01*
X195342294Y-160873557D01*
X195323819Y-160838993D01*
X195312445Y-160801499D01*
X195308000Y-160756362D01*
X195308000Y-160017638D01*
X195312445Y-159972501D01*
X195323819Y-159935007D01*
X195342294Y-159900443D01*
X195367153Y-159870153D01*
X195397443Y-159845294D01*
X195432007Y-159826819D01*
X195469501Y-159815445D01*
X195514638Y-159811000D01*
X196153362Y-159811000D01*
X196198499Y-159815445D01*
X196198499Y-159815445D01*
G37*
G36*
X199112000Y-160838000D02*
X197010000Y-160838000D01*
X197010000Y-158186000D01*
X199112000Y-158186000D01*
X199112000Y-160838000D01*
X199112000Y-160838000D01*
G37*
G36*
X202532000Y-160838000D02*
X200430000Y-160838000D01*
X200430000Y-160086000D01*
X202532000Y-160086000D01*
X202532000Y-160838000D01*
X202532000Y-160838000D01*
G37*
G36*
X191783562Y-158462181D02*
X191818477Y-158472773D01*
X191850665Y-158489978D01*
X191878873Y-158513127D01*
X191902022Y-158541335D01*
X191919227Y-158573523D01*
X191929819Y-158608438D01*
X191934000Y-158650895D01*
X191934000Y-159792105D01*
X191929819Y-159834562D01*
X191919227Y-159869477D01*
X191902022Y-159901665D01*
X191878873Y-159929873D01*
X191850665Y-159953022D01*
X191818477Y-159970227D01*
X191783562Y-159980819D01*
X191741105Y-159985000D01*
X190274895Y-159985000D01*
X190232438Y-159980819D01*
X190197523Y-159970227D01*
X190165335Y-159953022D01*
X190137127Y-159929873D01*
X190113978Y-159901665D01*
X190096773Y-159869477D01*
X190086181Y-159834562D01*
X190082000Y-159792105D01*
X190082000Y-158650895D01*
X190086181Y-158608438D01*
X190096773Y-158573523D01*
X190113978Y-158541335D01*
X190137127Y-158513127D01*
X190165335Y-158489978D01*
X190197523Y-158472773D01*
X190232438Y-158462181D01*
X190274895Y-158458000D01*
X191741105Y-158458000D01*
X191783562Y-158462181D01*
X191783562Y-158462181D01*
G37*
G36*
X196198499Y-158065445D02*
X196235993Y-158076819D01*
X196270557Y-158095294D01*
X196300847Y-158120153D01*
X196325706Y-158150443D01*
X196344181Y-158185007D01*
X196355555Y-158222501D01*
X196360000Y-158267638D01*
X196360000Y-159006362D01*
X196355555Y-159051499D01*
X196344181Y-159088993D01*
X196325706Y-159123557D01*
X196300847Y-159153847D01*
X196270557Y-159178706D01*
X196235993Y-159197181D01*
X196198499Y-159208555D01*
X196153362Y-159213000D01*
X195514638Y-159213000D01*
X195469501Y-159208555D01*
X195432007Y-159197181D01*
X195397443Y-159178706D01*
X195367153Y-159153847D01*
X195342294Y-159123557D01*
X195323819Y-159088993D01*
X195312445Y-159051499D01*
X195308000Y-159006362D01*
X195308000Y-158267638D01*
X195312445Y-158222501D01*
X195323819Y-158185007D01*
X195342294Y-158150443D01*
X195367153Y-158120153D01*
X195397443Y-158095294D01*
X195432007Y-158076819D01*
X195469501Y-158065445D01*
X195514638Y-158061000D01*
X196153362Y-158061000D01*
X196198499Y-158065445D01*
X196198499Y-158065445D01*
G37*
G36*
X202532000Y-158938000D02*
X200430000Y-158938000D01*
X200430000Y-158186000D01*
X202532000Y-158186000D01*
X202532000Y-158938000D01*
X202532000Y-158938000D01*
G37*
G36*
X176716424Y-154264760D02*
X176716427Y-154264761D01*
X176716428Y-154264761D01*
X176895692Y-154319140D01*
X176895694Y-154319141D01*
X176895697Y-154319142D01*
X177060904Y-154407446D01*
X177205712Y-154526288D01*
X177324552Y-154671095D01*
X177324553Y-154671097D01*
X177412860Y-154836307D01*
X177461470Y-154996553D01*
X177467240Y-155015575D01*
X177481000Y-155155282D01*
X177481000Y-156248718D01*
X177467240Y-156388425D01*
X177467239Y-156388428D01*
X177467239Y-156388429D01*
X177412861Y-156567691D01*
X177412859Y-156567695D01*
X177324552Y-156732905D01*
X177205712Y-156877712D01*
X177060905Y-156996552D01*
X177060903Y-156996553D01*
X176895693Y-157084860D01*
X176716429Y-157139239D01*
X176716428Y-157139239D01*
X176716425Y-157139240D01*
X176530000Y-157157601D01*
X176343576Y-157139240D01*
X176343573Y-157139239D01*
X176343572Y-157139239D01*
X176164308Y-157084860D01*
X175999098Y-156996553D01*
X175999096Y-156996552D01*
X175854289Y-156877712D01*
X175735449Y-156732905D01*
X175647140Y-156567691D01*
X175592760Y-156388430D01*
X175579000Y-156248718D01*
X175579000Y-155155283D01*
X175592760Y-155015576D01*
X175592761Y-155015572D01*
X175647140Y-154836308D01*
X175647141Y-154836306D01*
X175647142Y-154836303D01*
X175735446Y-154671096D01*
X175854288Y-154526288D01*
X175999095Y-154407448D01*
X176164305Y-154319141D01*
X176164307Y-154319140D01*
X176343571Y-154264761D01*
X176343572Y-154264761D01*
X176343575Y-154264760D01*
X176530000Y-154246399D01*
X176716424Y-154264760D01*
X176716424Y-154264760D01*
G37*
G36*
X191783562Y-155487181D02*
X191818477Y-155497773D01*
X191850665Y-155514978D01*
X191878873Y-155538127D01*
X191902022Y-155566335D01*
X191919227Y-155598523D01*
X191929819Y-155633438D01*
X191934000Y-155675895D01*
X191934000Y-156817105D01*
X191929819Y-156859562D01*
X191919227Y-156894477D01*
X191902022Y-156926665D01*
X191878873Y-156954873D01*
X191850665Y-156978022D01*
X191818477Y-156995227D01*
X191783562Y-157005819D01*
X191741105Y-157010000D01*
X190274895Y-157010000D01*
X190232438Y-157005819D01*
X190197523Y-156995227D01*
X190165335Y-156978022D01*
X190137127Y-156954873D01*
X190113978Y-156926665D01*
X190096773Y-156894477D01*
X190086181Y-156859562D01*
X190082000Y-156817105D01*
X190082000Y-155675895D01*
X190086181Y-155633438D01*
X190096773Y-155598523D01*
X190113978Y-155566335D01*
X190137127Y-155538127D01*
X190165335Y-155514978D01*
X190197523Y-155497773D01*
X190232438Y-155487181D01*
X190274895Y-155483000D01*
X191741105Y-155483000D01*
X191783562Y-155487181D01*
X191783562Y-155487181D01*
G37*
G36*
X179116424Y-152264760D02*
X179116427Y-152264761D01*
X179116428Y-152264761D01*
X179295692Y-152319140D01*
X179295694Y-152319141D01*
X179295697Y-152319142D01*
X179460904Y-152407446D01*
X179605712Y-152526288D01*
X179724552Y-152671095D01*
X179812859Y-152836305D01*
X179867240Y-153015575D01*
X179881000Y-153155282D01*
X179881000Y-154248718D01*
X179867240Y-154388425D01*
X179867239Y-154388428D01*
X179867239Y-154388429D01*
X179812861Y-154567691D01*
X179812859Y-154567695D01*
X179724552Y-154732905D01*
X179605712Y-154877712D01*
X179460905Y-154996552D01*
X179460903Y-154996553D01*
X179295693Y-155084860D01*
X179116429Y-155139239D01*
X179116428Y-155139239D01*
X179116425Y-155139240D01*
X178930000Y-155157601D01*
X178743576Y-155139240D01*
X178743573Y-155139239D01*
X178743572Y-155139239D01*
X178564308Y-155084860D01*
X178399098Y-154996553D01*
X178399096Y-154996552D01*
X178254289Y-154877712D01*
X178135449Y-154732905D01*
X178047140Y-154567691D01*
X177992760Y-154388430D01*
X177979000Y-154248718D01*
X177979000Y-153155283D01*
X177992760Y-153015576D01*
X177992761Y-153015572D01*
X178047140Y-152836308D01*
X178047141Y-152836306D01*
X178047142Y-152836303D01*
X178135446Y-152671096D01*
X178254288Y-152526288D01*
X178399095Y-152407448D01*
X178564305Y-152319141D01*
X178564307Y-152319140D01*
X178743571Y-152264761D01*
X178743572Y-152264761D01*
X178743575Y-152264760D01*
X178930000Y-152246399D01*
X179116424Y-152264760D01*
X179116424Y-152264760D01*
G37*
G36*
X184616424Y-152264760D02*
X184616427Y-152264761D01*
X184616428Y-152264761D01*
X184795692Y-152319140D01*
X184795694Y-152319141D01*
X184795697Y-152319142D01*
X184960904Y-152407446D01*
X185105712Y-152526288D01*
X185224552Y-152671095D01*
X185312859Y-152836305D01*
X185367240Y-153015575D01*
X185381000Y-153155282D01*
X185381000Y-154248718D01*
X185367240Y-154388425D01*
X185367239Y-154388428D01*
X185367239Y-154388429D01*
X185312861Y-154567691D01*
X185312859Y-154567695D01*
X185224552Y-154732905D01*
X185105712Y-154877712D01*
X184960905Y-154996552D01*
X184960903Y-154996553D01*
X184795693Y-155084860D01*
X184616429Y-155139239D01*
X184616428Y-155139239D01*
X184616425Y-155139240D01*
X184430000Y-155157601D01*
X184243576Y-155139240D01*
X184243573Y-155139239D01*
X184243572Y-155139239D01*
X184064308Y-155084860D01*
X183899098Y-154996553D01*
X183899096Y-154996552D01*
X183754289Y-154877712D01*
X183635449Y-154732905D01*
X183547140Y-154567691D01*
X183492760Y-154388430D01*
X183479000Y-154248718D01*
X183479000Y-153155283D01*
X183492760Y-153015576D01*
X183492761Y-153015572D01*
X183547140Y-152836308D01*
X183547141Y-152836306D01*
X183547142Y-152836303D01*
X183635446Y-152671096D01*
X183754288Y-152526288D01*
X183899095Y-152407448D01*
X184064305Y-152319141D01*
X184064307Y-152319140D01*
X184243571Y-152264761D01*
X184243572Y-152264761D01*
X184243575Y-152264760D01*
X184430000Y-152246399D01*
X184616424Y-152264760D01*
X184616424Y-152264760D01*
G37*
G36*
X219215562Y-152366181D02*
X219250477Y-152376773D01*
X219282665Y-152393978D01*
X219310873Y-152417127D01*
X219334022Y-152445335D01*
X219351227Y-152477523D01*
X219361819Y-152512438D01*
X219366000Y-152554895D01*
X219366000Y-153696105D01*
X219361819Y-153738562D01*
X219351227Y-153773477D01*
X219334022Y-153805665D01*
X219310873Y-153833873D01*
X219282665Y-153857022D01*
X219250477Y-153874227D01*
X219215562Y-153884819D01*
X219173105Y-153889000D01*
X217706895Y-153889000D01*
X217664438Y-153884819D01*
X217629523Y-153874227D01*
X217597335Y-153857022D01*
X217569127Y-153833873D01*
X217545978Y-153805665D01*
X217528773Y-153773477D01*
X217518181Y-153738562D01*
X217514000Y-153696105D01*
X217514000Y-152554895D01*
X217518181Y-152512438D01*
X217528773Y-152477523D01*
X217545978Y-152445335D01*
X217569127Y-152417127D01*
X217597335Y-152393978D01*
X217629523Y-152376773D01*
X217664438Y-152366181D01*
X217706895Y-152362000D01*
X219173105Y-152362000D01*
X219215562Y-152366181D01*
X219215562Y-152366181D01*
G37*
G36*
X191372499Y-152703445D02*
X191409993Y-152714819D01*
X191444557Y-152733294D01*
X191474847Y-152758153D01*
X191499706Y-152788443D01*
X191518181Y-152823007D01*
X191529555Y-152860501D01*
X191534000Y-152905638D01*
X191534000Y-153644362D01*
X191529555Y-153689499D01*
X191518181Y-153726993D01*
X191499706Y-153761557D01*
X191474847Y-153791847D01*
X191444557Y-153816706D01*
X191409993Y-153835181D01*
X191372499Y-153846555D01*
X191327362Y-153851000D01*
X190688638Y-153851000D01*
X190643501Y-153846555D01*
X190606007Y-153835181D01*
X190571443Y-153816706D01*
X190541153Y-153791847D01*
X190516294Y-153761557D01*
X190497819Y-153726993D01*
X190486445Y-153689499D01*
X190482000Y-153644362D01*
X190482000Y-152905638D01*
X190486445Y-152860501D01*
X190497819Y-152823007D01*
X190516294Y-152788443D01*
X190541153Y-152758153D01*
X190571443Y-152733294D01*
X190606007Y-152714819D01*
X190643501Y-152703445D01*
X190688638Y-152699000D01*
X191327362Y-152699000D01*
X191372499Y-152703445D01*
X191372499Y-152703445D01*
G37*
G36*
X188832499Y-152703445D02*
X188869993Y-152714819D01*
X188904557Y-152733294D01*
X188934847Y-152758153D01*
X188959706Y-152788443D01*
X188978181Y-152823007D01*
X188989555Y-152860501D01*
X188994000Y-152905638D01*
X188994000Y-153644362D01*
X188989555Y-153689499D01*
X188978181Y-153726993D01*
X188959706Y-153761557D01*
X188934847Y-153791847D01*
X188904557Y-153816706D01*
X188869993Y-153835181D01*
X188832499Y-153846555D01*
X188787362Y-153851000D01*
X188148638Y-153851000D01*
X188103501Y-153846555D01*
X188066007Y-153835181D01*
X188031443Y-153816706D01*
X188001153Y-153791847D01*
X187976294Y-153761557D01*
X187957819Y-153726993D01*
X187946445Y-153689499D01*
X187942000Y-153644362D01*
X187942000Y-152905638D01*
X187946445Y-152860501D01*
X187957819Y-152823007D01*
X187976294Y-152788443D01*
X188001153Y-152758153D01*
X188031443Y-152733294D01*
X188066007Y-152714819D01*
X188103501Y-152703445D01*
X188148638Y-152699000D01*
X188787362Y-152699000D01*
X188832499Y-152703445D01*
X188832499Y-152703445D01*
G37*
G36*
X216518499Y-152449445D02*
X216555993Y-152460819D01*
X216590557Y-152479294D01*
X216620847Y-152504153D01*
X216645706Y-152534443D01*
X216664181Y-152569007D01*
X216675555Y-152606501D01*
X216680000Y-152651638D01*
X216680000Y-153390362D01*
X216675555Y-153435499D01*
X216664181Y-153472993D01*
X216645706Y-153507557D01*
X216620847Y-153537847D01*
X216590557Y-153562706D01*
X216555993Y-153581181D01*
X216518499Y-153592555D01*
X216473362Y-153597000D01*
X215834638Y-153597000D01*
X215789501Y-153592555D01*
X215752007Y-153581181D01*
X215717443Y-153562706D01*
X215687153Y-153537847D01*
X215662294Y-153507557D01*
X215643819Y-153472993D01*
X215632445Y-153435499D01*
X215628000Y-153390362D01*
X215628000Y-152651638D01*
X215632445Y-152606501D01*
X215643819Y-152569007D01*
X215662294Y-152534443D01*
X215687153Y-152504153D01*
X215717443Y-152479294D01*
X215752007Y-152460819D01*
X215789501Y-152449445D01*
X215834638Y-152445000D01*
X216473362Y-152445000D01*
X216518499Y-152449445D01*
X216518499Y-152449445D01*
G37*
G36*
X214486499Y-152449445D02*
X214523993Y-152460819D01*
X214558557Y-152479294D01*
X214588847Y-152504153D01*
X214613706Y-152534443D01*
X214632181Y-152569007D01*
X214643555Y-152606501D01*
X214648000Y-152651638D01*
X214648000Y-153390362D01*
X214643555Y-153435499D01*
X214632181Y-153472993D01*
X214613706Y-153507557D01*
X214588847Y-153537847D01*
X214558557Y-153562706D01*
X214523993Y-153581181D01*
X214486499Y-153592555D01*
X214441362Y-153597000D01*
X213802638Y-153597000D01*
X213757501Y-153592555D01*
X213720007Y-153581181D01*
X213685443Y-153562706D01*
X213655153Y-153537847D01*
X213630294Y-153507557D01*
X213611819Y-153472993D01*
X213600445Y-153435499D01*
X213596000Y-153390362D01*
X213596000Y-152651638D01*
X213600445Y-152606501D01*
X213611819Y-152569007D01*
X213630294Y-152534443D01*
X213655153Y-152504153D01*
X213685443Y-152479294D01*
X213720007Y-152460819D01*
X213757501Y-152449445D01*
X213802638Y-152445000D01*
X214441362Y-152445000D01*
X214486499Y-152449445D01*
X214486499Y-152449445D01*
G37*
G36*
X237236000Y-153416000D02*
X232156000Y-153416000D01*
X232156000Y-145161000D01*
X237236000Y-145161000D01*
X237236000Y-153416000D01*
X237236000Y-153416000D01*
G37*
G36*
X188832499Y-150953445D02*
X188869993Y-150964819D01*
X188904557Y-150983294D01*
X188934847Y-151008153D01*
X188959706Y-151038443D01*
X188978181Y-151073007D01*
X188989555Y-151110501D01*
X188994000Y-151155638D01*
X188994000Y-151894362D01*
X188989555Y-151939499D01*
X188978181Y-151976993D01*
X188959706Y-152011557D01*
X188934847Y-152041847D01*
X188904557Y-152066706D01*
X188869993Y-152085181D01*
X188832499Y-152096555D01*
X188787362Y-152101000D01*
X188148638Y-152101000D01*
X188103501Y-152096555D01*
X188066007Y-152085181D01*
X188031443Y-152066706D01*
X188001153Y-152041847D01*
X187976294Y-152011557D01*
X187957819Y-151976993D01*
X187946445Y-151939499D01*
X187942000Y-151894362D01*
X187942000Y-151155638D01*
X187946445Y-151110501D01*
X187957819Y-151073007D01*
X187976294Y-151038443D01*
X188001153Y-151008153D01*
X188031443Y-150983294D01*
X188066007Y-150964819D01*
X188103501Y-150953445D01*
X188148638Y-150949000D01*
X188787362Y-150949000D01*
X188832499Y-150953445D01*
X188832499Y-150953445D01*
G37*
G36*
X191372499Y-150953445D02*
X191409993Y-150964819D01*
X191444557Y-150983294D01*
X191474847Y-151008153D01*
X191499706Y-151038443D01*
X191518181Y-151073007D01*
X191529555Y-151110501D01*
X191534000Y-151155638D01*
X191534000Y-151894362D01*
X191529555Y-151939499D01*
X191518181Y-151976993D01*
X191499706Y-152011557D01*
X191474847Y-152041847D01*
X191444557Y-152066706D01*
X191409993Y-152085181D01*
X191372499Y-152096555D01*
X191327362Y-152101000D01*
X190688638Y-152101000D01*
X190643501Y-152096555D01*
X190606007Y-152085181D01*
X190571443Y-152066706D01*
X190541153Y-152041847D01*
X190516294Y-152011557D01*
X190497819Y-151976993D01*
X190486445Y-151939499D01*
X190482000Y-151894362D01*
X190482000Y-151155638D01*
X190486445Y-151110501D01*
X190497819Y-151073007D01*
X190516294Y-151038443D01*
X190541153Y-151008153D01*
X190571443Y-150983294D01*
X190606007Y-150964819D01*
X190643501Y-150953445D01*
X190688638Y-150949000D01*
X191327362Y-150949000D01*
X191372499Y-150953445D01*
X191372499Y-150953445D01*
G37*
G36*
X216518499Y-150699445D02*
X216555993Y-150710819D01*
X216590557Y-150729294D01*
X216620847Y-150754153D01*
X216645706Y-150784443D01*
X216664181Y-150819007D01*
X216675555Y-150856501D01*
X216680000Y-150901638D01*
X216680000Y-151640362D01*
X216675555Y-151685499D01*
X216664181Y-151722993D01*
X216645706Y-151757557D01*
X216620847Y-151787847D01*
X216590557Y-151812706D01*
X216555993Y-151831181D01*
X216518499Y-151842555D01*
X216473362Y-151847000D01*
X215834638Y-151847000D01*
X215789501Y-151842555D01*
X215752007Y-151831181D01*
X215717443Y-151812706D01*
X215687153Y-151787847D01*
X215662294Y-151757557D01*
X215643819Y-151722993D01*
X215632445Y-151685499D01*
X215628000Y-151640362D01*
X215628000Y-150901638D01*
X215632445Y-150856501D01*
X215643819Y-150819007D01*
X215662294Y-150784443D01*
X215687153Y-150754153D01*
X215717443Y-150729294D01*
X215752007Y-150710819D01*
X215789501Y-150699445D01*
X215834638Y-150695000D01*
X216473362Y-150695000D01*
X216518499Y-150699445D01*
X216518499Y-150699445D01*
G37*
G36*
X214486499Y-150699445D02*
X214523993Y-150710819D01*
X214558557Y-150729294D01*
X214588847Y-150754153D01*
X214613706Y-150784443D01*
X214632181Y-150819007D01*
X214643555Y-150856501D01*
X214648000Y-150901638D01*
X214648000Y-151640362D01*
X214643555Y-151685499D01*
X214632181Y-151722993D01*
X214613706Y-151757557D01*
X214588847Y-151787847D01*
X214558557Y-151812706D01*
X214523993Y-151831181D01*
X214486499Y-151842555D01*
X214441362Y-151847000D01*
X213802638Y-151847000D01*
X213757501Y-151842555D01*
X213720007Y-151831181D01*
X213685443Y-151812706D01*
X213655153Y-151787847D01*
X213630294Y-151757557D01*
X213611819Y-151722993D01*
X213600445Y-151685499D01*
X213596000Y-151640362D01*
X213596000Y-150901638D01*
X213600445Y-150856501D01*
X213611819Y-150819007D01*
X213630294Y-150784443D01*
X213655153Y-150754153D01*
X213685443Y-150729294D01*
X213720007Y-150710819D01*
X213757501Y-150699445D01*
X213802638Y-150695000D01*
X214441362Y-150695000D01*
X214486499Y-150699445D01*
X214486499Y-150699445D01*
G37*
G36*
X219215562Y-149391181D02*
X219250477Y-149401773D01*
X219282665Y-149418978D01*
X219310873Y-149442127D01*
X219334022Y-149470335D01*
X219351227Y-149502523D01*
X219361819Y-149537438D01*
X219366000Y-149579895D01*
X219366000Y-150721105D01*
X219361819Y-150763562D01*
X219351227Y-150798477D01*
X219334022Y-150830665D01*
X219310873Y-150858873D01*
X219282665Y-150882022D01*
X219250477Y-150899227D01*
X219215562Y-150909819D01*
X219173105Y-150914000D01*
X217706895Y-150914000D01*
X217664438Y-150909819D01*
X217629523Y-150899227D01*
X217597335Y-150882022D01*
X217569127Y-150858873D01*
X217545978Y-150830665D01*
X217528773Y-150798477D01*
X217518181Y-150763562D01*
X217514000Y-150721105D01*
X217514000Y-149579895D01*
X217518181Y-149537438D01*
X217528773Y-149502523D01*
X217545978Y-149470335D01*
X217569127Y-149442127D01*
X217597335Y-149418978D01*
X217629523Y-149401773D01*
X217664438Y-149391181D01*
X217706895Y-149387000D01*
X219173105Y-149387000D01*
X219215562Y-149391181D01*
X219215562Y-149391181D01*
G37*
G36*
X188832499Y-148893445D02*
X188869993Y-148904819D01*
X188904557Y-148923294D01*
X188934847Y-148948153D01*
X188959706Y-148978443D01*
X188978181Y-149013007D01*
X188989555Y-149050501D01*
X188994000Y-149095638D01*
X188994000Y-149834362D01*
X188989555Y-149879499D01*
X188978181Y-149916993D01*
X188959706Y-149951557D01*
X188934847Y-149981847D01*
X188904557Y-150006706D01*
X188869993Y-150025181D01*
X188832499Y-150036555D01*
X188787362Y-150041000D01*
X188148638Y-150041000D01*
X188103501Y-150036555D01*
X188066007Y-150025181D01*
X188031443Y-150006706D01*
X188001153Y-149981847D01*
X187976294Y-149951557D01*
X187957819Y-149916993D01*
X187946445Y-149879499D01*
X187942000Y-149834362D01*
X187942000Y-149095638D01*
X187946445Y-149050501D01*
X187957819Y-149013007D01*
X187976294Y-148978443D01*
X188001153Y-148948153D01*
X188031443Y-148923294D01*
X188066007Y-148904819D01*
X188103501Y-148893445D01*
X188148638Y-148889000D01*
X188787362Y-148889000D01*
X188832499Y-148893445D01*
X188832499Y-148893445D01*
G37*
G36*
X191372499Y-148893445D02*
X191409993Y-148904819D01*
X191444557Y-148923294D01*
X191474847Y-148948153D01*
X191499706Y-148978443D01*
X191518181Y-149013007D01*
X191529555Y-149050501D01*
X191534000Y-149095638D01*
X191534000Y-149834362D01*
X191529555Y-149879499D01*
X191518181Y-149916993D01*
X191499706Y-149951557D01*
X191474847Y-149981847D01*
X191444557Y-150006706D01*
X191409993Y-150025181D01*
X191372499Y-150036555D01*
X191327362Y-150041000D01*
X190688638Y-150041000D01*
X190643501Y-150036555D01*
X190606007Y-150025181D01*
X190571443Y-150006706D01*
X190541153Y-149981847D01*
X190516294Y-149951557D01*
X190497819Y-149916993D01*
X190486445Y-149879499D01*
X190482000Y-149834362D01*
X190482000Y-149095638D01*
X190486445Y-149050501D01*
X190497819Y-149013007D01*
X190516294Y-148978443D01*
X190541153Y-148948153D01*
X190571443Y-148923294D01*
X190606007Y-148904819D01*
X190643501Y-148893445D01*
X190688638Y-148889000D01*
X191327362Y-148889000D01*
X191372499Y-148893445D01*
X191372499Y-148893445D01*
G37*
G36*
X219215562Y-147032181D02*
X219250477Y-147042773D01*
X219282665Y-147059978D01*
X219310873Y-147083127D01*
X219334022Y-147111335D01*
X219351227Y-147143523D01*
X219361819Y-147178438D01*
X219366000Y-147220895D01*
X219366000Y-148362105D01*
X219361819Y-148404562D01*
X219351227Y-148439477D01*
X219334022Y-148471665D01*
X219310873Y-148499873D01*
X219282665Y-148523022D01*
X219250477Y-148540227D01*
X219215562Y-148550819D01*
X219173105Y-148555000D01*
X217706895Y-148555000D01*
X217664438Y-148550819D01*
X217629523Y-148540227D01*
X217597335Y-148523022D01*
X217569127Y-148499873D01*
X217545978Y-148471665D01*
X217528773Y-148439477D01*
X217518181Y-148404562D01*
X217514000Y-148362105D01*
X217514000Y-147220895D01*
X217518181Y-147178438D01*
X217528773Y-147143523D01*
X217545978Y-147111335D01*
X217569127Y-147083127D01*
X217597335Y-147059978D01*
X217629523Y-147042773D01*
X217664438Y-147032181D01*
X217706895Y-147028000D01*
X219173105Y-147028000D01*
X219215562Y-147032181D01*
X219215562Y-147032181D01*
G37*
G36*
X191372499Y-147143445D02*
X191409993Y-147154819D01*
X191444557Y-147173294D01*
X191474847Y-147198153D01*
X191499706Y-147228443D01*
X191518181Y-147263007D01*
X191529555Y-147300501D01*
X191534000Y-147345638D01*
X191534000Y-148084362D01*
X191529555Y-148129499D01*
X191518181Y-148166993D01*
X191499706Y-148201557D01*
X191474847Y-148231847D01*
X191444557Y-148256706D01*
X191409993Y-148275181D01*
X191372499Y-148286555D01*
X191327362Y-148291000D01*
X190688638Y-148291000D01*
X190643501Y-148286555D01*
X190606007Y-148275181D01*
X190571443Y-148256706D01*
X190541153Y-148231847D01*
X190516294Y-148201557D01*
X190497819Y-148166993D01*
X190486445Y-148129499D01*
X190482000Y-148084362D01*
X190482000Y-147345638D01*
X190486445Y-147300501D01*
X190497819Y-147263007D01*
X190516294Y-147228443D01*
X190541153Y-147198153D01*
X190571443Y-147173294D01*
X190606007Y-147154819D01*
X190643501Y-147143445D01*
X190688638Y-147139000D01*
X191327362Y-147139000D01*
X191372499Y-147143445D01*
X191372499Y-147143445D01*
G37*
G36*
X188832499Y-147143445D02*
X188869993Y-147154819D01*
X188904557Y-147173294D01*
X188934847Y-147198153D01*
X188959706Y-147228443D01*
X188978181Y-147263007D01*
X188989555Y-147300501D01*
X188994000Y-147345638D01*
X188994000Y-148084362D01*
X188989555Y-148129499D01*
X188978181Y-148166993D01*
X188959706Y-148201557D01*
X188934847Y-148231847D01*
X188904557Y-148256706D01*
X188869993Y-148275181D01*
X188832499Y-148286555D01*
X188787362Y-148291000D01*
X188148638Y-148291000D01*
X188103501Y-148286555D01*
X188066007Y-148275181D01*
X188031443Y-148256706D01*
X188001153Y-148231847D01*
X187976294Y-148201557D01*
X187957819Y-148166993D01*
X187946445Y-148129499D01*
X187942000Y-148084362D01*
X187942000Y-147345638D01*
X187946445Y-147300501D01*
X187957819Y-147263007D01*
X187976294Y-147228443D01*
X188001153Y-147198153D01*
X188031443Y-147173294D01*
X188066007Y-147154819D01*
X188103501Y-147143445D01*
X188148638Y-147139000D01*
X188787362Y-147139000D01*
X188832499Y-147143445D01*
X188832499Y-147143445D01*
G37*
G36*
X208299499Y-146544445D02*
X208336993Y-146555819D01*
X208371557Y-146574294D01*
X208401847Y-146599153D01*
X208426706Y-146629443D01*
X208445181Y-146664007D01*
X208456555Y-146701501D01*
X208461000Y-146746638D01*
X208461000Y-147385362D01*
X208456555Y-147430499D01*
X208445181Y-147467993D01*
X208426706Y-147502557D01*
X208401847Y-147532847D01*
X208371557Y-147557706D01*
X208336993Y-147576181D01*
X208299499Y-147587555D01*
X208254362Y-147592000D01*
X207515638Y-147592000D01*
X207470501Y-147587555D01*
X207433007Y-147576181D01*
X207398443Y-147557706D01*
X207368153Y-147532847D01*
X207343294Y-147502557D01*
X207324819Y-147467993D01*
X207313445Y-147430499D01*
X207309000Y-147385362D01*
X207309000Y-146746638D01*
X207313445Y-146701501D01*
X207324819Y-146664007D01*
X207343294Y-146629443D01*
X207368153Y-146599153D01*
X207398443Y-146574294D01*
X207433007Y-146555819D01*
X207470501Y-146544445D01*
X207515638Y-146540000D01*
X208254362Y-146540000D01*
X208299499Y-146544445D01*
X208299499Y-146544445D01*
G37*
G36*
X206549499Y-146544445D02*
X206586993Y-146555819D01*
X206621557Y-146574294D01*
X206651847Y-146599153D01*
X206676706Y-146629443D01*
X206695181Y-146664007D01*
X206706555Y-146701501D01*
X206711000Y-146746638D01*
X206711000Y-147385362D01*
X206706555Y-147430499D01*
X206695181Y-147467993D01*
X206676706Y-147502557D01*
X206651847Y-147532847D01*
X206621557Y-147557706D01*
X206586993Y-147576181D01*
X206549499Y-147587555D01*
X206504362Y-147592000D01*
X205765638Y-147592000D01*
X205720501Y-147587555D01*
X205683007Y-147576181D01*
X205648443Y-147557706D01*
X205618153Y-147532847D01*
X205593294Y-147502557D01*
X205574819Y-147467993D01*
X205563445Y-147430499D01*
X205559000Y-147385362D01*
X205559000Y-146746638D01*
X205563445Y-146701501D01*
X205574819Y-146664007D01*
X205593294Y-146629443D01*
X205618153Y-146599153D01*
X205648443Y-146574294D01*
X205683007Y-146555819D01*
X205720501Y-146544445D01*
X205765638Y-146540000D01*
X206504362Y-146540000D01*
X206549499Y-146544445D01*
X206549499Y-146544445D01*
G37*
G36*
X200008499Y-145845445D02*
X200045993Y-145856819D01*
X200080557Y-145875294D01*
X200110847Y-145900153D01*
X200135706Y-145930443D01*
X200154181Y-145965007D01*
X200165555Y-146002501D01*
X200170000Y-146047638D01*
X200170000Y-146786362D01*
X200165555Y-146831499D01*
X200154181Y-146868993D01*
X200135706Y-146903557D01*
X200110847Y-146933847D01*
X200080557Y-146958706D01*
X200045993Y-146977181D01*
X200008499Y-146988555D01*
X199963362Y-146993000D01*
X199324638Y-146993000D01*
X199279501Y-146988555D01*
X199242007Y-146977181D01*
X199207443Y-146958706D01*
X199177153Y-146933847D01*
X199152294Y-146903557D01*
X199133819Y-146868993D01*
X199122445Y-146831499D01*
X199118000Y-146786362D01*
X199118000Y-146047638D01*
X199122445Y-146002501D01*
X199133819Y-145965007D01*
X199152294Y-145930443D01*
X199177153Y-145900153D01*
X199207443Y-145875294D01*
X199242007Y-145856819D01*
X199279501Y-145845445D01*
X199324638Y-145841000D01*
X199963362Y-145841000D01*
X200008499Y-145845445D01*
X200008499Y-145845445D01*
G37*
G36*
X214486499Y-145845445D02*
X214523993Y-145856819D01*
X214558557Y-145875294D01*
X214588847Y-145900153D01*
X214613706Y-145930443D01*
X214632181Y-145965007D01*
X214643555Y-146002501D01*
X214648000Y-146047638D01*
X214648000Y-146786362D01*
X214643555Y-146831499D01*
X214632181Y-146868993D01*
X214613706Y-146903557D01*
X214588847Y-146933847D01*
X214558557Y-146958706D01*
X214523993Y-146977181D01*
X214486499Y-146988555D01*
X214441362Y-146993000D01*
X213802638Y-146993000D01*
X213757501Y-146988555D01*
X213720007Y-146977181D01*
X213685443Y-146958706D01*
X213655153Y-146933847D01*
X213630294Y-146903557D01*
X213611819Y-146868993D01*
X213600445Y-146831499D01*
X213596000Y-146786362D01*
X213596000Y-146047638D01*
X213600445Y-146002501D01*
X213611819Y-145965007D01*
X213630294Y-145930443D01*
X213655153Y-145900153D01*
X213685443Y-145875294D01*
X213720007Y-145856819D01*
X213757501Y-145845445D01*
X213802638Y-145841000D01*
X214441362Y-145841000D01*
X214486499Y-145845445D01*
X214486499Y-145845445D01*
G37*
G36*
X216518499Y-145845445D02*
X216555993Y-145856819D01*
X216590557Y-145875294D01*
X216620847Y-145900153D01*
X216645706Y-145930443D01*
X216664181Y-145965007D01*
X216675555Y-146002501D01*
X216680000Y-146047638D01*
X216680000Y-146786362D01*
X216675555Y-146831499D01*
X216664181Y-146868993D01*
X216645706Y-146903557D01*
X216620847Y-146933847D01*
X216590557Y-146958706D01*
X216555993Y-146977181D01*
X216518499Y-146988555D01*
X216473362Y-146993000D01*
X215834638Y-146993000D01*
X215789501Y-146988555D01*
X215752007Y-146977181D01*
X215717443Y-146958706D01*
X215687153Y-146933847D01*
X215662294Y-146903557D01*
X215643819Y-146868993D01*
X215632445Y-146831499D01*
X215628000Y-146786362D01*
X215628000Y-146047638D01*
X215632445Y-146002501D01*
X215643819Y-145965007D01*
X215662294Y-145930443D01*
X215687153Y-145900153D01*
X215717443Y-145875294D01*
X215752007Y-145856819D01*
X215789501Y-145845445D01*
X215834638Y-145841000D01*
X216473362Y-145841000D01*
X216518499Y-145845445D01*
X216518499Y-145845445D01*
G37*
G36*
X188741499Y-145020445D02*
X188778993Y-145031819D01*
X188813557Y-145050294D01*
X188843847Y-145075153D01*
X188868706Y-145105443D01*
X188887181Y-145140007D01*
X188898555Y-145177501D01*
X188903000Y-145222638D01*
X188903000Y-145861362D01*
X188898555Y-145906499D01*
X188887181Y-145943993D01*
X188868706Y-145978557D01*
X188843847Y-146008847D01*
X188813557Y-146033706D01*
X188778993Y-146052181D01*
X188741499Y-146063555D01*
X188696362Y-146068000D01*
X187957638Y-146068000D01*
X187912501Y-146063555D01*
X187875007Y-146052181D01*
X187840443Y-146033706D01*
X187810153Y-146008847D01*
X187785294Y-145978557D01*
X187766819Y-145943993D01*
X187755445Y-145906499D01*
X187751000Y-145861362D01*
X187751000Y-145222638D01*
X187755445Y-145177501D01*
X187766819Y-145140007D01*
X187785294Y-145105443D01*
X187810153Y-145075153D01*
X187840443Y-145050294D01*
X187875007Y-145031819D01*
X187912501Y-145020445D01*
X187957638Y-145016000D01*
X188696362Y-145016000D01*
X188741499Y-145020445D01*
X188741499Y-145020445D01*
G37*
G36*
X186991499Y-145020445D02*
X187028993Y-145031819D01*
X187063557Y-145050294D01*
X187093847Y-145075153D01*
X187118706Y-145105443D01*
X187137181Y-145140007D01*
X187148555Y-145177501D01*
X187153000Y-145222638D01*
X187153000Y-145861362D01*
X187148555Y-145906499D01*
X187137181Y-145943993D01*
X187118706Y-145978557D01*
X187093847Y-146008847D01*
X187063557Y-146033706D01*
X187028993Y-146052181D01*
X186991499Y-146063555D01*
X186946362Y-146068000D01*
X186207638Y-146068000D01*
X186162501Y-146063555D01*
X186125007Y-146052181D01*
X186090443Y-146033706D01*
X186060153Y-146008847D01*
X186035294Y-145978557D01*
X186016819Y-145943993D01*
X186005445Y-145906499D01*
X186001000Y-145861362D01*
X186001000Y-145222638D01*
X186005445Y-145177501D01*
X186016819Y-145140007D01*
X186035294Y-145105443D01*
X186060153Y-145075153D01*
X186090443Y-145050294D01*
X186125007Y-145031819D01*
X186162501Y-145020445D01*
X186207638Y-145016000D01*
X186946362Y-145016000D01*
X186991499Y-145020445D01*
X186991499Y-145020445D01*
G37*
G36*
X208299499Y-144766445D02*
X208336993Y-144777819D01*
X208371557Y-144796294D01*
X208401847Y-144821153D01*
X208426706Y-144851443D01*
X208445181Y-144886007D01*
X208456555Y-144923501D01*
X208461000Y-144968638D01*
X208461000Y-145607362D01*
X208456555Y-145652499D01*
X208445181Y-145689993D01*
X208426706Y-145724557D01*
X208401847Y-145754847D01*
X208371557Y-145779706D01*
X208336993Y-145798181D01*
X208299499Y-145809555D01*
X208254362Y-145814000D01*
X207515638Y-145814000D01*
X207470501Y-145809555D01*
X207433007Y-145798181D01*
X207398443Y-145779706D01*
X207368153Y-145754847D01*
X207343294Y-145724557D01*
X207324819Y-145689993D01*
X207313445Y-145652499D01*
X207309000Y-145607362D01*
X207309000Y-144968638D01*
X207313445Y-144923501D01*
X207324819Y-144886007D01*
X207343294Y-144851443D01*
X207368153Y-144821153D01*
X207398443Y-144796294D01*
X207433007Y-144777819D01*
X207470501Y-144766445D01*
X207515638Y-144762000D01*
X208254362Y-144762000D01*
X208299499Y-144766445D01*
X208299499Y-144766445D01*
G37*
G36*
X206549499Y-144766445D02*
X206586993Y-144777819D01*
X206621557Y-144796294D01*
X206651847Y-144821153D01*
X206676706Y-144851443D01*
X206695181Y-144886007D01*
X206706555Y-144923501D01*
X206711000Y-144968638D01*
X206711000Y-145607362D01*
X206706555Y-145652499D01*
X206695181Y-145689993D01*
X206676706Y-145724557D01*
X206651847Y-145754847D01*
X206621557Y-145779706D01*
X206586993Y-145798181D01*
X206549499Y-145809555D01*
X206504362Y-145814000D01*
X205765638Y-145814000D01*
X205720501Y-145809555D01*
X205683007Y-145798181D01*
X205648443Y-145779706D01*
X205618153Y-145754847D01*
X205593294Y-145724557D01*
X205574819Y-145689993D01*
X205563445Y-145652499D01*
X205559000Y-145607362D01*
X205559000Y-144968638D01*
X205563445Y-144923501D01*
X205574819Y-144886007D01*
X205593294Y-144851443D01*
X205618153Y-144821153D01*
X205648443Y-144796294D01*
X205683007Y-144777819D01*
X205720501Y-144766445D01*
X205765638Y-144762000D01*
X206504362Y-144762000D01*
X206549499Y-144766445D01*
X206549499Y-144766445D01*
G37*
G36*
X219215562Y-144057181D02*
X219250477Y-144067773D01*
X219282665Y-144084978D01*
X219310873Y-144108127D01*
X219334022Y-144136335D01*
X219351227Y-144168523D01*
X219361819Y-144203438D01*
X219366000Y-144245895D01*
X219366000Y-145387105D01*
X219361819Y-145429562D01*
X219351227Y-145464477D01*
X219334022Y-145496665D01*
X219310873Y-145524873D01*
X219282665Y-145548022D01*
X219250477Y-145565227D01*
X219215562Y-145575819D01*
X219173105Y-145580000D01*
X217706895Y-145580000D01*
X217664438Y-145575819D01*
X217629523Y-145565227D01*
X217597335Y-145548022D01*
X217569127Y-145524873D01*
X217545978Y-145496665D01*
X217528773Y-145464477D01*
X217518181Y-145429562D01*
X217514000Y-145387105D01*
X217514000Y-144245895D01*
X217518181Y-144203438D01*
X217528773Y-144168523D01*
X217545978Y-144136335D01*
X217569127Y-144108127D01*
X217597335Y-144084978D01*
X217629523Y-144067773D01*
X217664438Y-144057181D01*
X217706895Y-144053000D01*
X219173105Y-144053000D01*
X219215562Y-144057181D01*
X219215562Y-144057181D01*
G37*
G36*
X182936000Y-145427000D02*
X182184000Y-145427000D01*
X182184000Y-143625000D01*
X182936000Y-143625000D01*
X182936000Y-145427000D01*
X182936000Y-145427000D01*
G37*
G36*
X181036000Y-145427000D02*
X180284000Y-145427000D01*
X180284000Y-143625000D01*
X181036000Y-143625000D01*
X181036000Y-145427000D01*
X181036000Y-145427000D01*
G37*
G36*
X216518499Y-144095445D02*
X216555993Y-144106819D01*
X216590557Y-144125294D01*
X216620847Y-144150153D01*
X216645706Y-144180443D01*
X216664181Y-144215007D01*
X216675555Y-144252501D01*
X216680000Y-144297638D01*
X216680000Y-145036362D01*
X216675555Y-145081499D01*
X216664181Y-145118993D01*
X216645706Y-145153557D01*
X216620847Y-145183847D01*
X216590557Y-145208706D01*
X216555993Y-145227181D01*
X216518499Y-145238555D01*
X216473362Y-145243000D01*
X215834638Y-145243000D01*
X215789501Y-145238555D01*
X215752007Y-145227181D01*
X215717443Y-145208706D01*
X215687153Y-145183847D01*
X215662294Y-145153557D01*
X215643819Y-145118993D01*
X215632445Y-145081499D01*
X215628000Y-145036362D01*
X215628000Y-144297638D01*
X215632445Y-144252501D01*
X215643819Y-144215007D01*
X215662294Y-144180443D01*
X215687153Y-144150153D01*
X215717443Y-144125294D01*
X215752007Y-144106819D01*
X215789501Y-144095445D01*
X215834638Y-144091000D01*
X216473362Y-144091000D01*
X216518499Y-144095445D01*
X216518499Y-144095445D01*
G37*
G36*
X214486499Y-144095445D02*
X214523993Y-144106819D01*
X214558557Y-144125294D01*
X214588847Y-144150153D01*
X214613706Y-144180443D01*
X214632181Y-144215007D01*
X214643555Y-144252501D01*
X214648000Y-144297638D01*
X214648000Y-145036362D01*
X214643555Y-145081499D01*
X214632181Y-145118993D01*
X214613706Y-145153557D01*
X214588847Y-145183847D01*
X214558557Y-145208706D01*
X214523993Y-145227181D01*
X214486499Y-145238555D01*
X214441362Y-145243000D01*
X213802638Y-145243000D01*
X213757501Y-145238555D01*
X213720007Y-145227181D01*
X213685443Y-145208706D01*
X213655153Y-145183847D01*
X213630294Y-145153557D01*
X213611819Y-145118993D01*
X213600445Y-145081499D01*
X213596000Y-145036362D01*
X213596000Y-144297638D01*
X213600445Y-144252501D01*
X213611819Y-144215007D01*
X213630294Y-144180443D01*
X213655153Y-144150153D01*
X213685443Y-144125294D01*
X213720007Y-144106819D01*
X213757501Y-144095445D01*
X213802638Y-144091000D01*
X214441362Y-144091000D01*
X214486499Y-144095445D01*
X214486499Y-144095445D01*
G37*
G36*
X200008499Y-144095445D02*
X200045993Y-144106819D01*
X200080557Y-144125294D01*
X200110847Y-144150153D01*
X200135706Y-144180443D01*
X200154181Y-144215007D01*
X200165555Y-144252501D01*
X200170000Y-144297638D01*
X200170000Y-145036362D01*
X200165555Y-145081499D01*
X200154181Y-145118993D01*
X200135706Y-145153557D01*
X200110847Y-145183847D01*
X200080557Y-145208706D01*
X200045993Y-145227181D01*
X200008499Y-145238555D01*
X199963362Y-145243000D01*
X199324638Y-145243000D01*
X199279501Y-145238555D01*
X199242007Y-145227181D01*
X199207443Y-145208706D01*
X199177153Y-145183847D01*
X199152294Y-145153557D01*
X199133819Y-145118993D01*
X199122445Y-145081499D01*
X199118000Y-145036362D01*
X199118000Y-144297638D01*
X199122445Y-144252501D01*
X199133819Y-144215007D01*
X199152294Y-144180443D01*
X199177153Y-144150153D01*
X199207443Y-144125294D01*
X199242007Y-144106819D01*
X199279501Y-144095445D01*
X199324638Y-144091000D01*
X199963362Y-144091000D01*
X200008499Y-144095445D01*
X200008499Y-144095445D01*
G37*
G36*
X186991499Y-142988445D02*
X187028993Y-142999819D01*
X187063557Y-143018294D01*
X187093847Y-143043153D01*
X187118706Y-143073443D01*
X187137181Y-143108007D01*
X187148555Y-143145501D01*
X187153000Y-143190638D01*
X187153000Y-143829362D01*
X187148555Y-143874499D01*
X187137181Y-143911993D01*
X187118706Y-143946557D01*
X187093847Y-143976847D01*
X187063557Y-144001706D01*
X187028993Y-144020181D01*
X186991499Y-144031555D01*
X186946362Y-144036000D01*
X186207638Y-144036000D01*
X186162501Y-144031555D01*
X186125007Y-144020181D01*
X186090443Y-144001706D01*
X186060153Y-143976847D01*
X186035294Y-143946557D01*
X186016819Y-143911993D01*
X186005445Y-143874499D01*
X186001000Y-143829362D01*
X186001000Y-143190638D01*
X186005445Y-143145501D01*
X186016819Y-143108007D01*
X186035294Y-143073443D01*
X186060153Y-143043153D01*
X186090443Y-143018294D01*
X186125007Y-142999819D01*
X186162501Y-142988445D01*
X186207638Y-142984000D01*
X186946362Y-142984000D01*
X186991499Y-142988445D01*
X186991499Y-142988445D01*
G37*
G36*
X188741499Y-142988445D02*
X188778993Y-142999819D01*
X188813557Y-143018294D01*
X188843847Y-143043153D01*
X188868706Y-143073443D01*
X188887181Y-143108007D01*
X188898555Y-143145501D01*
X188903000Y-143190638D01*
X188903000Y-143829362D01*
X188898555Y-143874499D01*
X188887181Y-143911993D01*
X188868706Y-143946557D01*
X188843847Y-143976847D01*
X188813557Y-144001706D01*
X188778993Y-144020181D01*
X188741499Y-144031555D01*
X188696362Y-144036000D01*
X187957638Y-144036000D01*
X187912501Y-144031555D01*
X187875007Y-144020181D01*
X187840443Y-144001706D01*
X187810153Y-143976847D01*
X187785294Y-143946557D01*
X187766819Y-143911993D01*
X187755445Y-143874499D01*
X187751000Y-143829362D01*
X187751000Y-143190638D01*
X187755445Y-143145501D01*
X187766819Y-143108007D01*
X187785294Y-143073443D01*
X187810153Y-143043153D01*
X187840443Y-143018294D01*
X187875007Y-142999819D01*
X187912501Y-142988445D01*
X187957638Y-142984000D01*
X188696362Y-142984000D01*
X188741499Y-142988445D01*
X188741499Y-142988445D01*
G37*
G36*
X191936821Y-140385313D02*
X191936824Y-140385314D01*
X191936825Y-140385314D01*
X192097239Y-140433975D01*
X192097241Y-140433976D01*
X192097244Y-140433977D01*
X192245078Y-140512995D01*
X192374659Y-140619341D01*
X192481005Y-140748922D01*
X192560023Y-140896756D01*
X192608687Y-141057179D01*
X192625117Y-141224000D01*
X192608687Y-141390821D01*
X192560023Y-141551244D01*
X192481005Y-141699078D01*
X192374659Y-141828659D01*
X192245078Y-141935005D01*
X192097244Y-142014023D01*
X192097241Y-142014024D01*
X192097239Y-142014025D01*
X191936825Y-142062686D01*
X191936824Y-142062686D01*
X191936821Y-142062687D01*
X191811804Y-142075000D01*
X191728196Y-142075000D01*
X191603179Y-142062687D01*
X191603176Y-142062686D01*
X191603175Y-142062686D01*
X191442761Y-142014025D01*
X191442759Y-142014024D01*
X191442756Y-142014023D01*
X191294922Y-141935005D01*
X191165341Y-141828659D01*
X191058995Y-141699078D01*
X190979977Y-141551244D01*
X190931313Y-141390821D01*
X190914883Y-141224000D01*
X190931313Y-141057179D01*
X190979977Y-140896756D01*
X191058995Y-140748922D01*
X191165341Y-140619341D01*
X191294922Y-140512995D01*
X191442756Y-140433977D01*
X191442759Y-140433976D01*
X191442761Y-140433975D01*
X191603175Y-140385314D01*
X191603176Y-140385314D01*
X191603179Y-140385313D01*
X191728196Y-140373000D01*
X191811804Y-140373000D01*
X191936821Y-140385313D01*
X191936821Y-140385313D01*
G37*
G36*
X189044562Y-139032181D02*
X189079477Y-139042773D01*
X189111665Y-139059978D01*
X189139873Y-139083127D01*
X189163022Y-139111335D01*
X189180227Y-139143523D01*
X189190819Y-139178438D01*
X189195000Y-139220895D01*
X189195000Y-140687105D01*
X189190819Y-140729562D01*
X189180227Y-140764477D01*
X189163022Y-140796665D01*
X189139873Y-140824873D01*
X189111665Y-140848022D01*
X189079477Y-140865227D01*
X189044562Y-140875819D01*
X189002105Y-140880000D01*
X187860895Y-140880000D01*
X187818438Y-140875819D01*
X187783523Y-140865227D01*
X187751335Y-140848022D01*
X187723127Y-140824873D01*
X187699978Y-140796665D01*
X187682773Y-140764477D01*
X187672181Y-140729562D01*
X187668000Y-140687105D01*
X187668000Y-139220895D01*
X187672181Y-139178438D01*
X187682773Y-139143523D01*
X187699978Y-139111335D01*
X187723127Y-139083127D01*
X187751335Y-139059978D01*
X187783523Y-139042773D01*
X187818438Y-139032181D01*
X187860895Y-139028000D01*
X189002105Y-139028000D01*
X189044562Y-139032181D01*
X189044562Y-139032181D01*
G37*
G36*
X186069562Y-139032181D02*
X186104477Y-139042773D01*
X186136665Y-139059978D01*
X186164873Y-139083127D01*
X186188022Y-139111335D01*
X186205227Y-139143523D01*
X186215819Y-139178438D01*
X186220000Y-139220895D01*
X186220000Y-140687105D01*
X186215819Y-140729562D01*
X186205227Y-140764477D01*
X186188022Y-140796665D01*
X186164873Y-140824873D01*
X186136665Y-140848022D01*
X186104477Y-140865227D01*
X186069562Y-140875819D01*
X186027105Y-140880000D01*
X184885895Y-140880000D01*
X184843438Y-140875819D01*
X184808523Y-140865227D01*
X184776335Y-140848022D01*
X184748127Y-140824873D01*
X184724978Y-140796665D01*
X184707773Y-140764477D01*
X184697181Y-140729562D01*
X184693000Y-140687105D01*
X184693000Y-139220895D01*
X184697181Y-139178438D01*
X184707773Y-139143523D01*
X184724978Y-139111335D01*
X184748127Y-139083127D01*
X184776335Y-139059978D01*
X184808523Y-139042773D01*
X184843438Y-139032181D01*
X184885895Y-139028000D01*
X186027105Y-139028000D01*
X186069562Y-139032181D01*
X186069562Y-139032181D01*
G37*
G36*
X191936821Y-137845313D02*
X191936824Y-137845314D01*
X191936825Y-137845314D01*
X192097239Y-137893975D01*
X192097241Y-137893976D01*
X192097244Y-137893977D01*
X192245078Y-137972995D01*
X192374659Y-138079341D01*
X192481005Y-138208922D01*
X192560023Y-138356756D01*
X192560024Y-138356759D01*
X192560025Y-138356761D01*
X192581525Y-138427638D01*
X192608687Y-138517179D01*
X192625117Y-138684000D01*
X192608687Y-138850821D01*
X192560023Y-139011244D01*
X192481005Y-139159078D01*
X192374659Y-139288659D01*
X192245078Y-139395005D01*
X192097244Y-139474023D01*
X192097241Y-139474024D01*
X192097239Y-139474025D01*
X191936825Y-139522686D01*
X191936824Y-139522686D01*
X191936821Y-139522687D01*
X191811804Y-139535000D01*
X191728196Y-139535000D01*
X191603179Y-139522687D01*
X191603176Y-139522686D01*
X191603175Y-139522686D01*
X191442761Y-139474025D01*
X191442759Y-139474024D01*
X191442756Y-139474023D01*
X191294922Y-139395005D01*
X191165341Y-139288659D01*
X191058995Y-139159078D01*
X190979977Y-139011244D01*
X190931313Y-138850821D01*
X190914883Y-138684000D01*
X190931313Y-138517179D01*
X190958475Y-138427638D01*
X190979975Y-138356761D01*
X190979976Y-138356759D01*
X190979977Y-138356756D01*
X191058995Y-138208922D01*
X191165341Y-138079341D01*
X191294922Y-137972995D01*
X191442756Y-137893977D01*
X191442759Y-137893976D01*
X191442761Y-137893975D01*
X191603175Y-137845314D01*
X191603176Y-137845314D01*
X191603179Y-137845313D01*
X191728196Y-137833000D01*
X191811804Y-137833000D01*
X191936821Y-137845313D01*
X191936821Y-137845313D01*
G37*
G36*
X197595499Y-138225445D02*
X197632993Y-138236819D01*
X197667557Y-138255294D01*
X197697847Y-138280153D01*
X197722706Y-138310443D01*
X197741181Y-138345007D01*
X197752555Y-138382501D01*
X197757000Y-138427638D01*
X197757000Y-139166362D01*
X197752555Y-139211499D01*
X197741181Y-139248993D01*
X197722706Y-139283557D01*
X197697847Y-139313847D01*
X197667557Y-139338706D01*
X197632993Y-139357181D01*
X197595499Y-139368555D01*
X197550362Y-139373000D01*
X196911638Y-139373000D01*
X196866501Y-139368555D01*
X196829007Y-139357181D01*
X196794443Y-139338706D01*
X196764153Y-139313847D01*
X196739294Y-139283557D01*
X196720819Y-139248993D01*
X196709445Y-139211499D01*
X196705000Y-139166362D01*
X196705000Y-138427638D01*
X196709445Y-138382501D01*
X196720819Y-138345007D01*
X196739294Y-138310443D01*
X196764153Y-138280153D01*
X196794443Y-138255294D01*
X196829007Y-138236819D01*
X196866501Y-138225445D01*
X196911638Y-138221000D01*
X197550362Y-138221000D01*
X197595499Y-138225445D01*
X197595499Y-138225445D01*
G37*
G36*
X199500499Y-138225445D02*
X199537993Y-138236819D01*
X199572557Y-138255294D01*
X199602847Y-138280153D01*
X199627706Y-138310443D01*
X199646181Y-138345007D01*
X199657555Y-138382501D01*
X199662000Y-138427638D01*
X199662000Y-139166362D01*
X199657555Y-139211499D01*
X199646181Y-139248993D01*
X199627706Y-139283557D01*
X199602847Y-139313847D01*
X199572557Y-139338706D01*
X199537993Y-139357181D01*
X199500499Y-139368555D01*
X199455362Y-139373000D01*
X198816638Y-139373000D01*
X198771501Y-139368555D01*
X198734007Y-139357181D01*
X198699443Y-139338706D01*
X198669153Y-139313847D01*
X198644294Y-139283557D01*
X198625819Y-139248993D01*
X198614445Y-139211499D01*
X198610000Y-139166362D01*
X198610000Y-138427638D01*
X198614445Y-138382501D01*
X198625819Y-138345007D01*
X198644294Y-138310443D01*
X198669153Y-138280153D01*
X198699443Y-138255294D01*
X198734007Y-138236819D01*
X198771501Y-138225445D01*
X198816638Y-138221000D01*
X199455362Y-138221000D01*
X199500499Y-138225445D01*
X199500499Y-138225445D01*
G37*
G36*
X201532499Y-138225445D02*
X201569993Y-138236819D01*
X201604557Y-138255294D01*
X201634847Y-138280153D01*
X201659706Y-138310443D01*
X201678181Y-138345007D01*
X201689555Y-138382501D01*
X201694000Y-138427638D01*
X201694000Y-139166362D01*
X201689555Y-139211499D01*
X201678181Y-139248993D01*
X201659706Y-139283557D01*
X201634847Y-139313847D01*
X201604557Y-139338706D01*
X201569993Y-139357181D01*
X201532499Y-139368555D01*
X201487362Y-139373000D01*
X200848638Y-139373000D01*
X200803501Y-139368555D01*
X200766007Y-139357181D01*
X200731443Y-139338706D01*
X200701153Y-139313847D01*
X200676294Y-139283557D01*
X200657819Y-139248993D01*
X200646445Y-139211499D01*
X200642000Y-139166362D01*
X200642000Y-138427638D01*
X200646445Y-138382501D01*
X200657819Y-138345007D01*
X200676294Y-138310443D01*
X200701153Y-138280153D01*
X200731443Y-138255294D01*
X200766007Y-138236819D01*
X200803501Y-138225445D01*
X200848638Y-138221000D01*
X201487362Y-138221000D01*
X201532499Y-138225445D01*
X201532499Y-138225445D01*
G37*
G36*
X187471499Y-136892445D02*
X187508993Y-136903819D01*
X187543557Y-136922294D01*
X187573847Y-136947153D01*
X187598706Y-136977443D01*
X187617181Y-137012007D01*
X187628555Y-137049501D01*
X187633000Y-137094638D01*
X187633000Y-137733362D01*
X187628555Y-137778499D01*
X187617181Y-137815993D01*
X187598706Y-137850557D01*
X187573847Y-137880847D01*
X187543557Y-137905706D01*
X187508993Y-137924181D01*
X187471499Y-137935555D01*
X187426362Y-137940000D01*
X186687638Y-137940000D01*
X186642501Y-137935555D01*
X186605007Y-137924181D01*
X186570443Y-137905706D01*
X186540153Y-137880847D01*
X186515294Y-137850557D01*
X186496819Y-137815993D01*
X186485445Y-137778499D01*
X186481000Y-137733362D01*
X186481000Y-137094638D01*
X186485445Y-137049501D01*
X186496819Y-137012007D01*
X186515294Y-136977443D01*
X186540153Y-136947153D01*
X186570443Y-136922294D01*
X186605007Y-136903819D01*
X186642501Y-136892445D01*
X186687638Y-136888000D01*
X187426362Y-136888000D01*
X187471499Y-136892445D01*
X187471499Y-136892445D01*
G37*
G36*
X185721499Y-136892445D02*
X185758993Y-136903819D01*
X185793557Y-136922294D01*
X185823847Y-136947153D01*
X185848706Y-136977443D01*
X185867181Y-137012007D01*
X185878555Y-137049501D01*
X185883000Y-137094638D01*
X185883000Y-137733362D01*
X185878555Y-137778499D01*
X185867181Y-137815993D01*
X185848706Y-137850557D01*
X185823847Y-137880847D01*
X185793557Y-137905706D01*
X185758993Y-137924181D01*
X185721499Y-137935555D01*
X185676362Y-137940000D01*
X184937638Y-137940000D01*
X184892501Y-137935555D01*
X184855007Y-137924181D01*
X184820443Y-137905706D01*
X184790153Y-137880847D01*
X184765294Y-137850557D01*
X184746819Y-137815993D01*
X184735445Y-137778499D01*
X184731000Y-137733362D01*
X184731000Y-137094638D01*
X184735445Y-137049501D01*
X184746819Y-137012007D01*
X184765294Y-136977443D01*
X184790153Y-136947153D01*
X184820443Y-136922294D01*
X184855007Y-136903819D01*
X184892501Y-136892445D01*
X184937638Y-136888000D01*
X185676362Y-136888000D01*
X185721499Y-136892445D01*
X185721499Y-136892445D01*
G37*
G36*
X199500499Y-136475445D02*
X199537993Y-136486819D01*
X199572557Y-136505294D01*
X199602847Y-136530153D01*
X199627706Y-136560443D01*
X199646181Y-136595007D01*
X199657555Y-136632501D01*
X199662000Y-136677638D01*
X199662000Y-137416362D01*
X199657555Y-137461499D01*
X199646181Y-137498993D01*
X199627706Y-137533557D01*
X199602847Y-137563847D01*
X199572557Y-137588706D01*
X199537993Y-137607181D01*
X199500499Y-137618555D01*
X199455362Y-137623000D01*
X198816638Y-137623000D01*
X198771501Y-137618555D01*
X198734007Y-137607181D01*
X198699443Y-137588706D01*
X198669153Y-137563847D01*
X198644294Y-137533557D01*
X198625819Y-137498993D01*
X198614445Y-137461499D01*
X198610000Y-137416362D01*
X198610000Y-136677638D01*
X198614445Y-136632501D01*
X198625819Y-136595007D01*
X198644294Y-136560443D01*
X198669153Y-136530153D01*
X198699443Y-136505294D01*
X198734007Y-136486819D01*
X198771501Y-136475445D01*
X198816638Y-136471000D01*
X199455362Y-136471000D01*
X199500499Y-136475445D01*
X199500499Y-136475445D01*
G37*
G36*
X201532499Y-136475445D02*
X201569993Y-136486819D01*
X201604557Y-136505294D01*
X201634847Y-136530153D01*
X201659706Y-136560443D01*
X201678181Y-136595007D01*
X201689555Y-136632501D01*
X201694000Y-136677638D01*
X201694000Y-137416362D01*
X201689555Y-137461499D01*
X201678181Y-137498993D01*
X201659706Y-137533557D01*
X201634847Y-137563847D01*
X201604557Y-137588706D01*
X201569993Y-137607181D01*
X201532499Y-137618555D01*
X201487362Y-137623000D01*
X200848638Y-137623000D01*
X200803501Y-137618555D01*
X200766007Y-137607181D01*
X200731443Y-137588706D01*
X200701153Y-137563847D01*
X200676294Y-137533557D01*
X200657819Y-137498993D01*
X200646445Y-137461499D01*
X200642000Y-137416362D01*
X200642000Y-136677638D01*
X200646445Y-136632501D01*
X200657819Y-136595007D01*
X200676294Y-136560443D01*
X200701153Y-136530153D01*
X200731443Y-136505294D01*
X200766007Y-136486819D01*
X200803501Y-136475445D01*
X200848638Y-136471000D01*
X201487362Y-136471000D01*
X201532499Y-136475445D01*
X201532499Y-136475445D01*
G37*
G36*
X197595499Y-136475445D02*
X197632993Y-136486819D01*
X197667557Y-136505294D01*
X197697847Y-136530153D01*
X197722706Y-136560443D01*
X197741181Y-136595007D01*
X197752555Y-136632501D01*
X197757000Y-136677638D01*
X197757000Y-137416362D01*
X197752555Y-137461499D01*
X197741181Y-137498993D01*
X197722706Y-137533557D01*
X197697847Y-137563847D01*
X197667557Y-137588706D01*
X197632993Y-137607181D01*
X197595499Y-137618555D01*
X197550362Y-137623000D01*
X196911638Y-137623000D01*
X196866501Y-137618555D01*
X196829007Y-137607181D01*
X196794443Y-137588706D01*
X196764153Y-137563847D01*
X196739294Y-137533557D01*
X196720819Y-137498993D01*
X196709445Y-137461499D01*
X196705000Y-137416362D01*
X196705000Y-136677638D01*
X196709445Y-136632501D01*
X196720819Y-136595007D01*
X196739294Y-136560443D01*
X196764153Y-136530153D01*
X196794443Y-136505294D01*
X196829007Y-136486819D01*
X196866501Y-136475445D01*
X196911638Y-136471000D01*
X197550362Y-136471000D01*
X197595499Y-136475445D01*
X197595499Y-136475445D01*
G37*
G36*
X191936821Y-135305313D02*
X191936824Y-135305314D01*
X191936825Y-135305314D01*
X192097239Y-135353975D01*
X192097241Y-135353976D01*
X192097244Y-135353977D01*
X192245078Y-135432995D01*
X192374659Y-135539341D01*
X192481005Y-135668922D01*
X192560023Y-135816756D01*
X192608687Y-135977179D01*
X192625117Y-136144000D01*
X192608687Y-136310821D01*
X192560023Y-136471244D01*
X192481005Y-136619078D01*
X192374659Y-136748659D01*
X192245078Y-136855005D01*
X192097244Y-136934023D01*
X192097241Y-136934024D01*
X192097239Y-136934025D01*
X191936825Y-136982686D01*
X191936824Y-136982686D01*
X191936821Y-136982687D01*
X191811804Y-136995000D01*
X191728196Y-136995000D01*
X191603179Y-136982687D01*
X191603176Y-136982686D01*
X191603175Y-136982686D01*
X191442761Y-136934025D01*
X191442759Y-136934024D01*
X191442756Y-136934023D01*
X191294922Y-136855005D01*
X191165341Y-136748659D01*
X191058995Y-136619078D01*
X190979977Y-136471244D01*
X190931313Y-136310821D01*
X190914883Y-136144000D01*
X190931313Y-135977179D01*
X190979977Y-135816756D01*
X191058995Y-135668922D01*
X191165341Y-135539341D01*
X191294922Y-135432995D01*
X191442756Y-135353977D01*
X191442759Y-135353976D01*
X191442761Y-135353975D01*
X191603175Y-135305314D01*
X191603176Y-135305314D01*
X191603179Y-135305313D01*
X191728196Y-135293000D01*
X191811804Y-135293000D01*
X191936821Y-135305313D01*
X191936821Y-135305313D01*
G37*
G36*
X235156032Y-132576207D02*
X235354146Y-132636305D01*
X235536729Y-132733897D01*
X235696765Y-132865235D01*
X235828103Y-133025271D01*
X235925695Y-133207854D01*
X235985793Y-133405968D01*
X236001000Y-133560370D01*
X236001000Y-134663630D01*
X235985793Y-134818032D01*
X235925695Y-135016146D01*
X235828103Y-135198729D01*
X235828101Y-135198731D01*
X235696768Y-135358762D01*
X235696766Y-135358763D01*
X235696765Y-135358765D01*
X235536729Y-135490103D01*
X235354145Y-135587695D01*
X235156031Y-135647793D01*
X234950000Y-135668085D01*
X234743968Y-135647793D01*
X234545854Y-135587695D01*
X234363271Y-135490103D01*
X234293685Y-135432995D01*
X234203238Y-135358768D01*
X234203237Y-135358766D01*
X234203235Y-135358765D01*
X234071897Y-135198729D01*
X233974305Y-135016145D01*
X233914207Y-134818031D01*
X233899000Y-134663629D01*
X233899000Y-133560369D01*
X233914207Y-133405972D01*
X233974306Y-133207852D01*
X234071899Y-133025269D01*
X234203236Y-132865235D01*
X234265697Y-132813975D01*
X234363272Y-132733897D01*
X234545855Y-132636305D01*
X234743969Y-132576207D01*
X234950000Y-132555915D01*
X235156032Y-132576207D01*
X235156032Y-132576207D01*
G37*
G36*
X212296032Y-132576207D02*
X212494146Y-132636305D01*
X212676729Y-132733897D01*
X212836765Y-132865235D01*
X212968103Y-133025271D01*
X213065695Y-133207854D01*
X213125793Y-133405968D01*
X213141000Y-133560370D01*
X213141000Y-134663630D01*
X213125793Y-134818032D01*
X213065695Y-135016146D01*
X212968103Y-135198729D01*
X212968101Y-135198731D01*
X212836768Y-135358762D01*
X212836766Y-135358763D01*
X212836765Y-135358765D01*
X212676729Y-135490103D01*
X212494145Y-135587695D01*
X212296031Y-135647793D01*
X212090000Y-135668085D01*
X211883968Y-135647793D01*
X211685854Y-135587695D01*
X211503271Y-135490103D01*
X211433685Y-135432995D01*
X211343238Y-135358768D01*
X211343237Y-135358766D01*
X211343235Y-135358765D01*
X211211897Y-135198729D01*
X211114305Y-135016145D01*
X211054207Y-134818031D01*
X211039000Y-134663629D01*
X211039000Y-133560369D01*
X211054207Y-133405972D01*
X211114306Y-133207852D01*
X211211899Y-133025269D01*
X211343236Y-132865235D01*
X211405697Y-132813975D01*
X211503272Y-132733897D01*
X211685855Y-132636305D01*
X211883969Y-132576207D01*
X212090000Y-132555915D01*
X212296032Y-132576207D01*
X212296032Y-132576207D01*
G37*
G36*
X191936821Y-132765313D02*
X191936824Y-132765314D01*
X191936825Y-132765314D01*
X192097239Y-132813975D01*
X192097241Y-132813976D01*
X192097244Y-132813977D01*
X192245078Y-132892995D01*
X192374659Y-132999341D01*
X192481005Y-133128922D01*
X192560023Y-133276756D01*
X192560024Y-133276759D01*
X192560025Y-133276761D01*
X192608686Y-133437175D01*
X192608687Y-133437179D01*
X192625117Y-133604000D01*
X192608687Y-133770821D01*
X192560023Y-133931244D01*
X192481005Y-134079078D01*
X192374659Y-134208659D01*
X192245078Y-134315005D01*
X192097244Y-134394023D01*
X192097241Y-134394024D01*
X192097239Y-134394025D01*
X191936825Y-134442686D01*
X191936824Y-134442686D01*
X191936821Y-134442687D01*
X191811804Y-134455000D01*
X191728196Y-134455000D01*
X191603179Y-134442687D01*
X191603176Y-134442686D01*
X191603175Y-134442686D01*
X191442761Y-134394025D01*
X191442759Y-134394024D01*
X191442756Y-134394023D01*
X191294922Y-134315005D01*
X191165341Y-134208659D01*
X191058995Y-134079078D01*
X190979977Y-133931244D01*
X190931313Y-133770821D01*
X190914883Y-133604000D01*
X190931313Y-133437179D01*
X190931314Y-133437175D01*
X190979975Y-133276761D01*
X190979976Y-133276759D01*
X190979977Y-133276756D01*
X191058995Y-133128922D01*
X191165341Y-132999341D01*
X191294922Y-132892995D01*
X191442756Y-132813977D01*
X191442759Y-132813976D01*
X191442761Y-132813975D01*
X191603175Y-132765314D01*
X191603176Y-132765314D01*
X191603179Y-132765313D01*
X191728196Y-132753000D01*
X191811804Y-132753000D01*
X191936821Y-132765313D01*
X191936821Y-132765313D01*
G37*
G36*
X187499499Y-132320445D02*
X187536993Y-132331819D01*
X187571557Y-132350294D01*
X187601847Y-132375153D01*
X187626706Y-132405443D01*
X187645181Y-132440007D01*
X187656555Y-132477501D01*
X187661000Y-132522638D01*
X187661000Y-133161362D01*
X187656555Y-133206499D01*
X187645181Y-133243993D01*
X187626706Y-133278557D01*
X187601847Y-133308847D01*
X187571557Y-133333706D01*
X187536993Y-133352181D01*
X187499499Y-133363555D01*
X187454362Y-133368000D01*
X186715638Y-133368000D01*
X186670501Y-133363555D01*
X186633007Y-133352181D01*
X186598443Y-133333706D01*
X186568153Y-133308847D01*
X186543294Y-133278557D01*
X186524819Y-133243993D01*
X186513445Y-133206499D01*
X186509000Y-133161362D01*
X186509000Y-132522638D01*
X186513445Y-132477501D01*
X186524819Y-132440007D01*
X186543294Y-132405443D01*
X186568153Y-132375153D01*
X186598443Y-132350294D01*
X186633007Y-132331819D01*
X186670501Y-132320445D01*
X186715638Y-132316000D01*
X187454362Y-132316000D01*
X187499499Y-132320445D01*
X187499499Y-132320445D01*
G37*
G36*
X189249499Y-132320445D02*
X189286993Y-132331819D01*
X189321557Y-132350294D01*
X189351847Y-132375153D01*
X189376706Y-132405443D01*
X189395181Y-132440007D01*
X189406555Y-132477501D01*
X189411000Y-132522638D01*
X189411000Y-133161362D01*
X189406555Y-133206499D01*
X189395181Y-133243993D01*
X189376706Y-133278557D01*
X189351847Y-133308847D01*
X189321557Y-133333706D01*
X189286993Y-133352181D01*
X189249499Y-133363555D01*
X189204362Y-133368000D01*
X188465638Y-133368000D01*
X188420501Y-133363555D01*
X188383007Y-133352181D01*
X188348443Y-133333706D01*
X188318153Y-133308847D01*
X188293294Y-133278557D01*
X188274819Y-133243993D01*
X188263445Y-133206499D01*
X188259000Y-133161362D01*
X188259000Y-132522638D01*
X188263445Y-132477501D01*
X188274819Y-132440007D01*
X188293294Y-132405443D01*
X188318153Y-132375153D01*
X188348443Y-132350294D01*
X188383007Y-132331819D01*
X188420501Y-132320445D01*
X188465638Y-132316000D01*
X189204362Y-132316000D01*
X189249499Y-132320445D01*
X189249499Y-132320445D01*
G37*
G36*
X191936821Y-130225313D02*
X191936824Y-130225314D01*
X191936825Y-130225314D01*
X192097239Y-130273975D01*
X192097241Y-130273976D01*
X192097244Y-130273977D01*
X192245078Y-130352995D01*
X192374659Y-130459341D01*
X192481005Y-130588922D01*
X192560023Y-130736756D01*
X192608687Y-130897179D01*
X192625117Y-131064000D01*
X192608687Y-131230821D01*
X192560023Y-131391244D01*
X192481005Y-131539078D01*
X192374659Y-131668659D01*
X192245078Y-131775005D01*
X192097244Y-131854023D01*
X192097241Y-131854024D01*
X192097239Y-131854025D01*
X191936825Y-131902686D01*
X191936824Y-131902686D01*
X191936821Y-131902687D01*
X191811804Y-131915000D01*
X191728196Y-131915000D01*
X191603179Y-131902687D01*
X191603176Y-131902686D01*
X191603175Y-131902686D01*
X191442761Y-131854025D01*
X191442759Y-131854024D01*
X191442756Y-131854023D01*
X191294922Y-131775005D01*
X191165341Y-131668659D01*
X191058995Y-131539078D01*
X190979977Y-131391244D01*
X190931313Y-131230821D01*
X190914883Y-131064000D01*
X190931313Y-130897179D01*
X190979977Y-130736756D01*
X191058995Y-130588922D01*
X191165341Y-130459341D01*
X191294922Y-130352995D01*
X191442756Y-130273977D01*
X191442759Y-130273976D01*
X191442761Y-130273975D01*
X191603175Y-130225314D01*
X191603176Y-130225314D01*
X191603179Y-130225313D01*
X191728196Y-130213000D01*
X191811804Y-130213000D01*
X191936821Y-130225313D01*
X191936821Y-130225313D01*
G37*
G36*
X222771562Y-128236181D02*
X222806477Y-128246773D01*
X222838665Y-128263978D01*
X222866873Y-128287127D01*
X222890022Y-128315335D01*
X222907227Y-128347523D01*
X222917819Y-128382438D01*
X222922000Y-128424895D01*
X222922000Y-129566105D01*
X222917819Y-129608562D01*
X222907227Y-129643477D01*
X222890022Y-129675665D01*
X222866873Y-129703873D01*
X222838665Y-129727022D01*
X222806477Y-129744227D01*
X222771562Y-129754819D01*
X222729105Y-129759000D01*
X221262895Y-129759000D01*
X221220438Y-129754819D01*
X221185523Y-129744227D01*
X221153335Y-129727022D01*
X221125127Y-129703873D01*
X221101978Y-129675665D01*
X221084773Y-129643477D01*
X221074181Y-129608562D01*
X221070000Y-129566105D01*
X221070000Y-128424895D01*
X221074181Y-128382438D01*
X221084773Y-128347523D01*
X221101978Y-128315335D01*
X221125127Y-128287127D01*
X221153335Y-128263978D01*
X221185523Y-128246773D01*
X221220438Y-128236181D01*
X221262895Y-128232000D01*
X222729105Y-128232000D01*
X222771562Y-128236181D01*
X222771562Y-128236181D01*
G37*
G36*
X228867562Y-128236181D02*
X228902477Y-128246773D01*
X228934665Y-128263978D01*
X228962873Y-128287127D01*
X228986022Y-128315335D01*
X229003227Y-128347523D01*
X229013819Y-128382438D01*
X229018000Y-128424895D01*
X229018000Y-129566105D01*
X229013819Y-129608562D01*
X229003227Y-129643477D01*
X228986022Y-129675665D01*
X228962873Y-129703873D01*
X228934665Y-129727022D01*
X228902477Y-129744227D01*
X228867562Y-129754819D01*
X228825105Y-129759000D01*
X227358895Y-129759000D01*
X227316438Y-129754819D01*
X227281523Y-129744227D01*
X227249335Y-129727022D01*
X227221127Y-129703873D01*
X227197978Y-129675665D01*
X227180773Y-129643477D01*
X227170181Y-129608562D01*
X227166000Y-129566105D01*
X227166000Y-128424895D01*
X227170181Y-128382438D01*
X227180773Y-128347523D01*
X227197978Y-128315335D01*
X227221127Y-128287127D01*
X227249335Y-128263978D01*
X227281523Y-128246773D01*
X227316438Y-128236181D01*
X227358895Y-128232000D01*
X228825105Y-128232000D01*
X228867562Y-128236181D01*
X228867562Y-128236181D01*
G37*
G36*
X191936821Y-127685313D02*
X191936824Y-127685314D01*
X191936825Y-127685314D01*
X192097239Y-127733975D01*
X192097241Y-127733976D01*
X192097244Y-127733977D01*
X192245078Y-127812995D01*
X192374659Y-127919341D01*
X192481005Y-128048922D01*
X192560023Y-128196756D01*
X192560024Y-128196759D01*
X192560025Y-128196761D01*
X192595994Y-128315335D01*
X192608687Y-128357179D01*
X192625117Y-128524000D01*
X192608687Y-128690821D01*
X192560023Y-128851244D01*
X192481005Y-128999078D01*
X192374659Y-129128659D01*
X192245078Y-129235005D01*
X192097244Y-129314023D01*
X192097241Y-129314024D01*
X192097239Y-129314025D01*
X191936825Y-129362686D01*
X191936824Y-129362686D01*
X191936821Y-129362687D01*
X191811804Y-129375000D01*
X191728196Y-129375000D01*
X191603179Y-129362687D01*
X191603176Y-129362686D01*
X191603175Y-129362686D01*
X191442761Y-129314025D01*
X191442759Y-129314024D01*
X191442756Y-129314023D01*
X191294922Y-129235005D01*
X191165341Y-129128659D01*
X191058995Y-128999078D01*
X190979977Y-128851244D01*
X190931313Y-128690821D01*
X190914883Y-128524000D01*
X190931313Y-128357179D01*
X190944006Y-128315335D01*
X190979975Y-128196761D01*
X190979976Y-128196759D01*
X190979977Y-128196756D01*
X191058995Y-128048922D01*
X191165341Y-127919341D01*
X191294922Y-127812995D01*
X191442756Y-127733977D01*
X191442759Y-127733976D01*
X191442761Y-127733975D01*
X191603175Y-127685314D01*
X191603176Y-127685314D01*
X191603179Y-127685313D01*
X191728196Y-127673000D01*
X191811804Y-127673000D01*
X191936821Y-127685313D01*
X191936821Y-127685313D01*
G37*
G36*
X174100499Y-126033445D02*
X174137993Y-126044819D01*
X174172557Y-126063294D01*
X174202847Y-126088153D01*
X174227706Y-126118443D01*
X174246181Y-126153007D01*
X174257555Y-126190501D01*
X174262000Y-126235638D01*
X174262000Y-126974362D01*
X174257555Y-127019499D01*
X174246181Y-127056993D01*
X174227706Y-127091557D01*
X174202847Y-127121847D01*
X174172557Y-127146706D01*
X174137993Y-127165181D01*
X174100499Y-127176555D01*
X174055362Y-127181000D01*
X173416638Y-127181000D01*
X173371501Y-127176555D01*
X173334007Y-127165181D01*
X173299443Y-127146706D01*
X173269153Y-127121847D01*
X173244294Y-127091557D01*
X173225819Y-127056993D01*
X173214445Y-127019499D01*
X173210000Y-126974362D01*
X173210000Y-126235638D01*
X173214445Y-126190501D01*
X173225819Y-126153007D01*
X173244294Y-126118443D01*
X173269153Y-126088153D01*
X173299443Y-126063294D01*
X173334007Y-126044819D01*
X173371501Y-126033445D01*
X173416638Y-126029000D01*
X174055362Y-126029000D01*
X174100499Y-126033445D01*
X174100499Y-126033445D01*
G37*
G36*
X178672499Y-126033445D02*
X178709993Y-126044819D01*
X178744557Y-126063294D01*
X178774847Y-126088153D01*
X178799706Y-126118443D01*
X178818181Y-126153007D01*
X178829555Y-126190501D01*
X178834000Y-126235638D01*
X178834000Y-126974362D01*
X178829555Y-127019499D01*
X178818181Y-127056993D01*
X178799706Y-127091557D01*
X178774847Y-127121847D01*
X178744557Y-127146706D01*
X178709993Y-127165181D01*
X178672499Y-127176555D01*
X178627362Y-127181000D01*
X177988638Y-127181000D01*
X177943501Y-127176555D01*
X177906007Y-127165181D01*
X177871443Y-127146706D01*
X177841153Y-127121847D01*
X177816294Y-127091557D01*
X177797819Y-127056993D01*
X177786445Y-127019499D01*
X177782000Y-126974362D01*
X177782000Y-126235638D01*
X177786445Y-126190501D01*
X177797819Y-126153007D01*
X177816294Y-126118443D01*
X177841153Y-126088153D01*
X177871443Y-126063294D01*
X177906007Y-126044819D01*
X177943501Y-126033445D01*
X177988638Y-126029000D01*
X178627362Y-126029000D01*
X178672499Y-126033445D01*
X178672499Y-126033445D01*
G37*
G36*
X176386499Y-126033445D02*
X176423993Y-126044819D01*
X176458557Y-126063294D01*
X176488847Y-126088153D01*
X176513706Y-126118443D01*
X176532181Y-126153007D01*
X176543555Y-126190501D01*
X176548000Y-126235638D01*
X176548000Y-126974362D01*
X176543555Y-127019499D01*
X176532181Y-127056993D01*
X176513706Y-127091557D01*
X176488847Y-127121847D01*
X176458557Y-127146706D01*
X176423993Y-127165181D01*
X176386499Y-127176555D01*
X176341362Y-127181000D01*
X175702638Y-127181000D01*
X175657501Y-127176555D01*
X175620007Y-127165181D01*
X175585443Y-127146706D01*
X175555153Y-127121847D01*
X175530294Y-127091557D01*
X175511819Y-127056993D01*
X175500445Y-127019499D01*
X175496000Y-126974362D01*
X175496000Y-126235638D01*
X175500445Y-126190501D01*
X175511819Y-126153007D01*
X175530294Y-126118443D01*
X175555153Y-126088153D01*
X175585443Y-126063294D01*
X175620007Y-126044819D01*
X175657501Y-126033445D01*
X175702638Y-126029000D01*
X176341362Y-126029000D01*
X176386499Y-126033445D01*
X176386499Y-126033445D01*
G37*
G36*
X181974499Y-126033445D02*
X182011993Y-126044819D01*
X182046557Y-126063294D01*
X182076847Y-126088153D01*
X182101706Y-126118443D01*
X182120181Y-126153007D01*
X182131555Y-126190501D01*
X182136000Y-126235638D01*
X182136000Y-126974362D01*
X182131555Y-127019499D01*
X182120181Y-127056993D01*
X182101706Y-127091557D01*
X182076847Y-127121847D01*
X182046557Y-127146706D01*
X182011993Y-127165181D01*
X181974499Y-127176555D01*
X181929362Y-127181000D01*
X181290638Y-127181000D01*
X181245501Y-127176555D01*
X181208007Y-127165181D01*
X181173443Y-127146706D01*
X181143153Y-127121847D01*
X181118294Y-127091557D01*
X181099819Y-127056993D01*
X181088445Y-127019499D01*
X181084000Y-126974362D01*
X181084000Y-126235638D01*
X181088445Y-126190501D01*
X181099819Y-126153007D01*
X181118294Y-126118443D01*
X181143153Y-126088153D01*
X181173443Y-126063294D01*
X181208007Y-126044819D01*
X181245501Y-126033445D01*
X181290638Y-126029000D01*
X181929362Y-126029000D01*
X181974499Y-126033445D01*
X181974499Y-126033445D01*
G37*
G36*
X184260499Y-126033445D02*
X184297993Y-126044819D01*
X184332557Y-126063294D01*
X184362847Y-126088153D01*
X184387706Y-126118443D01*
X184406181Y-126153007D01*
X184417555Y-126190501D01*
X184422000Y-126235638D01*
X184422000Y-126974362D01*
X184417555Y-127019499D01*
X184406181Y-127056993D01*
X184387706Y-127091557D01*
X184362847Y-127121847D01*
X184332557Y-127146706D01*
X184297993Y-127165181D01*
X184260499Y-127176555D01*
X184215362Y-127181000D01*
X183576638Y-127181000D01*
X183531501Y-127176555D01*
X183494007Y-127165181D01*
X183459443Y-127146706D01*
X183429153Y-127121847D01*
X183404294Y-127091557D01*
X183385819Y-127056993D01*
X183374445Y-127019499D01*
X183370000Y-126974362D01*
X183370000Y-126235638D01*
X183374445Y-126190501D01*
X183385819Y-126153007D01*
X183404294Y-126118443D01*
X183429153Y-126088153D01*
X183459443Y-126063294D01*
X183494007Y-126044819D01*
X183531501Y-126033445D01*
X183576638Y-126029000D01*
X184215362Y-126029000D01*
X184260499Y-126033445D01*
X184260499Y-126033445D01*
G37*
G36*
X186546499Y-126033445D02*
X186583993Y-126044819D01*
X186618557Y-126063294D01*
X186648847Y-126088153D01*
X186673706Y-126118443D01*
X186692181Y-126153007D01*
X186703555Y-126190501D01*
X186708000Y-126235638D01*
X186708000Y-126974362D01*
X186703555Y-127019499D01*
X186692181Y-127056993D01*
X186673706Y-127091557D01*
X186648847Y-127121847D01*
X186618557Y-127146706D01*
X186583993Y-127165181D01*
X186546499Y-127176555D01*
X186501362Y-127181000D01*
X185862638Y-127181000D01*
X185817501Y-127176555D01*
X185780007Y-127165181D01*
X185745443Y-127146706D01*
X185715153Y-127121847D01*
X185690294Y-127091557D01*
X185671819Y-127056993D01*
X185660445Y-127019499D01*
X185656000Y-126974362D01*
X185656000Y-126235638D01*
X185660445Y-126190501D01*
X185671819Y-126153007D01*
X185690294Y-126118443D01*
X185715153Y-126088153D01*
X185745443Y-126063294D01*
X185780007Y-126044819D01*
X185817501Y-126033445D01*
X185862638Y-126029000D01*
X186501362Y-126029000D01*
X186546499Y-126033445D01*
X186546499Y-126033445D01*
G37*
G36*
X192621000Y-126835000D02*
X190919000Y-126835000D01*
X190919000Y-125133000D01*
X192621000Y-125133000D01*
X192621000Y-126835000D01*
X192621000Y-126835000D01*
G37*
G36*
X222771562Y-125261181D02*
X222806477Y-125271773D01*
X222838665Y-125288978D01*
X222866873Y-125312127D01*
X222890022Y-125340335D01*
X222907227Y-125372523D01*
X222917819Y-125407438D01*
X222922000Y-125449895D01*
X222922000Y-126591105D01*
X222917819Y-126633562D01*
X222907227Y-126668477D01*
X222890022Y-126700665D01*
X222866873Y-126728873D01*
X222838665Y-126752022D01*
X222806477Y-126769227D01*
X222771562Y-126779819D01*
X222729105Y-126784000D01*
X221262895Y-126784000D01*
X221220438Y-126779819D01*
X221185523Y-126769227D01*
X221153335Y-126752022D01*
X221125127Y-126728873D01*
X221101978Y-126700665D01*
X221084773Y-126668477D01*
X221074181Y-126633562D01*
X221070000Y-126591105D01*
X221070000Y-125449895D01*
X221074181Y-125407438D01*
X221084773Y-125372523D01*
X221101978Y-125340335D01*
X221125127Y-125312127D01*
X221153335Y-125288978D01*
X221185523Y-125271773D01*
X221220438Y-125261181D01*
X221262895Y-125257000D01*
X222729105Y-125257000D01*
X222771562Y-125261181D01*
X222771562Y-125261181D01*
G37*
G36*
X228867562Y-125261181D02*
X228902477Y-125271773D01*
X228934665Y-125288978D01*
X228962873Y-125312127D01*
X228986022Y-125340335D01*
X229003227Y-125372523D01*
X229013819Y-125407438D01*
X229018000Y-125449895D01*
X229018000Y-126591105D01*
X229013819Y-126633562D01*
X229003227Y-126668477D01*
X228986022Y-126700665D01*
X228962873Y-126728873D01*
X228934665Y-126752022D01*
X228902477Y-126769227D01*
X228867562Y-126779819D01*
X228825105Y-126784000D01*
X227358895Y-126784000D01*
X227316438Y-126779819D01*
X227281523Y-126769227D01*
X227249335Y-126752022D01*
X227221127Y-126728873D01*
X227197978Y-126700665D01*
X227180773Y-126668477D01*
X227170181Y-126633562D01*
X227166000Y-126591105D01*
X227166000Y-125449895D01*
X227170181Y-125407438D01*
X227180773Y-125372523D01*
X227197978Y-125340335D01*
X227221127Y-125312127D01*
X227249335Y-125288978D01*
X227281523Y-125271773D01*
X227316438Y-125261181D01*
X227358895Y-125257000D01*
X228825105Y-125257000D01*
X228867562Y-125261181D01*
X228867562Y-125261181D01*
G37*
G36*
X184260499Y-124283445D02*
X184297993Y-124294819D01*
X184332557Y-124313294D01*
X184362847Y-124338153D01*
X184387706Y-124368443D01*
X184406181Y-124403007D01*
X184417555Y-124440501D01*
X184422000Y-124485638D01*
X184422000Y-125224362D01*
X184417555Y-125269499D01*
X184406181Y-125306993D01*
X184387706Y-125341557D01*
X184362847Y-125371847D01*
X184332557Y-125396706D01*
X184297993Y-125415181D01*
X184260499Y-125426555D01*
X184215362Y-125431000D01*
X183576638Y-125431000D01*
X183531501Y-125426555D01*
X183494007Y-125415181D01*
X183459443Y-125396706D01*
X183429153Y-125371847D01*
X183404294Y-125341557D01*
X183385819Y-125306993D01*
X183374445Y-125269499D01*
X183370000Y-125224362D01*
X183370000Y-124485638D01*
X183374445Y-124440501D01*
X183385819Y-124403007D01*
X183404294Y-124368443D01*
X183429153Y-124338153D01*
X183459443Y-124313294D01*
X183494007Y-124294819D01*
X183531501Y-124283445D01*
X183576638Y-124279000D01*
X184215362Y-124279000D01*
X184260499Y-124283445D01*
X184260499Y-124283445D01*
G37*
G36*
X181974499Y-124283445D02*
X182011993Y-124294819D01*
X182046557Y-124313294D01*
X182076847Y-124338153D01*
X182101706Y-124368443D01*
X182120181Y-124403007D01*
X182131555Y-124440501D01*
X182136000Y-124485638D01*
X182136000Y-125224362D01*
X182131555Y-125269499D01*
X182120181Y-125306993D01*
X182101706Y-125341557D01*
X182076847Y-125371847D01*
X182046557Y-125396706D01*
X182011993Y-125415181D01*
X181974499Y-125426555D01*
X181929362Y-125431000D01*
X181290638Y-125431000D01*
X181245501Y-125426555D01*
X181208007Y-125415181D01*
X181173443Y-125396706D01*
X181143153Y-125371847D01*
X181118294Y-125341557D01*
X181099819Y-125306993D01*
X181088445Y-125269499D01*
X181084000Y-125224362D01*
X181084000Y-124485638D01*
X181088445Y-124440501D01*
X181099819Y-124403007D01*
X181118294Y-124368443D01*
X181143153Y-124338153D01*
X181173443Y-124313294D01*
X181208007Y-124294819D01*
X181245501Y-124283445D01*
X181290638Y-124279000D01*
X181929362Y-124279000D01*
X181974499Y-124283445D01*
X181974499Y-124283445D01*
G37*
G36*
X178672499Y-124283445D02*
X178709993Y-124294819D01*
X178744557Y-124313294D01*
X178774847Y-124338153D01*
X178799706Y-124368443D01*
X178818181Y-124403007D01*
X178829555Y-124440501D01*
X178834000Y-124485638D01*
X178834000Y-125224362D01*
X178829555Y-125269499D01*
X178818181Y-125306993D01*
X178799706Y-125341557D01*
X178774847Y-125371847D01*
X178744557Y-125396706D01*
X178709993Y-125415181D01*
X178672499Y-125426555D01*
X178627362Y-125431000D01*
X177988638Y-125431000D01*
X177943501Y-125426555D01*
X177906007Y-125415181D01*
X177871443Y-125396706D01*
X177841153Y-125371847D01*
X177816294Y-125341557D01*
X177797819Y-125306993D01*
X177786445Y-125269499D01*
X177782000Y-125224362D01*
X177782000Y-124485638D01*
X177786445Y-124440501D01*
X177797819Y-124403007D01*
X177816294Y-124368443D01*
X177841153Y-124338153D01*
X177871443Y-124313294D01*
X177906007Y-124294819D01*
X177943501Y-124283445D01*
X177988638Y-124279000D01*
X178627362Y-124279000D01*
X178672499Y-124283445D01*
X178672499Y-124283445D01*
G37*
G36*
X176386499Y-124283445D02*
X176423993Y-124294819D01*
X176458557Y-124313294D01*
X176488847Y-124338153D01*
X176513706Y-124368443D01*
X176532181Y-124403007D01*
X176543555Y-124440501D01*
X176548000Y-124485638D01*
X176548000Y-125224362D01*
X176543555Y-125269499D01*
X176532181Y-125306993D01*
X176513706Y-125341557D01*
X176488847Y-125371847D01*
X176458557Y-125396706D01*
X176423993Y-125415181D01*
X176386499Y-125426555D01*
X176341362Y-125431000D01*
X175702638Y-125431000D01*
X175657501Y-125426555D01*
X175620007Y-125415181D01*
X175585443Y-125396706D01*
X175555153Y-125371847D01*
X175530294Y-125341557D01*
X175511819Y-125306993D01*
X175500445Y-125269499D01*
X175496000Y-125224362D01*
X175496000Y-124485638D01*
X175500445Y-124440501D01*
X175511819Y-124403007D01*
X175530294Y-124368443D01*
X175555153Y-124338153D01*
X175585443Y-124313294D01*
X175620007Y-124294819D01*
X175657501Y-124283445D01*
X175702638Y-124279000D01*
X176341362Y-124279000D01*
X176386499Y-124283445D01*
X176386499Y-124283445D01*
G37*
G36*
X174100499Y-124283445D02*
X174137993Y-124294819D01*
X174172557Y-124313294D01*
X174202847Y-124338153D01*
X174227706Y-124368443D01*
X174246181Y-124403007D01*
X174257555Y-124440501D01*
X174262000Y-124485638D01*
X174262000Y-125224362D01*
X174257555Y-125269499D01*
X174246181Y-125306993D01*
X174227706Y-125341557D01*
X174202847Y-125371847D01*
X174172557Y-125396706D01*
X174137993Y-125415181D01*
X174100499Y-125426555D01*
X174055362Y-125431000D01*
X173416638Y-125431000D01*
X173371501Y-125426555D01*
X173334007Y-125415181D01*
X173299443Y-125396706D01*
X173269153Y-125371847D01*
X173244294Y-125341557D01*
X173225819Y-125306993D01*
X173214445Y-125269499D01*
X173210000Y-125224362D01*
X173210000Y-124485638D01*
X173214445Y-124440501D01*
X173225819Y-124403007D01*
X173244294Y-124368443D01*
X173269153Y-124338153D01*
X173299443Y-124313294D01*
X173334007Y-124294819D01*
X173371501Y-124283445D01*
X173416638Y-124279000D01*
X174055362Y-124279000D01*
X174100499Y-124283445D01*
X174100499Y-124283445D01*
G37*
G36*
X186546499Y-124283445D02*
X186583993Y-124294819D01*
X186618557Y-124313294D01*
X186648847Y-124338153D01*
X186673706Y-124368443D01*
X186692181Y-124403007D01*
X186703555Y-124440501D01*
X186708000Y-124485638D01*
X186708000Y-125224362D01*
X186703555Y-125269499D01*
X186692181Y-125306993D01*
X186673706Y-125341557D01*
X186648847Y-125371847D01*
X186618557Y-125396706D01*
X186583993Y-125415181D01*
X186546499Y-125426555D01*
X186501362Y-125431000D01*
X185862638Y-125431000D01*
X185817501Y-125426555D01*
X185780007Y-125415181D01*
X185745443Y-125396706D01*
X185715153Y-125371847D01*
X185690294Y-125341557D01*
X185671819Y-125306993D01*
X185660445Y-125269499D01*
X185656000Y-125224362D01*
X185656000Y-124485638D01*
X185660445Y-124440501D01*
X185671819Y-124403007D01*
X185690294Y-124368443D01*
X185715153Y-124338153D01*
X185745443Y-124313294D01*
X185780007Y-124294819D01*
X185817501Y-124283445D01*
X185862638Y-124279000D01*
X186501362Y-124279000D01*
X186546499Y-124283445D01*
X186546499Y-124283445D01*
G37*
G36*
X228867562Y-122902181D02*
X228902477Y-122912773D01*
X228934665Y-122929978D01*
X228962873Y-122953127D01*
X228986022Y-122981335D01*
X229003227Y-123013523D01*
X229013819Y-123048438D01*
X229018000Y-123090895D01*
X229018000Y-124232105D01*
X229013819Y-124274562D01*
X229003227Y-124309477D01*
X228986022Y-124341665D01*
X228962873Y-124369873D01*
X228934665Y-124393022D01*
X228902477Y-124410227D01*
X228867562Y-124420819D01*
X228825105Y-124425000D01*
X227358895Y-124425000D01*
X227316438Y-124420819D01*
X227281523Y-124410227D01*
X227249335Y-124393022D01*
X227221127Y-124369873D01*
X227197978Y-124341665D01*
X227180773Y-124309477D01*
X227170181Y-124274562D01*
X227166000Y-124232105D01*
X227166000Y-123090895D01*
X227170181Y-123048438D01*
X227180773Y-123013523D01*
X227197978Y-122981335D01*
X227221127Y-122953127D01*
X227249335Y-122929978D01*
X227281523Y-122912773D01*
X227316438Y-122902181D01*
X227358895Y-122898000D01*
X228825105Y-122898000D01*
X228867562Y-122902181D01*
X228867562Y-122902181D01*
G37*
G36*
X222771562Y-122902181D02*
X222806477Y-122912773D01*
X222838665Y-122929978D01*
X222866873Y-122953127D01*
X222890022Y-122981335D01*
X222907227Y-123013523D01*
X222917819Y-123048438D01*
X222922000Y-123090895D01*
X222922000Y-124232105D01*
X222917819Y-124274562D01*
X222907227Y-124309477D01*
X222890022Y-124341665D01*
X222866873Y-124369873D01*
X222838665Y-124393022D01*
X222806477Y-124410227D01*
X222771562Y-124420819D01*
X222729105Y-124425000D01*
X221262895Y-124425000D01*
X221220438Y-124420819D01*
X221185523Y-124410227D01*
X221153335Y-124393022D01*
X221125127Y-124369873D01*
X221101978Y-124341665D01*
X221084773Y-124309477D01*
X221074181Y-124274562D01*
X221070000Y-124232105D01*
X221070000Y-123090895D01*
X221074181Y-123048438D01*
X221084773Y-123013523D01*
X221101978Y-122981335D01*
X221125127Y-122953127D01*
X221153335Y-122929978D01*
X221185523Y-122912773D01*
X221220438Y-122902181D01*
X221262895Y-122898000D01*
X222729105Y-122898000D01*
X222771562Y-122902181D01*
X222771562Y-122902181D01*
G37*
G36*
X173592443Y-120263519D02*
X173658627Y-120270037D01*
X173771853Y-120304384D01*
X173828467Y-120321557D01*
X173967087Y-120395652D01*
X173984991Y-120405222D01*
X174012849Y-120428085D01*
X174122186Y-120517814D01*
X174205448Y-120619271D01*
X174234778Y-120655009D01*
X174234779Y-120655011D01*
X174318443Y-120811533D01*
X174318443Y-120811534D01*
X174369963Y-120981373D01*
X174387359Y-121158000D01*
X174369963Y-121334627D01*
X174344665Y-121418022D01*
X174318443Y-121504467D01*
X174244348Y-121643087D01*
X174234778Y-121660991D01*
X174205448Y-121696729D01*
X174122186Y-121798186D01*
X174020729Y-121881448D01*
X173984991Y-121910778D01*
X173984989Y-121910779D01*
X173828467Y-121994443D01*
X173771853Y-122011616D01*
X173658627Y-122045963D01*
X173592442Y-122052482D01*
X173526260Y-122059000D01*
X173437740Y-122059000D01*
X173371558Y-122052482D01*
X173305373Y-122045963D01*
X173192147Y-122011616D01*
X173135533Y-121994443D01*
X172979011Y-121910779D01*
X172979009Y-121910778D01*
X172943271Y-121881448D01*
X172841814Y-121798186D01*
X172758552Y-121696729D01*
X172729222Y-121660991D01*
X172719652Y-121643087D01*
X172645557Y-121504467D01*
X172619335Y-121418022D01*
X172594037Y-121334627D01*
X172576641Y-121158000D01*
X172594037Y-120981373D01*
X172645557Y-120811534D01*
X172645557Y-120811533D01*
X172729221Y-120655011D01*
X172729222Y-120655009D01*
X172758552Y-120619271D01*
X172841814Y-120517814D01*
X172951151Y-120428085D01*
X172979009Y-120405222D01*
X172996913Y-120395652D01*
X173135533Y-120321557D01*
X173192147Y-120304384D01*
X173305373Y-120270037D01*
X173371557Y-120263519D01*
X173437740Y-120257000D01*
X173526260Y-120257000D01*
X173592443Y-120263519D01*
X173592443Y-120263519D01*
G37*
G36*
X189623000Y-122059000D02*
X187821000Y-122059000D01*
X187821000Y-120257000D01*
X189623000Y-120257000D01*
X189623000Y-122059000D01*
X189623000Y-122059000D01*
G37*
G36*
X186292443Y-120263519D02*
X186358627Y-120270037D01*
X186471853Y-120304384D01*
X186528467Y-120321557D01*
X186667087Y-120395652D01*
X186684991Y-120405222D01*
X186712849Y-120428085D01*
X186822186Y-120517814D01*
X186905448Y-120619271D01*
X186934778Y-120655009D01*
X186934779Y-120655011D01*
X187018443Y-120811533D01*
X187018443Y-120811534D01*
X187069963Y-120981373D01*
X187087359Y-121158000D01*
X187069963Y-121334627D01*
X187044665Y-121418022D01*
X187018443Y-121504467D01*
X186944348Y-121643087D01*
X186934778Y-121660991D01*
X186905448Y-121696729D01*
X186822186Y-121798186D01*
X186720729Y-121881448D01*
X186684991Y-121910778D01*
X186684989Y-121910779D01*
X186528467Y-121994443D01*
X186471853Y-122011616D01*
X186358627Y-122045963D01*
X186292442Y-122052482D01*
X186226260Y-122059000D01*
X186137740Y-122059000D01*
X186071558Y-122052482D01*
X186005373Y-122045963D01*
X185892147Y-122011616D01*
X185835533Y-121994443D01*
X185679011Y-121910779D01*
X185679009Y-121910778D01*
X185643271Y-121881448D01*
X185541814Y-121798186D01*
X185458552Y-121696729D01*
X185429222Y-121660991D01*
X185419652Y-121643087D01*
X185345557Y-121504467D01*
X185319335Y-121418022D01*
X185294037Y-121334627D01*
X185276641Y-121158000D01*
X185294037Y-120981373D01*
X185345557Y-120811534D01*
X185345557Y-120811533D01*
X185429221Y-120655011D01*
X185429222Y-120655009D01*
X185458552Y-120619271D01*
X185541814Y-120517814D01*
X185651151Y-120428085D01*
X185679009Y-120405222D01*
X185696913Y-120395652D01*
X185835533Y-120321557D01*
X185892147Y-120304384D01*
X186005373Y-120270037D01*
X186071557Y-120263519D01*
X186137740Y-120257000D01*
X186226260Y-120257000D01*
X186292443Y-120263519D01*
X186292443Y-120263519D01*
G37*
G36*
X183752443Y-120263519D02*
X183818627Y-120270037D01*
X183931853Y-120304384D01*
X183988467Y-120321557D01*
X184127087Y-120395652D01*
X184144991Y-120405222D01*
X184172849Y-120428085D01*
X184282186Y-120517814D01*
X184365448Y-120619271D01*
X184394778Y-120655009D01*
X184394779Y-120655011D01*
X184478443Y-120811533D01*
X184478443Y-120811534D01*
X184529963Y-120981373D01*
X184547359Y-121158000D01*
X184529963Y-121334627D01*
X184504665Y-121418022D01*
X184478443Y-121504467D01*
X184404348Y-121643087D01*
X184394778Y-121660991D01*
X184365448Y-121696729D01*
X184282186Y-121798186D01*
X184180729Y-121881448D01*
X184144991Y-121910778D01*
X184144989Y-121910779D01*
X183988467Y-121994443D01*
X183931853Y-122011616D01*
X183818627Y-122045963D01*
X183752442Y-122052482D01*
X183686260Y-122059000D01*
X183597740Y-122059000D01*
X183531558Y-122052482D01*
X183465373Y-122045963D01*
X183352147Y-122011616D01*
X183295533Y-121994443D01*
X183139011Y-121910779D01*
X183139009Y-121910778D01*
X183103271Y-121881448D01*
X183001814Y-121798186D01*
X182918552Y-121696729D01*
X182889222Y-121660991D01*
X182879652Y-121643087D01*
X182805557Y-121504467D01*
X182779335Y-121418022D01*
X182754037Y-121334627D01*
X182736641Y-121158000D01*
X182754037Y-120981373D01*
X182805557Y-120811534D01*
X182805557Y-120811533D01*
X182889221Y-120655011D01*
X182889222Y-120655009D01*
X182918552Y-120619271D01*
X183001814Y-120517814D01*
X183111151Y-120428085D01*
X183139009Y-120405222D01*
X183156913Y-120395652D01*
X183295533Y-120321557D01*
X183352147Y-120304384D01*
X183465373Y-120270037D01*
X183531557Y-120263519D01*
X183597740Y-120257000D01*
X183686260Y-120257000D01*
X183752443Y-120263519D01*
X183752443Y-120263519D01*
G37*
G36*
X181212443Y-120263519D02*
X181278627Y-120270037D01*
X181391853Y-120304384D01*
X181448467Y-120321557D01*
X181587087Y-120395652D01*
X181604991Y-120405222D01*
X181632849Y-120428085D01*
X181742186Y-120517814D01*
X181825448Y-120619271D01*
X181854778Y-120655009D01*
X181854779Y-120655011D01*
X181938443Y-120811533D01*
X181938443Y-120811534D01*
X181989963Y-120981373D01*
X182007359Y-121158000D01*
X181989963Y-121334627D01*
X181964665Y-121418022D01*
X181938443Y-121504467D01*
X181864348Y-121643087D01*
X181854778Y-121660991D01*
X181825448Y-121696729D01*
X181742186Y-121798186D01*
X181640729Y-121881448D01*
X181604991Y-121910778D01*
X181604989Y-121910779D01*
X181448467Y-121994443D01*
X181391853Y-122011616D01*
X181278627Y-122045963D01*
X181212442Y-122052482D01*
X181146260Y-122059000D01*
X181057740Y-122059000D01*
X180991558Y-122052482D01*
X180925373Y-122045963D01*
X180812147Y-122011616D01*
X180755533Y-121994443D01*
X180599011Y-121910779D01*
X180599009Y-121910778D01*
X180563271Y-121881448D01*
X180461814Y-121798186D01*
X180378552Y-121696729D01*
X180349222Y-121660991D01*
X180339652Y-121643087D01*
X180265557Y-121504467D01*
X180239335Y-121418022D01*
X180214037Y-121334627D01*
X180196641Y-121158000D01*
X180214037Y-120981373D01*
X180265557Y-120811534D01*
X180265557Y-120811533D01*
X180349221Y-120655011D01*
X180349222Y-120655009D01*
X180378552Y-120619271D01*
X180461814Y-120517814D01*
X180571151Y-120428085D01*
X180599009Y-120405222D01*
X180616913Y-120395652D01*
X180755533Y-120321557D01*
X180812147Y-120304384D01*
X180925373Y-120270037D01*
X180991557Y-120263519D01*
X181057740Y-120257000D01*
X181146260Y-120257000D01*
X181212443Y-120263519D01*
X181212443Y-120263519D01*
G37*
G36*
X178672443Y-120263519D02*
X178738627Y-120270037D01*
X178851853Y-120304384D01*
X178908467Y-120321557D01*
X179047087Y-120395652D01*
X179064991Y-120405222D01*
X179092849Y-120428085D01*
X179202186Y-120517814D01*
X179285448Y-120619271D01*
X179314778Y-120655009D01*
X179314779Y-120655011D01*
X179398443Y-120811533D01*
X179398443Y-120811534D01*
X179449963Y-120981373D01*
X179467359Y-121158000D01*
X179449963Y-121334627D01*
X179424665Y-121418022D01*
X179398443Y-121504467D01*
X179324348Y-121643087D01*
X179314778Y-121660991D01*
X179285448Y-121696729D01*
X179202186Y-121798186D01*
X179100729Y-121881448D01*
X179064991Y-121910778D01*
X179064989Y-121910779D01*
X178908467Y-121994443D01*
X178851853Y-122011616D01*
X178738627Y-122045963D01*
X178672442Y-122052482D01*
X178606260Y-122059000D01*
X178517740Y-122059000D01*
X178451558Y-122052482D01*
X178385373Y-122045963D01*
X178272147Y-122011616D01*
X178215533Y-121994443D01*
X178059011Y-121910779D01*
X178059009Y-121910778D01*
X178023271Y-121881448D01*
X177921814Y-121798186D01*
X177838552Y-121696729D01*
X177809222Y-121660991D01*
X177799652Y-121643087D01*
X177725557Y-121504467D01*
X177699335Y-121418022D01*
X177674037Y-121334627D01*
X177656641Y-121158000D01*
X177674037Y-120981373D01*
X177725557Y-120811534D01*
X177725557Y-120811533D01*
X177809221Y-120655011D01*
X177809222Y-120655009D01*
X177838552Y-120619271D01*
X177921814Y-120517814D01*
X178031151Y-120428085D01*
X178059009Y-120405222D01*
X178076913Y-120395652D01*
X178215533Y-120321557D01*
X178272147Y-120304384D01*
X178385373Y-120270037D01*
X178451557Y-120263519D01*
X178517740Y-120257000D01*
X178606260Y-120257000D01*
X178672443Y-120263519D01*
X178672443Y-120263519D01*
G37*
G36*
X176132443Y-120263519D02*
X176198627Y-120270037D01*
X176311853Y-120304384D01*
X176368467Y-120321557D01*
X176507087Y-120395652D01*
X176524991Y-120405222D01*
X176552849Y-120428085D01*
X176662186Y-120517814D01*
X176745448Y-120619271D01*
X176774778Y-120655009D01*
X176774779Y-120655011D01*
X176858443Y-120811533D01*
X176858443Y-120811534D01*
X176909963Y-120981373D01*
X176927359Y-121158000D01*
X176909963Y-121334627D01*
X176884665Y-121418022D01*
X176858443Y-121504467D01*
X176784348Y-121643087D01*
X176774778Y-121660991D01*
X176745448Y-121696729D01*
X176662186Y-121798186D01*
X176560729Y-121881448D01*
X176524991Y-121910778D01*
X176524989Y-121910779D01*
X176368467Y-121994443D01*
X176311853Y-122011616D01*
X176198627Y-122045963D01*
X176132442Y-122052482D01*
X176066260Y-122059000D01*
X175977740Y-122059000D01*
X175911558Y-122052482D01*
X175845373Y-122045963D01*
X175732147Y-122011616D01*
X175675533Y-121994443D01*
X175519011Y-121910779D01*
X175519009Y-121910778D01*
X175483271Y-121881448D01*
X175381814Y-121798186D01*
X175298552Y-121696729D01*
X175269222Y-121660991D01*
X175259652Y-121643087D01*
X175185557Y-121504467D01*
X175159335Y-121418022D01*
X175134037Y-121334627D01*
X175116641Y-121158000D01*
X175134037Y-120981373D01*
X175185557Y-120811534D01*
X175185557Y-120811533D01*
X175269221Y-120655011D01*
X175269222Y-120655009D01*
X175298552Y-120619271D01*
X175381814Y-120517814D01*
X175491151Y-120428085D01*
X175519009Y-120405222D01*
X175536913Y-120395652D01*
X175675533Y-120321557D01*
X175732147Y-120304384D01*
X175845373Y-120270037D01*
X175911557Y-120263519D01*
X175977740Y-120257000D01*
X176066260Y-120257000D01*
X176132443Y-120263519D01*
X176132443Y-120263519D01*
G37*
G36*
X222771562Y-119927181D02*
X222806477Y-119937773D01*
X222838665Y-119954978D01*
X222866873Y-119978127D01*
X222890022Y-120006335D01*
X222907227Y-120038523D01*
X222917819Y-120073438D01*
X222922000Y-120115895D01*
X222922000Y-121257105D01*
X222917819Y-121299562D01*
X222907227Y-121334477D01*
X222890022Y-121366665D01*
X222866873Y-121394873D01*
X222838665Y-121418022D01*
X222806477Y-121435227D01*
X222771562Y-121445819D01*
X222729105Y-121450000D01*
X221262895Y-121450000D01*
X221220438Y-121445819D01*
X221185523Y-121435227D01*
X221153335Y-121418022D01*
X221125127Y-121394873D01*
X221101978Y-121366665D01*
X221084773Y-121334477D01*
X221074181Y-121299562D01*
X221070000Y-121257105D01*
X221070000Y-120115895D01*
X221074181Y-120073438D01*
X221084773Y-120038523D01*
X221101978Y-120006335D01*
X221125127Y-119978127D01*
X221153335Y-119954978D01*
X221185523Y-119937773D01*
X221220438Y-119927181D01*
X221262895Y-119923000D01*
X222729105Y-119923000D01*
X222771562Y-119927181D01*
X222771562Y-119927181D01*
G37*
G36*
X228867562Y-119927181D02*
X228902477Y-119937773D01*
X228934665Y-119954978D01*
X228962873Y-119978127D01*
X228986022Y-120006335D01*
X229003227Y-120038523D01*
X229013819Y-120073438D01*
X229018000Y-120115895D01*
X229018000Y-121257105D01*
X229013819Y-121299562D01*
X229003227Y-121334477D01*
X228986022Y-121366665D01*
X228962873Y-121394873D01*
X228934665Y-121418022D01*
X228902477Y-121435227D01*
X228867562Y-121445819D01*
X228825105Y-121450000D01*
X227358895Y-121450000D01*
X227316438Y-121445819D01*
X227281523Y-121435227D01*
X227249335Y-121418022D01*
X227221127Y-121394873D01*
X227197978Y-121366665D01*
X227180773Y-121334477D01*
X227170181Y-121299562D01*
X227166000Y-121257105D01*
X227166000Y-120115895D01*
X227170181Y-120073438D01*
X227180773Y-120038523D01*
X227197978Y-120006335D01*
X227221127Y-119978127D01*
X227249335Y-119954978D01*
X227281523Y-119937773D01*
X227316438Y-119927181D01*
X227358895Y-119923000D01*
X228825105Y-119923000D01*
X228867562Y-119927181D01*
X228867562Y-119927181D01*
G37*
G36*
X212296032Y-117336207D02*
X212494146Y-117396305D01*
X212676729Y-117493897D01*
X212836765Y-117625235D01*
X212968103Y-117785271D01*
X213065695Y-117967854D01*
X213125793Y-118165968D01*
X213141000Y-118320370D01*
X213141000Y-119423630D01*
X213125793Y-119578032D01*
X213065695Y-119776146D01*
X212968103Y-119958729D01*
X212929034Y-120006335D01*
X212836768Y-120118762D01*
X212836766Y-120118763D01*
X212836765Y-120118765D01*
X212676729Y-120250103D01*
X212494145Y-120347695D01*
X212296031Y-120407793D01*
X212090000Y-120428085D01*
X211883968Y-120407793D01*
X211685854Y-120347695D01*
X211503271Y-120250103D01*
X211431126Y-120190895D01*
X211343238Y-120118768D01*
X211343237Y-120118766D01*
X211343235Y-120118765D01*
X211211897Y-119958729D01*
X211114305Y-119776145D01*
X211054207Y-119578031D01*
X211039000Y-119423629D01*
X211039000Y-118320369D01*
X211054207Y-118165972D01*
X211114306Y-117967852D01*
X211211899Y-117785269D01*
X211343236Y-117625235D01*
X211378886Y-117595978D01*
X211503272Y-117493897D01*
X211685855Y-117396305D01*
X211883969Y-117336207D01*
X212090000Y-117315915D01*
X212296032Y-117336207D01*
X212296032Y-117336207D01*
G37*
G36*
X222771562Y-117568181D02*
X222806477Y-117578773D01*
X222838665Y-117595978D01*
X222866873Y-117619127D01*
X222890022Y-117647335D01*
X222907227Y-117679523D01*
X222917819Y-117714438D01*
X222922000Y-117756895D01*
X222922000Y-118898105D01*
X222917819Y-118940562D01*
X222907227Y-118975477D01*
X222890022Y-119007665D01*
X222866873Y-119035873D01*
X222838665Y-119059022D01*
X222806477Y-119076227D01*
X222771562Y-119086819D01*
X222729105Y-119091000D01*
X221262895Y-119091000D01*
X221220438Y-119086819D01*
X221185523Y-119076227D01*
X221153335Y-119059022D01*
X221125127Y-119035873D01*
X221101978Y-119007665D01*
X221084773Y-118975477D01*
X221074181Y-118940562D01*
X221070000Y-118898105D01*
X221070000Y-117756895D01*
X221074181Y-117714438D01*
X221084773Y-117679523D01*
X221101978Y-117647335D01*
X221125127Y-117619127D01*
X221153335Y-117595978D01*
X221185523Y-117578773D01*
X221220438Y-117568181D01*
X221262895Y-117564000D01*
X222729105Y-117564000D01*
X222771562Y-117568181D01*
X222771562Y-117568181D01*
G37*
G36*
X228867562Y-117568181D02*
X228902477Y-117578773D01*
X228934665Y-117595978D01*
X228962873Y-117619127D01*
X228986022Y-117647335D01*
X229003227Y-117679523D01*
X229013819Y-117714438D01*
X229018000Y-117756895D01*
X229018000Y-118898105D01*
X229013819Y-118940562D01*
X229003227Y-118975477D01*
X228986022Y-119007665D01*
X228962873Y-119035873D01*
X228934665Y-119059022D01*
X228902477Y-119076227D01*
X228867562Y-119086819D01*
X228825105Y-119091000D01*
X227358895Y-119091000D01*
X227316438Y-119086819D01*
X227281523Y-119076227D01*
X227249335Y-119059022D01*
X227221127Y-119035873D01*
X227197978Y-119007665D01*
X227180773Y-118975477D01*
X227170181Y-118940562D01*
X227166000Y-118898105D01*
X227166000Y-117756895D01*
X227170181Y-117714438D01*
X227180773Y-117679523D01*
X227197978Y-117647335D01*
X227221127Y-117619127D01*
X227249335Y-117595978D01*
X227281523Y-117578773D01*
X227316438Y-117568181D01*
X227358895Y-117564000D01*
X228825105Y-117564000D01*
X228867562Y-117568181D01*
X228867562Y-117568181D01*
G37*
G36*
X235156032Y-114796207D02*
X235354146Y-114856305D01*
X235536729Y-114953897D01*
X235696765Y-115085235D01*
X235828103Y-115245271D01*
X235925695Y-115427854D01*
X235985793Y-115625968D01*
X236001000Y-115780370D01*
X236001000Y-116883630D01*
X235985793Y-117038032D01*
X235925695Y-117236146D01*
X235828103Y-117418729D01*
X235828101Y-117418731D01*
X235696768Y-117578762D01*
X235696766Y-117578763D01*
X235696765Y-117578765D01*
X235536729Y-117710103D01*
X235354145Y-117807695D01*
X235156031Y-117867793D01*
X234950000Y-117888085D01*
X234743968Y-117867793D01*
X234545854Y-117807695D01*
X234363271Y-117710103D01*
X234252416Y-117619127D01*
X234203238Y-117578768D01*
X234203237Y-117578766D01*
X234203235Y-117578765D01*
X234071897Y-117418729D01*
X233974305Y-117236145D01*
X233914207Y-117038031D01*
X233899000Y-116883629D01*
X233899000Y-115780369D01*
X233914207Y-115625972D01*
X233974306Y-115427852D01*
X234071899Y-115245269D01*
X234203236Y-115085235D01*
X234363270Y-114953899D01*
X234363272Y-114953897D01*
X234545855Y-114856305D01*
X234743969Y-114796207D01*
X234950000Y-114775915D01*
X235156032Y-114796207D01*
X235156032Y-114796207D01*
G37*
G36*
X222771562Y-114593181D02*
X222806477Y-114603773D01*
X222838665Y-114620978D01*
X222866873Y-114644127D01*
X222890022Y-114672335D01*
X222907227Y-114704523D01*
X222917819Y-114739438D01*
X222922000Y-114781895D01*
X222922000Y-115923105D01*
X222917819Y-115965562D01*
X222907227Y-116000477D01*
X222890022Y-116032665D01*
X222866873Y-116060873D01*
X222838665Y-116084022D01*
X222806477Y-116101227D01*
X222771562Y-116111819D01*
X222729105Y-116116000D01*
X221262895Y-116116000D01*
X221220438Y-116111819D01*
X221185523Y-116101227D01*
X221153335Y-116084022D01*
X221125127Y-116060873D01*
X221101978Y-116032665D01*
X221084773Y-116000477D01*
X221074181Y-115965562D01*
X221070000Y-115923105D01*
X221070000Y-114781895D01*
X221074181Y-114739438D01*
X221084773Y-114704523D01*
X221101978Y-114672335D01*
X221125127Y-114644127D01*
X221153335Y-114620978D01*
X221185523Y-114603773D01*
X221220438Y-114593181D01*
X221262895Y-114589000D01*
X222729105Y-114589000D01*
X222771562Y-114593181D01*
X222771562Y-114593181D01*
G37*
G36*
X228867562Y-114593181D02*
X228902477Y-114603773D01*
X228934665Y-114620978D01*
X228962873Y-114644127D01*
X228986022Y-114672335D01*
X229003227Y-114704523D01*
X229013819Y-114739438D01*
X229018000Y-114781895D01*
X229018000Y-115923105D01*
X229013819Y-115965562D01*
X229003227Y-116000477D01*
X228986022Y-116032665D01*
X228962873Y-116060873D01*
X228934665Y-116084022D01*
X228902477Y-116101227D01*
X228867562Y-116111819D01*
X228825105Y-116116000D01*
X227358895Y-116116000D01*
X227316438Y-116111819D01*
X227281523Y-116101227D01*
X227249335Y-116084022D01*
X227221127Y-116060873D01*
X227197978Y-116032665D01*
X227180773Y-116000477D01*
X227170181Y-115965562D01*
X227166000Y-115923105D01*
X227166000Y-114781895D01*
X227170181Y-114739438D01*
X227180773Y-114704523D01*
X227197978Y-114672335D01*
X227221127Y-114644127D01*
X227249335Y-114620978D01*
X227281523Y-114603773D01*
X227316438Y-114593181D01*
X227358895Y-114589000D01*
X228825105Y-114589000D01*
X228867562Y-114593181D01*
X228867562Y-114593181D01*
G37*
G36*
X222338228Y-110941703D02*
X222493100Y-111005853D01*
X222632481Y-111098985D01*
X222751015Y-111217519D01*
X222844147Y-111356900D01*
X222908297Y-111511772D01*
X222941000Y-111676184D01*
X222941000Y-111843816D01*
X222908297Y-112008228D01*
X222844147Y-112163100D01*
X222751015Y-112302481D01*
X222632481Y-112421015D01*
X222493100Y-112514147D01*
X222338228Y-112578297D01*
X222173816Y-112611000D01*
X222006184Y-112611000D01*
X221841772Y-112578297D01*
X221686900Y-112514147D01*
X221547519Y-112421015D01*
X221428985Y-112302481D01*
X221335853Y-112163100D01*
X221271703Y-112008228D01*
X221239000Y-111843816D01*
X221239000Y-111676184D01*
X221271703Y-111511772D01*
X221335853Y-111356900D01*
X221428985Y-111217519D01*
X221547519Y-111098985D01*
X221686900Y-111005853D01*
X221841772Y-110941703D01*
X222006184Y-110909000D01*
X222173816Y-110909000D01*
X222338228Y-110941703D01*
X222338228Y-110941703D01*
G37*
G36*
X212338228Y-110941703D02*
X212493100Y-111005853D01*
X212632481Y-111098985D01*
X212751015Y-111217519D01*
X212844147Y-111356900D01*
X212908297Y-111511772D01*
X212941000Y-111676184D01*
X212941000Y-111843816D01*
X212908297Y-112008228D01*
X212844147Y-112163100D01*
X212751015Y-112302481D01*
X212632481Y-112421015D01*
X212493100Y-112514147D01*
X212338228Y-112578297D01*
X212173816Y-112611000D01*
X212006184Y-112611000D01*
X211841772Y-112578297D01*
X211686900Y-112514147D01*
X211547519Y-112421015D01*
X211428985Y-112302481D01*
X211335853Y-112163100D01*
X211271703Y-112008228D01*
X211239000Y-111843816D01*
X211239000Y-111676184D01*
X211271703Y-111511772D01*
X211335853Y-111356900D01*
X211428985Y-111217519D01*
X211547519Y-111098985D01*
X211686900Y-111005853D01*
X211841772Y-110941703D01*
X212006184Y-110909000D01*
X212173816Y-110909000D01*
X212338228Y-110941703D01*
X212338228Y-110941703D01*
G37*
G36*
X206075000Y-110701000D02*
X205273000Y-110701000D01*
X205273000Y-108599000D01*
X206075000Y-108599000D01*
X206075000Y-110701000D01*
X206075000Y-110701000D01*
G37*
G36*
X204175000Y-110701000D02*
X203373000Y-110701000D01*
X203373000Y-108599000D01*
X204175000Y-108599000D01*
X204175000Y-110701000D01*
X204175000Y-110701000D01*
G37*
G36*
X182593472Y-108519738D02*
X182721049Y-108572582D01*
X182835865Y-108649300D01*
X182933500Y-108746935D01*
X183010218Y-108861751D01*
X183063062Y-108989328D01*
X183090000Y-109124756D01*
X183090000Y-109262844D01*
X183063062Y-109398272D01*
X183010218Y-109525849D01*
X182933500Y-109640665D01*
X182835865Y-109738300D01*
X182721049Y-109815018D01*
X182593472Y-109867862D01*
X182458044Y-109894800D01*
X182319956Y-109894800D01*
X182184528Y-109867862D01*
X182056951Y-109815018D01*
X181942135Y-109738300D01*
X181844500Y-109640665D01*
X181767782Y-109525849D01*
X181714938Y-109398272D01*
X181688000Y-109262844D01*
X181688000Y-109124756D01*
X181714938Y-108989328D01*
X181767782Y-108861751D01*
X181844500Y-108746935D01*
X181942135Y-108649300D01*
X182056951Y-108572582D01*
X182184528Y-108519738D01*
X182319956Y-108492800D01*
X182458044Y-108492800D01*
X182593472Y-108519738D01*
X182593472Y-108519738D01*
G37*
G36*
X184955672Y-108519738D02*
X185083249Y-108572582D01*
X185198065Y-108649300D01*
X185295700Y-108746935D01*
X185372418Y-108861751D01*
X185425262Y-108989328D01*
X185452200Y-109124756D01*
X185452200Y-109262844D01*
X185425262Y-109398272D01*
X185372418Y-109525849D01*
X185295700Y-109640665D01*
X185198065Y-109738300D01*
X185083249Y-109815018D01*
X184955672Y-109867862D01*
X184820244Y-109894800D01*
X184682156Y-109894800D01*
X184546728Y-109867862D01*
X184419151Y-109815018D01*
X184304335Y-109738300D01*
X184206700Y-109640665D01*
X184129982Y-109525849D01*
X184077138Y-109398272D01*
X184050200Y-109262844D01*
X184050200Y-109124756D01*
X184077138Y-108989328D01*
X184129982Y-108861751D01*
X184206700Y-108746935D01*
X184304335Y-108649300D01*
X184419151Y-108572582D01*
X184546728Y-108519738D01*
X184682156Y-108492800D01*
X184820244Y-108492800D01*
X184955672Y-108519738D01*
X184955672Y-108519738D01*
G37*
G36*
X180282072Y-108519738D02*
X180409649Y-108572582D01*
X180524465Y-108649300D01*
X180622100Y-108746935D01*
X180698818Y-108861751D01*
X180751662Y-108989328D01*
X180778600Y-109124756D01*
X180778600Y-109262844D01*
X180751662Y-109398272D01*
X180698818Y-109525849D01*
X180622100Y-109640665D01*
X180524465Y-109738300D01*
X180409649Y-109815018D01*
X180282072Y-109867862D01*
X180146644Y-109894800D01*
X180008556Y-109894800D01*
X179873128Y-109867862D01*
X179745551Y-109815018D01*
X179630735Y-109738300D01*
X179533100Y-109640665D01*
X179456382Y-109525849D01*
X179403538Y-109398272D01*
X179376600Y-109262844D01*
X179376600Y-109124756D01*
X179403538Y-108989328D01*
X179456382Y-108861751D01*
X179533100Y-108746935D01*
X179630735Y-108649300D01*
X179745551Y-108572582D01*
X179873128Y-108519738D01*
X180008556Y-108492800D01*
X180146644Y-108492800D01*
X180282072Y-108519738D01*
X180282072Y-108519738D01*
G37*
G36*
X182695565Y-105846389D02*
X182886834Y-105925615D01*
X183058976Y-106040637D01*
X183205363Y-106187024D01*
X183320385Y-106359166D01*
X183399611Y-106550435D01*
X183440000Y-106753484D01*
X183440000Y-106960516D01*
X183399611Y-107163565D01*
X183320385Y-107354834D01*
X183205363Y-107526976D01*
X183058976Y-107673363D01*
X182886834Y-107788385D01*
X182695565Y-107867611D01*
X182492516Y-107908000D01*
X182285484Y-107908000D01*
X182082435Y-107867611D01*
X181891166Y-107788385D01*
X181719024Y-107673363D01*
X181572637Y-107526976D01*
X181457615Y-107354834D01*
X181378389Y-107163565D01*
X181338000Y-106960516D01*
X181338000Y-106753484D01*
X181378389Y-106550435D01*
X181457615Y-106359166D01*
X181572637Y-106187024D01*
X181719024Y-106040637D01*
X181891166Y-105925615D01*
X182082435Y-105846389D01*
X182285484Y-105806000D01*
X182492516Y-105806000D01*
X182695565Y-105846389D01*
X182695565Y-105846389D01*
G37*
G36*
X187753499Y-106666445D02*
X187790993Y-106677819D01*
X187825557Y-106696294D01*
X187855847Y-106721153D01*
X187880706Y-106751443D01*
X187899181Y-106786007D01*
X187910555Y-106823501D01*
X187915000Y-106868638D01*
X187915000Y-107507362D01*
X187910555Y-107552499D01*
X187899181Y-107589993D01*
X187880706Y-107624557D01*
X187855847Y-107654847D01*
X187825557Y-107679706D01*
X187790993Y-107698181D01*
X187753499Y-107709555D01*
X187708362Y-107714000D01*
X186969638Y-107714000D01*
X186924501Y-107709555D01*
X186887007Y-107698181D01*
X186852443Y-107679706D01*
X186822153Y-107654847D01*
X186797294Y-107624557D01*
X186778819Y-107589993D01*
X186767445Y-107552499D01*
X186763000Y-107507362D01*
X186763000Y-106868638D01*
X186767445Y-106823501D01*
X186778819Y-106786007D01*
X186797294Y-106751443D01*
X186822153Y-106721153D01*
X186852443Y-106696294D01*
X186887007Y-106677819D01*
X186924501Y-106666445D01*
X186969638Y-106662000D01*
X187708362Y-106662000D01*
X187753499Y-106666445D01*
X187753499Y-106666445D01*
G37*
G36*
X189503499Y-106666445D02*
X189540993Y-106677819D01*
X189575557Y-106696294D01*
X189605847Y-106721153D01*
X189630706Y-106751443D01*
X189649181Y-106786007D01*
X189660555Y-106823501D01*
X189665000Y-106868638D01*
X189665000Y-107507362D01*
X189660555Y-107552499D01*
X189649181Y-107589993D01*
X189630706Y-107624557D01*
X189605847Y-107654847D01*
X189575557Y-107679706D01*
X189540993Y-107698181D01*
X189503499Y-107709555D01*
X189458362Y-107714000D01*
X188719638Y-107714000D01*
X188674501Y-107709555D01*
X188637007Y-107698181D01*
X188602443Y-107679706D01*
X188572153Y-107654847D01*
X188547294Y-107624557D01*
X188528819Y-107589993D01*
X188517445Y-107552499D01*
X188513000Y-107507362D01*
X188513000Y-106868638D01*
X188517445Y-106823501D01*
X188528819Y-106786007D01*
X188547294Y-106751443D01*
X188572153Y-106721153D01*
X188602443Y-106696294D01*
X188637007Y-106677819D01*
X188674501Y-106666445D01*
X188719638Y-106662000D01*
X189458362Y-106662000D01*
X189503499Y-106666445D01*
X189503499Y-106666445D01*
G37*
G36*
X184955672Y-106055938D02*
X185083249Y-106108782D01*
X185198065Y-106185500D01*
X185295700Y-106283135D01*
X185372418Y-106397951D01*
X185425262Y-106525528D01*
X185452200Y-106660956D01*
X185452200Y-106799044D01*
X185425262Y-106934472D01*
X185372418Y-107062049D01*
X185295700Y-107176865D01*
X185198065Y-107274500D01*
X185083249Y-107351218D01*
X184955672Y-107404062D01*
X184820244Y-107431000D01*
X184682156Y-107431000D01*
X184546728Y-107404062D01*
X184419151Y-107351218D01*
X184304335Y-107274500D01*
X184206700Y-107176865D01*
X184129982Y-107062049D01*
X184077138Y-106934472D01*
X184050200Y-106799044D01*
X184050200Y-106660956D01*
X184077138Y-106525528D01*
X184129982Y-106397951D01*
X184206700Y-106283135D01*
X184304335Y-106185500D01*
X184419151Y-106108782D01*
X184546728Y-106055938D01*
X184682156Y-106029000D01*
X184820244Y-106029000D01*
X184955672Y-106055938D01*
X184955672Y-106055938D01*
G37*
G36*
X180282072Y-106055938D02*
X180409649Y-106108782D01*
X180524465Y-106185500D01*
X180622100Y-106283135D01*
X180698818Y-106397951D01*
X180751662Y-106525528D01*
X180778600Y-106660956D01*
X180778600Y-106799044D01*
X180751662Y-106934472D01*
X180698818Y-107062049D01*
X180622100Y-107176865D01*
X180524465Y-107274500D01*
X180409649Y-107351218D01*
X180282072Y-107404062D01*
X180146644Y-107431000D01*
X180008556Y-107431000D01*
X179873128Y-107404062D01*
X179745551Y-107351218D01*
X179630735Y-107274500D01*
X179533100Y-107176865D01*
X179456382Y-107062049D01*
X179403538Y-106934472D01*
X179376600Y-106799044D01*
X179376600Y-106660956D01*
X179403538Y-106525528D01*
X179456382Y-106397951D01*
X179533100Y-106283135D01*
X179630735Y-106185500D01*
X179745551Y-106108782D01*
X179873128Y-106055938D01*
X180008556Y-106029000D01*
X180146644Y-106029000D01*
X180282072Y-106055938D01*
X180282072Y-106055938D01*
G37*
G36*
X205125000Y-107301000D02*
X204323000Y-107301000D01*
X204323000Y-105199000D01*
X205125000Y-105199000D01*
X205125000Y-107301000D01*
X205125000Y-107301000D01*
G37*
G36*
X175878499Y-104951445D02*
X175915993Y-104962819D01*
X175950557Y-104981294D01*
X175980847Y-105006153D01*
X176005706Y-105036443D01*
X176024181Y-105071007D01*
X176035555Y-105108501D01*
X176040000Y-105153638D01*
X176040000Y-105892362D01*
X176035555Y-105937499D01*
X176024181Y-105974993D01*
X176005706Y-106009557D01*
X175980847Y-106039847D01*
X175950557Y-106064706D01*
X175915993Y-106083181D01*
X175878499Y-106094555D01*
X175833362Y-106099000D01*
X175194638Y-106099000D01*
X175149501Y-106094555D01*
X175112007Y-106083181D01*
X175077443Y-106064706D01*
X175047153Y-106039847D01*
X175022294Y-106009557D01*
X175003819Y-105974993D01*
X174992445Y-105937499D01*
X174988000Y-105892362D01*
X174988000Y-105153638D01*
X174992445Y-105108501D01*
X175003819Y-105071007D01*
X175022294Y-105036443D01*
X175047153Y-105006153D01*
X175077443Y-104981294D01*
X175112007Y-104962819D01*
X175149501Y-104951445D01*
X175194638Y-104947000D01*
X175833362Y-104947000D01*
X175878499Y-104951445D01*
X175878499Y-104951445D01*
G37*
G36*
X182593472Y-103820738D02*
X182721049Y-103873582D01*
X182835865Y-103950300D01*
X182933500Y-104047935D01*
X183010218Y-104162751D01*
X183063062Y-104290328D01*
X183090000Y-104425756D01*
X183090000Y-104563844D01*
X183063062Y-104699272D01*
X183010218Y-104826849D01*
X182933500Y-104941665D01*
X182835865Y-105039300D01*
X182721049Y-105116018D01*
X182593472Y-105168862D01*
X182458044Y-105195800D01*
X182319956Y-105195800D01*
X182184528Y-105168862D01*
X182056951Y-105116018D01*
X181942135Y-105039300D01*
X181844500Y-104941665D01*
X181767782Y-104826849D01*
X181714938Y-104699272D01*
X181688000Y-104563844D01*
X181688000Y-104425756D01*
X181714938Y-104290328D01*
X181767782Y-104162751D01*
X181844500Y-104047935D01*
X181942135Y-103950300D01*
X182056951Y-103873582D01*
X182184528Y-103820738D01*
X182319956Y-103793800D01*
X182458044Y-103793800D01*
X182593472Y-103820738D01*
X182593472Y-103820738D01*
G37*
G36*
X184955672Y-103820738D02*
X185083249Y-103873582D01*
X185198065Y-103950300D01*
X185295700Y-104047935D01*
X185372418Y-104162751D01*
X185425262Y-104290328D01*
X185452200Y-104425756D01*
X185452200Y-104563844D01*
X185425262Y-104699272D01*
X185372418Y-104826849D01*
X185295700Y-104941665D01*
X185198065Y-105039300D01*
X185083249Y-105116018D01*
X184955672Y-105168862D01*
X184820244Y-105195800D01*
X184682156Y-105195800D01*
X184546728Y-105168862D01*
X184419151Y-105116018D01*
X184304335Y-105039300D01*
X184206700Y-104941665D01*
X184129982Y-104826849D01*
X184077138Y-104699272D01*
X184050200Y-104563844D01*
X184050200Y-104425756D01*
X184077138Y-104290328D01*
X184129982Y-104162751D01*
X184206700Y-104047935D01*
X184304335Y-103950300D01*
X184419151Y-103873582D01*
X184546728Y-103820738D01*
X184682156Y-103793800D01*
X184820244Y-103793800D01*
X184955672Y-103820738D01*
X184955672Y-103820738D01*
G37*
G36*
X180282072Y-103820738D02*
X180409649Y-103873582D01*
X180524465Y-103950300D01*
X180622100Y-104047935D01*
X180698818Y-104162751D01*
X180751662Y-104290328D01*
X180778600Y-104425756D01*
X180778600Y-104563844D01*
X180751662Y-104699272D01*
X180698818Y-104826849D01*
X180622100Y-104941665D01*
X180524465Y-105039300D01*
X180409649Y-105116018D01*
X180282072Y-105168862D01*
X180146644Y-105195800D01*
X180008556Y-105195800D01*
X179873128Y-105168862D01*
X179745551Y-105116018D01*
X179630735Y-105039300D01*
X179533100Y-104941665D01*
X179456382Y-104826849D01*
X179403538Y-104699272D01*
X179376600Y-104563844D01*
X179376600Y-104425756D01*
X179403538Y-104290328D01*
X179456382Y-104162751D01*
X179533100Y-104047935D01*
X179630735Y-103950300D01*
X179745551Y-103873582D01*
X179873128Y-103820738D01*
X180008556Y-103793800D01*
X180146644Y-103793800D01*
X180282072Y-103820738D01*
X180282072Y-103820738D01*
G37*
G36*
X229646396Y-102593546D02*
X229819466Y-102665234D01*
X229975230Y-102769312D01*
X230107688Y-102901770D01*
X230211766Y-103057534D01*
X230283454Y-103230604D01*
X230320000Y-103414333D01*
X230320000Y-103601667D01*
X230283454Y-103785396D01*
X230211766Y-103958466D01*
X230107688Y-104114230D01*
X229975230Y-104246688D01*
X229819466Y-104350766D01*
X229646396Y-104422454D01*
X229462667Y-104459000D01*
X229275333Y-104459000D01*
X229091604Y-104422454D01*
X228918534Y-104350766D01*
X228762770Y-104246688D01*
X228630312Y-104114230D01*
X228526234Y-103958466D01*
X228454546Y-103785396D01*
X228418000Y-103601667D01*
X228418000Y-103414333D01*
X228454546Y-103230604D01*
X228526234Y-103057534D01*
X228630312Y-102901770D01*
X228762770Y-102769312D01*
X228918534Y-102665234D01*
X229091604Y-102593546D01*
X229275333Y-102557000D01*
X229462667Y-102557000D01*
X229646396Y-102593546D01*
X229646396Y-102593546D01*
G37*
G36*
X175878499Y-103201445D02*
X175915993Y-103212819D01*
X175950557Y-103231294D01*
X175980847Y-103256153D01*
X176005706Y-103286443D01*
X176024181Y-103321007D01*
X176035555Y-103358501D01*
X176040000Y-103403638D01*
X176040000Y-104142362D01*
X176035555Y-104187499D01*
X176024181Y-104224993D01*
X176005706Y-104259557D01*
X175980847Y-104289847D01*
X175950557Y-104314706D01*
X175915993Y-104333181D01*
X175878499Y-104344555D01*
X175833362Y-104349000D01*
X175194638Y-104349000D01*
X175149501Y-104344555D01*
X175112007Y-104333181D01*
X175077443Y-104314706D01*
X175047153Y-104289847D01*
X175022294Y-104259557D01*
X175003819Y-104224993D01*
X174992445Y-104187499D01*
X174988000Y-104142362D01*
X174988000Y-103403638D01*
X174992445Y-103358501D01*
X175003819Y-103321007D01*
X175022294Y-103286443D01*
X175047153Y-103256153D01*
X175077443Y-103231294D01*
X175112007Y-103212819D01*
X175149501Y-103201445D01*
X175194638Y-103197000D01*
X175833362Y-103197000D01*
X175878499Y-103201445D01*
X175878499Y-103201445D01*
G37*
G36*
X222146396Y-101193546D02*
X222319466Y-101265234D01*
X222475230Y-101369312D01*
X222607688Y-101501770D01*
X222711766Y-101657534D01*
X222783454Y-101830604D01*
X222820000Y-102014333D01*
X222820000Y-102201667D01*
X222783454Y-102385396D01*
X222711766Y-102558466D01*
X222607688Y-102714230D01*
X222475230Y-102846688D01*
X222319466Y-102950766D01*
X222146396Y-103022454D01*
X221962667Y-103059000D01*
X221775333Y-103059000D01*
X221591604Y-103022454D01*
X221418534Y-102950766D01*
X221262770Y-102846688D01*
X221130312Y-102714230D01*
X221026234Y-102558466D01*
X220954546Y-102385396D01*
X220918000Y-102201667D01*
X220918000Y-102014333D01*
X220954546Y-101830604D01*
X221026234Y-101657534D01*
X221130312Y-101501770D01*
X221262770Y-101369312D01*
X221418534Y-101265234D01*
X221591604Y-101193546D01*
X221775333Y-101157000D01*
X221962667Y-101157000D01*
X222146396Y-101193546D01*
X222146396Y-101193546D01*
G37*
G36*
X203575256Y-99229298D02*
X203681579Y-99250447D01*
X203982042Y-99374903D01*
X204077907Y-99438958D01*
X204252454Y-99555587D01*
X204482413Y-99785546D01*
X204482415Y-99785549D01*
X204577603Y-99928007D01*
X204663098Y-100055960D01*
X204787553Y-100356422D01*
X204851000Y-100675389D01*
X204851000Y-101000611D01*
X204812622Y-101193547D01*
X204787553Y-101319579D01*
X204663097Y-101620042D01*
X204522404Y-101830604D01*
X204482413Y-101890454D01*
X204252454Y-102120413D01*
X204252451Y-102120415D01*
X203982042Y-102301097D01*
X203681579Y-102425553D01*
X203575256Y-102446702D01*
X203362611Y-102489000D01*
X203037389Y-102489000D01*
X202824744Y-102446702D01*
X202718421Y-102425553D01*
X202417958Y-102301097D01*
X202147549Y-102120415D01*
X202147546Y-102120413D01*
X201917587Y-101890454D01*
X201877596Y-101830604D01*
X201736903Y-101620042D01*
X201612447Y-101319579D01*
X201587378Y-101193547D01*
X201549000Y-101000611D01*
X201549000Y-100675389D01*
X201612447Y-100356422D01*
X201736902Y-100055960D01*
X201822398Y-99928007D01*
X201917585Y-99785549D01*
X201917587Y-99785546D01*
X202147546Y-99555587D01*
X202322093Y-99438958D01*
X202417958Y-99374903D01*
X202718421Y-99250447D01*
X202824744Y-99229298D01*
X203037389Y-99187000D01*
X203362611Y-99187000D01*
X203575256Y-99229298D01*
X203575256Y-99229298D01*
G37*
G36*
X179900562Y-100424181D02*
X179935477Y-100434773D01*
X179967665Y-100451978D01*
X179995873Y-100475127D01*
X180019022Y-100503335D01*
X180036227Y-100535523D01*
X180046819Y-100570438D01*
X180051000Y-100612895D01*
X180051000Y-102079105D01*
X180046819Y-102121562D01*
X180036227Y-102156477D01*
X180019022Y-102188665D01*
X179995873Y-102216873D01*
X179967665Y-102240022D01*
X179935477Y-102257227D01*
X179900562Y-102267819D01*
X179858105Y-102272000D01*
X178716895Y-102272000D01*
X178674438Y-102267819D01*
X178639523Y-102257227D01*
X178607335Y-102240022D01*
X178579127Y-102216873D01*
X178555978Y-102188665D01*
X178538773Y-102156477D01*
X178528181Y-102121562D01*
X178524000Y-102079105D01*
X178524000Y-100612895D01*
X178528181Y-100570438D01*
X178538773Y-100535523D01*
X178555978Y-100503335D01*
X178579127Y-100475127D01*
X178607335Y-100451978D01*
X178639523Y-100434773D01*
X178674438Y-100424181D01*
X178716895Y-100420000D01*
X179858105Y-100420000D01*
X179900562Y-100424181D01*
X179900562Y-100424181D01*
G37*
G36*
X176925562Y-100424181D02*
X176960477Y-100434773D01*
X176992665Y-100451978D01*
X177020873Y-100475127D01*
X177044022Y-100503335D01*
X177061227Y-100535523D01*
X177071819Y-100570438D01*
X177076000Y-100612895D01*
X177076000Y-102079105D01*
X177071819Y-102121562D01*
X177061227Y-102156477D01*
X177044022Y-102188665D01*
X177020873Y-102216873D01*
X176992665Y-102240022D01*
X176960477Y-102257227D01*
X176925562Y-102267819D01*
X176883105Y-102272000D01*
X175741895Y-102272000D01*
X175699438Y-102267819D01*
X175664523Y-102257227D01*
X175632335Y-102240022D01*
X175604127Y-102216873D01*
X175580978Y-102188665D01*
X175563773Y-102156477D01*
X175553181Y-102121562D01*
X175549000Y-102079105D01*
X175549000Y-100612895D01*
X175553181Y-100570438D01*
X175563773Y-100535523D01*
X175580978Y-100503335D01*
X175604127Y-100475127D01*
X175632335Y-100451978D01*
X175664523Y-100434773D01*
X175699438Y-100424181D01*
X175741895Y-100420000D01*
X176883105Y-100420000D01*
X176925562Y-100424181D01*
X176925562Y-100424181D01*
G37*
G36*
X187753499Y-99808445D02*
X187790993Y-99819819D01*
X187825557Y-99838294D01*
X187855847Y-99863153D01*
X187880706Y-99893443D01*
X187899181Y-99928007D01*
X187910555Y-99965501D01*
X187915000Y-100010638D01*
X187915000Y-100649362D01*
X187910555Y-100694499D01*
X187899181Y-100731993D01*
X187880706Y-100766557D01*
X187855847Y-100796847D01*
X187825557Y-100821706D01*
X187790993Y-100840181D01*
X187753499Y-100851555D01*
X187708362Y-100856000D01*
X186969638Y-100856000D01*
X186924501Y-100851555D01*
X186887007Y-100840181D01*
X186852443Y-100821706D01*
X186822153Y-100796847D01*
X186797294Y-100766557D01*
X186778819Y-100731993D01*
X186767445Y-100694499D01*
X186763000Y-100649362D01*
X186763000Y-100010638D01*
X186767445Y-99965501D01*
X186778819Y-99928007D01*
X186797294Y-99893443D01*
X186822153Y-99863153D01*
X186852443Y-99838294D01*
X186887007Y-99819819D01*
X186924501Y-99808445D01*
X186969638Y-99804000D01*
X187708362Y-99804000D01*
X187753499Y-99808445D01*
X187753499Y-99808445D01*
G37*
G36*
X189503499Y-99808445D02*
X189540993Y-99819819D01*
X189575557Y-99838294D01*
X189605847Y-99863153D01*
X189630706Y-99893443D01*
X189649181Y-99928007D01*
X189660555Y-99965501D01*
X189665000Y-100010638D01*
X189665000Y-100649362D01*
X189660555Y-100694499D01*
X189649181Y-100731993D01*
X189630706Y-100766557D01*
X189605847Y-100796847D01*
X189575557Y-100821706D01*
X189540993Y-100840181D01*
X189503499Y-100851555D01*
X189458362Y-100856000D01*
X188719638Y-100856000D01*
X188674501Y-100851555D01*
X188637007Y-100840181D01*
X188602443Y-100821706D01*
X188572153Y-100796847D01*
X188547294Y-100766557D01*
X188528819Y-100731993D01*
X188517445Y-100694499D01*
X188513000Y-100649362D01*
X188513000Y-100010638D01*
X188517445Y-99965501D01*
X188528819Y-99928007D01*
X188547294Y-99893443D01*
X188572153Y-99863153D01*
X188602443Y-99838294D01*
X188637007Y-99819819D01*
X188674501Y-99808445D01*
X188719638Y-99804000D01*
X189458362Y-99804000D01*
X189503499Y-99808445D01*
X189503499Y-99808445D01*
G37*
G36*
X176831499Y-98792445D02*
X176868993Y-98803819D01*
X176903557Y-98822294D01*
X176933847Y-98847153D01*
X176958706Y-98877443D01*
X176977181Y-98912007D01*
X176988555Y-98949501D01*
X176993000Y-98994638D01*
X176993000Y-99633362D01*
X176988555Y-99678499D01*
X176977181Y-99715993D01*
X176958706Y-99750557D01*
X176933847Y-99780847D01*
X176903557Y-99805706D01*
X176868993Y-99824181D01*
X176831499Y-99835555D01*
X176786362Y-99840000D01*
X176047638Y-99840000D01*
X176002501Y-99835555D01*
X175965007Y-99824181D01*
X175930443Y-99805706D01*
X175900153Y-99780847D01*
X175875294Y-99750557D01*
X175856819Y-99715993D01*
X175845445Y-99678499D01*
X175841000Y-99633362D01*
X175841000Y-98994638D01*
X175845445Y-98949501D01*
X175856819Y-98912007D01*
X175875294Y-98877443D01*
X175900153Y-98847153D01*
X175930443Y-98822294D01*
X175965007Y-98803819D01*
X176002501Y-98792445D01*
X176047638Y-98788000D01*
X176786362Y-98788000D01*
X176831499Y-98792445D01*
X176831499Y-98792445D01*
G37*
G36*
X178581499Y-98792445D02*
X178618993Y-98803819D01*
X178653557Y-98822294D01*
X178683847Y-98847153D01*
X178708706Y-98877443D01*
X178727181Y-98912007D01*
X178738555Y-98949501D01*
X178743000Y-98994638D01*
X178743000Y-99633362D01*
X178738555Y-99678499D01*
X178727181Y-99715993D01*
X178708706Y-99750557D01*
X178683847Y-99780847D01*
X178653557Y-99805706D01*
X178618993Y-99824181D01*
X178581499Y-99835555D01*
X178536362Y-99840000D01*
X177797638Y-99840000D01*
X177752501Y-99835555D01*
X177715007Y-99824181D01*
X177680443Y-99805706D01*
X177650153Y-99780847D01*
X177625294Y-99750557D01*
X177606819Y-99715993D01*
X177595445Y-99678499D01*
X177591000Y-99633362D01*
X177591000Y-98994638D01*
X177595445Y-98949501D01*
X177606819Y-98912007D01*
X177625294Y-98877443D01*
X177650153Y-98847153D01*
X177680443Y-98822294D01*
X177715007Y-98803819D01*
X177752501Y-98792445D01*
X177797638Y-98788000D01*
X178536362Y-98788000D01*
X178581499Y-98792445D01*
X178581499Y-98792445D01*
G37*
G36*
X223774000Y-99441000D02*
X220218000Y-99441000D01*
X220218000Y-93218000D01*
X223774000Y-93218000D01*
X223774000Y-99441000D01*
X223774000Y-99441000D01*
G37*
G36*
X233807000Y-99441000D02*
X230378000Y-99441000D01*
X230378000Y-93218000D01*
X233807000Y-93218000D01*
X233807000Y-99441000D01*
X233807000Y-99441000D01*
G37*
G36*
X227262424Y-94936760D02*
X227262427Y-94936761D01*
X227262428Y-94936761D01*
X227441692Y-94991140D01*
X227441694Y-94991141D01*
X227441697Y-94991142D01*
X227606904Y-95079446D01*
X227751712Y-95198288D01*
X227870552Y-95343095D01*
X227958859Y-95508305D01*
X228013240Y-95687575D01*
X228027000Y-95827282D01*
X228027000Y-97720718D01*
X228013240Y-97860425D01*
X227958859Y-98039695D01*
X227870552Y-98204905D01*
X227751712Y-98349712D01*
X227606905Y-98468552D01*
X227533857Y-98507597D01*
X227441693Y-98556860D01*
X227262429Y-98611239D01*
X227262428Y-98611239D01*
X227262425Y-98611240D01*
X227076000Y-98629601D01*
X226889576Y-98611240D01*
X226889573Y-98611239D01*
X226889572Y-98611239D01*
X226710308Y-98556860D01*
X226618144Y-98507597D01*
X226545096Y-98468552D01*
X226400289Y-98349712D01*
X226281449Y-98204905D01*
X226193142Y-98039695D01*
X226138761Y-97860425D01*
X226125000Y-97720717D01*
X226125000Y-95827283D01*
X226138760Y-95687576D01*
X226138761Y-95687572D01*
X226193140Y-95508308D01*
X226193141Y-95508306D01*
X226193142Y-95508303D01*
X226281446Y-95343096D01*
X226400288Y-95198288D01*
X226545095Y-95079448D01*
X226710305Y-94991141D01*
X226710307Y-94991140D01*
X226889571Y-94936761D01*
X226889572Y-94936761D01*
X226889575Y-94936760D01*
X227076000Y-94918399D01*
X227262424Y-94936760D01*
X227262424Y-94936760D01*
G37*
G36*
X217102424Y-94936760D02*
X217102427Y-94936761D01*
X217102428Y-94936761D01*
X217281692Y-94991140D01*
X217281694Y-94991141D01*
X217281697Y-94991142D01*
X217446904Y-95079446D01*
X217591712Y-95198288D01*
X217710552Y-95343095D01*
X217798859Y-95508305D01*
X217853240Y-95687575D01*
X217867000Y-95827282D01*
X217867000Y-97720718D01*
X217853240Y-97860425D01*
X217798859Y-98039695D01*
X217710552Y-98204905D01*
X217591712Y-98349712D01*
X217446905Y-98468552D01*
X217373857Y-98507597D01*
X217281693Y-98556860D01*
X217102429Y-98611239D01*
X217102428Y-98611239D01*
X217102425Y-98611240D01*
X216916000Y-98629601D01*
X216729576Y-98611240D01*
X216729573Y-98611239D01*
X216729572Y-98611239D01*
X216550308Y-98556860D01*
X216458144Y-98507597D01*
X216385096Y-98468552D01*
X216240289Y-98349712D01*
X216121449Y-98204905D01*
X216033142Y-98039695D01*
X215978761Y-97860425D01*
X215965000Y-97720717D01*
X215965000Y-95827283D01*
X215978760Y-95687576D01*
X215978761Y-95687572D01*
X216033140Y-95508308D01*
X216033141Y-95508306D01*
X216033142Y-95508303D01*
X216121446Y-95343096D01*
X216240288Y-95198288D01*
X216385095Y-95079448D01*
X216550305Y-94991141D01*
X216550307Y-94991140D01*
X216729571Y-94936761D01*
X216729572Y-94936761D01*
X216729575Y-94936760D01*
X216916000Y-94918399D01*
X217102424Y-94936760D01*
X217102424Y-94936760D01*
G37*
G36*
X212646918Y-94926934D02*
X212679424Y-94936795D01*
X212709383Y-94952808D01*
X212735641Y-94974359D01*
X212757192Y-95000617D01*
X212773205Y-95030576D01*
X212783066Y-95063082D01*
X212787000Y-95103029D01*
X212787000Y-98444971D01*
X212783066Y-98484918D01*
X212773205Y-98517424D01*
X212757192Y-98547383D01*
X212735641Y-98573641D01*
X212709383Y-98595192D01*
X212679424Y-98611205D01*
X212646918Y-98621066D01*
X212606971Y-98625000D01*
X211065029Y-98625000D01*
X211025082Y-98621066D01*
X210992576Y-98611205D01*
X210962617Y-98595192D01*
X210936359Y-98573641D01*
X210914808Y-98547383D01*
X210898795Y-98517424D01*
X210888934Y-98484918D01*
X210885000Y-98444971D01*
X210885000Y-95103029D01*
X210888934Y-95063082D01*
X210898795Y-95030576D01*
X210914808Y-95000617D01*
X210936359Y-94974359D01*
X210962617Y-94952808D01*
X210992576Y-94936795D01*
X211025082Y-94926934D01*
X211065029Y-94923000D01*
X212606971Y-94923000D01*
X212646918Y-94926934D01*
X212646918Y-94926934D01*
G37*
M02*
