G04 #@! TF.GenerationSoftware,KiCad,Pcbnew,5.0.2-bee76a0~70~ubuntu18.04.1*
G04 #@! TF.CreationDate,2020-04-22T18:31:08+02:00*
G04 #@! TF.ProjectId,Energy_Meter,456e6572-6779-45f4-9d65-7465722e6b69,rev?*
G04 #@! TF.SameCoordinates,Original*
G04 #@! TF.FileFunction,Soldermask,Top*
G04 #@! TF.FilePolarity,Negative*
%FSLAX46Y46*%
G04 Gerber Fmt 4.6, Leading zero omitted, Abs format (unit mm)*
G04 Created by KiCad (PCBNEW 5.0.2-bee76a0~70~ubuntu18.04.1) date mer. 22 avril 2020 18:31:08 CEST*
%MOMM*%
%LPD*%
G01*
G04 APERTURE LIST*
%ADD10C,0.100000*%
G04 APERTURE END LIST*
D10*
G36*
X234061000Y-174625000D02*
X230251000Y-174625000D01*
X230251000Y-168910000D01*
X234061000Y-168910000D01*
X234061000Y-174625000D01*
X234061000Y-174625000D01*
G37*
G36*
X223774000Y-174625000D02*
X220218000Y-174625000D01*
X220218000Y-168910000D01*
X223774000Y-168910000D01*
X223774000Y-174625000D01*
X223774000Y-174625000D01*
G37*
G36*
X203829256Y-171111298D02*
X203935579Y-171132447D01*
X204236042Y-171256903D01*
X204502852Y-171435180D01*
X204506454Y-171437587D01*
X204736413Y-171667546D01*
X204736415Y-171667549D01*
X204917097Y-171937958D01*
X205014998Y-172174311D01*
X205041553Y-172238422D01*
X205105000Y-172557389D01*
X205105000Y-172882611D01*
X205062702Y-173095256D01*
X205041553Y-173201579D01*
X205024499Y-173242751D01*
X204917098Y-173502040D01*
X204736413Y-173772454D01*
X204506454Y-174002413D01*
X204506451Y-174002415D01*
X204236042Y-174183097D01*
X203935579Y-174307553D01*
X203864955Y-174321601D01*
X203616611Y-174371000D01*
X203291389Y-174371000D01*
X203043045Y-174321601D01*
X202972421Y-174307553D01*
X202671958Y-174183097D01*
X202401549Y-174002415D01*
X202401546Y-174002413D01*
X202171587Y-173772454D01*
X201990902Y-173502040D01*
X201883501Y-173242751D01*
X201866447Y-173201579D01*
X201845298Y-173095256D01*
X201803000Y-172882611D01*
X201803000Y-172557389D01*
X201866447Y-172238422D01*
X201893003Y-172174311D01*
X201990903Y-171937958D01*
X202171585Y-171667549D01*
X202171587Y-171667546D01*
X202401546Y-171437587D01*
X202405148Y-171435180D01*
X202671958Y-171256903D01*
X202972421Y-171132447D01*
X203078744Y-171111298D01*
X203291389Y-171069000D01*
X203616611Y-171069000D01*
X203829256Y-171111298D01*
X203829256Y-171111298D01*
G37*
G36*
X227262424Y-170628760D02*
X227262427Y-170628761D01*
X227262428Y-170628761D01*
X227441692Y-170683140D01*
X227441694Y-170683141D01*
X227441697Y-170683142D01*
X227606904Y-170771446D01*
X227751712Y-170890288D01*
X227870552Y-171035095D01*
X227958859Y-171200305D01*
X228013240Y-171379575D01*
X228027000Y-171519282D01*
X228027000Y-173412718D01*
X228013240Y-173552425D01*
X227958859Y-173731695D01*
X227870552Y-173896905D01*
X227751712Y-174041712D01*
X227606905Y-174160552D01*
X227533857Y-174199597D01*
X227441693Y-174248860D01*
X227262429Y-174303239D01*
X227262428Y-174303239D01*
X227262425Y-174303240D01*
X227076000Y-174321601D01*
X226889576Y-174303240D01*
X226889573Y-174303239D01*
X226889572Y-174303239D01*
X226710308Y-174248860D01*
X226618144Y-174199597D01*
X226545096Y-174160552D01*
X226400289Y-174041712D01*
X226281449Y-173896905D01*
X226193142Y-173731695D01*
X226138761Y-173552425D01*
X226125000Y-173412717D01*
X226125000Y-171519283D01*
X226138760Y-171379576D01*
X226138761Y-171379572D01*
X226193140Y-171200308D01*
X226193141Y-171200306D01*
X226193142Y-171200303D01*
X226281446Y-171035096D01*
X226400288Y-170890288D01*
X226545095Y-170771448D01*
X226710305Y-170683141D01*
X226710307Y-170683140D01*
X226889571Y-170628761D01*
X226889572Y-170628761D01*
X226889575Y-170628760D01*
X227076000Y-170610399D01*
X227262424Y-170628760D01*
X227262424Y-170628760D01*
G37*
G36*
X213281770Y-171481372D02*
X213397689Y-171504429D01*
X213579678Y-171579811D01*
X213743463Y-171689249D01*
X213882751Y-171828537D01*
X213992189Y-171992322D01*
X214067571Y-172174311D01*
X214106000Y-172367509D01*
X214106000Y-172564491D01*
X214067571Y-172757689D01*
X213992189Y-172939678D01*
X213882751Y-173103463D01*
X213743463Y-173242751D01*
X213579678Y-173352189D01*
X213397689Y-173427571D01*
X213281770Y-173450628D01*
X213204493Y-173466000D01*
X213007507Y-173466000D01*
X212930230Y-173450628D01*
X212814311Y-173427571D01*
X212632322Y-173352189D01*
X212468537Y-173242751D01*
X212329249Y-173103463D01*
X212219811Y-172939678D01*
X212144429Y-172757689D01*
X212106000Y-172564491D01*
X212106000Y-172367509D01*
X212144429Y-172174311D01*
X212219811Y-171992322D01*
X212329249Y-171828537D01*
X212468537Y-171689249D01*
X212632322Y-171579811D01*
X212814311Y-171504429D01*
X212930230Y-171481372D01*
X213007507Y-171466000D01*
X213204493Y-171466000D01*
X213281770Y-171481372D01*
X213281770Y-171481372D01*
G37*
G36*
X195580000Y-167132000D02*
X192786000Y-167132000D01*
X192786000Y-161036000D01*
X195580000Y-161036000D01*
X195580000Y-167132000D01*
X195580000Y-167132000D01*
G37*
G36*
X176716424Y-164170760D02*
X176716427Y-164170761D01*
X176716428Y-164170761D01*
X176895692Y-164225140D01*
X176895694Y-164225141D01*
X176895697Y-164225142D01*
X177060904Y-164313446D01*
X177205712Y-164432288D01*
X177324552Y-164577095D01*
X177324553Y-164577097D01*
X177412860Y-164742307D01*
X177461470Y-164902553D01*
X177467240Y-164921575D01*
X177481000Y-165061282D01*
X177481000Y-166154718D01*
X177467240Y-166294425D01*
X177467239Y-166294428D01*
X177467239Y-166294429D01*
X177412861Y-166473691D01*
X177412859Y-166473695D01*
X177324552Y-166638905D01*
X177205712Y-166783712D01*
X177060905Y-166902552D01*
X177060903Y-166902553D01*
X176895693Y-166990860D01*
X176716429Y-167045239D01*
X176716428Y-167045239D01*
X176716425Y-167045240D01*
X176530000Y-167063601D01*
X176343576Y-167045240D01*
X176343573Y-167045239D01*
X176343572Y-167045239D01*
X176164308Y-166990860D01*
X175999098Y-166902553D01*
X175999096Y-166902552D01*
X175854289Y-166783712D01*
X175735449Y-166638905D01*
X175647140Y-166473691D01*
X175592760Y-166294430D01*
X175579000Y-166154718D01*
X175579000Y-165061283D01*
X175592760Y-164921576D01*
X175592761Y-164921572D01*
X175647140Y-164742308D01*
X175647141Y-164742306D01*
X175647142Y-164742303D01*
X175735446Y-164577096D01*
X175854288Y-164432288D01*
X175999095Y-164313448D01*
X176164305Y-164225141D01*
X176164307Y-164225140D01*
X176343571Y-164170761D01*
X176343572Y-164170761D01*
X176343575Y-164170760D01*
X176530000Y-164152399D01*
X176716424Y-164170760D01*
X176716424Y-164170760D01*
G37*
G36*
X184616424Y-162170760D02*
X184616427Y-162170761D01*
X184616428Y-162170761D01*
X184795692Y-162225140D01*
X184795694Y-162225141D01*
X184795697Y-162225142D01*
X184960904Y-162313446D01*
X185105712Y-162432288D01*
X185224552Y-162577095D01*
X185224553Y-162577097D01*
X185312860Y-162742307D01*
X185349016Y-162861499D01*
X185367240Y-162921575D01*
X185381000Y-163061282D01*
X185381000Y-164154718D01*
X185367240Y-164294425D01*
X185367239Y-164294428D01*
X185367239Y-164294429D01*
X185312861Y-164473691D01*
X185312859Y-164473695D01*
X185224552Y-164638905D01*
X185105712Y-164783712D01*
X184960905Y-164902552D01*
X184960903Y-164902553D01*
X184795693Y-164990860D01*
X184616429Y-165045239D01*
X184616428Y-165045239D01*
X184616425Y-165045240D01*
X184430000Y-165063601D01*
X184243576Y-165045240D01*
X184243573Y-165045239D01*
X184243572Y-165045239D01*
X184064308Y-164990860D01*
X183899098Y-164902553D01*
X183899096Y-164902552D01*
X183754289Y-164783712D01*
X183635449Y-164638905D01*
X183547140Y-164473691D01*
X183492760Y-164294430D01*
X183479000Y-164154718D01*
X183479000Y-163061283D01*
X183492760Y-162921576D01*
X183492761Y-162921572D01*
X183547140Y-162742308D01*
X183547141Y-162742306D01*
X183547142Y-162742303D01*
X183635446Y-162577096D01*
X183754288Y-162432288D01*
X183899095Y-162313448D01*
X184064305Y-162225141D01*
X184064307Y-162225140D01*
X184243571Y-162170761D01*
X184243572Y-162170761D01*
X184243575Y-162170760D01*
X184430000Y-162152399D01*
X184616424Y-162170760D01*
X184616424Y-162170760D01*
G37*
G36*
X179116424Y-162170760D02*
X179116427Y-162170761D01*
X179116428Y-162170761D01*
X179295692Y-162225140D01*
X179295694Y-162225141D01*
X179295697Y-162225142D01*
X179460904Y-162313446D01*
X179605712Y-162432288D01*
X179724552Y-162577095D01*
X179724553Y-162577097D01*
X179812860Y-162742307D01*
X179849016Y-162861499D01*
X179867240Y-162921575D01*
X179881000Y-163061282D01*
X179881000Y-164154718D01*
X179867240Y-164294425D01*
X179867239Y-164294428D01*
X179867239Y-164294429D01*
X179812861Y-164473691D01*
X179812859Y-164473695D01*
X179724552Y-164638905D01*
X179605712Y-164783712D01*
X179460905Y-164902552D01*
X179460903Y-164902553D01*
X179295693Y-164990860D01*
X179116429Y-165045239D01*
X179116428Y-165045239D01*
X179116425Y-165045240D01*
X178930000Y-165063601D01*
X178743576Y-165045240D01*
X178743573Y-165045239D01*
X178743572Y-165045239D01*
X178564308Y-164990860D01*
X178399098Y-164902553D01*
X178399096Y-164902552D01*
X178254289Y-164783712D01*
X178135449Y-164638905D01*
X178047140Y-164473691D01*
X177992760Y-164294430D01*
X177979000Y-164154718D01*
X177979000Y-163061283D01*
X177992760Y-162921576D01*
X177992761Y-162921572D01*
X178047140Y-162742308D01*
X178047141Y-162742306D01*
X178047142Y-162742303D01*
X178135446Y-162577096D01*
X178254288Y-162432288D01*
X178399095Y-162313448D01*
X178564305Y-162225141D01*
X178564307Y-162225140D01*
X178743571Y-162170761D01*
X178743572Y-162170761D01*
X178743575Y-162170760D01*
X178930000Y-162152399D01*
X179116424Y-162170760D01*
X179116424Y-162170760D01*
G37*
G36*
X208547562Y-163288181D02*
X208582477Y-163298773D01*
X208614665Y-163315978D01*
X208642873Y-163339127D01*
X208666022Y-163367335D01*
X208683227Y-163399523D01*
X208693819Y-163434438D01*
X208698000Y-163476895D01*
X208698000Y-164618105D01*
X208693819Y-164660562D01*
X208683227Y-164695477D01*
X208666022Y-164727665D01*
X208642873Y-164755873D01*
X208614665Y-164779022D01*
X208582477Y-164796227D01*
X208547562Y-164806819D01*
X208505105Y-164811000D01*
X207038895Y-164811000D01*
X206996438Y-164806819D01*
X206961523Y-164796227D01*
X206929335Y-164779022D01*
X206901127Y-164755873D01*
X206877978Y-164727665D01*
X206860773Y-164695477D01*
X206850181Y-164660562D01*
X206846000Y-164618105D01*
X206846000Y-163476895D01*
X206850181Y-163434438D01*
X206860773Y-163399523D01*
X206877978Y-163367335D01*
X206901127Y-163339127D01*
X206929335Y-163315978D01*
X206961523Y-163298773D01*
X206996438Y-163288181D01*
X207038895Y-163284000D01*
X208505105Y-163284000D01*
X208547562Y-163288181D01*
X208547562Y-163288181D01*
G37*
G36*
X204326499Y-163625445D02*
X204363993Y-163636819D01*
X204398557Y-163655294D01*
X204428847Y-163680153D01*
X204453706Y-163710443D01*
X204472181Y-163745007D01*
X204483555Y-163782501D01*
X204488000Y-163827638D01*
X204488000Y-164566362D01*
X204483555Y-164611499D01*
X204472181Y-164648993D01*
X204453706Y-164683557D01*
X204428847Y-164713847D01*
X204398557Y-164738706D01*
X204363993Y-164757181D01*
X204326499Y-164768555D01*
X204281362Y-164773000D01*
X203642638Y-164773000D01*
X203597501Y-164768555D01*
X203560007Y-164757181D01*
X203525443Y-164738706D01*
X203495153Y-164713847D01*
X203470294Y-164683557D01*
X203451819Y-164648993D01*
X203440445Y-164611499D01*
X203436000Y-164566362D01*
X203436000Y-163827638D01*
X203440445Y-163782501D01*
X203451819Y-163745007D01*
X203470294Y-163710443D01*
X203495153Y-163680153D01*
X203525443Y-163655294D01*
X203560007Y-163636819D01*
X203597501Y-163625445D01*
X203642638Y-163621000D01*
X204281362Y-163621000D01*
X204326499Y-163625445D01*
X204326499Y-163625445D01*
G37*
G36*
X202294499Y-163625445D02*
X202331993Y-163636819D01*
X202366557Y-163655294D01*
X202396847Y-163680153D01*
X202421706Y-163710443D01*
X202440181Y-163745007D01*
X202451555Y-163782501D01*
X202456000Y-163827638D01*
X202456000Y-164566362D01*
X202451555Y-164611499D01*
X202440181Y-164648993D01*
X202421706Y-164683557D01*
X202396847Y-164713847D01*
X202366557Y-164738706D01*
X202331993Y-164757181D01*
X202294499Y-164768555D01*
X202249362Y-164773000D01*
X201610638Y-164773000D01*
X201565501Y-164768555D01*
X201528007Y-164757181D01*
X201493443Y-164738706D01*
X201463153Y-164713847D01*
X201438294Y-164683557D01*
X201419819Y-164648993D01*
X201408445Y-164611499D01*
X201404000Y-164566362D01*
X201404000Y-163827638D01*
X201408445Y-163782501D01*
X201419819Y-163745007D01*
X201438294Y-163710443D01*
X201463153Y-163680153D01*
X201493443Y-163655294D01*
X201528007Y-163636819D01*
X201565501Y-163625445D01*
X201610638Y-163621000D01*
X202249362Y-163621000D01*
X202294499Y-163625445D01*
X202294499Y-163625445D01*
G37*
G36*
X237247000Y-161756387D02*
X237245515Y-161759165D01*
X237238402Y-161782614D01*
X237236000Y-161807000D01*
X237236000Y-164528500D01*
X232092500Y-164528500D01*
X232092500Y-156654500D01*
X232095452Y-156654500D01*
X232108388Y-156643884D01*
X232123934Y-156624942D01*
X232135485Y-156603332D01*
X232142562Y-156580000D01*
X237247000Y-156580000D01*
X237247000Y-161756387D01*
X237247000Y-161756387D01*
G37*
G36*
X204326499Y-161875445D02*
X204363993Y-161886819D01*
X204398557Y-161905294D01*
X204428847Y-161930153D01*
X204453706Y-161960443D01*
X204472181Y-161995007D01*
X204483555Y-162032501D01*
X204488000Y-162077638D01*
X204488000Y-162816362D01*
X204483555Y-162861499D01*
X204472181Y-162898993D01*
X204453706Y-162933557D01*
X204428847Y-162963847D01*
X204398557Y-162988706D01*
X204363993Y-163007181D01*
X204326499Y-163018555D01*
X204281362Y-163023000D01*
X203642638Y-163023000D01*
X203597501Y-163018555D01*
X203560007Y-163007181D01*
X203525443Y-162988706D01*
X203495153Y-162963847D01*
X203470294Y-162933557D01*
X203451819Y-162898993D01*
X203440445Y-162861499D01*
X203436000Y-162816362D01*
X203436000Y-162077638D01*
X203440445Y-162032501D01*
X203451819Y-161995007D01*
X203470294Y-161960443D01*
X203495153Y-161930153D01*
X203525443Y-161905294D01*
X203560007Y-161886819D01*
X203597501Y-161875445D01*
X203642638Y-161871000D01*
X204281362Y-161871000D01*
X204326499Y-161875445D01*
X204326499Y-161875445D01*
G37*
G36*
X202294499Y-161875445D02*
X202331993Y-161886819D01*
X202366557Y-161905294D01*
X202396847Y-161930153D01*
X202421706Y-161960443D01*
X202440181Y-161995007D01*
X202451555Y-162032501D01*
X202456000Y-162077638D01*
X202456000Y-162816362D01*
X202451555Y-162861499D01*
X202440181Y-162898993D01*
X202421706Y-162933557D01*
X202396847Y-162963847D01*
X202366557Y-162988706D01*
X202331993Y-163007181D01*
X202294499Y-163018555D01*
X202249362Y-163023000D01*
X201610638Y-163023000D01*
X201565501Y-163018555D01*
X201528007Y-163007181D01*
X201493443Y-162988706D01*
X201463153Y-162963847D01*
X201438294Y-162933557D01*
X201419819Y-162898993D01*
X201408445Y-162861499D01*
X201404000Y-162816362D01*
X201404000Y-162077638D01*
X201408445Y-162032501D01*
X201419819Y-161995007D01*
X201438294Y-161960443D01*
X201463153Y-161930153D01*
X201493443Y-161905294D01*
X201528007Y-161886819D01*
X201565501Y-161875445D01*
X201610638Y-161871000D01*
X202249362Y-161871000D01*
X202294499Y-161875445D01*
X202294499Y-161875445D01*
G37*
G36*
X208547562Y-160313181D02*
X208582477Y-160323773D01*
X208614665Y-160340978D01*
X208642873Y-160364127D01*
X208666022Y-160392335D01*
X208683227Y-160424523D01*
X208693819Y-160459438D01*
X208698000Y-160501895D01*
X208698000Y-161643105D01*
X208693819Y-161685562D01*
X208683227Y-161720477D01*
X208666022Y-161752665D01*
X208642873Y-161780873D01*
X208614665Y-161804022D01*
X208582477Y-161821227D01*
X208547562Y-161831819D01*
X208505105Y-161836000D01*
X207038895Y-161836000D01*
X206996438Y-161831819D01*
X206961523Y-161821227D01*
X206929335Y-161804022D01*
X206901127Y-161780873D01*
X206877978Y-161752665D01*
X206860773Y-161720477D01*
X206850181Y-161685562D01*
X206846000Y-161643105D01*
X206846000Y-160501895D01*
X206850181Y-160459438D01*
X206860773Y-160424523D01*
X206877978Y-160392335D01*
X206901127Y-160364127D01*
X206929335Y-160340978D01*
X206961523Y-160323773D01*
X206996438Y-160313181D01*
X207038895Y-160309000D01*
X208505105Y-160309000D01*
X208547562Y-160313181D01*
X208547562Y-160313181D01*
G37*
G36*
X231302000Y-161682000D02*
X229200000Y-161682000D01*
X229200000Y-156580000D01*
X231302000Y-156580000D01*
X231302000Y-161682000D01*
X231302000Y-161682000D01*
G37*
G36*
X202838499Y-159879445D02*
X202875993Y-159890819D01*
X202910557Y-159909294D01*
X202940847Y-159934153D01*
X202965706Y-159964443D01*
X202984181Y-159999007D01*
X202995555Y-160036501D01*
X203000000Y-160081638D01*
X203000000Y-160720362D01*
X202995555Y-160765499D01*
X202984181Y-160802993D01*
X202965706Y-160837557D01*
X202940847Y-160867847D01*
X202910557Y-160892706D01*
X202875993Y-160911181D01*
X202838499Y-160922555D01*
X202793362Y-160927000D01*
X202054638Y-160927000D01*
X202009501Y-160922555D01*
X201972007Y-160911181D01*
X201937443Y-160892706D01*
X201907153Y-160867847D01*
X201882294Y-160837557D01*
X201863819Y-160802993D01*
X201852445Y-160765499D01*
X201848000Y-160720362D01*
X201848000Y-160081638D01*
X201852445Y-160036501D01*
X201863819Y-159999007D01*
X201882294Y-159964443D01*
X201907153Y-159934153D01*
X201937443Y-159909294D01*
X201972007Y-159890819D01*
X202009501Y-159879445D01*
X202054638Y-159875000D01*
X202793362Y-159875000D01*
X202838499Y-159879445D01*
X202838499Y-159879445D01*
G37*
G36*
X201088499Y-159879445D02*
X201125993Y-159890819D01*
X201160557Y-159909294D01*
X201190847Y-159934153D01*
X201215706Y-159964443D01*
X201234181Y-159999007D01*
X201245555Y-160036501D01*
X201250000Y-160081638D01*
X201250000Y-160720362D01*
X201245555Y-160765499D01*
X201234181Y-160802993D01*
X201215706Y-160837557D01*
X201190847Y-160867847D01*
X201160557Y-160892706D01*
X201125993Y-160911181D01*
X201088499Y-160922555D01*
X201043362Y-160927000D01*
X200304638Y-160927000D01*
X200259501Y-160922555D01*
X200222007Y-160911181D01*
X200187443Y-160892706D01*
X200157153Y-160867847D01*
X200132294Y-160837557D01*
X200113819Y-160802993D01*
X200102445Y-160765499D01*
X200098000Y-160720362D01*
X200098000Y-160081638D01*
X200102445Y-160036501D01*
X200113819Y-159999007D01*
X200132294Y-159964443D01*
X200157153Y-159934153D01*
X200187443Y-159909294D01*
X200222007Y-159890819D01*
X200259501Y-159879445D01*
X200304638Y-159875000D01*
X201043362Y-159875000D01*
X201088499Y-159879445D01*
X201088499Y-159879445D01*
G37*
G36*
X205372562Y-159097181D02*
X205407477Y-159107773D01*
X205439665Y-159124978D01*
X205467873Y-159148127D01*
X205491022Y-159176335D01*
X205508227Y-159208523D01*
X205518819Y-159243438D01*
X205523000Y-159285895D01*
X205523000Y-160427105D01*
X205518819Y-160469562D01*
X205508227Y-160504477D01*
X205491022Y-160536665D01*
X205467873Y-160564873D01*
X205439665Y-160588022D01*
X205407477Y-160605227D01*
X205372562Y-160615819D01*
X205330105Y-160620000D01*
X203863895Y-160620000D01*
X203821438Y-160615819D01*
X203786523Y-160605227D01*
X203754335Y-160588022D01*
X203726127Y-160564873D01*
X203702978Y-160536665D01*
X203685773Y-160504477D01*
X203675181Y-160469562D01*
X203671000Y-160427105D01*
X203671000Y-159285895D01*
X203675181Y-159243438D01*
X203685773Y-159208523D01*
X203702978Y-159176335D01*
X203726127Y-159148127D01*
X203754335Y-159124978D01*
X203786523Y-159107773D01*
X203821438Y-159097181D01*
X203863895Y-159093000D01*
X205330105Y-159093000D01*
X205372562Y-159097181D01*
X205372562Y-159097181D01*
G37*
G36*
X205372562Y-156122181D02*
X205407477Y-156132773D01*
X205439665Y-156149978D01*
X205467873Y-156173127D01*
X205491022Y-156201335D01*
X205508227Y-156233523D01*
X205518819Y-156268438D01*
X205523000Y-156310895D01*
X205523000Y-157452105D01*
X205518819Y-157494562D01*
X205508227Y-157529477D01*
X205491022Y-157561665D01*
X205467873Y-157589873D01*
X205439665Y-157613022D01*
X205407477Y-157630227D01*
X205372562Y-157640819D01*
X205330105Y-157645000D01*
X203863895Y-157645000D01*
X203821438Y-157640819D01*
X203786523Y-157630227D01*
X203754335Y-157613022D01*
X203726127Y-157589873D01*
X203702978Y-157561665D01*
X203685773Y-157529477D01*
X203675181Y-157494562D01*
X203671000Y-157452105D01*
X203671000Y-156310895D01*
X203675181Y-156268438D01*
X203685773Y-156233523D01*
X203702978Y-156201335D01*
X203726127Y-156173127D01*
X203754335Y-156149978D01*
X203786523Y-156132773D01*
X203821438Y-156122181D01*
X203863895Y-156118000D01*
X205330105Y-156118000D01*
X205372562Y-156122181D01*
X205372562Y-156122181D01*
G37*
G36*
X176716424Y-154264760D02*
X176716427Y-154264761D01*
X176716428Y-154264761D01*
X176895692Y-154319140D01*
X176895694Y-154319141D01*
X176895697Y-154319142D01*
X177060904Y-154407446D01*
X177205712Y-154526288D01*
X177324552Y-154671095D01*
X177324553Y-154671097D01*
X177412860Y-154836307D01*
X177461470Y-154996553D01*
X177467240Y-155015575D01*
X177481000Y-155155282D01*
X177481000Y-156248718D01*
X177467240Y-156388425D01*
X177467239Y-156388428D01*
X177467239Y-156388429D01*
X177412861Y-156567691D01*
X177412859Y-156567695D01*
X177324552Y-156732905D01*
X177205712Y-156877712D01*
X177060905Y-156996552D01*
X177060903Y-156996553D01*
X176895693Y-157084860D01*
X176716429Y-157139239D01*
X176716428Y-157139239D01*
X176716425Y-157139240D01*
X176530000Y-157157601D01*
X176343576Y-157139240D01*
X176343573Y-157139239D01*
X176343572Y-157139239D01*
X176164308Y-157084860D01*
X175999098Y-156996553D01*
X175999096Y-156996552D01*
X175854289Y-156877712D01*
X175735449Y-156732905D01*
X175647140Y-156567691D01*
X175592760Y-156388430D01*
X175579000Y-156248718D01*
X175579000Y-155155283D01*
X175592760Y-155015576D01*
X175592761Y-155015572D01*
X175647140Y-154836308D01*
X175647141Y-154836306D01*
X175647142Y-154836303D01*
X175735446Y-154671096D01*
X175854288Y-154526288D01*
X175999095Y-154407448D01*
X176164305Y-154319141D01*
X176164307Y-154319140D01*
X176343571Y-154264761D01*
X176343572Y-154264761D01*
X176343575Y-154264760D01*
X176530000Y-154246399D01*
X176716424Y-154264760D01*
X176716424Y-154264760D01*
G37*
G36*
X200679499Y-155688445D02*
X200716993Y-155699819D01*
X200751557Y-155718294D01*
X200781847Y-155743153D01*
X200806706Y-155773443D01*
X200825181Y-155808007D01*
X200836555Y-155845501D01*
X200841000Y-155890638D01*
X200841000Y-156529362D01*
X200836555Y-156574499D01*
X200825181Y-156611993D01*
X200806706Y-156646557D01*
X200781847Y-156676847D01*
X200751557Y-156701706D01*
X200716993Y-156720181D01*
X200679499Y-156731555D01*
X200634362Y-156736000D01*
X199895638Y-156736000D01*
X199850501Y-156731555D01*
X199813007Y-156720181D01*
X199778443Y-156701706D01*
X199748153Y-156676847D01*
X199723294Y-156646557D01*
X199704819Y-156611993D01*
X199693445Y-156574499D01*
X199689000Y-156529362D01*
X199689000Y-155890638D01*
X199693445Y-155845501D01*
X199704819Y-155808007D01*
X199723294Y-155773443D01*
X199748153Y-155743153D01*
X199778443Y-155718294D01*
X199813007Y-155699819D01*
X199850501Y-155688445D01*
X199895638Y-155684000D01*
X200634362Y-155684000D01*
X200679499Y-155688445D01*
X200679499Y-155688445D01*
G37*
G36*
X198929499Y-155688445D02*
X198966993Y-155699819D01*
X199001557Y-155718294D01*
X199031847Y-155743153D01*
X199056706Y-155773443D01*
X199075181Y-155808007D01*
X199086555Y-155845501D01*
X199091000Y-155890638D01*
X199091000Y-156529362D01*
X199086555Y-156574499D01*
X199075181Y-156611993D01*
X199056706Y-156646557D01*
X199031847Y-156676847D01*
X199001557Y-156701706D01*
X198966993Y-156720181D01*
X198929499Y-156731555D01*
X198884362Y-156736000D01*
X198145638Y-156736000D01*
X198100501Y-156731555D01*
X198063007Y-156720181D01*
X198028443Y-156701706D01*
X197998153Y-156676847D01*
X197973294Y-156646557D01*
X197954819Y-156611993D01*
X197943445Y-156574499D01*
X197939000Y-156529362D01*
X197939000Y-155890638D01*
X197943445Y-155845501D01*
X197954819Y-155808007D01*
X197973294Y-155773443D01*
X197998153Y-155743153D01*
X198028443Y-155718294D01*
X198063007Y-155699819D01*
X198100501Y-155688445D01*
X198145638Y-155684000D01*
X198884362Y-155684000D01*
X198929499Y-155688445D01*
X198929499Y-155688445D01*
G37*
G36*
X195580000Y-155702000D02*
X193548000Y-155702000D01*
X193548000Y-152654000D01*
X195580000Y-152654000D01*
X195580000Y-155702000D01*
X195580000Y-155702000D01*
G37*
G36*
X184616424Y-152264760D02*
X184616427Y-152264761D01*
X184616428Y-152264761D01*
X184795692Y-152319140D01*
X184795694Y-152319141D01*
X184795697Y-152319142D01*
X184960904Y-152407446D01*
X185105712Y-152526288D01*
X185224552Y-152671095D01*
X185224553Y-152671097D01*
X185312860Y-152836307D01*
X185348360Y-152953335D01*
X185367240Y-153015575D01*
X185381000Y-153155282D01*
X185381000Y-154248718D01*
X185367240Y-154388425D01*
X185367239Y-154388428D01*
X185367239Y-154388429D01*
X185312861Y-154567691D01*
X185312859Y-154567695D01*
X185224552Y-154732905D01*
X185105712Y-154877712D01*
X184960905Y-154996552D01*
X184960903Y-154996553D01*
X184795693Y-155084860D01*
X184616429Y-155139239D01*
X184616428Y-155139239D01*
X184616425Y-155139240D01*
X184430000Y-155157601D01*
X184243576Y-155139240D01*
X184243573Y-155139239D01*
X184243572Y-155139239D01*
X184064308Y-155084860D01*
X183899098Y-154996553D01*
X183899096Y-154996552D01*
X183754289Y-154877712D01*
X183635449Y-154732905D01*
X183547140Y-154567691D01*
X183492760Y-154388430D01*
X183479000Y-154248718D01*
X183479000Y-153155283D01*
X183492760Y-153015576D01*
X183492761Y-153015572D01*
X183547140Y-152836308D01*
X183547141Y-152836306D01*
X183547142Y-152836303D01*
X183635446Y-152671096D01*
X183754288Y-152526288D01*
X183899095Y-152407448D01*
X184064305Y-152319141D01*
X184064307Y-152319140D01*
X184243571Y-152264761D01*
X184243572Y-152264761D01*
X184243575Y-152264760D01*
X184430000Y-152246399D01*
X184616424Y-152264760D01*
X184616424Y-152264760D01*
G37*
G36*
X179116424Y-152264760D02*
X179116427Y-152264761D01*
X179116428Y-152264761D01*
X179295692Y-152319140D01*
X179295694Y-152319141D01*
X179295697Y-152319142D01*
X179460904Y-152407446D01*
X179605712Y-152526288D01*
X179724552Y-152671095D01*
X179724553Y-152671097D01*
X179812860Y-152836307D01*
X179848360Y-152953335D01*
X179867240Y-153015575D01*
X179881000Y-153155282D01*
X179881000Y-154248718D01*
X179867240Y-154388425D01*
X179867239Y-154388428D01*
X179867239Y-154388429D01*
X179812861Y-154567691D01*
X179812859Y-154567695D01*
X179724552Y-154732905D01*
X179605712Y-154877712D01*
X179460905Y-154996552D01*
X179460903Y-154996553D01*
X179295693Y-155084860D01*
X179116429Y-155139239D01*
X179116428Y-155139239D01*
X179116425Y-155139240D01*
X178930000Y-155157601D01*
X178743576Y-155139240D01*
X178743573Y-155139239D01*
X178743572Y-155139239D01*
X178564308Y-155084860D01*
X178399098Y-154996553D01*
X178399096Y-154996552D01*
X178254289Y-154877712D01*
X178135449Y-154732905D01*
X178047140Y-154567691D01*
X177992760Y-154388430D01*
X177979000Y-154248718D01*
X177979000Y-153155283D01*
X177992760Y-153015576D01*
X177992761Y-153015572D01*
X178047140Y-152836308D01*
X178047141Y-152836306D01*
X178047142Y-152836303D01*
X178135446Y-152671096D01*
X178254288Y-152526288D01*
X178399095Y-152407448D01*
X178564305Y-152319141D01*
X178564307Y-152319140D01*
X178743571Y-152264761D01*
X178743572Y-152264761D01*
X178743575Y-152264760D01*
X178930000Y-152246399D01*
X179116424Y-152264760D01*
X179116424Y-152264760D01*
G37*
G36*
X212344000Y-154432000D02*
X207518000Y-154432000D01*
X207518000Y-151892000D01*
X212344000Y-151892000D01*
X212344000Y-154432000D01*
X212344000Y-154432000D01*
G37*
G36*
X199911562Y-152874181D02*
X199946477Y-152884773D01*
X199978665Y-152901978D01*
X200006873Y-152925127D01*
X200030022Y-152953335D01*
X200047227Y-152985523D01*
X200057819Y-153020438D01*
X200062000Y-153062895D01*
X200062000Y-154204105D01*
X200057819Y-154246562D01*
X200047227Y-154281477D01*
X200030022Y-154313665D01*
X200006873Y-154341873D01*
X199978665Y-154365022D01*
X199946477Y-154382227D01*
X199911562Y-154392819D01*
X199869105Y-154397000D01*
X198402895Y-154397000D01*
X198360438Y-154392819D01*
X198325523Y-154382227D01*
X198293335Y-154365022D01*
X198265127Y-154341873D01*
X198241978Y-154313665D01*
X198224773Y-154281477D01*
X198214181Y-154246562D01*
X198210000Y-154204105D01*
X198210000Y-153062895D01*
X198214181Y-153020438D01*
X198224773Y-152985523D01*
X198241978Y-152953335D01*
X198265127Y-152925127D01*
X198293335Y-152901978D01*
X198325523Y-152884773D01*
X198360438Y-152874181D01*
X198402895Y-152870000D01*
X199869105Y-152870000D01*
X199911562Y-152874181D01*
X199911562Y-152874181D01*
G37*
G36*
X202705562Y-152874181D02*
X202740477Y-152884773D01*
X202772665Y-152901978D01*
X202800873Y-152925127D01*
X202824022Y-152953335D01*
X202841227Y-152985523D01*
X202851819Y-153020438D01*
X202856000Y-153062895D01*
X202856000Y-154204105D01*
X202851819Y-154246562D01*
X202841227Y-154281477D01*
X202824022Y-154313665D01*
X202800873Y-154341873D01*
X202772665Y-154365022D01*
X202740477Y-154382227D01*
X202705562Y-154392819D01*
X202663105Y-154397000D01*
X201196895Y-154397000D01*
X201154438Y-154392819D01*
X201119523Y-154382227D01*
X201087335Y-154365022D01*
X201059127Y-154341873D01*
X201035978Y-154313665D01*
X201018773Y-154281477D01*
X201008181Y-154246562D01*
X201004000Y-154204105D01*
X201004000Y-153062895D01*
X201008181Y-153020438D01*
X201018773Y-152985523D01*
X201035978Y-152953335D01*
X201059127Y-152925127D01*
X201087335Y-152901978D01*
X201119523Y-152884773D01*
X201154438Y-152874181D01*
X201196895Y-152870000D01*
X202663105Y-152870000D01*
X202705562Y-152874181D01*
X202705562Y-152874181D01*
G37*
G36*
X205372562Y-152874181D02*
X205407477Y-152884773D01*
X205439665Y-152901978D01*
X205467873Y-152925127D01*
X205491022Y-152953335D01*
X205508227Y-152985523D01*
X205518819Y-153020438D01*
X205523000Y-153062895D01*
X205523000Y-154204105D01*
X205518819Y-154246562D01*
X205508227Y-154281477D01*
X205491022Y-154313665D01*
X205467873Y-154341873D01*
X205439665Y-154365022D01*
X205407477Y-154382227D01*
X205372562Y-154392819D01*
X205330105Y-154397000D01*
X203863895Y-154397000D01*
X203821438Y-154392819D01*
X203786523Y-154382227D01*
X203754335Y-154365022D01*
X203726127Y-154341873D01*
X203702978Y-154313665D01*
X203685773Y-154281477D01*
X203675181Y-154246562D01*
X203671000Y-154204105D01*
X203671000Y-153062895D01*
X203675181Y-153020438D01*
X203685773Y-152985523D01*
X203702978Y-152953335D01*
X203726127Y-152925127D01*
X203754335Y-152901978D01*
X203786523Y-152884773D01*
X203821438Y-152874181D01*
X203863895Y-152870000D01*
X205330105Y-152870000D01*
X205372562Y-152874181D01*
X205372562Y-152874181D01*
G37*
G36*
X237236000Y-148200000D02*
X237238402Y-148224386D01*
X237245515Y-148247835D01*
X237247000Y-148250613D01*
X237247000Y-153427000D01*
X232145000Y-153427000D01*
X232145000Y-148250613D01*
X232146485Y-148247835D01*
X232153598Y-148224386D01*
X232156000Y-148200000D01*
X232156000Y-145161000D01*
X237236000Y-145161000D01*
X237236000Y-148200000D01*
X237236000Y-148200000D01*
G37*
G36*
X231302000Y-153427000D02*
X229200000Y-153427000D01*
X229200000Y-148325000D01*
X231302000Y-148325000D01*
X231302000Y-153427000D01*
X231302000Y-153427000D01*
G37*
G36*
X193181562Y-149954181D02*
X193216477Y-149964773D01*
X193248665Y-149981978D01*
X193276873Y-150005127D01*
X193300022Y-150033335D01*
X193317227Y-150065523D01*
X193327819Y-150100438D01*
X193332000Y-150142895D01*
X193332000Y-151609105D01*
X193327819Y-151651562D01*
X193317227Y-151686477D01*
X193300022Y-151718665D01*
X193276873Y-151746873D01*
X193248665Y-151770022D01*
X193216477Y-151787227D01*
X193181562Y-151797819D01*
X193139105Y-151802000D01*
X191997895Y-151802000D01*
X191955438Y-151797819D01*
X191920523Y-151787227D01*
X191888335Y-151770022D01*
X191860127Y-151746873D01*
X191836978Y-151718665D01*
X191819773Y-151686477D01*
X191809181Y-151651562D01*
X191805000Y-151609105D01*
X191805000Y-150142895D01*
X191809181Y-150100438D01*
X191819773Y-150065523D01*
X191836978Y-150033335D01*
X191860127Y-150005127D01*
X191888335Y-149981978D01*
X191920523Y-149964773D01*
X191955438Y-149954181D01*
X191997895Y-149950000D01*
X193139105Y-149950000D01*
X193181562Y-149954181D01*
X193181562Y-149954181D01*
G37*
G36*
X196156562Y-149954181D02*
X196191477Y-149964773D01*
X196223665Y-149981978D01*
X196251873Y-150005127D01*
X196275022Y-150033335D01*
X196292227Y-150065523D01*
X196302819Y-150100438D01*
X196307000Y-150142895D01*
X196307000Y-151609105D01*
X196302819Y-151651562D01*
X196292227Y-151686477D01*
X196275022Y-151718665D01*
X196251873Y-151746873D01*
X196223665Y-151770022D01*
X196191477Y-151787227D01*
X196156562Y-151797819D01*
X196114105Y-151802000D01*
X194972895Y-151802000D01*
X194930438Y-151797819D01*
X194895523Y-151787227D01*
X194863335Y-151770022D01*
X194835127Y-151746873D01*
X194811978Y-151718665D01*
X194794773Y-151686477D01*
X194784181Y-151651562D01*
X194780000Y-151609105D01*
X194780000Y-150142895D01*
X194784181Y-150100438D01*
X194794773Y-150065523D01*
X194811978Y-150033335D01*
X194835127Y-150005127D01*
X194863335Y-149981978D01*
X194895523Y-149964773D01*
X194930438Y-149954181D01*
X194972895Y-149950000D01*
X196114105Y-149950000D01*
X196156562Y-149954181D01*
X196156562Y-149954181D01*
G37*
G36*
X199911562Y-149899181D02*
X199946477Y-149909773D01*
X199978665Y-149926978D01*
X200006873Y-149950127D01*
X200030022Y-149978335D01*
X200047227Y-150010523D01*
X200057819Y-150045438D01*
X200062000Y-150087895D01*
X200062000Y-151229105D01*
X200057819Y-151271562D01*
X200047227Y-151306477D01*
X200030022Y-151338665D01*
X200006873Y-151366873D01*
X199978665Y-151390022D01*
X199946477Y-151407227D01*
X199911562Y-151417819D01*
X199869105Y-151422000D01*
X198402895Y-151422000D01*
X198360438Y-151417819D01*
X198325523Y-151407227D01*
X198293335Y-151390022D01*
X198265127Y-151366873D01*
X198241978Y-151338665D01*
X198224773Y-151306477D01*
X198214181Y-151271562D01*
X198210000Y-151229105D01*
X198210000Y-150087895D01*
X198214181Y-150045438D01*
X198224773Y-150010523D01*
X198241978Y-149978335D01*
X198265127Y-149950127D01*
X198293335Y-149926978D01*
X198325523Y-149909773D01*
X198360438Y-149899181D01*
X198402895Y-149895000D01*
X199869105Y-149895000D01*
X199911562Y-149899181D01*
X199911562Y-149899181D01*
G37*
G36*
X202705562Y-149899181D02*
X202740477Y-149909773D01*
X202772665Y-149926978D01*
X202800873Y-149950127D01*
X202824022Y-149978335D01*
X202841227Y-150010523D01*
X202851819Y-150045438D01*
X202856000Y-150087895D01*
X202856000Y-151229105D01*
X202851819Y-151271562D01*
X202841227Y-151306477D01*
X202824022Y-151338665D01*
X202800873Y-151366873D01*
X202772665Y-151390022D01*
X202740477Y-151407227D01*
X202705562Y-151417819D01*
X202663105Y-151422000D01*
X201196895Y-151422000D01*
X201154438Y-151417819D01*
X201119523Y-151407227D01*
X201087335Y-151390022D01*
X201059127Y-151366873D01*
X201035978Y-151338665D01*
X201018773Y-151306477D01*
X201008181Y-151271562D01*
X201004000Y-151229105D01*
X201004000Y-150087895D01*
X201008181Y-150045438D01*
X201018773Y-150010523D01*
X201035978Y-149978335D01*
X201059127Y-149950127D01*
X201087335Y-149926978D01*
X201119523Y-149909773D01*
X201154438Y-149899181D01*
X201196895Y-149895000D01*
X202663105Y-149895000D01*
X202705562Y-149899181D01*
X202705562Y-149899181D01*
G37*
G36*
X205372562Y-149899181D02*
X205407477Y-149909773D01*
X205439665Y-149926978D01*
X205467873Y-149950127D01*
X205491022Y-149978335D01*
X205508227Y-150010523D01*
X205518819Y-150045438D01*
X205523000Y-150087895D01*
X205523000Y-151229105D01*
X205518819Y-151271562D01*
X205508227Y-151306477D01*
X205491022Y-151338665D01*
X205467873Y-151366873D01*
X205439665Y-151390022D01*
X205407477Y-151407227D01*
X205372562Y-151417819D01*
X205330105Y-151422000D01*
X203863895Y-151422000D01*
X203821438Y-151417819D01*
X203786523Y-151407227D01*
X203754335Y-151390022D01*
X203726127Y-151366873D01*
X203702978Y-151338665D01*
X203685773Y-151306477D01*
X203675181Y-151271562D01*
X203671000Y-151229105D01*
X203671000Y-150087895D01*
X203675181Y-150045438D01*
X203685773Y-150010523D01*
X203702978Y-149978335D01*
X203726127Y-149950127D01*
X203754335Y-149926978D01*
X203786523Y-149909773D01*
X203821438Y-149899181D01*
X203863895Y-149895000D01*
X205330105Y-149895000D01*
X205372562Y-149899181D01*
X205372562Y-149899181D01*
G37*
G36*
X214769000Y-150170000D02*
X212967000Y-150170000D01*
X212967000Y-149418000D01*
X214769000Y-149418000D01*
X214769000Y-150170000D01*
X214769000Y-150170000D01*
G37*
G36*
X172895770Y-147859372D02*
X173011689Y-147882429D01*
X173193678Y-147957811D01*
X173357463Y-148067249D01*
X173496751Y-148206537D01*
X173606189Y-148370322D01*
X173681571Y-148552311D01*
X173703278Y-148661443D01*
X173720000Y-148745507D01*
X173720000Y-148942493D01*
X173711026Y-148987608D01*
X173681571Y-149135689D01*
X173606189Y-149317678D01*
X173496751Y-149481463D01*
X173357463Y-149620751D01*
X173193678Y-149730189D01*
X173011689Y-149805571D01*
X172895770Y-149828628D01*
X172818493Y-149844000D01*
X172621507Y-149844000D01*
X172544230Y-149828628D01*
X172428311Y-149805571D01*
X172246322Y-149730189D01*
X172082537Y-149620751D01*
X171943249Y-149481463D01*
X171833811Y-149317678D01*
X171758429Y-149135689D01*
X171728974Y-148987608D01*
X171720000Y-148942493D01*
X171720000Y-148745507D01*
X171736722Y-148661443D01*
X171758429Y-148552311D01*
X171833811Y-148370322D01*
X171943249Y-148206537D01*
X172082537Y-148067249D01*
X172246322Y-147957811D01*
X172428311Y-147882429D01*
X172544230Y-147859372D01*
X172621507Y-147844000D01*
X172818493Y-147844000D01*
X172895770Y-147859372D01*
X172895770Y-147859372D01*
G37*
G36*
X207819499Y-148576445D02*
X207856993Y-148587819D01*
X207891557Y-148606294D01*
X207921847Y-148631153D01*
X207946706Y-148661443D01*
X207965181Y-148696007D01*
X207976555Y-148733501D01*
X207981000Y-148778638D01*
X207981000Y-149417362D01*
X207976555Y-149462499D01*
X207965181Y-149499993D01*
X207946706Y-149534557D01*
X207921847Y-149564847D01*
X207891557Y-149589706D01*
X207856993Y-149608181D01*
X207819499Y-149619555D01*
X207774362Y-149624000D01*
X207035638Y-149624000D01*
X206990501Y-149619555D01*
X206953007Y-149608181D01*
X206918443Y-149589706D01*
X206888153Y-149564847D01*
X206863294Y-149534557D01*
X206844819Y-149499993D01*
X206833445Y-149462499D01*
X206829000Y-149417362D01*
X206829000Y-148778638D01*
X206833445Y-148733501D01*
X206844819Y-148696007D01*
X206863294Y-148661443D01*
X206888153Y-148631153D01*
X206918443Y-148606294D01*
X206953007Y-148587819D01*
X206990501Y-148576445D01*
X207035638Y-148572000D01*
X207774362Y-148572000D01*
X207819499Y-148576445D01*
X207819499Y-148576445D01*
G37*
G36*
X209569499Y-148576445D02*
X209606993Y-148587819D01*
X209641557Y-148606294D01*
X209671847Y-148631153D01*
X209696706Y-148661443D01*
X209715181Y-148696007D01*
X209726555Y-148733501D01*
X209731000Y-148778638D01*
X209731000Y-149417362D01*
X209726555Y-149462499D01*
X209715181Y-149499993D01*
X209696706Y-149534557D01*
X209671847Y-149564847D01*
X209641557Y-149589706D01*
X209606993Y-149608181D01*
X209569499Y-149619555D01*
X209524362Y-149624000D01*
X208785638Y-149624000D01*
X208740501Y-149619555D01*
X208703007Y-149608181D01*
X208668443Y-149589706D01*
X208638153Y-149564847D01*
X208613294Y-149534557D01*
X208594819Y-149499993D01*
X208583445Y-149462499D01*
X208579000Y-149417362D01*
X208579000Y-148778638D01*
X208583445Y-148733501D01*
X208594819Y-148696007D01*
X208613294Y-148661443D01*
X208638153Y-148631153D01*
X208668443Y-148606294D01*
X208703007Y-148587819D01*
X208740501Y-148576445D01*
X208785638Y-148572000D01*
X209524362Y-148572000D01*
X209569499Y-148576445D01*
X209569499Y-148576445D01*
G37*
G36*
X187198000Y-149606000D02*
X180086000Y-149606000D01*
X180086000Y-146558000D01*
X187198000Y-146558000D01*
X187198000Y-149606000D01*
X187198000Y-149606000D01*
G37*
G36*
X196156562Y-147160181D02*
X196191477Y-147170773D01*
X196223665Y-147187978D01*
X196251873Y-147211127D01*
X196275022Y-147239335D01*
X196292227Y-147271523D01*
X196302819Y-147306438D01*
X196307000Y-147348895D01*
X196307000Y-148815105D01*
X196302819Y-148857562D01*
X196292227Y-148892477D01*
X196275022Y-148924665D01*
X196251873Y-148952873D01*
X196223665Y-148976022D01*
X196191477Y-148993227D01*
X196156562Y-149003819D01*
X196114105Y-149008000D01*
X194972895Y-149008000D01*
X194930438Y-149003819D01*
X194895523Y-148993227D01*
X194863335Y-148976022D01*
X194835127Y-148952873D01*
X194811978Y-148924665D01*
X194794773Y-148892477D01*
X194784181Y-148857562D01*
X194780000Y-148815105D01*
X194780000Y-147348895D01*
X194784181Y-147306438D01*
X194794773Y-147271523D01*
X194811978Y-147239335D01*
X194835127Y-147211127D01*
X194863335Y-147187978D01*
X194895523Y-147170773D01*
X194930438Y-147160181D01*
X194972895Y-147156000D01*
X196114105Y-147156000D01*
X196156562Y-147160181D01*
X196156562Y-147160181D01*
G37*
G36*
X193181562Y-147160181D02*
X193216477Y-147170773D01*
X193248665Y-147187978D01*
X193276873Y-147211127D01*
X193300022Y-147239335D01*
X193317227Y-147271523D01*
X193327819Y-147306438D01*
X193332000Y-147348895D01*
X193332000Y-148815105D01*
X193327819Y-148857562D01*
X193317227Y-148892477D01*
X193300022Y-148924665D01*
X193276873Y-148952873D01*
X193248665Y-148976022D01*
X193216477Y-148993227D01*
X193181562Y-149003819D01*
X193139105Y-149008000D01*
X191997895Y-149008000D01*
X191955438Y-149003819D01*
X191920523Y-148993227D01*
X191888335Y-148976022D01*
X191860127Y-148952873D01*
X191836978Y-148924665D01*
X191819773Y-148892477D01*
X191809181Y-148857562D01*
X191805000Y-148815105D01*
X191805000Y-147348895D01*
X191809181Y-147306438D01*
X191819773Y-147271523D01*
X191836978Y-147239335D01*
X191860127Y-147211127D01*
X191888335Y-147187978D01*
X191920523Y-147170773D01*
X191955438Y-147160181D01*
X191997895Y-147156000D01*
X193139105Y-147156000D01*
X193181562Y-147160181D01*
X193181562Y-147160181D01*
G37*
G36*
X198826293Y-146901323D02*
X198833311Y-146903452D01*
X198847080Y-146910811D01*
X198869719Y-146920187D01*
X198893753Y-146924967D01*
X198918257Y-146924966D01*
X198942290Y-146920184D01*
X198964920Y-146910811D01*
X198978689Y-146903452D01*
X198985707Y-146901323D01*
X198999140Y-146900000D01*
X199312860Y-146900000D01*
X199326293Y-146901323D01*
X199333311Y-146903452D01*
X199347080Y-146910811D01*
X199369719Y-146920187D01*
X199393753Y-146924967D01*
X199418257Y-146924966D01*
X199442290Y-146920184D01*
X199464920Y-146910811D01*
X199478689Y-146903452D01*
X199485707Y-146901323D01*
X199499140Y-146900000D01*
X199812860Y-146900000D01*
X199826293Y-146901323D01*
X199833311Y-146903452D01*
X199847080Y-146910811D01*
X199869719Y-146920187D01*
X199893753Y-146924967D01*
X199918257Y-146924966D01*
X199942290Y-146920184D01*
X199964920Y-146910811D01*
X199978689Y-146903452D01*
X199985707Y-146901323D01*
X199999140Y-146900000D01*
X200312860Y-146900000D01*
X200326293Y-146901323D01*
X200333311Y-146903452D01*
X200347080Y-146910811D01*
X200369719Y-146920187D01*
X200393753Y-146924967D01*
X200418257Y-146924966D01*
X200442290Y-146920184D01*
X200464920Y-146910811D01*
X200478689Y-146903452D01*
X200485707Y-146901323D01*
X200499140Y-146900000D01*
X200812860Y-146900000D01*
X200826293Y-146901323D01*
X200833311Y-146903452D01*
X200847080Y-146910811D01*
X200869719Y-146920187D01*
X200893753Y-146924967D01*
X200918257Y-146924966D01*
X200942290Y-146920184D01*
X200964920Y-146910811D01*
X200978689Y-146903452D01*
X200985707Y-146901323D01*
X200999140Y-146900000D01*
X201312860Y-146900000D01*
X201326293Y-146901323D01*
X201333311Y-146903452D01*
X201347080Y-146910811D01*
X201369719Y-146920187D01*
X201393753Y-146924967D01*
X201418257Y-146924966D01*
X201442290Y-146920184D01*
X201464920Y-146910811D01*
X201478689Y-146903452D01*
X201485707Y-146901323D01*
X201499140Y-146900000D01*
X201812860Y-146900000D01*
X201826293Y-146901323D01*
X201833311Y-146903452D01*
X201847080Y-146910811D01*
X201869719Y-146920187D01*
X201893753Y-146924967D01*
X201918257Y-146924966D01*
X201942290Y-146920184D01*
X201964920Y-146910811D01*
X201978689Y-146903452D01*
X201985707Y-146901323D01*
X201999140Y-146900000D01*
X202312860Y-146900000D01*
X202326293Y-146901323D01*
X202333312Y-146903452D01*
X202339775Y-146906907D01*
X202345442Y-146911558D01*
X202350093Y-146917225D01*
X202353548Y-146923688D01*
X202355677Y-146930707D01*
X202357000Y-146944140D01*
X202357000Y-148457860D01*
X202355677Y-148471293D01*
X202353548Y-148478312D01*
X202350093Y-148484775D01*
X202345442Y-148490442D01*
X202339775Y-148495093D01*
X202333312Y-148498548D01*
X202326293Y-148500677D01*
X202312860Y-148502000D01*
X201999140Y-148502000D01*
X201985707Y-148500677D01*
X201978689Y-148498548D01*
X201964920Y-148491189D01*
X201942281Y-148481813D01*
X201918247Y-148477033D01*
X201893743Y-148477034D01*
X201869710Y-148481816D01*
X201847080Y-148491189D01*
X201833311Y-148498548D01*
X201826293Y-148500677D01*
X201812860Y-148502000D01*
X201499140Y-148502000D01*
X201485707Y-148500677D01*
X201478689Y-148498548D01*
X201464920Y-148491189D01*
X201442281Y-148481813D01*
X201418247Y-148477033D01*
X201393743Y-148477034D01*
X201369710Y-148481816D01*
X201347080Y-148491189D01*
X201333311Y-148498548D01*
X201326293Y-148500677D01*
X201312860Y-148502000D01*
X200999140Y-148502000D01*
X200985707Y-148500677D01*
X200978689Y-148498548D01*
X200964920Y-148491189D01*
X200942281Y-148481813D01*
X200918247Y-148477033D01*
X200893743Y-148477034D01*
X200869710Y-148481816D01*
X200847080Y-148491189D01*
X200833311Y-148498548D01*
X200826293Y-148500677D01*
X200812860Y-148502000D01*
X200499140Y-148502000D01*
X200485707Y-148500677D01*
X200478689Y-148498548D01*
X200464920Y-148491189D01*
X200442281Y-148481813D01*
X200418247Y-148477033D01*
X200393743Y-148477034D01*
X200369710Y-148481816D01*
X200347080Y-148491189D01*
X200333311Y-148498548D01*
X200326293Y-148500677D01*
X200312860Y-148502000D01*
X199999140Y-148502000D01*
X199985707Y-148500677D01*
X199978689Y-148498548D01*
X199964920Y-148491189D01*
X199942281Y-148481813D01*
X199918247Y-148477033D01*
X199893743Y-148477034D01*
X199869710Y-148481816D01*
X199847080Y-148491189D01*
X199833311Y-148498548D01*
X199826293Y-148500677D01*
X199812860Y-148502000D01*
X199499140Y-148502000D01*
X199485707Y-148500677D01*
X199478689Y-148498548D01*
X199464920Y-148491189D01*
X199442281Y-148481813D01*
X199418247Y-148477033D01*
X199393743Y-148477034D01*
X199369710Y-148481816D01*
X199347080Y-148491189D01*
X199333311Y-148498548D01*
X199326293Y-148500677D01*
X199312860Y-148502000D01*
X198999140Y-148502000D01*
X198985707Y-148500677D01*
X198978689Y-148498548D01*
X198964920Y-148491189D01*
X198942281Y-148481813D01*
X198918247Y-148477033D01*
X198893743Y-148477034D01*
X198869710Y-148481816D01*
X198847080Y-148491189D01*
X198833311Y-148498548D01*
X198826293Y-148500677D01*
X198812860Y-148502000D01*
X198499140Y-148502000D01*
X198485707Y-148500677D01*
X198478688Y-148498548D01*
X198472225Y-148495093D01*
X198466558Y-148490442D01*
X198461907Y-148484775D01*
X198458452Y-148478312D01*
X198456323Y-148471293D01*
X198455000Y-148457860D01*
X198455000Y-146944140D01*
X198456323Y-146930707D01*
X198458452Y-146923688D01*
X198461907Y-146917225D01*
X198466558Y-146911558D01*
X198472225Y-146906907D01*
X198478688Y-146903452D01*
X198485707Y-146901323D01*
X198499140Y-146900000D01*
X198812860Y-146900000D01*
X198826293Y-146901323D01*
X198826293Y-146901323D01*
G37*
G36*
X214769000Y-148270000D02*
X212967000Y-148270000D01*
X212967000Y-147518000D01*
X214769000Y-147518000D01*
X214769000Y-148270000D01*
X214769000Y-148270000D01*
G37*
G36*
X208647000Y-147401000D02*
X206545000Y-147401000D01*
X206545000Y-146599000D01*
X208647000Y-146599000D01*
X208647000Y-147401000D01*
X208647000Y-147401000D01*
G37*
G36*
X198001293Y-142576323D02*
X198008312Y-142578452D01*
X198014775Y-142581907D01*
X198020442Y-142586558D01*
X198025093Y-142592225D01*
X198028548Y-142598688D01*
X198030677Y-142605707D01*
X198032000Y-142619140D01*
X198032000Y-142932860D01*
X198030677Y-142946293D01*
X198028548Y-142953311D01*
X198021189Y-142967080D01*
X198011813Y-142989719D01*
X198007033Y-143013753D01*
X198007034Y-143038257D01*
X198011816Y-143062290D01*
X198021189Y-143084920D01*
X198028548Y-143098689D01*
X198030677Y-143105707D01*
X198032000Y-143119140D01*
X198032000Y-143432860D01*
X198030677Y-143446293D01*
X198028548Y-143453311D01*
X198021189Y-143467080D01*
X198011813Y-143489719D01*
X198007033Y-143513753D01*
X198007034Y-143538257D01*
X198011816Y-143562290D01*
X198021189Y-143584920D01*
X198028548Y-143598689D01*
X198030677Y-143605707D01*
X198032000Y-143619140D01*
X198032000Y-143932860D01*
X198030677Y-143946293D01*
X198028548Y-143953311D01*
X198021189Y-143967080D01*
X198011813Y-143989719D01*
X198007033Y-144013753D01*
X198007034Y-144038257D01*
X198011816Y-144062290D01*
X198021189Y-144084920D01*
X198028548Y-144098689D01*
X198030677Y-144105707D01*
X198032000Y-144119140D01*
X198032000Y-144432860D01*
X198030677Y-144446293D01*
X198028548Y-144453311D01*
X198021189Y-144467080D01*
X198011813Y-144489719D01*
X198007033Y-144513753D01*
X198007034Y-144538257D01*
X198011816Y-144562290D01*
X198021189Y-144584920D01*
X198028548Y-144598689D01*
X198030677Y-144605707D01*
X198032000Y-144619140D01*
X198032000Y-144932860D01*
X198030677Y-144946293D01*
X198028548Y-144953311D01*
X198021189Y-144967080D01*
X198011813Y-144989719D01*
X198007033Y-145013753D01*
X198007034Y-145038257D01*
X198011816Y-145062290D01*
X198021189Y-145084920D01*
X198028548Y-145098689D01*
X198030677Y-145105707D01*
X198032000Y-145119140D01*
X198032000Y-145432860D01*
X198030677Y-145446293D01*
X198028548Y-145453311D01*
X198021189Y-145467080D01*
X198011813Y-145489719D01*
X198007033Y-145513753D01*
X198007034Y-145538257D01*
X198011816Y-145562290D01*
X198021189Y-145584920D01*
X198028548Y-145598689D01*
X198030677Y-145605707D01*
X198032000Y-145619140D01*
X198032000Y-145932860D01*
X198030677Y-145946293D01*
X198028548Y-145953311D01*
X198021189Y-145967080D01*
X198011813Y-145989719D01*
X198007033Y-146013753D01*
X198007034Y-146038257D01*
X198011816Y-146062290D01*
X198021189Y-146084920D01*
X198028548Y-146098689D01*
X198030677Y-146105707D01*
X198032000Y-146119140D01*
X198032000Y-146432860D01*
X198030677Y-146446293D01*
X198028548Y-146453312D01*
X198025093Y-146459775D01*
X198020442Y-146465442D01*
X198014775Y-146470093D01*
X198008312Y-146473548D01*
X198001293Y-146475677D01*
X197987860Y-146477000D01*
X196474140Y-146477000D01*
X196460707Y-146475677D01*
X196453688Y-146473548D01*
X196447225Y-146470093D01*
X196441558Y-146465442D01*
X196436907Y-146459775D01*
X196433452Y-146453312D01*
X196431323Y-146446293D01*
X196430000Y-146432860D01*
X196430000Y-146119140D01*
X196431323Y-146105707D01*
X196433452Y-146098689D01*
X196440811Y-146084920D01*
X196450187Y-146062281D01*
X196454967Y-146038247D01*
X196454966Y-146013743D01*
X196450184Y-145989710D01*
X196440811Y-145967080D01*
X196433452Y-145953311D01*
X196431323Y-145946293D01*
X196430000Y-145932860D01*
X196430000Y-145619140D01*
X196431323Y-145605707D01*
X196433452Y-145598689D01*
X196440811Y-145584920D01*
X196450187Y-145562281D01*
X196454967Y-145538247D01*
X196454966Y-145513743D01*
X196450184Y-145489710D01*
X196440811Y-145467080D01*
X196433452Y-145453311D01*
X196431323Y-145446293D01*
X196430000Y-145432860D01*
X196430000Y-145119140D01*
X196431323Y-145105707D01*
X196433452Y-145098689D01*
X196440811Y-145084920D01*
X196450187Y-145062281D01*
X196454967Y-145038247D01*
X196454966Y-145013743D01*
X196450184Y-144989710D01*
X196440811Y-144967080D01*
X196433452Y-144953311D01*
X196431323Y-144946293D01*
X196430000Y-144932860D01*
X196430000Y-144619140D01*
X196431323Y-144605707D01*
X196433452Y-144598689D01*
X196440811Y-144584920D01*
X196450187Y-144562281D01*
X196454967Y-144538247D01*
X196454966Y-144513743D01*
X196450184Y-144489710D01*
X196440811Y-144467080D01*
X196433452Y-144453311D01*
X196431323Y-144446293D01*
X196430000Y-144432860D01*
X196430000Y-144119140D01*
X196431323Y-144105707D01*
X196433452Y-144098689D01*
X196440811Y-144084920D01*
X196450187Y-144062281D01*
X196454967Y-144038247D01*
X196454966Y-144013743D01*
X196450184Y-143989710D01*
X196440811Y-143967080D01*
X196433452Y-143953311D01*
X196431323Y-143946293D01*
X196430000Y-143932860D01*
X196430000Y-143619140D01*
X196431323Y-143605707D01*
X196433452Y-143598689D01*
X196440811Y-143584920D01*
X196450187Y-143562281D01*
X196454967Y-143538247D01*
X196454966Y-143513743D01*
X196450184Y-143489710D01*
X196440811Y-143467080D01*
X196433452Y-143453311D01*
X196431323Y-143446293D01*
X196430000Y-143432860D01*
X196430000Y-143119140D01*
X196431323Y-143105707D01*
X196433452Y-143098689D01*
X196440811Y-143084920D01*
X196450187Y-143062281D01*
X196454967Y-143038247D01*
X196454966Y-143013743D01*
X196450184Y-142989710D01*
X196440811Y-142967080D01*
X196433452Y-142953311D01*
X196431323Y-142946293D01*
X196430000Y-142932860D01*
X196430000Y-142619140D01*
X196431323Y-142605707D01*
X196433452Y-142598688D01*
X196436907Y-142592225D01*
X196441558Y-142586558D01*
X196447225Y-142581907D01*
X196453688Y-142578452D01*
X196460707Y-142576323D01*
X196474140Y-142575000D01*
X197987860Y-142575000D01*
X198001293Y-142576323D01*
X198001293Y-142576323D01*
G37*
G36*
X204351293Y-142576323D02*
X204358312Y-142578452D01*
X204364775Y-142581907D01*
X204370442Y-142586558D01*
X204375093Y-142592225D01*
X204378548Y-142598688D01*
X204380677Y-142605707D01*
X204382000Y-142619140D01*
X204382000Y-142932860D01*
X204380677Y-142946293D01*
X204378548Y-142953311D01*
X204371189Y-142967080D01*
X204361813Y-142989719D01*
X204357033Y-143013753D01*
X204357034Y-143038257D01*
X204361816Y-143062290D01*
X204371189Y-143084920D01*
X204378548Y-143098689D01*
X204380677Y-143105707D01*
X204382000Y-143119140D01*
X204382000Y-143432860D01*
X204380677Y-143446293D01*
X204378548Y-143453311D01*
X204371189Y-143467080D01*
X204361813Y-143489719D01*
X204357033Y-143513753D01*
X204357034Y-143538257D01*
X204361816Y-143562290D01*
X204371189Y-143584920D01*
X204378548Y-143598689D01*
X204380677Y-143605707D01*
X204382000Y-143619140D01*
X204382000Y-143932860D01*
X204380677Y-143946293D01*
X204378548Y-143953311D01*
X204371189Y-143967080D01*
X204361813Y-143989719D01*
X204357033Y-144013753D01*
X204357034Y-144038257D01*
X204361816Y-144062290D01*
X204371189Y-144084920D01*
X204378548Y-144098689D01*
X204380677Y-144105707D01*
X204382000Y-144119140D01*
X204382000Y-144432860D01*
X204380677Y-144446293D01*
X204378548Y-144453311D01*
X204371189Y-144467080D01*
X204361813Y-144489719D01*
X204357033Y-144513753D01*
X204357034Y-144538257D01*
X204361816Y-144562290D01*
X204371189Y-144584920D01*
X204378548Y-144598689D01*
X204380677Y-144605707D01*
X204382000Y-144619140D01*
X204382000Y-144932860D01*
X204380677Y-144946293D01*
X204378548Y-144953311D01*
X204371189Y-144967080D01*
X204361813Y-144989719D01*
X204357033Y-145013753D01*
X204357034Y-145038257D01*
X204361816Y-145062290D01*
X204371189Y-145084920D01*
X204378548Y-145098689D01*
X204380677Y-145105707D01*
X204382000Y-145119140D01*
X204382000Y-145432860D01*
X204380677Y-145446293D01*
X204378548Y-145453311D01*
X204371189Y-145467080D01*
X204361813Y-145489719D01*
X204357033Y-145513753D01*
X204357034Y-145538257D01*
X204361816Y-145562290D01*
X204371189Y-145584920D01*
X204378548Y-145598689D01*
X204380677Y-145605707D01*
X204382000Y-145619140D01*
X204382000Y-145932860D01*
X204380677Y-145946293D01*
X204378548Y-145953311D01*
X204371189Y-145967080D01*
X204361813Y-145989719D01*
X204357033Y-146013753D01*
X204357034Y-146038257D01*
X204361816Y-146062290D01*
X204371189Y-146084920D01*
X204378548Y-146098689D01*
X204380677Y-146105707D01*
X204382000Y-146119140D01*
X204382000Y-146432860D01*
X204380677Y-146446293D01*
X204378548Y-146453312D01*
X204375093Y-146459775D01*
X204370442Y-146465442D01*
X204364775Y-146470093D01*
X204358312Y-146473548D01*
X204351293Y-146475677D01*
X204337860Y-146477000D01*
X202824140Y-146477000D01*
X202810707Y-146475677D01*
X202803688Y-146473548D01*
X202797225Y-146470093D01*
X202791558Y-146465442D01*
X202786907Y-146459775D01*
X202783452Y-146453312D01*
X202781323Y-146446293D01*
X202780000Y-146432860D01*
X202780000Y-146119140D01*
X202781323Y-146105707D01*
X202783452Y-146098689D01*
X202790811Y-146084920D01*
X202800187Y-146062281D01*
X202804967Y-146038247D01*
X202804966Y-146013743D01*
X202800184Y-145989710D01*
X202790811Y-145967080D01*
X202783452Y-145953311D01*
X202781323Y-145946293D01*
X202780000Y-145932860D01*
X202780000Y-145619140D01*
X202781323Y-145605707D01*
X202783452Y-145598689D01*
X202790811Y-145584920D01*
X202800187Y-145562281D01*
X202804967Y-145538247D01*
X202804966Y-145513743D01*
X202800184Y-145489710D01*
X202790811Y-145467080D01*
X202783452Y-145453311D01*
X202781323Y-145446293D01*
X202780000Y-145432860D01*
X202780000Y-145119140D01*
X202781323Y-145105707D01*
X202783452Y-145098689D01*
X202790811Y-145084920D01*
X202800187Y-145062281D01*
X202804967Y-145038247D01*
X202804966Y-145013743D01*
X202800184Y-144989710D01*
X202790811Y-144967080D01*
X202783452Y-144953311D01*
X202781323Y-144946293D01*
X202780000Y-144932860D01*
X202780000Y-144619140D01*
X202781323Y-144605707D01*
X202783452Y-144598689D01*
X202790811Y-144584920D01*
X202800187Y-144562281D01*
X202804967Y-144538247D01*
X202804966Y-144513743D01*
X202800184Y-144489710D01*
X202790811Y-144467080D01*
X202783452Y-144453311D01*
X202781323Y-144446293D01*
X202780000Y-144432860D01*
X202780000Y-144119140D01*
X202781323Y-144105707D01*
X202783452Y-144098689D01*
X202790811Y-144084920D01*
X202800187Y-144062281D01*
X202804967Y-144038247D01*
X202804966Y-144013743D01*
X202800184Y-143989710D01*
X202790811Y-143967080D01*
X202783452Y-143953311D01*
X202781323Y-143946293D01*
X202780000Y-143932860D01*
X202780000Y-143619140D01*
X202781323Y-143605707D01*
X202783452Y-143598689D01*
X202790811Y-143584920D01*
X202800187Y-143562281D01*
X202804967Y-143538247D01*
X202804966Y-143513743D01*
X202800184Y-143489710D01*
X202790811Y-143467080D01*
X202783452Y-143453311D01*
X202781323Y-143446293D01*
X202780000Y-143432860D01*
X202780000Y-143119140D01*
X202781323Y-143105707D01*
X202783452Y-143098689D01*
X202790811Y-143084920D01*
X202800187Y-143062281D01*
X202804967Y-143038247D01*
X202804966Y-143013743D01*
X202800184Y-142989710D01*
X202790811Y-142967080D01*
X202783452Y-142953311D01*
X202781323Y-142946293D01*
X202780000Y-142932860D01*
X202780000Y-142619140D01*
X202781323Y-142605707D01*
X202783452Y-142598688D01*
X202786907Y-142592225D01*
X202791558Y-142586558D01*
X202797225Y-142581907D01*
X202803688Y-142578452D01*
X202810707Y-142576323D01*
X202824140Y-142575000D01*
X204337860Y-142575000D01*
X204351293Y-142576323D01*
X204351293Y-142576323D01*
G37*
G36*
X212047000Y-146451000D02*
X209945000Y-146451000D01*
X209945000Y-145649000D01*
X212047000Y-145649000D01*
X212047000Y-146451000D01*
X212047000Y-146451000D01*
G37*
G36*
X208647000Y-145501000D02*
X206545000Y-145501000D01*
X206545000Y-144699000D01*
X208647000Y-144699000D01*
X208647000Y-145501000D01*
X208647000Y-145501000D01*
G37*
G36*
X173712000Y-145044000D02*
X171710000Y-145044000D01*
X171710000Y-143642000D01*
X173712000Y-143642000D01*
X173712000Y-145044000D01*
X173712000Y-145044000D01*
G37*
G36*
X208865000Y-142567000D02*
X205663000Y-142567000D01*
X205663000Y-141065000D01*
X208865000Y-141065000D01*
X208865000Y-142567000D01*
X208865000Y-142567000D01*
G37*
G36*
X188462000Y-142544000D02*
X187160000Y-142544000D01*
X187160000Y-141442000D01*
X188462000Y-141442000D01*
X188462000Y-142544000D01*
X188462000Y-142544000D01*
G37*
G36*
X212109499Y-141337445D02*
X212146993Y-141348819D01*
X212181557Y-141367294D01*
X212211847Y-141392153D01*
X212236706Y-141422443D01*
X212255181Y-141457007D01*
X212266555Y-141494501D01*
X212271000Y-141539638D01*
X212271000Y-142178362D01*
X212266555Y-142223499D01*
X212255181Y-142260993D01*
X212236706Y-142295557D01*
X212211847Y-142325847D01*
X212181557Y-142350706D01*
X212146993Y-142369181D01*
X212109499Y-142380555D01*
X212064362Y-142385000D01*
X211325638Y-142385000D01*
X211280501Y-142380555D01*
X211243007Y-142369181D01*
X211208443Y-142350706D01*
X211178153Y-142325847D01*
X211153294Y-142295557D01*
X211134819Y-142260993D01*
X211123445Y-142223499D01*
X211119000Y-142178362D01*
X211119000Y-141539638D01*
X211123445Y-141494501D01*
X211134819Y-141457007D01*
X211153294Y-141422443D01*
X211178153Y-141392153D01*
X211208443Y-141367294D01*
X211243007Y-141348819D01*
X211280501Y-141337445D01*
X211325638Y-141333000D01*
X212064362Y-141333000D01*
X212109499Y-141337445D01*
X212109499Y-141337445D01*
G37*
G36*
X210359499Y-141337445D02*
X210396993Y-141348819D01*
X210431557Y-141367294D01*
X210461847Y-141392153D01*
X210486706Y-141422443D01*
X210505181Y-141457007D01*
X210516555Y-141494501D01*
X210521000Y-141539638D01*
X210521000Y-142178362D01*
X210516555Y-142223499D01*
X210505181Y-142260993D01*
X210486706Y-142295557D01*
X210461847Y-142325847D01*
X210431557Y-142350706D01*
X210396993Y-142369181D01*
X210359499Y-142380555D01*
X210314362Y-142385000D01*
X209575638Y-142385000D01*
X209530501Y-142380555D01*
X209493007Y-142369181D01*
X209458443Y-142350706D01*
X209428153Y-142325847D01*
X209403294Y-142295557D01*
X209384819Y-142260993D01*
X209373445Y-142223499D01*
X209369000Y-142178362D01*
X209369000Y-141539638D01*
X209373445Y-141494501D01*
X209384819Y-141457007D01*
X209403294Y-141422443D01*
X209428153Y-141392153D01*
X209458443Y-141367294D01*
X209493007Y-141348819D01*
X209530501Y-141337445D01*
X209575638Y-141333000D01*
X210314362Y-141333000D01*
X210359499Y-141337445D01*
X210359499Y-141337445D01*
G37*
G36*
X195326000Y-142240000D02*
X193802000Y-142240000D01*
X193802000Y-137668000D01*
X195326000Y-137668000D01*
X195326000Y-142240000D01*
X195326000Y-142240000D01*
G37*
G36*
X198826293Y-140551323D02*
X198833311Y-140553452D01*
X198847080Y-140560811D01*
X198869719Y-140570187D01*
X198893753Y-140574967D01*
X198918257Y-140574966D01*
X198942290Y-140570184D01*
X198964920Y-140560811D01*
X198978689Y-140553452D01*
X198985707Y-140551323D01*
X198999140Y-140550000D01*
X199312860Y-140550000D01*
X199326293Y-140551323D01*
X199333311Y-140553452D01*
X199347080Y-140560811D01*
X199369719Y-140570187D01*
X199393753Y-140574967D01*
X199418257Y-140574966D01*
X199442290Y-140570184D01*
X199464920Y-140560811D01*
X199478689Y-140553452D01*
X199485707Y-140551323D01*
X199499140Y-140550000D01*
X199812860Y-140550000D01*
X199826293Y-140551323D01*
X199833311Y-140553452D01*
X199847080Y-140560811D01*
X199869719Y-140570187D01*
X199893753Y-140574967D01*
X199918257Y-140574966D01*
X199942290Y-140570184D01*
X199964920Y-140560811D01*
X199978689Y-140553452D01*
X199985707Y-140551323D01*
X199999140Y-140550000D01*
X200312860Y-140550000D01*
X200326293Y-140551323D01*
X200333311Y-140553452D01*
X200347080Y-140560811D01*
X200369719Y-140570187D01*
X200393753Y-140574967D01*
X200418257Y-140574966D01*
X200442290Y-140570184D01*
X200464920Y-140560811D01*
X200478689Y-140553452D01*
X200485707Y-140551323D01*
X200499140Y-140550000D01*
X200812860Y-140550000D01*
X200826293Y-140551323D01*
X200833311Y-140553452D01*
X200847080Y-140560811D01*
X200869719Y-140570187D01*
X200893753Y-140574967D01*
X200918257Y-140574966D01*
X200942290Y-140570184D01*
X200964920Y-140560811D01*
X200978689Y-140553452D01*
X200985707Y-140551323D01*
X200999140Y-140550000D01*
X201312860Y-140550000D01*
X201326293Y-140551323D01*
X201333311Y-140553452D01*
X201347080Y-140560811D01*
X201369719Y-140570187D01*
X201393753Y-140574967D01*
X201418257Y-140574966D01*
X201442290Y-140570184D01*
X201464920Y-140560811D01*
X201478689Y-140553452D01*
X201485707Y-140551323D01*
X201499140Y-140550000D01*
X201812860Y-140550000D01*
X201826293Y-140551323D01*
X201833311Y-140553452D01*
X201847080Y-140560811D01*
X201869719Y-140570187D01*
X201893753Y-140574967D01*
X201918257Y-140574966D01*
X201942290Y-140570184D01*
X201964920Y-140560811D01*
X201978689Y-140553452D01*
X201985707Y-140551323D01*
X201999140Y-140550000D01*
X202312860Y-140550000D01*
X202326293Y-140551323D01*
X202333312Y-140553452D01*
X202339775Y-140556907D01*
X202345442Y-140561558D01*
X202350093Y-140567225D01*
X202353548Y-140573688D01*
X202355677Y-140580707D01*
X202357000Y-140594140D01*
X202357000Y-142107860D01*
X202355677Y-142121293D01*
X202353548Y-142128312D01*
X202350093Y-142134775D01*
X202345442Y-142140442D01*
X202339775Y-142145093D01*
X202333312Y-142148548D01*
X202326293Y-142150677D01*
X202312860Y-142152000D01*
X201999140Y-142152000D01*
X201985707Y-142150677D01*
X201978689Y-142148548D01*
X201964920Y-142141189D01*
X201942281Y-142131813D01*
X201918247Y-142127033D01*
X201893743Y-142127034D01*
X201869710Y-142131816D01*
X201847080Y-142141189D01*
X201833311Y-142148548D01*
X201826293Y-142150677D01*
X201812860Y-142152000D01*
X201499140Y-142152000D01*
X201485707Y-142150677D01*
X201478689Y-142148548D01*
X201464920Y-142141189D01*
X201442281Y-142131813D01*
X201418247Y-142127033D01*
X201393743Y-142127034D01*
X201369710Y-142131816D01*
X201347080Y-142141189D01*
X201333311Y-142148548D01*
X201326293Y-142150677D01*
X201312860Y-142152000D01*
X200999140Y-142152000D01*
X200985707Y-142150677D01*
X200978689Y-142148548D01*
X200964920Y-142141189D01*
X200942281Y-142131813D01*
X200918247Y-142127033D01*
X200893743Y-142127034D01*
X200869710Y-142131816D01*
X200847080Y-142141189D01*
X200833311Y-142148548D01*
X200826293Y-142150677D01*
X200812860Y-142152000D01*
X200499140Y-142152000D01*
X200485707Y-142150677D01*
X200478689Y-142148548D01*
X200464920Y-142141189D01*
X200442281Y-142131813D01*
X200418247Y-142127033D01*
X200393743Y-142127034D01*
X200369710Y-142131816D01*
X200347080Y-142141189D01*
X200333311Y-142148548D01*
X200326293Y-142150677D01*
X200312860Y-142152000D01*
X199999140Y-142152000D01*
X199985707Y-142150677D01*
X199978689Y-142148548D01*
X199964920Y-142141189D01*
X199942281Y-142131813D01*
X199918247Y-142127033D01*
X199893743Y-142127034D01*
X199869710Y-142131816D01*
X199847080Y-142141189D01*
X199833311Y-142148548D01*
X199826293Y-142150677D01*
X199812860Y-142152000D01*
X199499140Y-142152000D01*
X199485707Y-142150677D01*
X199478689Y-142148548D01*
X199464920Y-142141189D01*
X199442281Y-142131813D01*
X199418247Y-142127033D01*
X199393743Y-142127034D01*
X199369710Y-142131816D01*
X199347080Y-142141189D01*
X199333311Y-142148548D01*
X199326293Y-142150677D01*
X199312860Y-142152000D01*
X198999140Y-142152000D01*
X198985707Y-142150677D01*
X198978689Y-142148548D01*
X198964920Y-142141189D01*
X198942281Y-142131813D01*
X198918247Y-142127033D01*
X198893743Y-142127034D01*
X198869710Y-142131816D01*
X198847080Y-142141189D01*
X198833311Y-142148548D01*
X198826293Y-142150677D01*
X198812860Y-142152000D01*
X198499140Y-142152000D01*
X198485707Y-142150677D01*
X198478688Y-142148548D01*
X198472225Y-142145093D01*
X198466558Y-142140442D01*
X198461907Y-142134775D01*
X198458452Y-142128312D01*
X198456323Y-142121293D01*
X198455000Y-142107860D01*
X198455000Y-140594140D01*
X198456323Y-140580707D01*
X198458452Y-140573688D01*
X198461907Y-140567225D01*
X198466558Y-140561558D01*
X198472225Y-140556907D01*
X198478688Y-140553452D01*
X198485707Y-140551323D01*
X198499140Y-140550000D01*
X198812860Y-140550000D01*
X198826293Y-140551323D01*
X198826293Y-140551323D01*
G37*
G36*
X191936821Y-140385313D02*
X191936824Y-140385314D01*
X191936825Y-140385314D01*
X192097239Y-140433975D01*
X192097241Y-140433976D01*
X192097244Y-140433977D01*
X192245078Y-140512995D01*
X192374659Y-140619341D01*
X192481005Y-140748922D01*
X192560023Y-140896756D01*
X192608687Y-141057179D01*
X192625117Y-141224000D01*
X192608687Y-141390821D01*
X192608686Y-141390824D01*
X192608686Y-141390825D01*
X192576978Y-141495354D01*
X192560023Y-141551244D01*
X192481005Y-141699078D01*
X192374659Y-141828659D01*
X192245078Y-141935005D01*
X192097244Y-142014023D01*
X192097241Y-142014024D01*
X192097239Y-142014025D01*
X191936825Y-142062686D01*
X191936824Y-142062686D01*
X191936821Y-142062687D01*
X191811804Y-142075000D01*
X191728196Y-142075000D01*
X191603179Y-142062687D01*
X191603176Y-142062686D01*
X191603175Y-142062686D01*
X191442761Y-142014025D01*
X191442759Y-142014024D01*
X191442756Y-142014023D01*
X191294922Y-141935005D01*
X191165341Y-141828659D01*
X191058995Y-141699078D01*
X190979977Y-141551244D01*
X190963023Y-141495354D01*
X190931314Y-141390825D01*
X190931314Y-141390824D01*
X190931313Y-141390821D01*
X190914883Y-141224000D01*
X190931313Y-141057179D01*
X190979977Y-140896756D01*
X191058995Y-140748922D01*
X191165341Y-140619341D01*
X191294922Y-140512995D01*
X191442756Y-140433977D01*
X191442759Y-140433976D01*
X191442761Y-140433975D01*
X191603175Y-140385314D01*
X191603176Y-140385314D01*
X191603179Y-140385313D01*
X191728196Y-140373000D01*
X191811804Y-140373000D01*
X191936821Y-140385313D01*
X191936821Y-140385313D01*
G37*
G36*
X188462000Y-140844000D02*
X187160000Y-140844000D01*
X187160000Y-140042000D01*
X188462000Y-140042000D01*
X188462000Y-140844000D01*
X188462000Y-140844000D01*
G37*
G36*
X208865000Y-140367000D02*
X205663000Y-140367000D01*
X205663000Y-138865000D01*
X208865000Y-138865000D01*
X208865000Y-140367000D01*
X208865000Y-140367000D01*
G37*
G36*
X188462000Y-139744000D02*
X187160000Y-139744000D01*
X187160000Y-138942000D01*
X188462000Y-138942000D01*
X188462000Y-139744000D01*
X188462000Y-139744000D01*
G37*
G36*
X191936821Y-137845313D02*
X191936824Y-137845314D01*
X191936825Y-137845314D01*
X192097239Y-137893975D01*
X192097241Y-137893976D01*
X192097244Y-137893977D01*
X192245078Y-137972995D01*
X192374659Y-138079341D01*
X192481005Y-138208922D01*
X192560023Y-138356756D01*
X192560024Y-138356759D01*
X192560025Y-138356761D01*
X192581525Y-138427638D01*
X192608687Y-138517179D01*
X192625117Y-138684000D01*
X192608687Y-138850821D01*
X192560023Y-139011244D01*
X192481005Y-139159078D01*
X192374659Y-139288659D01*
X192245078Y-139395005D01*
X192097244Y-139474023D01*
X192097241Y-139474024D01*
X192097239Y-139474025D01*
X191936825Y-139522686D01*
X191936824Y-139522686D01*
X191936821Y-139522687D01*
X191811804Y-139535000D01*
X191728196Y-139535000D01*
X191603179Y-139522687D01*
X191603176Y-139522686D01*
X191603175Y-139522686D01*
X191442761Y-139474025D01*
X191442759Y-139474024D01*
X191442756Y-139474023D01*
X191294922Y-139395005D01*
X191165341Y-139288659D01*
X191058995Y-139159078D01*
X190979977Y-139011244D01*
X190931313Y-138850821D01*
X190914883Y-138684000D01*
X190931313Y-138517179D01*
X190958475Y-138427638D01*
X190979975Y-138356761D01*
X190979976Y-138356759D01*
X190979977Y-138356756D01*
X191058995Y-138208922D01*
X191165341Y-138079341D01*
X191294922Y-137972995D01*
X191442756Y-137893977D01*
X191442759Y-137893976D01*
X191442761Y-137893975D01*
X191603175Y-137845314D01*
X191603176Y-137845314D01*
X191603179Y-137845313D01*
X191728196Y-137833000D01*
X191811804Y-137833000D01*
X191936821Y-137845313D01*
X191936821Y-137845313D01*
G37*
G36*
X214131590Y-137679188D02*
X214131591Y-137679189D01*
X215602290Y-139395005D01*
X215646000Y-139446000D01*
X211328000Y-139446000D01*
X211328000Y-137668000D01*
X214122000Y-137668000D01*
X214131590Y-137679188D01*
X214131590Y-137679188D01*
G37*
G36*
X200008499Y-138225445D02*
X200045993Y-138236819D01*
X200080557Y-138255294D01*
X200110847Y-138280153D01*
X200135706Y-138310443D01*
X200154181Y-138345007D01*
X200165555Y-138382501D01*
X200170000Y-138427638D01*
X200170000Y-139166362D01*
X200165555Y-139211499D01*
X200154181Y-139248993D01*
X200135706Y-139283557D01*
X200110847Y-139313847D01*
X200080557Y-139338706D01*
X200045993Y-139357181D01*
X200008499Y-139368555D01*
X199963362Y-139373000D01*
X199324638Y-139373000D01*
X199279501Y-139368555D01*
X199242007Y-139357181D01*
X199207443Y-139338706D01*
X199177153Y-139313847D01*
X199152294Y-139283557D01*
X199133819Y-139248993D01*
X199122445Y-139211499D01*
X199118000Y-139166362D01*
X199118000Y-138427638D01*
X199122445Y-138382501D01*
X199133819Y-138345007D01*
X199152294Y-138310443D01*
X199177153Y-138280153D01*
X199207443Y-138255294D01*
X199242007Y-138236819D01*
X199279501Y-138225445D01*
X199324638Y-138221000D01*
X199963362Y-138221000D01*
X200008499Y-138225445D01*
X200008499Y-138225445D01*
G37*
G36*
X201786499Y-138225445D02*
X201823993Y-138236819D01*
X201858557Y-138255294D01*
X201888847Y-138280153D01*
X201913706Y-138310443D01*
X201932181Y-138345007D01*
X201943555Y-138382501D01*
X201948000Y-138427638D01*
X201948000Y-139166362D01*
X201943555Y-139211499D01*
X201932181Y-139248993D01*
X201913706Y-139283557D01*
X201888847Y-139313847D01*
X201858557Y-139338706D01*
X201823993Y-139357181D01*
X201786499Y-139368555D01*
X201741362Y-139373000D01*
X201102638Y-139373000D01*
X201057501Y-139368555D01*
X201020007Y-139357181D01*
X200985443Y-139338706D01*
X200955153Y-139313847D01*
X200930294Y-139283557D01*
X200911819Y-139248993D01*
X200900445Y-139211499D01*
X200896000Y-139166362D01*
X200896000Y-138427638D01*
X200900445Y-138382501D01*
X200911819Y-138345007D01*
X200930294Y-138310443D01*
X200955153Y-138280153D01*
X200985443Y-138255294D01*
X201020007Y-138236819D01*
X201057501Y-138225445D01*
X201102638Y-138221000D01*
X201741362Y-138221000D01*
X201786499Y-138225445D01*
X201786499Y-138225445D01*
G37*
G36*
X205088499Y-138225445D02*
X205125993Y-138236819D01*
X205160557Y-138255294D01*
X205190847Y-138280153D01*
X205215706Y-138310443D01*
X205234181Y-138345007D01*
X205245555Y-138382501D01*
X205250000Y-138427638D01*
X205250000Y-139166362D01*
X205245555Y-139211499D01*
X205234181Y-139248993D01*
X205215706Y-139283557D01*
X205190847Y-139313847D01*
X205160557Y-139338706D01*
X205125993Y-139357181D01*
X205088499Y-139368555D01*
X205043362Y-139373000D01*
X204404638Y-139373000D01*
X204359501Y-139368555D01*
X204322007Y-139357181D01*
X204287443Y-139338706D01*
X204257153Y-139313847D01*
X204232294Y-139283557D01*
X204213819Y-139248993D01*
X204202445Y-139211499D01*
X204198000Y-139166362D01*
X204198000Y-138427638D01*
X204202445Y-138382501D01*
X204213819Y-138345007D01*
X204232294Y-138310443D01*
X204257153Y-138280153D01*
X204287443Y-138255294D01*
X204322007Y-138236819D01*
X204359501Y-138225445D01*
X204404638Y-138221000D01*
X205043362Y-138221000D01*
X205088499Y-138225445D01*
X205088499Y-138225445D01*
G37*
G36*
X188462000Y-138644000D02*
X187160000Y-138644000D01*
X187160000Y-137842000D01*
X188462000Y-137842000D01*
X188462000Y-138644000D01*
X188462000Y-138644000D01*
G37*
G36*
X201786499Y-136475445D02*
X201823993Y-136486819D01*
X201858557Y-136505294D01*
X201888847Y-136530153D01*
X201913706Y-136560443D01*
X201932181Y-136595007D01*
X201943555Y-136632501D01*
X201948000Y-136677638D01*
X201948000Y-137416362D01*
X201943555Y-137461499D01*
X201932181Y-137498993D01*
X201913706Y-137533557D01*
X201888847Y-137563847D01*
X201858557Y-137588706D01*
X201823993Y-137607181D01*
X201786499Y-137618555D01*
X201741362Y-137623000D01*
X201102638Y-137623000D01*
X201057501Y-137618555D01*
X201020007Y-137607181D01*
X200985443Y-137588706D01*
X200955153Y-137563847D01*
X200930294Y-137533557D01*
X200911819Y-137498993D01*
X200900445Y-137461499D01*
X200896000Y-137416362D01*
X200896000Y-136677638D01*
X200900445Y-136632501D01*
X200911819Y-136595007D01*
X200930294Y-136560443D01*
X200955153Y-136530153D01*
X200985443Y-136505294D01*
X201020007Y-136486819D01*
X201057501Y-136475445D01*
X201102638Y-136471000D01*
X201741362Y-136471000D01*
X201786499Y-136475445D01*
X201786499Y-136475445D01*
G37*
G36*
X200008499Y-136475445D02*
X200045993Y-136486819D01*
X200080557Y-136505294D01*
X200110847Y-136530153D01*
X200135706Y-136560443D01*
X200154181Y-136595007D01*
X200165555Y-136632501D01*
X200170000Y-136677638D01*
X200170000Y-137416362D01*
X200165555Y-137461499D01*
X200154181Y-137498993D01*
X200135706Y-137533557D01*
X200110847Y-137563847D01*
X200080557Y-137588706D01*
X200045993Y-137607181D01*
X200008499Y-137618555D01*
X199963362Y-137623000D01*
X199324638Y-137623000D01*
X199279501Y-137618555D01*
X199242007Y-137607181D01*
X199207443Y-137588706D01*
X199177153Y-137563847D01*
X199152294Y-137533557D01*
X199133819Y-137498993D01*
X199122445Y-137461499D01*
X199118000Y-137416362D01*
X199118000Y-136677638D01*
X199122445Y-136632501D01*
X199133819Y-136595007D01*
X199152294Y-136560443D01*
X199177153Y-136530153D01*
X199207443Y-136505294D01*
X199242007Y-136486819D01*
X199279501Y-136475445D01*
X199324638Y-136471000D01*
X199963362Y-136471000D01*
X200008499Y-136475445D01*
X200008499Y-136475445D01*
G37*
G36*
X205088499Y-136475445D02*
X205125993Y-136486819D01*
X205160557Y-136505294D01*
X205190847Y-136530153D01*
X205215706Y-136560443D01*
X205234181Y-136595007D01*
X205245555Y-136632501D01*
X205250000Y-136677638D01*
X205250000Y-137416362D01*
X205245555Y-137461499D01*
X205234181Y-137498993D01*
X205215706Y-137533557D01*
X205190847Y-137563847D01*
X205160557Y-137588706D01*
X205125993Y-137607181D01*
X205088499Y-137618555D01*
X205043362Y-137623000D01*
X204404638Y-137623000D01*
X204359501Y-137618555D01*
X204322007Y-137607181D01*
X204287443Y-137588706D01*
X204257153Y-137563847D01*
X204232294Y-137533557D01*
X204213819Y-137498993D01*
X204202445Y-137461499D01*
X204198000Y-137416362D01*
X204198000Y-136677638D01*
X204202445Y-136632501D01*
X204213819Y-136595007D01*
X204232294Y-136560443D01*
X204257153Y-136530153D01*
X204287443Y-136505294D01*
X204322007Y-136486819D01*
X204359501Y-136475445D01*
X204404638Y-136471000D01*
X205043362Y-136471000D01*
X205088499Y-136475445D01*
X205088499Y-136475445D01*
G37*
G36*
X188462000Y-137544000D02*
X187160000Y-137544000D01*
X187160000Y-136742000D01*
X188462000Y-136742000D01*
X188462000Y-137544000D01*
X188462000Y-137544000D01*
G37*
G36*
X191936821Y-135305313D02*
X191936824Y-135305314D01*
X191936825Y-135305314D01*
X192097239Y-135353975D01*
X192097241Y-135353976D01*
X192097244Y-135353977D01*
X192245078Y-135432995D01*
X192374659Y-135539341D01*
X192481005Y-135668922D01*
X192560023Y-135816756D01*
X192560024Y-135816759D01*
X192560025Y-135816761D01*
X192608686Y-135977175D01*
X192608687Y-135977179D01*
X192625117Y-136144000D01*
X192608687Y-136310821D01*
X192608686Y-136310824D01*
X192608686Y-136310825D01*
X192568288Y-136444000D01*
X192560023Y-136471244D01*
X192481005Y-136619078D01*
X192374659Y-136748659D01*
X192245078Y-136855005D01*
X192097244Y-136934023D01*
X192097241Y-136934024D01*
X192097239Y-136934025D01*
X191936825Y-136982686D01*
X191936824Y-136982686D01*
X191936821Y-136982687D01*
X191811804Y-136995000D01*
X191728196Y-136995000D01*
X191603179Y-136982687D01*
X191603176Y-136982686D01*
X191603175Y-136982686D01*
X191442761Y-136934025D01*
X191442759Y-136934024D01*
X191442756Y-136934023D01*
X191294922Y-136855005D01*
X191165341Y-136748659D01*
X191058995Y-136619078D01*
X190979977Y-136471244D01*
X190971713Y-136444000D01*
X190931314Y-136310825D01*
X190931314Y-136310824D01*
X190931313Y-136310821D01*
X190914883Y-136144000D01*
X190931313Y-135977179D01*
X190931314Y-135977175D01*
X190979975Y-135816761D01*
X190979976Y-135816759D01*
X190979977Y-135816756D01*
X191058995Y-135668922D01*
X191165341Y-135539341D01*
X191294922Y-135432995D01*
X191442756Y-135353977D01*
X191442759Y-135353976D01*
X191442761Y-135353975D01*
X191603175Y-135305314D01*
X191603176Y-135305314D01*
X191603179Y-135305313D01*
X191728196Y-135293000D01*
X191811804Y-135293000D01*
X191936821Y-135305313D01*
X191936821Y-135305313D01*
G37*
G36*
X188462000Y-136444000D02*
X187160000Y-136444000D01*
X187160000Y-135642000D01*
X188462000Y-135642000D01*
X188462000Y-136444000D01*
X188462000Y-136444000D01*
G37*
G36*
X205232000Y-135890000D02*
X196850000Y-135890000D01*
X196850000Y-134366000D01*
X205232000Y-134366000D01*
X205232000Y-135890000D01*
X205232000Y-135890000D01*
G37*
G36*
X212296032Y-132576207D02*
X212494146Y-132636305D01*
X212676729Y-132733897D01*
X212836765Y-132865235D01*
X212968103Y-133025271D01*
X213065695Y-133207854D01*
X213125793Y-133405968D01*
X213141000Y-133560370D01*
X213141000Y-134663630D01*
X213125793Y-134818032D01*
X213065695Y-135016146D01*
X212968103Y-135198729D01*
X212968101Y-135198731D01*
X212836768Y-135358762D01*
X212836766Y-135358763D01*
X212836765Y-135358765D01*
X212676729Y-135490103D01*
X212494145Y-135587695D01*
X212296031Y-135647793D01*
X212090000Y-135668085D01*
X211883968Y-135647793D01*
X211685854Y-135587695D01*
X211503271Y-135490103D01*
X211433685Y-135432995D01*
X211343238Y-135358768D01*
X211343237Y-135358766D01*
X211343235Y-135358765D01*
X211211897Y-135198729D01*
X211114305Y-135016145D01*
X211054207Y-134818031D01*
X211039000Y-134663629D01*
X211039000Y-133560369D01*
X211054207Y-133405972D01*
X211114306Y-133207852D01*
X211211899Y-133025269D01*
X211343236Y-132865235D01*
X211405697Y-132813975D01*
X211503272Y-132733897D01*
X211685855Y-132636305D01*
X211883969Y-132576207D01*
X212090000Y-132555915D01*
X212296032Y-132576207D01*
X212296032Y-132576207D01*
G37*
G36*
X235156032Y-132576207D02*
X235354146Y-132636305D01*
X235536729Y-132733897D01*
X235696765Y-132865235D01*
X235828103Y-133025271D01*
X235925695Y-133207854D01*
X235985793Y-133405968D01*
X236001000Y-133560370D01*
X236001000Y-134663630D01*
X235985793Y-134818032D01*
X235925695Y-135016146D01*
X235828103Y-135198729D01*
X235828101Y-135198731D01*
X235696768Y-135358762D01*
X235696766Y-135358763D01*
X235696765Y-135358765D01*
X235536729Y-135490103D01*
X235354145Y-135587695D01*
X235156031Y-135647793D01*
X234950000Y-135668085D01*
X234743968Y-135647793D01*
X234545854Y-135587695D01*
X234363271Y-135490103D01*
X234293685Y-135432995D01*
X234203238Y-135358768D01*
X234203237Y-135358766D01*
X234203235Y-135358765D01*
X234071897Y-135198729D01*
X233974305Y-135016145D01*
X233914207Y-134818031D01*
X233899000Y-134663629D01*
X233899000Y-133560369D01*
X233914207Y-133405972D01*
X233974306Y-133207852D01*
X234071899Y-133025269D01*
X234203236Y-132865235D01*
X234265697Y-132813975D01*
X234363272Y-132733897D01*
X234545855Y-132636305D01*
X234743969Y-132576207D01*
X234950000Y-132555915D01*
X235156032Y-132576207D01*
X235156032Y-132576207D01*
G37*
G36*
X188462000Y-135344000D02*
X187160000Y-135344000D01*
X187160000Y-134542000D01*
X188462000Y-134542000D01*
X188462000Y-135344000D01*
X188462000Y-135344000D01*
G37*
G36*
X191936821Y-132765313D02*
X191936824Y-132765314D01*
X191936825Y-132765314D01*
X192097239Y-132813975D01*
X192097241Y-132813976D01*
X192097244Y-132813977D01*
X192245078Y-132892995D01*
X192374659Y-132999341D01*
X192481005Y-133128922D01*
X192560023Y-133276756D01*
X192560024Y-133276759D01*
X192560025Y-133276761D01*
X192608686Y-133437175D01*
X192608687Y-133437179D01*
X192625117Y-133604000D01*
X192608687Y-133770821D01*
X192560023Y-133931244D01*
X192481005Y-134079078D01*
X192374659Y-134208659D01*
X192245078Y-134315005D01*
X192097244Y-134394023D01*
X192097241Y-134394024D01*
X192097239Y-134394025D01*
X191936825Y-134442686D01*
X191936824Y-134442686D01*
X191936821Y-134442687D01*
X191811804Y-134455000D01*
X191728196Y-134455000D01*
X191603179Y-134442687D01*
X191603176Y-134442686D01*
X191603175Y-134442686D01*
X191442761Y-134394025D01*
X191442759Y-134394024D01*
X191442756Y-134394023D01*
X191294922Y-134315005D01*
X191165341Y-134208659D01*
X191058995Y-134079078D01*
X190979977Y-133931244D01*
X190931313Y-133770821D01*
X190914883Y-133604000D01*
X190931313Y-133437179D01*
X190931314Y-133437175D01*
X190979975Y-133276761D01*
X190979976Y-133276759D01*
X190979977Y-133276756D01*
X191058995Y-133128922D01*
X191165341Y-132999341D01*
X191294922Y-132892995D01*
X191442756Y-132813977D01*
X191442759Y-132813976D01*
X191442761Y-132813975D01*
X191603175Y-132765314D01*
X191603176Y-132765314D01*
X191603179Y-132765313D01*
X191728196Y-132753000D01*
X191811804Y-132753000D01*
X191936821Y-132765313D01*
X191936821Y-132765313D01*
G37*
G36*
X188462000Y-134244000D02*
X187160000Y-134244000D01*
X187160000Y-133442000D01*
X188462000Y-133442000D01*
X188462000Y-134244000D01*
X188462000Y-134244000D01*
G37*
G36*
X188462000Y-133144000D02*
X187160000Y-133144000D01*
X187160000Y-131392000D01*
X188462000Y-131392000D01*
X188462000Y-133144000D01*
X188462000Y-133144000D01*
G37*
G36*
X191936821Y-130225313D02*
X191936824Y-130225314D01*
X191936825Y-130225314D01*
X192097239Y-130273975D01*
X192097241Y-130273976D01*
X192097244Y-130273977D01*
X192245078Y-130352995D01*
X192374659Y-130459341D01*
X192481005Y-130588922D01*
X192560023Y-130736756D01*
X192608687Y-130897179D01*
X192625117Y-131064000D01*
X192608687Y-131230821D01*
X192560023Y-131391244D01*
X192481005Y-131539078D01*
X192374659Y-131668659D01*
X192245078Y-131775005D01*
X192097244Y-131854023D01*
X192097241Y-131854024D01*
X192097239Y-131854025D01*
X191936825Y-131902686D01*
X191936824Y-131902686D01*
X191936821Y-131902687D01*
X191811804Y-131915000D01*
X191728196Y-131915000D01*
X191603179Y-131902687D01*
X191603176Y-131902686D01*
X191603175Y-131902686D01*
X191442761Y-131854025D01*
X191442759Y-131854024D01*
X191442756Y-131854023D01*
X191294922Y-131775005D01*
X191165341Y-131668659D01*
X191058995Y-131539078D01*
X190979977Y-131391244D01*
X190931313Y-131230821D01*
X190914883Y-131064000D01*
X190931313Y-130897179D01*
X190979977Y-130736756D01*
X191058995Y-130588922D01*
X191165341Y-130459341D01*
X191294922Y-130352995D01*
X191442756Y-130273977D01*
X191442759Y-130273976D01*
X191442761Y-130273975D01*
X191603175Y-130225314D01*
X191603176Y-130225314D01*
X191603179Y-130225313D01*
X191728196Y-130213000D01*
X191811804Y-130213000D01*
X191936821Y-130225313D01*
X191936821Y-130225313D01*
G37*
G36*
X184162000Y-131394000D02*
X182860000Y-131394000D01*
X182860000Y-130292000D01*
X184162000Y-130292000D01*
X184162000Y-131394000D01*
X184162000Y-131394000D01*
G37*
G36*
X177762000Y-131394000D02*
X176860000Y-131394000D01*
X176860000Y-130292000D01*
X177762000Y-130292000D01*
X177762000Y-131394000D01*
X177762000Y-131394000D01*
G37*
G36*
X174612000Y-131394000D02*
X171710000Y-131394000D01*
X171710000Y-130292000D01*
X174612000Y-130292000D01*
X174612000Y-131394000D01*
X174612000Y-131394000D01*
G37*
G36*
X200105935Y-127226671D02*
X200135874Y-127235753D01*
X200163469Y-127250503D01*
X200187651Y-127270349D01*
X200207497Y-127294531D01*
X200222247Y-127322126D01*
X200231329Y-127352065D01*
X200235000Y-127389340D01*
X200235000Y-129658660D01*
X200231329Y-129695935D01*
X200222247Y-129725874D01*
X200207497Y-129753469D01*
X200187651Y-129777651D01*
X200163469Y-129797497D01*
X200135874Y-129812247D01*
X200105935Y-129821329D01*
X200068660Y-129825000D01*
X196299340Y-129825000D01*
X196262065Y-129821329D01*
X196232126Y-129812247D01*
X196204531Y-129797497D01*
X196180349Y-129777651D01*
X196160503Y-129753469D01*
X196145753Y-129725874D01*
X196136671Y-129695935D01*
X196133000Y-129658660D01*
X196133000Y-127389340D01*
X196136671Y-127352065D01*
X196145753Y-127322126D01*
X196160503Y-127294531D01*
X196180349Y-127270349D01*
X196204531Y-127250503D01*
X196232126Y-127235753D01*
X196262065Y-127226671D01*
X196299340Y-127223000D01*
X200068660Y-127223000D01*
X200105935Y-127226671D01*
X200105935Y-127226671D01*
G37*
G36*
X208105935Y-127226671D02*
X208135874Y-127235753D01*
X208163469Y-127250503D01*
X208187651Y-127270349D01*
X208207497Y-127294531D01*
X208222247Y-127322126D01*
X208231329Y-127352065D01*
X208235000Y-127389340D01*
X208235000Y-129658660D01*
X208231329Y-129695935D01*
X208222247Y-129725874D01*
X208207497Y-129753469D01*
X208187651Y-129777651D01*
X208163469Y-129797497D01*
X208135874Y-129812247D01*
X208105935Y-129821329D01*
X208068660Y-129825000D01*
X204299340Y-129825000D01*
X204262065Y-129821329D01*
X204232126Y-129812247D01*
X204204531Y-129797497D01*
X204180349Y-129777651D01*
X204160503Y-129753469D01*
X204145753Y-129725874D01*
X204136671Y-129695935D01*
X204133000Y-129658660D01*
X204133000Y-127389340D01*
X204136671Y-127352065D01*
X204145753Y-127322126D01*
X204160503Y-127294531D01*
X204180349Y-127270349D01*
X204204531Y-127250503D01*
X204232126Y-127235753D01*
X204262065Y-127226671D01*
X204299340Y-127223000D01*
X208068660Y-127223000D01*
X208105935Y-127226671D01*
X208105935Y-127226671D01*
G37*
G36*
X195072000Y-129794000D02*
X193802000Y-129794000D01*
X193802000Y-125222000D01*
X195072000Y-125222000D01*
X195072000Y-129794000D01*
X195072000Y-129794000D01*
G37*
G36*
X186690000Y-129540000D02*
X182626000Y-129540000D01*
X182626000Y-128016000D01*
X186690000Y-128016000D01*
X186690000Y-129540000D01*
X186690000Y-129540000D01*
G37*
G36*
X191936821Y-127685313D02*
X191936824Y-127685314D01*
X191936825Y-127685314D01*
X192097239Y-127733975D01*
X192097241Y-127733976D01*
X192097244Y-127733977D01*
X192245078Y-127812995D01*
X192374659Y-127919341D01*
X192481005Y-128048922D01*
X192560023Y-128196756D01*
X192608687Y-128357179D01*
X192625117Y-128524000D01*
X192608687Y-128690821D01*
X192560023Y-128851244D01*
X192481005Y-128999078D01*
X192374659Y-129128659D01*
X192245078Y-129235005D01*
X192097244Y-129314023D01*
X192097241Y-129314024D01*
X192097239Y-129314025D01*
X191936825Y-129362686D01*
X191936824Y-129362686D01*
X191936821Y-129362687D01*
X191811804Y-129375000D01*
X191728196Y-129375000D01*
X191603179Y-129362687D01*
X191603176Y-129362686D01*
X191603175Y-129362686D01*
X191442761Y-129314025D01*
X191442759Y-129314024D01*
X191442756Y-129314023D01*
X191294922Y-129235005D01*
X191165341Y-129128659D01*
X191058995Y-128999078D01*
X190979977Y-128851244D01*
X190931313Y-128690821D01*
X190914883Y-128524000D01*
X190931313Y-128357179D01*
X190979977Y-128196756D01*
X191058995Y-128048922D01*
X191165341Y-127919341D01*
X191294922Y-127812995D01*
X191442756Y-127733977D01*
X191442759Y-127733976D01*
X191442761Y-127733975D01*
X191603175Y-127685314D01*
X191603176Y-127685314D01*
X191603179Y-127685313D01*
X191728196Y-127673000D01*
X191811804Y-127673000D01*
X191936821Y-127685313D01*
X191936821Y-127685313D01*
G37*
G36*
X177607000Y-127031000D02*
X176505000Y-127031000D01*
X176505000Y-126029000D01*
X177607000Y-126029000D01*
X177607000Y-127031000D01*
X177607000Y-127031000D01*
G37*
G36*
X173507000Y-127031000D02*
X172405000Y-127031000D01*
X172405000Y-126029000D01*
X173507000Y-126029000D01*
X173507000Y-127031000D01*
X173507000Y-127031000D01*
G37*
G36*
X180111000Y-127031000D02*
X179009000Y-127031000D01*
X179009000Y-126029000D01*
X180111000Y-126029000D01*
X180111000Y-127031000D01*
X180111000Y-127031000D01*
G37*
G36*
X184211000Y-127031000D02*
X183109000Y-127031000D01*
X183109000Y-126029000D01*
X184211000Y-126029000D01*
X184211000Y-127031000D01*
X184211000Y-127031000D01*
G37*
G36*
X192621000Y-126835000D02*
X190919000Y-126835000D01*
X190919000Y-125133000D01*
X192621000Y-125133000D01*
X192621000Y-126835000D01*
X192621000Y-126835000D01*
G37*
G36*
X177607000Y-125431000D02*
X176505000Y-125431000D01*
X176505000Y-124429000D01*
X177607000Y-124429000D01*
X177607000Y-125431000D01*
X177607000Y-125431000D01*
G37*
G36*
X173507000Y-125431000D02*
X172405000Y-125431000D01*
X172405000Y-124429000D01*
X173507000Y-124429000D01*
X173507000Y-125431000D01*
X173507000Y-125431000D01*
G37*
G36*
X180111000Y-125431000D02*
X179009000Y-125431000D01*
X179009000Y-124429000D01*
X180111000Y-124429000D01*
X180111000Y-125431000D01*
X180111000Y-125431000D01*
G37*
G36*
X184211000Y-125431000D02*
X183109000Y-125431000D01*
X183109000Y-124429000D01*
X184211000Y-124429000D01*
X184211000Y-125431000D01*
X184211000Y-125431000D01*
G37*
G36*
X194831562Y-122140181D02*
X194866477Y-122150773D01*
X194898665Y-122167978D01*
X194926873Y-122191127D01*
X194950022Y-122219335D01*
X194967227Y-122251523D01*
X194977819Y-122286438D01*
X194982000Y-122328895D01*
X194982000Y-123470105D01*
X194977819Y-123512562D01*
X194967227Y-123547477D01*
X194950022Y-123579665D01*
X194926873Y-123607873D01*
X194898665Y-123631022D01*
X194866477Y-123648227D01*
X194831562Y-123658819D01*
X194789105Y-123663000D01*
X193322895Y-123663000D01*
X193280438Y-123658819D01*
X193245523Y-123648227D01*
X193213335Y-123631022D01*
X193185127Y-123607873D01*
X193161978Y-123579665D01*
X193144773Y-123547477D01*
X193134181Y-123512562D01*
X193130000Y-123470105D01*
X193130000Y-122328895D01*
X193134181Y-122286438D01*
X193144773Y-122251523D01*
X193161978Y-122219335D01*
X193185127Y-122191127D01*
X193213335Y-122167978D01*
X193245523Y-122150773D01*
X193280438Y-122140181D01*
X193322895Y-122136000D01*
X194789105Y-122136000D01*
X194831562Y-122140181D01*
X194831562Y-122140181D01*
G37*
G36*
X189623000Y-122059000D02*
X187821000Y-122059000D01*
X187821000Y-120257000D01*
X189623000Y-120257000D01*
X189623000Y-122059000D01*
X189623000Y-122059000D01*
G37*
G36*
X173592443Y-120263519D02*
X173658627Y-120270037D01*
X173771853Y-120304384D01*
X173828467Y-120321557D01*
X173967087Y-120395652D01*
X173984991Y-120405222D01*
X174012849Y-120428085D01*
X174122186Y-120517814D01*
X174197458Y-120609535D01*
X174234778Y-120655009D01*
X174234779Y-120655011D01*
X174318443Y-120811533D01*
X174318443Y-120811534D01*
X174369963Y-120981373D01*
X174387359Y-121158000D01*
X174369963Y-121334627D01*
X174335616Y-121447853D01*
X174318443Y-121504467D01*
X174244348Y-121643087D01*
X174234778Y-121660991D01*
X174205448Y-121696729D01*
X174122186Y-121798186D01*
X174020729Y-121881448D01*
X173984991Y-121910778D01*
X173984989Y-121910779D01*
X173828467Y-121994443D01*
X173771853Y-122011616D01*
X173658627Y-122045963D01*
X173592442Y-122052482D01*
X173526260Y-122059000D01*
X173437740Y-122059000D01*
X173371558Y-122052482D01*
X173305373Y-122045963D01*
X173192147Y-122011616D01*
X173135533Y-121994443D01*
X172979011Y-121910779D01*
X172979009Y-121910778D01*
X172943271Y-121881448D01*
X172841814Y-121798186D01*
X172758552Y-121696729D01*
X172729222Y-121660991D01*
X172719652Y-121643087D01*
X172645557Y-121504467D01*
X172628384Y-121447853D01*
X172594037Y-121334627D01*
X172576641Y-121158000D01*
X172594037Y-120981373D01*
X172645557Y-120811534D01*
X172645557Y-120811533D01*
X172729221Y-120655011D01*
X172729222Y-120655009D01*
X172766542Y-120609535D01*
X172841814Y-120517814D01*
X172951151Y-120428085D01*
X172979009Y-120405222D01*
X172996913Y-120395652D01*
X173135533Y-120321557D01*
X173192147Y-120304384D01*
X173305373Y-120270037D01*
X173371557Y-120263519D01*
X173437740Y-120257000D01*
X173526260Y-120257000D01*
X173592443Y-120263519D01*
X173592443Y-120263519D01*
G37*
G36*
X178672443Y-120263519D02*
X178738627Y-120270037D01*
X178851853Y-120304384D01*
X178908467Y-120321557D01*
X179047087Y-120395652D01*
X179064991Y-120405222D01*
X179092849Y-120428085D01*
X179202186Y-120517814D01*
X179277458Y-120609535D01*
X179314778Y-120655009D01*
X179314779Y-120655011D01*
X179398443Y-120811533D01*
X179398443Y-120811534D01*
X179449963Y-120981373D01*
X179467359Y-121158000D01*
X179449963Y-121334627D01*
X179415616Y-121447853D01*
X179398443Y-121504467D01*
X179324348Y-121643087D01*
X179314778Y-121660991D01*
X179285448Y-121696729D01*
X179202186Y-121798186D01*
X179100729Y-121881448D01*
X179064991Y-121910778D01*
X179064989Y-121910779D01*
X178908467Y-121994443D01*
X178851853Y-122011616D01*
X178738627Y-122045963D01*
X178672442Y-122052482D01*
X178606260Y-122059000D01*
X178517740Y-122059000D01*
X178451558Y-122052482D01*
X178385373Y-122045963D01*
X178272147Y-122011616D01*
X178215533Y-121994443D01*
X178059011Y-121910779D01*
X178059009Y-121910778D01*
X178023271Y-121881448D01*
X177921814Y-121798186D01*
X177838552Y-121696729D01*
X177809222Y-121660991D01*
X177799652Y-121643087D01*
X177725557Y-121504467D01*
X177708384Y-121447853D01*
X177674037Y-121334627D01*
X177656641Y-121158000D01*
X177674037Y-120981373D01*
X177725557Y-120811534D01*
X177725557Y-120811533D01*
X177809221Y-120655011D01*
X177809222Y-120655009D01*
X177846542Y-120609535D01*
X177921814Y-120517814D01*
X178031151Y-120428085D01*
X178059009Y-120405222D01*
X178076913Y-120395652D01*
X178215533Y-120321557D01*
X178272147Y-120304384D01*
X178385373Y-120270037D01*
X178451557Y-120263519D01*
X178517740Y-120257000D01*
X178606260Y-120257000D01*
X178672443Y-120263519D01*
X178672443Y-120263519D01*
G37*
G36*
X183752443Y-120263519D02*
X183818627Y-120270037D01*
X183931853Y-120304384D01*
X183988467Y-120321557D01*
X184127087Y-120395652D01*
X184144991Y-120405222D01*
X184172849Y-120428085D01*
X184282186Y-120517814D01*
X184357458Y-120609535D01*
X184394778Y-120655009D01*
X184394779Y-120655011D01*
X184478443Y-120811533D01*
X184478443Y-120811534D01*
X184529963Y-120981373D01*
X184547359Y-121158000D01*
X184529963Y-121334627D01*
X184495616Y-121447853D01*
X184478443Y-121504467D01*
X184404348Y-121643087D01*
X184394778Y-121660991D01*
X184365448Y-121696729D01*
X184282186Y-121798186D01*
X184180729Y-121881448D01*
X184144991Y-121910778D01*
X184144989Y-121910779D01*
X183988467Y-121994443D01*
X183931853Y-122011616D01*
X183818627Y-122045963D01*
X183752442Y-122052482D01*
X183686260Y-122059000D01*
X183597740Y-122059000D01*
X183531558Y-122052482D01*
X183465373Y-122045963D01*
X183352147Y-122011616D01*
X183295533Y-121994443D01*
X183139011Y-121910779D01*
X183139009Y-121910778D01*
X183103271Y-121881448D01*
X183001814Y-121798186D01*
X182918552Y-121696729D01*
X182889222Y-121660991D01*
X182879652Y-121643087D01*
X182805557Y-121504467D01*
X182788384Y-121447853D01*
X182754037Y-121334627D01*
X182736641Y-121158000D01*
X182754037Y-120981373D01*
X182805557Y-120811534D01*
X182805557Y-120811533D01*
X182889221Y-120655011D01*
X182889222Y-120655009D01*
X182926542Y-120609535D01*
X183001814Y-120517814D01*
X183111151Y-120428085D01*
X183139009Y-120405222D01*
X183156913Y-120395652D01*
X183295533Y-120321557D01*
X183352147Y-120304384D01*
X183465373Y-120270037D01*
X183531557Y-120263519D01*
X183597740Y-120257000D01*
X183686260Y-120257000D01*
X183752443Y-120263519D01*
X183752443Y-120263519D01*
G37*
G36*
X176132443Y-120263519D02*
X176198627Y-120270037D01*
X176311853Y-120304384D01*
X176368467Y-120321557D01*
X176507087Y-120395652D01*
X176524991Y-120405222D01*
X176552849Y-120428085D01*
X176662186Y-120517814D01*
X176737458Y-120609535D01*
X176774778Y-120655009D01*
X176774779Y-120655011D01*
X176858443Y-120811533D01*
X176858443Y-120811534D01*
X176909963Y-120981373D01*
X176927359Y-121158000D01*
X176909963Y-121334627D01*
X176875616Y-121447853D01*
X176858443Y-121504467D01*
X176784348Y-121643087D01*
X176774778Y-121660991D01*
X176745448Y-121696729D01*
X176662186Y-121798186D01*
X176560729Y-121881448D01*
X176524991Y-121910778D01*
X176524989Y-121910779D01*
X176368467Y-121994443D01*
X176311853Y-122011616D01*
X176198627Y-122045963D01*
X176132442Y-122052482D01*
X176066260Y-122059000D01*
X175977740Y-122059000D01*
X175911558Y-122052482D01*
X175845373Y-122045963D01*
X175732147Y-122011616D01*
X175675533Y-121994443D01*
X175519011Y-121910779D01*
X175519009Y-121910778D01*
X175483271Y-121881448D01*
X175381814Y-121798186D01*
X175298552Y-121696729D01*
X175269222Y-121660991D01*
X175259652Y-121643087D01*
X175185557Y-121504467D01*
X175168384Y-121447853D01*
X175134037Y-121334627D01*
X175116641Y-121158000D01*
X175134037Y-120981373D01*
X175185557Y-120811534D01*
X175185557Y-120811533D01*
X175269221Y-120655011D01*
X175269222Y-120655009D01*
X175306542Y-120609535D01*
X175381814Y-120517814D01*
X175491151Y-120428085D01*
X175519009Y-120405222D01*
X175536913Y-120395652D01*
X175675533Y-120321557D01*
X175732147Y-120304384D01*
X175845373Y-120270037D01*
X175911557Y-120263519D01*
X175977740Y-120257000D01*
X176066260Y-120257000D01*
X176132443Y-120263519D01*
X176132443Y-120263519D01*
G37*
G36*
X186292443Y-120263519D02*
X186358627Y-120270037D01*
X186471853Y-120304384D01*
X186528467Y-120321557D01*
X186667087Y-120395652D01*
X186684991Y-120405222D01*
X186712849Y-120428085D01*
X186822186Y-120517814D01*
X186897458Y-120609535D01*
X186934778Y-120655009D01*
X186934779Y-120655011D01*
X187018443Y-120811533D01*
X187018443Y-120811534D01*
X187069963Y-120981373D01*
X187087359Y-121158000D01*
X187069963Y-121334627D01*
X187035616Y-121447853D01*
X187018443Y-121504467D01*
X186944348Y-121643087D01*
X186934778Y-121660991D01*
X186905448Y-121696729D01*
X186822186Y-121798186D01*
X186720729Y-121881448D01*
X186684991Y-121910778D01*
X186684989Y-121910779D01*
X186528467Y-121994443D01*
X186471853Y-122011616D01*
X186358627Y-122045963D01*
X186292442Y-122052482D01*
X186226260Y-122059000D01*
X186137740Y-122059000D01*
X186071558Y-122052482D01*
X186005373Y-122045963D01*
X185892147Y-122011616D01*
X185835533Y-121994443D01*
X185679011Y-121910779D01*
X185679009Y-121910778D01*
X185643271Y-121881448D01*
X185541814Y-121798186D01*
X185458552Y-121696729D01*
X185429222Y-121660991D01*
X185419652Y-121643087D01*
X185345557Y-121504467D01*
X185328384Y-121447853D01*
X185294037Y-121334627D01*
X185276641Y-121158000D01*
X185294037Y-120981373D01*
X185345557Y-120811534D01*
X185345557Y-120811533D01*
X185429221Y-120655011D01*
X185429222Y-120655009D01*
X185466542Y-120609535D01*
X185541814Y-120517814D01*
X185651151Y-120428085D01*
X185679009Y-120405222D01*
X185696913Y-120395652D01*
X185835533Y-120321557D01*
X185892147Y-120304384D01*
X186005373Y-120270037D01*
X186071557Y-120263519D01*
X186137740Y-120257000D01*
X186226260Y-120257000D01*
X186292443Y-120263519D01*
X186292443Y-120263519D01*
G37*
G36*
X181212443Y-120263519D02*
X181278627Y-120270037D01*
X181391853Y-120304384D01*
X181448467Y-120321557D01*
X181587087Y-120395652D01*
X181604991Y-120405222D01*
X181632849Y-120428085D01*
X181742186Y-120517814D01*
X181817458Y-120609535D01*
X181854778Y-120655009D01*
X181854779Y-120655011D01*
X181938443Y-120811533D01*
X181938443Y-120811534D01*
X181989963Y-120981373D01*
X182007359Y-121158000D01*
X181989963Y-121334627D01*
X181955616Y-121447853D01*
X181938443Y-121504467D01*
X181864348Y-121643087D01*
X181854778Y-121660991D01*
X181825448Y-121696729D01*
X181742186Y-121798186D01*
X181640729Y-121881448D01*
X181604991Y-121910778D01*
X181604989Y-121910779D01*
X181448467Y-121994443D01*
X181391853Y-122011616D01*
X181278627Y-122045963D01*
X181212442Y-122052482D01*
X181146260Y-122059000D01*
X181057740Y-122059000D01*
X180991558Y-122052482D01*
X180925373Y-122045963D01*
X180812147Y-122011616D01*
X180755533Y-121994443D01*
X180599011Y-121910779D01*
X180599009Y-121910778D01*
X180563271Y-121881448D01*
X180461814Y-121798186D01*
X180378552Y-121696729D01*
X180349222Y-121660991D01*
X180339652Y-121643087D01*
X180265557Y-121504467D01*
X180248384Y-121447853D01*
X180214037Y-121334627D01*
X180196641Y-121158000D01*
X180214037Y-120981373D01*
X180265557Y-120811534D01*
X180265557Y-120811533D01*
X180349221Y-120655011D01*
X180349222Y-120655009D01*
X180386542Y-120609535D01*
X180461814Y-120517814D01*
X180571151Y-120428085D01*
X180599009Y-120405222D01*
X180616913Y-120395652D01*
X180755533Y-120321557D01*
X180812147Y-120304384D01*
X180925373Y-120270037D01*
X180991557Y-120263519D01*
X181057740Y-120257000D01*
X181146260Y-120257000D01*
X181212443Y-120263519D01*
X181212443Y-120263519D01*
G37*
G36*
X194831562Y-119165181D02*
X194866477Y-119175773D01*
X194898665Y-119192978D01*
X194926873Y-119216127D01*
X194950022Y-119244335D01*
X194967227Y-119276523D01*
X194977819Y-119311438D01*
X194982000Y-119353895D01*
X194982000Y-120495105D01*
X194977819Y-120537562D01*
X194967227Y-120572477D01*
X194950022Y-120604665D01*
X194926873Y-120632873D01*
X194898665Y-120656022D01*
X194866477Y-120673227D01*
X194831562Y-120683819D01*
X194789105Y-120688000D01*
X193322895Y-120688000D01*
X193280438Y-120683819D01*
X193245523Y-120673227D01*
X193213335Y-120656022D01*
X193185127Y-120632873D01*
X193161978Y-120604665D01*
X193144773Y-120572477D01*
X193134181Y-120537562D01*
X193130000Y-120495105D01*
X193130000Y-119353895D01*
X193134181Y-119311438D01*
X193144773Y-119276523D01*
X193161978Y-119244335D01*
X193185127Y-119216127D01*
X193213335Y-119192978D01*
X193245523Y-119175773D01*
X193280438Y-119165181D01*
X193322895Y-119161000D01*
X194789105Y-119161000D01*
X194831562Y-119165181D01*
X194831562Y-119165181D01*
G37*
G36*
X212296032Y-117336207D02*
X212494146Y-117396305D01*
X212676729Y-117493897D01*
X212836765Y-117625235D01*
X212968103Y-117785271D01*
X213065695Y-117967854D01*
X213125793Y-118165968D01*
X213132530Y-118234374D01*
X213141000Y-118320369D01*
X213141000Y-119423631D01*
X213137959Y-119454510D01*
X213125793Y-119578032D01*
X213065695Y-119776146D01*
X212968103Y-119958729D01*
X212968101Y-119958731D01*
X212836768Y-120118762D01*
X212836766Y-120118763D01*
X212836765Y-120118765D01*
X212676729Y-120250103D01*
X212494145Y-120347695D01*
X212296031Y-120407793D01*
X212090000Y-120428085D01*
X211883968Y-120407793D01*
X211685854Y-120347695D01*
X211503271Y-120250103D01*
X211439257Y-120197568D01*
X211343238Y-120118768D01*
X211343237Y-120118766D01*
X211343235Y-120118765D01*
X211211897Y-119958729D01*
X211114305Y-119776145D01*
X211054207Y-119578031D01*
X211039000Y-119423629D01*
X211039000Y-118320370D01*
X211043039Y-118279359D01*
X211054207Y-118165972D01*
X211114306Y-117967852D01*
X211211899Y-117785269D01*
X211343236Y-117625235D01*
X211503270Y-117493899D01*
X211503272Y-117493897D01*
X211685855Y-117396305D01*
X211883969Y-117336207D01*
X212090000Y-117315915D01*
X212296032Y-117336207D01*
X212296032Y-117336207D01*
G37*
G36*
X200105935Y-115796671D02*
X200135874Y-115805753D01*
X200163469Y-115820503D01*
X200187651Y-115840349D01*
X200207497Y-115864531D01*
X200222247Y-115892126D01*
X200231329Y-115922065D01*
X200235000Y-115959340D01*
X200235000Y-118228660D01*
X200231329Y-118265935D01*
X200222247Y-118295874D01*
X200207497Y-118323469D01*
X200187651Y-118347651D01*
X200163469Y-118367497D01*
X200135874Y-118382247D01*
X200105935Y-118391329D01*
X200068660Y-118395000D01*
X196299340Y-118395000D01*
X196262065Y-118391329D01*
X196232126Y-118382247D01*
X196204531Y-118367497D01*
X196180349Y-118347651D01*
X196160503Y-118323469D01*
X196145753Y-118295874D01*
X196136671Y-118265935D01*
X196133000Y-118228660D01*
X196133000Y-115959340D01*
X196136671Y-115922065D01*
X196145753Y-115892126D01*
X196160503Y-115864531D01*
X196180349Y-115840349D01*
X196204531Y-115820503D01*
X196232126Y-115805753D01*
X196262065Y-115796671D01*
X196299340Y-115793000D01*
X200068660Y-115793000D01*
X200105935Y-115796671D01*
X200105935Y-115796671D01*
G37*
G36*
X208105935Y-115796671D02*
X208135874Y-115805753D01*
X208163469Y-115820503D01*
X208187651Y-115840349D01*
X208207497Y-115864531D01*
X208222247Y-115892126D01*
X208231329Y-115922065D01*
X208235000Y-115959340D01*
X208235000Y-118228660D01*
X208231329Y-118265935D01*
X208222247Y-118295874D01*
X208207497Y-118323469D01*
X208187651Y-118347651D01*
X208163469Y-118367497D01*
X208135874Y-118382247D01*
X208105935Y-118391329D01*
X208068660Y-118395000D01*
X204299340Y-118395000D01*
X204262065Y-118391329D01*
X204232126Y-118382247D01*
X204204531Y-118367497D01*
X204180349Y-118347651D01*
X204160503Y-118323469D01*
X204145753Y-118295874D01*
X204136671Y-118265935D01*
X204133000Y-118228660D01*
X204133000Y-115959340D01*
X204136671Y-115922065D01*
X204145753Y-115892126D01*
X204160503Y-115864531D01*
X204180349Y-115840349D01*
X204204531Y-115820503D01*
X204232126Y-115805753D01*
X204262065Y-115796671D01*
X204299340Y-115793000D01*
X208068660Y-115793000D01*
X208105935Y-115796671D01*
X208105935Y-115796671D01*
G37*
G36*
X181998800Y-118044800D02*
X180997200Y-118044800D01*
X180997200Y-116243200D01*
X181998800Y-116243200D01*
X181998800Y-118044800D01*
X181998800Y-118044800D01*
G37*
G36*
X188348800Y-118044800D02*
X187347200Y-118044800D01*
X187347200Y-116243200D01*
X188348800Y-116243200D01*
X188348800Y-118044800D01*
X188348800Y-118044800D01*
G37*
G36*
X187078800Y-118044800D02*
X186077200Y-118044800D01*
X186077200Y-116243200D01*
X187078800Y-116243200D01*
X187078800Y-118044800D01*
X187078800Y-118044800D01*
G37*
G36*
X185808800Y-118044800D02*
X184807200Y-118044800D01*
X184807200Y-116243200D01*
X185808800Y-116243200D01*
X185808800Y-118044800D01*
X185808800Y-118044800D01*
G37*
G36*
X184538800Y-118044800D02*
X183537200Y-118044800D01*
X183537200Y-116243200D01*
X184538800Y-116243200D01*
X184538800Y-118044800D01*
X184538800Y-118044800D01*
G37*
G36*
X183268800Y-118044800D02*
X182267200Y-118044800D01*
X182267200Y-116243200D01*
X183268800Y-116243200D01*
X183268800Y-118044800D01*
X183268800Y-118044800D01*
G37*
G36*
X180728800Y-118044800D02*
X179727200Y-118044800D01*
X179727200Y-116243200D01*
X180728800Y-116243200D01*
X180728800Y-118044800D01*
X180728800Y-118044800D01*
G37*
G36*
X176918800Y-118044800D02*
X175917200Y-118044800D01*
X175917200Y-116243200D01*
X176918800Y-116243200D01*
X176918800Y-118044800D01*
X176918800Y-118044800D01*
G37*
G36*
X178188800Y-118044800D02*
X177187200Y-118044800D01*
X177187200Y-116243200D01*
X178188800Y-116243200D01*
X178188800Y-118044800D01*
X178188800Y-118044800D01*
G37*
G36*
X179458800Y-118044800D02*
X178457200Y-118044800D01*
X178457200Y-116243200D01*
X179458800Y-116243200D01*
X179458800Y-118044800D01*
X179458800Y-118044800D01*
G37*
G36*
X235156032Y-114796207D02*
X235354146Y-114856305D01*
X235536729Y-114953897D01*
X235696765Y-115085235D01*
X235828103Y-115245271D01*
X235925695Y-115427854D01*
X235985793Y-115625968D01*
X236001000Y-115780370D01*
X236001000Y-116883630D01*
X235985793Y-117038032D01*
X235925695Y-117236146D01*
X235828103Y-117418729D01*
X235828101Y-117418731D01*
X235696768Y-117578762D01*
X235696766Y-117578763D01*
X235696765Y-117578765D01*
X235536729Y-117710103D01*
X235354145Y-117807695D01*
X235156031Y-117867793D01*
X234950000Y-117888085D01*
X234743968Y-117867793D01*
X234545854Y-117807695D01*
X234363271Y-117710103D01*
X234259859Y-117625235D01*
X234203238Y-117578768D01*
X234203237Y-117578766D01*
X234203235Y-117578765D01*
X234071897Y-117418729D01*
X233974305Y-117236145D01*
X233914207Y-117038031D01*
X233899000Y-116883629D01*
X233899000Y-115780369D01*
X233914207Y-115625972D01*
X233974306Y-115427852D01*
X234071899Y-115245269D01*
X234203236Y-115085235D01*
X234363270Y-114953899D01*
X234363272Y-114953897D01*
X234545855Y-114856305D01*
X234743969Y-114796207D01*
X234950000Y-114775915D01*
X235156032Y-114796207D01*
X235156032Y-114796207D01*
G37*
G36*
X194818000Y-116840000D02*
X192786000Y-116840000D01*
X192786000Y-114300000D01*
X194818000Y-114300000D01*
X194818000Y-116840000D01*
X194818000Y-116840000D01*
G37*
G36*
X192018800Y-116194800D02*
X190217200Y-116194800D01*
X190217200Y-115193200D01*
X192018800Y-115193200D01*
X192018800Y-116194800D01*
X192018800Y-116194800D01*
G37*
G36*
X174018800Y-116154800D02*
X172217200Y-116154800D01*
X172217200Y-115153200D01*
X174018800Y-115153200D01*
X174018800Y-116154800D01*
X174018800Y-116154800D01*
G37*
G36*
X171958000Y-115570000D02*
X171196000Y-115570000D01*
X171196000Y-98806000D01*
X171958000Y-98806000D01*
X171958000Y-115570000D01*
X171958000Y-115570000D01*
G37*
G36*
X192018800Y-114924800D02*
X190217200Y-114924800D01*
X190217200Y-113923200D01*
X192018800Y-113923200D01*
X192018800Y-114924800D01*
X192018800Y-114924800D01*
G37*
G36*
X174018800Y-114884800D02*
X172217200Y-114884800D01*
X172217200Y-113883200D01*
X174018800Y-113883200D01*
X174018800Y-114884800D01*
X174018800Y-114884800D01*
G37*
G36*
X192018800Y-113654800D02*
X190217200Y-113654800D01*
X190217200Y-112653200D01*
X192018800Y-112653200D01*
X192018800Y-113654800D01*
X192018800Y-113654800D01*
G37*
G36*
X174018800Y-113614800D02*
X172217200Y-113614800D01*
X172217200Y-112613200D01*
X174018800Y-112613200D01*
X174018800Y-113614800D01*
X174018800Y-113614800D01*
G37*
G36*
X236829535Y-110835800D02*
X236860740Y-110845266D01*
X236889487Y-110860631D01*
X236914687Y-110881313D01*
X236935369Y-110906513D01*
X236950734Y-110935260D01*
X236960200Y-110966465D01*
X236964000Y-111005045D01*
X236964000Y-112860955D01*
X236960200Y-112899535D01*
X236950734Y-112930740D01*
X236935369Y-112959487D01*
X236914687Y-112984687D01*
X236889487Y-113005369D01*
X236860740Y-113020734D01*
X236829535Y-113030200D01*
X236790955Y-113034000D01*
X231585045Y-113034000D01*
X231546465Y-113030200D01*
X231515260Y-113020734D01*
X231486513Y-113005369D01*
X231461313Y-112984687D01*
X231440631Y-112959487D01*
X231425266Y-112930740D01*
X231415800Y-112899535D01*
X231412000Y-112860955D01*
X231412000Y-111005045D01*
X231415800Y-110966465D01*
X231425266Y-110935260D01*
X231440631Y-110906513D01*
X231461313Y-110881313D01*
X231486513Y-110860631D01*
X231515260Y-110845266D01*
X231546465Y-110835800D01*
X231585045Y-110832000D01*
X236790955Y-110832000D01*
X236829535Y-110835800D01*
X236829535Y-110835800D01*
G37*
G36*
X222338228Y-110941703D02*
X222493100Y-111005853D01*
X222632481Y-111098985D01*
X222751015Y-111217519D01*
X222844147Y-111356900D01*
X222908297Y-111511772D01*
X222941000Y-111676184D01*
X222941000Y-111843816D01*
X222908297Y-112008228D01*
X222844147Y-112163100D01*
X222751015Y-112302481D01*
X222632481Y-112421015D01*
X222493100Y-112514147D01*
X222338228Y-112578297D01*
X222173816Y-112611000D01*
X222006184Y-112611000D01*
X221841772Y-112578297D01*
X221686900Y-112514147D01*
X221547519Y-112421015D01*
X221428985Y-112302481D01*
X221335853Y-112163100D01*
X221271703Y-112008228D01*
X221239000Y-111843816D01*
X221239000Y-111676184D01*
X221271703Y-111511772D01*
X221335853Y-111356900D01*
X221428985Y-111217519D01*
X221547519Y-111098985D01*
X221686900Y-111005853D01*
X221841772Y-110941703D01*
X222006184Y-110909000D01*
X222173816Y-110909000D01*
X222338228Y-110941703D01*
X222338228Y-110941703D01*
G37*
G36*
X212338228Y-110941703D02*
X212493100Y-111005853D01*
X212632481Y-111098985D01*
X212751015Y-111217519D01*
X212844147Y-111356900D01*
X212908297Y-111511772D01*
X212941000Y-111676184D01*
X212941000Y-111843816D01*
X212908297Y-112008228D01*
X212844147Y-112163100D01*
X212751015Y-112302481D01*
X212632481Y-112421015D01*
X212493100Y-112514147D01*
X212338228Y-112578297D01*
X212173816Y-112611000D01*
X212006184Y-112611000D01*
X211841772Y-112578297D01*
X211686900Y-112514147D01*
X211547519Y-112421015D01*
X211428985Y-112302481D01*
X211335853Y-112163100D01*
X211271703Y-112008228D01*
X211239000Y-111843816D01*
X211239000Y-111676184D01*
X211271703Y-111511772D01*
X211335853Y-111356900D01*
X211428985Y-111217519D01*
X211547519Y-111098985D01*
X211686900Y-111005853D01*
X211841772Y-110941703D01*
X212006184Y-110909000D01*
X212173816Y-110909000D01*
X212338228Y-110941703D01*
X212338228Y-110941703D01*
G37*
G36*
X192018800Y-112384800D02*
X190217200Y-112384800D01*
X190217200Y-111383200D01*
X192018800Y-111383200D01*
X192018800Y-112384800D01*
X192018800Y-112384800D01*
G37*
G36*
X174018800Y-112344800D02*
X172217200Y-112344800D01*
X172217200Y-111343200D01*
X174018800Y-111343200D01*
X174018800Y-112344800D01*
X174018800Y-112344800D01*
G37*
G36*
X192018800Y-111114800D02*
X190217200Y-111114800D01*
X190217200Y-110113200D01*
X192018800Y-110113200D01*
X192018800Y-111114800D01*
X192018800Y-111114800D01*
G37*
G36*
X174018800Y-111074800D02*
X172217200Y-111074800D01*
X172217200Y-110073200D01*
X174018800Y-110073200D01*
X174018800Y-111074800D01*
X174018800Y-111074800D01*
G37*
G36*
X185469000Y-109895000D02*
X179367000Y-109895000D01*
X179367000Y-103793000D01*
X185469000Y-103793000D01*
X185469000Y-109895000D01*
X185469000Y-109895000D01*
G37*
G36*
X192018800Y-109844800D02*
X190217200Y-109844800D01*
X190217200Y-108843200D01*
X192018800Y-108843200D01*
X192018800Y-109844800D01*
X192018800Y-109844800D01*
G37*
G36*
X174018800Y-109804800D02*
X172217200Y-109804800D01*
X172217200Y-108803200D01*
X174018800Y-108803200D01*
X174018800Y-109804800D01*
X174018800Y-109804800D01*
G37*
G36*
X194357499Y-107936445D02*
X194394993Y-107947819D01*
X194429557Y-107966294D01*
X194459847Y-107991153D01*
X194484706Y-108021443D01*
X194503181Y-108056007D01*
X194514555Y-108093501D01*
X194519000Y-108138638D01*
X194519000Y-108777362D01*
X194514555Y-108822499D01*
X194503181Y-108859993D01*
X194484706Y-108894557D01*
X194459847Y-108924847D01*
X194429557Y-108949706D01*
X194394993Y-108968181D01*
X194357499Y-108979555D01*
X194312362Y-108984000D01*
X193573638Y-108984000D01*
X193528501Y-108979555D01*
X193491007Y-108968181D01*
X193456443Y-108949706D01*
X193426153Y-108924847D01*
X193401294Y-108894557D01*
X193382819Y-108859993D01*
X193371445Y-108822499D01*
X193367000Y-108777362D01*
X193367000Y-108138638D01*
X193371445Y-108093501D01*
X193382819Y-108056007D01*
X193401294Y-108021443D01*
X193426153Y-107991153D01*
X193456443Y-107966294D01*
X193491007Y-107947819D01*
X193528501Y-107936445D01*
X193573638Y-107932000D01*
X194312362Y-107932000D01*
X194357499Y-107936445D01*
X194357499Y-107936445D01*
G37*
G36*
X199917499Y-107936445D02*
X199954993Y-107947819D01*
X199989557Y-107966294D01*
X200019847Y-107991153D01*
X200044706Y-108021443D01*
X200063181Y-108056007D01*
X200074555Y-108093501D01*
X200079000Y-108138638D01*
X200079000Y-108777362D01*
X200074555Y-108822499D01*
X200063181Y-108859993D01*
X200044706Y-108894557D01*
X200019847Y-108924847D01*
X199989557Y-108949706D01*
X199954993Y-108968181D01*
X199917499Y-108979555D01*
X199872362Y-108984000D01*
X199133638Y-108984000D01*
X199088501Y-108979555D01*
X199051007Y-108968181D01*
X199016443Y-108949706D01*
X198986153Y-108924847D01*
X198961294Y-108894557D01*
X198942819Y-108859993D01*
X198931445Y-108822499D01*
X198927000Y-108777362D01*
X198927000Y-108138638D01*
X198931445Y-108093501D01*
X198942819Y-108056007D01*
X198961294Y-108021443D01*
X198986153Y-107991153D01*
X199016443Y-107966294D01*
X199051007Y-107947819D01*
X199088501Y-107936445D01*
X199133638Y-107932000D01*
X199872362Y-107932000D01*
X199917499Y-107936445D01*
X199917499Y-107936445D01*
G37*
G36*
X196107499Y-107936445D02*
X196144993Y-107947819D01*
X196179557Y-107966294D01*
X196209847Y-107991153D01*
X196234706Y-108021443D01*
X196253181Y-108056007D01*
X196264555Y-108093501D01*
X196269000Y-108138638D01*
X196269000Y-108777362D01*
X196264555Y-108822499D01*
X196253181Y-108859993D01*
X196234706Y-108894557D01*
X196209847Y-108924847D01*
X196179557Y-108949706D01*
X196144993Y-108968181D01*
X196107499Y-108979555D01*
X196062362Y-108984000D01*
X195323638Y-108984000D01*
X195278501Y-108979555D01*
X195241007Y-108968181D01*
X195206443Y-108949706D01*
X195176153Y-108924847D01*
X195151294Y-108894557D01*
X195132819Y-108859993D01*
X195121445Y-108822499D01*
X195117000Y-108777362D01*
X195117000Y-108138638D01*
X195121445Y-108093501D01*
X195132819Y-108056007D01*
X195151294Y-108021443D01*
X195176153Y-107991153D01*
X195206443Y-107966294D01*
X195241007Y-107947819D01*
X195278501Y-107936445D01*
X195323638Y-107932000D01*
X196062362Y-107932000D01*
X196107499Y-107936445D01*
X196107499Y-107936445D01*
G37*
G36*
X198167499Y-107936445D02*
X198204993Y-107947819D01*
X198239557Y-107966294D01*
X198269847Y-107991153D01*
X198294706Y-108021443D01*
X198313181Y-108056007D01*
X198324555Y-108093501D01*
X198329000Y-108138638D01*
X198329000Y-108777362D01*
X198324555Y-108822499D01*
X198313181Y-108859993D01*
X198294706Y-108894557D01*
X198269847Y-108924847D01*
X198239557Y-108949706D01*
X198204993Y-108968181D01*
X198167499Y-108979555D01*
X198122362Y-108984000D01*
X197383638Y-108984000D01*
X197338501Y-108979555D01*
X197301007Y-108968181D01*
X197266443Y-108949706D01*
X197236153Y-108924847D01*
X197211294Y-108894557D01*
X197192819Y-108859993D01*
X197181445Y-108822499D01*
X197177000Y-108777362D01*
X197177000Y-108138638D01*
X197181445Y-108093501D01*
X197192819Y-108056007D01*
X197211294Y-108021443D01*
X197236153Y-107991153D01*
X197266443Y-107966294D01*
X197301007Y-107947819D01*
X197338501Y-107936445D01*
X197383638Y-107932000D01*
X198122362Y-107932000D01*
X198167499Y-107936445D01*
X198167499Y-107936445D01*
G37*
G36*
X192018800Y-108574800D02*
X190217200Y-108574800D01*
X190217200Y-107573200D01*
X192018800Y-107573200D01*
X192018800Y-108574800D01*
X192018800Y-108574800D01*
G37*
G36*
X174018800Y-108534800D02*
X172217200Y-108534800D01*
X172217200Y-107533200D01*
X174018800Y-107533200D01*
X174018800Y-108534800D01*
X174018800Y-108534800D01*
G37*
G36*
X217599770Y-106457372D02*
X217715689Y-106480429D01*
X217897678Y-106555811D01*
X218061463Y-106665249D01*
X218200751Y-106804537D01*
X218310189Y-106968322D01*
X218385571Y-107150311D01*
X218388207Y-107163565D01*
X218416301Y-107304800D01*
X218424000Y-107343509D01*
X218424000Y-107540491D01*
X218385571Y-107733689D01*
X218310189Y-107915678D01*
X218200751Y-108079463D01*
X218061463Y-108218751D01*
X217897678Y-108328189D01*
X217715689Y-108403571D01*
X217599770Y-108426628D01*
X217522493Y-108442000D01*
X217325507Y-108442000D01*
X217248230Y-108426628D01*
X217132311Y-108403571D01*
X216950322Y-108328189D01*
X216786537Y-108218751D01*
X216647249Y-108079463D01*
X216537811Y-107915678D01*
X216462429Y-107733689D01*
X216424000Y-107540491D01*
X216424000Y-107343509D01*
X216431700Y-107304800D01*
X216459793Y-107163565D01*
X216462429Y-107150311D01*
X216537811Y-106968322D01*
X216647249Y-106804537D01*
X216786537Y-106665249D01*
X216950322Y-106555811D01*
X217132311Y-106480429D01*
X217248230Y-106457372D01*
X217325507Y-106442000D01*
X217522493Y-106442000D01*
X217599770Y-106457372D01*
X217599770Y-106457372D01*
G37*
G36*
X192018800Y-107304800D02*
X190217200Y-107304800D01*
X190217200Y-106303200D01*
X192018800Y-106303200D01*
X192018800Y-107304800D01*
X192018800Y-107304800D01*
G37*
G36*
X174018800Y-107264800D02*
X172217200Y-107264800D01*
X172217200Y-106263200D01*
X174018800Y-106263200D01*
X174018800Y-107264800D01*
X174018800Y-107264800D01*
G37*
G36*
X198868000Y-106761000D02*
X196766000Y-106761000D01*
X196766000Y-105959000D01*
X198868000Y-105959000D01*
X198868000Y-106761000D01*
X198868000Y-106761000D01*
G37*
G36*
X236829535Y-103885800D02*
X236860740Y-103895266D01*
X236889487Y-103910631D01*
X236914687Y-103931313D01*
X236935369Y-103956513D01*
X236950734Y-103985260D01*
X236960200Y-104016465D01*
X236964000Y-104055045D01*
X236964000Y-105910955D01*
X236960200Y-105949535D01*
X236950734Y-105980740D01*
X236935369Y-106009487D01*
X236914687Y-106034687D01*
X236889487Y-106055369D01*
X236860740Y-106070734D01*
X236829535Y-106080200D01*
X236790955Y-106084000D01*
X231585045Y-106084000D01*
X231546465Y-106080200D01*
X231515260Y-106070734D01*
X231486513Y-106055369D01*
X231461313Y-106034687D01*
X231440631Y-106009487D01*
X231425266Y-105980740D01*
X231415800Y-105949535D01*
X231412000Y-105910955D01*
X231412000Y-104055045D01*
X231415800Y-104016465D01*
X231425266Y-103985260D01*
X231440631Y-103956513D01*
X231461313Y-103931313D01*
X231486513Y-103910631D01*
X231515260Y-103895266D01*
X231546465Y-103885800D01*
X231585045Y-103882000D01*
X236790955Y-103882000D01*
X236829535Y-103885800D01*
X236829535Y-103885800D01*
G37*
G36*
X192018800Y-106034800D02*
X190217200Y-106034800D01*
X190217200Y-105033200D01*
X192018800Y-105033200D01*
X192018800Y-106034800D01*
X192018800Y-106034800D01*
G37*
G36*
X174018800Y-105994800D02*
X172217200Y-105994800D01*
X172217200Y-104993200D01*
X174018800Y-104993200D01*
X174018800Y-105994800D01*
X174018800Y-105994800D01*
G37*
G36*
X194357499Y-104888445D02*
X194394993Y-104899819D01*
X194429557Y-104918294D01*
X194459847Y-104943153D01*
X194484706Y-104973443D01*
X194503181Y-105008007D01*
X194514555Y-105045501D01*
X194519000Y-105090638D01*
X194519000Y-105729362D01*
X194514555Y-105774499D01*
X194503181Y-105811993D01*
X194484706Y-105846557D01*
X194459847Y-105876847D01*
X194429557Y-105901706D01*
X194394993Y-105920181D01*
X194357499Y-105931555D01*
X194312362Y-105936000D01*
X193573638Y-105936000D01*
X193528501Y-105931555D01*
X193491007Y-105920181D01*
X193456443Y-105901706D01*
X193426153Y-105876847D01*
X193401294Y-105846557D01*
X193382819Y-105811993D01*
X193371445Y-105774499D01*
X193367000Y-105729362D01*
X193367000Y-105090638D01*
X193371445Y-105045501D01*
X193382819Y-105008007D01*
X193401294Y-104973443D01*
X193426153Y-104943153D01*
X193456443Y-104918294D01*
X193491007Y-104899819D01*
X193528501Y-104888445D01*
X193573638Y-104884000D01*
X194312362Y-104884000D01*
X194357499Y-104888445D01*
X194357499Y-104888445D01*
G37*
G36*
X196107499Y-104888445D02*
X196144993Y-104899819D01*
X196179557Y-104918294D01*
X196209847Y-104943153D01*
X196234706Y-104973443D01*
X196253181Y-105008007D01*
X196264555Y-105045501D01*
X196269000Y-105090638D01*
X196269000Y-105729362D01*
X196264555Y-105774499D01*
X196253181Y-105811993D01*
X196234706Y-105846557D01*
X196209847Y-105876847D01*
X196179557Y-105901706D01*
X196144993Y-105920181D01*
X196107499Y-105931555D01*
X196062362Y-105936000D01*
X195323638Y-105936000D01*
X195278501Y-105931555D01*
X195241007Y-105920181D01*
X195206443Y-105901706D01*
X195176153Y-105876847D01*
X195151294Y-105846557D01*
X195132819Y-105811993D01*
X195121445Y-105774499D01*
X195117000Y-105729362D01*
X195117000Y-105090638D01*
X195121445Y-105045501D01*
X195132819Y-105008007D01*
X195151294Y-104973443D01*
X195176153Y-104943153D01*
X195206443Y-104918294D01*
X195241007Y-104899819D01*
X195278501Y-104888445D01*
X195323638Y-104884000D01*
X196062362Y-104884000D01*
X196107499Y-104888445D01*
X196107499Y-104888445D01*
G37*
G36*
X202268000Y-105811000D02*
X200166000Y-105811000D01*
X200166000Y-105009000D01*
X202268000Y-105009000D01*
X202268000Y-105811000D01*
X202268000Y-105811000D01*
G37*
G36*
X198868000Y-104861000D02*
X196766000Y-104861000D01*
X196766000Y-104059000D01*
X198868000Y-104059000D01*
X198868000Y-104861000D01*
X198868000Y-104861000D01*
G37*
G36*
X192018800Y-104764800D02*
X190217200Y-104764800D01*
X190217200Y-103763200D01*
X192018800Y-103763200D01*
X192018800Y-104764800D01*
X192018800Y-104764800D01*
G37*
G36*
X174018800Y-104724800D02*
X172217200Y-104724800D01*
X172217200Y-103723200D01*
X174018800Y-103723200D01*
X174018800Y-104724800D01*
X174018800Y-104724800D01*
G37*
G36*
X229646396Y-102593546D02*
X229819466Y-102665234D01*
X229975230Y-102769312D01*
X230107688Y-102901770D01*
X230211766Y-103057534D01*
X230283454Y-103230604D01*
X230320000Y-103414333D01*
X230320000Y-103601667D01*
X230283454Y-103785396D01*
X230211766Y-103958466D01*
X230107688Y-104114230D01*
X229975230Y-104246688D01*
X229819466Y-104350766D01*
X229646396Y-104422454D01*
X229462667Y-104459000D01*
X229275333Y-104459000D01*
X229091604Y-104422454D01*
X228918534Y-104350766D01*
X228762770Y-104246688D01*
X228630312Y-104114230D01*
X228526234Y-103958466D01*
X228454546Y-103785396D01*
X228418000Y-103601667D01*
X228418000Y-103414333D01*
X228454546Y-103230604D01*
X228526234Y-103057534D01*
X228630312Y-102901770D01*
X228762770Y-102769312D01*
X228918534Y-102665234D01*
X229091604Y-102593546D01*
X229275333Y-102557000D01*
X229462667Y-102557000D01*
X229646396Y-102593546D01*
X229646396Y-102593546D01*
G37*
G36*
X192018800Y-103494800D02*
X190217200Y-103494800D01*
X190217200Y-102493200D01*
X192018800Y-102493200D01*
X192018800Y-103494800D01*
X192018800Y-103494800D01*
G37*
G36*
X174018800Y-103454800D02*
X172217200Y-103454800D01*
X172217200Y-102453200D01*
X174018800Y-102453200D01*
X174018800Y-103454800D01*
X174018800Y-103454800D01*
G37*
G36*
X222146396Y-101193546D02*
X222319466Y-101265234D01*
X222475230Y-101369312D01*
X222607688Y-101501770D01*
X222711766Y-101657534D01*
X222783454Y-101830604D01*
X222820000Y-102014333D01*
X222820000Y-102201667D01*
X222783454Y-102385396D01*
X222711766Y-102558466D01*
X222607688Y-102714230D01*
X222475230Y-102846688D01*
X222319466Y-102950766D01*
X222146396Y-103022454D01*
X221962667Y-103059000D01*
X221775333Y-103059000D01*
X221591604Y-103022454D01*
X221418534Y-102950766D01*
X221262770Y-102846688D01*
X221130312Y-102714230D01*
X221026234Y-102558466D01*
X220954546Y-102385396D01*
X220918000Y-102201667D01*
X220918000Y-102014333D01*
X220954546Y-101830604D01*
X221026234Y-101657534D01*
X221130312Y-101501770D01*
X221262770Y-101369312D01*
X221418534Y-101265234D01*
X221591604Y-101193546D01*
X221775333Y-101157000D01*
X221962667Y-101157000D01*
X222146396Y-101193546D01*
X222146396Y-101193546D01*
G37*
G36*
X203575256Y-99229298D02*
X203681579Y-99250447D01*
X203982042Y-99374903D01*
X204077907Y-99438958D01*
X204252454Y-99555587D01*
X204482413Y-99785546D01*
X204663098Y-100055960D01*
X204787553Y-100356422D01*
X204851000Y-100675389D01*
X204851000Y-101000611D01*
X204812622Y-101193547D01*
X204787553Y-101319579D01*
X204663097Y-101620042D01*
X204522404Y-101830604D01*
X204482413Y-101890454D01*
X204252454Y-102120413D01*
X204252451Y-102120415D01*
X203982042Y-102301097D01*
X203681579Y-102425553D01*
X203575256Y-102446702D01*
X203362611Y-102489000D01*
X203037389Y-102489000D01*
X202824744Y-102446702D01*
X202718421Y-102425553D01*
X202417958Y-102301097D01*
X202147549Y-102120415D01*
X202147546Y-102120413D01*
X201917587Y-101890454D01*
X201877596Y-101830604D01*
X201736903Y-101620042D01*
X201612447Y-101319579D01*
X201587378Y-101193547D01*
X201549000Y-101000611D01*
X201549000Y-100675389D01*
X201612447Y-100356422D01*
X201736902Y-100055960D01*
X201917587Y-99785546D01*
X202147546Y-99555587D01*
X202322093Y-99438958D01*
X202417958Y-99374903D01*
X202718421Y-99250447D01*
X202824744Y-99229298D01*
X203037389Y-99187000D01*
X203362611Y-99187000D01*
X203575256Y-99229298D01*
X203575256Y-99229298D01*
G37*
G36*
X192018800Y-102224800D02*
X190217200Y-102224800D01*
X190217200Y-101223200D01*
X192018800Y-101223200D01*
X192018800Y-102224800D01*
X192018800Y-102224800D01*
G37*
G36*
X174018800Y-102184800D02*
X172217200Y-102184800D01*
X172217200Y-101183200D01*
X174018800Y-101183200D01*
X174018800Y-102184800D01*
X174018800Y-102184800D01*
G37*
G36*
X198120000Y-102108000D02*
X195072000Y-102108000D01*
X195072000Y-98552000D01*
X198120000Y-98552000D01*
X198120000Y-102108000D01*
X198120000Y-102108000D01*
G37*
G36*
X192018800Y-100954800D02*
X190217200Y-100954800D01*
X190217200Y-99953200D01*
X192018800Y-99953200D01*
X192018800Y-100954800D01*
X192018800Y-100954800D01*
G37*
G36*
X174018800Y-100914800D02*
X172217200Y-100914800D01*
X172217200Y-99913200D01*
X174018800Y-99913200D01*
X174018800Y-100914800D01*
X174018800Y-100914800D01*
G37*
G36*
X192018800Y-99684800D02*
X190217200Y-99684800D01*
X190217200Y-98683200D01*
X192018800Y-98683200D01*
X192018800Y-99684800D01*
X192018800Y-99684800D01*
G37*
G36*
X174018800Y-99644800D02*
X172217200Y-99644800D01*
X172217200Y-98643200D01*
X174018800Y-98643200D01*
X174018800Y-99644800D01*
X174018800Y-99644800D01*
G37*
G36*
X233807000Y-99441000D02*
X230378000Y-99441000D01*
X230378000Y-93218000D01*
X233807000Y-93218000D01*
X233807000Y-99441000D01*
X233807000Y-99441000D01*
G37*
G36*
X223774000Y-99441000D02*
X220218000Y-99441000D01*
X220218000Y-93218000D01*
X223774000Y-93218000D01*
X223774000Y-99441000D01*
X223774000Y-99441000D01*
G37*
G36*
X217102424Y-94936760D02*
X217102427Y-94936761D01*
X217102428Y-94936761D01*
X217281692Y-94991140D01*
X217281694Y-94991141D01*
X217281697Y-94991142D01*
X217446904Y-95079446D01*
X217591712Y-95198288D01*
X217710552Y-95343095D01*
X217798859Y-95508305D01*
X217853240Y-95687575D01*
X217867000Y-95827282D01*
X217867000Y-97720718D01*
X217853240Y-97860425D01*
X217853239Y-97860428D01*
X217853239Y-97860429D01*
X217801288Y-98031690D01*
X217798859Y-98039695D01*
X217710552Y-98204905D01*
X217591712Y-98349712D01*
X217446905Y-98468552D01*
X217286965Y-98554042D01*
X217281693Y-98556860D01*
X217102429Y-98611239D01*
X217102428Y-98611239D01*
X217102425Y-98611240D01*
X216916000Y-98629601D01*
X216729576Y-98611240D01*
X216729573Y-98611239D01*
X216729572Y-98611239D01*
X216550308Y-98556860D01*
X216545036Y-98554042D01*
X216385096Y-98468552D01*
X216240289Y-98349712D01*
X216121449Y-98204905D01*
X216033142Y-98039695D01*
X216030714Y-98031690D01*
X215978762Y-97860429D01*
X215978762Y-97860428D01*
X215978761Y-97860425D01*
X215965000Y-97720717D01*
X215965000Y-95827283D01*
X215978760Y-95687576D01*
X215978761Y-95687572D01*
X216033140Y-95508308D01*
X216033141Y-95508306D01*
X216033142Y-95508303D01*
X216121446Y-95343096D01*
X216240288Y-95198288D01*
X216385095Y-95079448D01*
X216550305Y-94991141D01*
X216550307Y-94991140D01*
X216729571Y-94936761D01*
X216729572Y-94936761D01*
X216729575Y-94936760D01*
X216916000Y-94918399D01*
X217102424Y-94936760D01*
X217102424Y-94936760D01*
G37*
G36*
X227262424Y-94936760D02*
X227262427Y-94936761D01*
X227262428Y-94936761D01*
X227441692Y-94991140D01*
X227441694Y-94991141D01*
X227441697Y-94991142D01*
X227606904Y-95079446D01*
X227751712Y-95198288D01*
X227870552Y-95343095D01*
X227958859Y-95508305D01*
X228013240Y-95687575D01*
X228027000Y-95827282D01*
X228027000Y-97720718D01*
X228013240Y-97860425D01*
X228013239Y-97860428D01*
X228013239Y-97860429D01*
X227961288Y-98031690D01*
X227958859Y-98039695D01*
X227870552Y-98204905D01*
X227751712Y-98349712D01*
X227606905Y-98468552D01*
X227446965Y-98554042D01*
X227441693Y-98556860D01*
X227262429Y-98611239D01*
X227262428Y-98611239D01*
X227262425Y-98611240D01*
X227076000Y-98629601D01*
X226889576Y-98611240D01*
X226889573Y-98611239D01*
X226889572Y-98611239D01*
X226710308Y-98556860D01*
X226705036Y-98554042D01*
X226545096Y-98468552D01*
X226400289Y-98349712D01*
X226281449Y-98204905D01*
X226193142Y-98039695D01*
X226190714Y-98031690D01*
X226138762Y-97860429D01*
X226138762Y-97860428D01*
X226138761Y-97860425D01*
X226125000Y-97720717D01*
X226125000Y-95827283D01*
X226138760Y-95687576D01*
X226138761Y-95687572D01*
X226193140Y-95508308D01*
X226193141Y-95508306D01*
X226193142Y-95508303D01*
X226281446Y-95343096D01*
X226400288Y-95198288D01*
X226545095Y-95079448D01*
X226710305Y-94991141D01*
X226710307Y-94991140D01*
X226889571Y-94936761D01*
X226889572Y-94936761D01*
X226889575Y-94936760D01*
X227076000Y-94918399D01*
X227262424Y-94936760D01*
X227262424Y-94936760D01*
G37*
G36*
X212646918Y-94926934D02*
X212679424Y-94936795D01*
X212709383Y-94952808D01*
X212735641Y-94974359D01*
X212757192Y-95000617D01*
X212773205Y-95030576D01*
X212783066Y-95063082D01*
X212787000Y-95103029D01*
X212787000Y-98444971D01*
X212783066Y-98484918D01*
X212773205Y-98517424D01*
X212757192Y-98547383D01*
X212735641Y-98573641D01*
X212709383Y-98595192D01*
X212679424Y-98611205D01*
X212646918Y-98621066D01*
X212606971Y-98625000D01*
X211065029Y-98625000D01*
X211025082Y-98621066D01*
X210992576Y-98611205D01*
X210962617Y-98595192D01*
X210936359Y-98573641D01*
X210914808Y-98547383D01*
X210898795Y-98517424D01*
X210888934Y-98484918D01*
X210885000Y-98444971D01*
X210885000Y-95103029D01*
X210888934Y-95063082D01*
X210898795Y-95030576D01*
X210914808Y-95000617D01*
X210936359Y-94974359D01*
X210962617Y-94952808D01*
X210992576Y-94936795D01*
X211025082Y-94926934D01*
X211065029Y-94923000D01*
X212606971Y-94923000D01*
X212646918Y-94926934D01*
X212646918Y-94926934D01*
G37*
G36*
X190881000Y-98044000D02*
X172593000Y-98044000D01*
X172593000Y-97155000D01*
X190881000Y-97155000D01*
X190881000Y-98044000D01*
X190881000Y-98044000D01*
G37*
M02*
