M48
;DRILL file {KiCad 5.0.2-bee76a0~70~ubuntu18.04.1} date mer. 22 avril 2020 18:31:11 CEST
;FORMAT={-:-/ absolute / metric / decimal}
FMAT,2
METRIC,TZ
T1C0.300
T2C0.600
T3C0.762
T4C0.800
T5C1.000
T6C1.200
%
G90
G05
T1
X171.577Y-99.822
X171.577Y-101.092
X171.577Y-102.362
X171.577Y-103.632
X171.577Y-104.902
X171.577Y-106.172
X171.577Y-107.442
X171.577Y-108.712
X171.577Y-109.982
X171.577Y-111.252
X171.577Y-112.522
X171.577Y-113.792
X171.577Y-115.062
X171.704Y-124.841
X172.847Y-97.536
X173.101Y-152.908
X173.101Y-154.305
X173.101Y-155.702
X173.101Y-157.099
X173.101Y-162.814
X173.101Y-164.338
X173.101Y-165.862
X173.101Y-167.386
X174.244Y-97.536
X174.371Y-144.399
X174.498Y-103.378
X174.498Y-114.427
X174.625Y-100.457
X174.625Y-102.362
X175.006Y-110.744
X175.26Y-113.665
X175.768Y-97.536
X176.022Y-127.889
X177.419Y-97.536
X179.197Y-97.536
X179.197Y-99.314
X179.324Y-143.891
X180.467Y-101.346
X180.594Y-97.536
X180.721Y-115.189
X181.61Y-127.508
X182.118Y-97.536
X183.769Y-97.536
X183.896Y-145.161
X184.15Y-141.986
X184.277Y-123.952
X184.912Y-126.619
X185.307Y-138.557
X185.547Y-97.536
X185.674Y-143.51
X185.674Y-175.387
X185.928Y-132.842
X186.563Y-115.443
X186.944Y-97.536
X187.452Y-119.888
X187.833Y-118.618
X188.327Y-144.526
X188.468Y-97.536
X188.468Y-150.622
X188.468Y-154.432
X188.468Y-175.387
X188.849Y-102.997
X188.976Y-137.414
X189.484Y-104.267
X189.484Y-108.204
X189.738Y-115.697
X189.738Y-147.715
X189.992Y-139.954
X190.119Y-97.536
X191.008Y-150.368
X191.008Y-154.94
X191.008Y-160.528
X191.135Y-175.387
X192.532Y-117.602
X192.786Y-108.458
X192.786Y-109.474
X192.786Y-110.49
X193.421Y-113.411
X193.548Y-100.584
X193.675Y-175.387
X194.056Y-118.618
X194.056Y-124.206
X195.199Y-156.21
X195.326Y-136.144
X195.58Y-142.875
X195.58Y-144.526
X195.707Y-117.094
X195.834Y-143.764
X196.215Y-141.732
X196.342Y-132.207
X196.342Y-175.387
X196.723Y-149.479
X197.612Y-164.846
X198.12Y-140.081
X198.755Y-175.387
X198.882Y-162.193
X199.136Y-140.081
X199.263Y-163.957
X199.644Y-142.494
X199.644Y-143.764
X199.644Y-149.098
X199.898Y-158.75
X199.898Y-159.512
X200.152Y-140.081
X200.66Y-128.524
X201.295Y-156.21
X202.184Y-143.256
X202.184Y-144.272
X202.184Y-145.288
X202.184Y-148.844
X202.819Y-159.004
X202.946Y-164.211
X204.343Y-146.685
X204.597Y-160.782
X204.978Y-143.764
X204.978Y-144.78
X205.105Y-108.204
X206.375Y-149.098
X209.169Y-151.257
X209.423Y-144.907
X210.185Y-149.098
X210.439Y-151.257
X211.201Y-146.05
X212.725Y-151.257
X212.852Y-144.653
X213.233Y-148.971
X213.487Y-146.431
X215.011Y-175.641
X215.138Y-152.4
X215.138Y-157.226
X215.138Y-158.496
X215.138Y-163.576
X215.138Y-164.846
X215.138Y-166.116
X215.138Y-167.386
X215.138Y-168.656
X215.138Y-169.926
X215.138Y-171.323
X215.138Y-172.847
X215.519Y-154.051
X215.519Y-155.575
X216.027Y-174.625
X216.027Y-175.641
X218.059Y-148.971
X220.599Y-93.98
X220.599Y-96.774
X220.599Y-99.06
X220.599Y-172.339
X220.853Y-169.545
X221.996Y-93.98
X221.996Y-169.545
X223.139Y-169.545
X223.393Y-93.98
X223.393Y-96.774
X223.393Y-99.06
X223.393Y-172.339
X230.124Y-154.178
X230.124Y-155.956
X230.759Y-93.98
X230.759Y-96.774
X230.759Y-172.339
X230.886Y-99.06
X231.013Y-169.545
X232.156Y-93.98
X232.156Y-99.06
X232.156Y-169.545
X232.537Y-146.05
X232.537Y-147.574
X232.537Y-149.606
X232.537Y-151.13
X232.6Y-157.162
X232.6Y-159.004
X232.6Y-162.369
X232.6Y-163.766
X233.299Y-169.545
X233.426Y-93.98
X233.426Y-99.06
X233.553Y-96.774
X233.553Y-146.749
X233.553Y-172.339
X233.617Y-163.131
X234.696Y-146.05
X234.696Y-147.574
X234.696Y-149.606
X234.696Y-151.13
X234.696Y-157.162
X234.696Y-159.004
X234.696Y-162.369
X234.696Y-163.766
X235.775Y-163.131
X235.839Y-146.749
X236.728Y-157.162
X236.728Y-159.004
X236.728Y-162.369
X236.728Y-163.766
X236.855Y-146.05
X236.855Y-147.574
X236.855Y-149.606
X236.855Y-151.13
T2
X180.078Y-104.495
X180.078Y-106.73
X180.078Y-109.194
X182.389Y-104.495
X182.389Y-109.194
X184.751Y-104.495
X184.751Y-106.73
X184.751Y-109.194
T3
X212.09Y-118.872
X212.09Y-134.112
X234.95Y-116.332
X234.95Y-134.112
T4
X212.09Y-111.76
X222.09Y-111.76
X191.77Y-125.984
X191.77Y-128.524
X191.77Y-131.064
X191.77Y-133.604
X191.77Y-136.144
X191.77Y-138.684
X191.77Y-141.224
X221.869Y-102.108
X229.369Y-103.508
T5
X182.389Y-106.857
X173.482Y-121.158
X176.022Y-121.158
X178.562Y-121.158
X181.102Y-121.158
X183.642Y-121.158
X186.182Y-121.158
X188.722Y-121.158
T6
X221.996Y-96.774
X227.076Y-96.774
X232.156Y-96.774
X211.836Y-96.774
X216.916Y-96.774
X221.996Y-172.466
X227.076Y-172.466
X232.156Y-172.466
T5
X176.53Y-156.202G85X176.53Y-155.202
G05
X178.93Y-154.202G85X178.93Y-153.202
G05
X184.43Y-154.202G85X184.43Y-153.202
G05
X176.53Y-166.108G85X176.53Y-165.108
G05
X178.93Y-164.108G85X178.93Y-163.108
G05
X184.43Y-164.108G85X184.43Y-163.108
G05
T0
M30
