G04 #@! TF.GenerationSoftware,KiCad,Pcbnew,5.0.2-bee76a0~70~ubuntu18.04.1*
G04 #@! TF.CreationDate,2020-04-22T18:31:07+02:00*
G04 #@! TF.ProjectId,Energy_Meter,456e6572-6779-45f4-9d65-7465722e6b69,rev?*
G04 #@! TF.SameCoordinates,Original*
G04 #@! TF.FileFunction,Legend,Top*
G04 #@! TF.FilePolarity,Positive*
%FSLAX46Y46*%
G04 Gerber Fmt 4.6, Leading zero omitted, Abs format (unit mm)*
G04 Created by KiCad (PCBNEW 5.0.2-bee76a0~70~ubuntu18.04.1) date mer. 22 avril 2020 18:31:07 CEST*
%MOMM*%
%LPD*%
G01*
G04 APERTURE LIST*
%ADD10C,0.200000*%
%ADD11C,0.300000*%
%ADD12C,0.120000*%
%ADD13C,0.150000*%
%ADD14C,0.254000*%
%ADD15C,0.010000*%
%ADD16C,0.158750*%
G04 APERTURE END LIST*
D10*
X187388666Y-173378761D02*
X187531523Y-173426380D01*
X187769619Y-173426380D01*
X187864857Y-173378761D01*
X187912476Y-173331142D01*
X187960095Y-173235904D01*
X187960095Y-173140666D01*
X187912476Y-173045428D01*
X187864857Y-172997809D01*
X187769619Y-172950190D01*
X187579142Y-172902571D01*
X187483904Y-172854952D01*
X187436285Y-172807333D01*
X187388666Y-172712095D01*
X187388666Y-172616857D01*
X187436285Y-172521619D01*
X187483904Y-172474000D01*
X187579142Y-172426380D01*
X187817238Y-172426380D01*
X187960095Y-172474000D01*
X189102952Y-172378761D02*
X188245809Y-173664476D01*
X189436285Y-173426380D02*
X189436285Y-172426380D01*
X190007714Y-173426380D01*
X190007714Y-172426380D01*
X198882000Y-171196000D02*
X186944000Y-171196000D01*
X198882000Y-174625000D02*
X198882000Y-171196000D01*
X186944000Y-174625000D02*
X198882000Y-174625000D01*
X186944000Y-171196000D02*
X186944000Y-174625000D01*
D11*
X175478857Y-175049571D02*
X175478857Y-173549571D01*
X175478857Y-174263857D02*
X176336000Y-174263857D01*
X176336000Y-175049571D02*
X176336000Y-173549571D01*
X177550285Y-174263857D02*
X177764571Y-174335285D01*
X177836000Y-174406714D01*
X177907428Y-174549571D01*
X177907428Y-174763857D01*
X177836000Y-174906714D01*
X177764571Y-174978142D01*
X177621714Y-175049571D01*
X177050285Y-175049571D01*
X177050285Y-173549571D01*
X177550285Y-173549571D01*
X177693142Y-173621000D01*
X177764571Y-173692428D01*
X177836000Y-173835285D01*
X177836000Y-173978142D01*
X177764571Y-174121000D01*
X177693142Y-174192428D01*
X177550285Y-174263857D01*
X177050285Y-174263857D01*
X179621714Y-173692428D02*
X179693142Y-173621000D01*
X179836000Y-173549571D01*
X180193142Y-173549571D01*
X180336000Y-173621000D01*
X180407428Y-173692428D01*
X180478857Y-173835285D01*
X180478857Y-173978142D01*
X180407428Y-174192428D01*
X179550285Y-175049571D01*
X180478857Y-175049571D01*
X181407428Y-173549571D02*
X181550285Y-173549571D01*
X181693142Y-173621000D01*
X181764571Y-173692428D01*
X181836000Y-173835285D01*
X181907428Y-174121000D01*
X181907428Y-174478142D01*
X181836000Y-174763857D01*
X181764571Y-174906714D01*
X181693142Y-174978142D01*
X181550285Y-175049571D01*
X181407428Y-175049571D01*
X181264571Y-174978142D01*
X181193142Y-174906714D01*
X181121714Y-174763857D01*
X181050285Y-174478142D01*
X181050285Y-174121000D01*
X181121714Y-173835285D01*
X181193142Y-173692428D01*
X181264571Y-173621000D01*
X181407428Y-173549571D01*
X182478857Y-173692428D02*
X182550285Y-173621000D01*
X182693142Y-173549571D01*
X183050285Y-173549571D01*
X183193142Y-173621000D01*
X183264571Y-173692428D01*
X183336000Y-173835285D01*
X183336000Y-173978142D01*
X183264571Y-174192428D01*
X182407428Y-175049571D01*
X183336000Y-175049571D01*
X184264571Y-173549571D02*
X184407428Y-173549571D01*
X184550285Y-173621000D01*
X184621714Y-173692428D01*
X184693142Y-173835285D01*
X184764571Y-174121000D01*
X184764571Y-174478142D01*
X184693142Y-174763857D01*
X184621714Y-174906714D01*
X184550285Y-174978142D01*
X184407428Y-175049571D01*
X184264571Y-175049571D01*
X184121714Y-174978142D01*
X184050285Y-174906714D01*
X183978857Y-174763857D01*
X183907428Y-174478142D01*
X183907428Y-174121000D01*
X183978857Y-173835285D01*
X184050285Y-173692428D01*
X184121714Y-173621000D01*
X184264571Y-173549571D01*
X171724714Y-171469857D02*
X172224714Y-171469857D01*
X172439000Y-172255571D02*
X171724714Y-172255571D01*
X171724714Y-170755571D01*
X172439000Y-170755571D01*
X173081857Y-171255571D02*
X173081857Y-172255571D01*
X173081857Y-171398428D02*
X173153285Y-171327000D01*
X173296142Y-171255571D01*
X173510428Y-171255571D01*
X173653285Y-171327000D01*
X173724714Y-171469857D01*
X173724714Y-172255571D01*
X175010428Y-172184142D02*
X174867571Y-172255571D01*
X174581857Y-172255571D01*
X174439000Y-172184142D01*
X174367571Y-172041285D01*
X174367571Y-171469857D01*
X174439000Y-171327000D01*
X174581857Y-171255571D01*
X174867571Y-171255571D01*
X175010428Y-171327000D01*
X175081857Y-171469857D01*
X175081857Y-171612714D01*
X174367571Y-171755571D01*
X175724714Y-172255571D02*
X175724714Y-171255571D01*
X175724714Y-171541285D02*
X175796142Y-171398428D01*
X175867571Y-171327000D01*
X176010428Y-171255571D01*
X176153285Y-171255571D01*
X177296142Y-171255571D02*
X177296142Y-172469857D01*
X177224714Y-172612714D01*
X177153285Y-172684142D01*
X177010428Y-172755571D01*
X176796142Y-172755571D01*
X176653285Y-172684142D01*
X177296142Y-172184142D02*
X177153285Y-172255571D01*
X176867571Y-172255571D01*
X176724714Y-172184142D01*
X176653285Y-172112714D01*
X176581857Y-171969857D01*
X176581857Y-171541285D01*
X176653285Y-171398428D01*
X176724714Y-171327000D01*
X176867571Y-171255571D01*
X177153285Y-171255571D01*
X177296142Y-171327000D01*
X177867571Y-171255571D02*
X178224714Y-172255571D01*
X178581857Y-171255571D02*
X178224714Y-172255571D01*
X178081857Y-172612714D01*
X178010428Y-172684142D01*
X177867571Y-172755571D01*
X180296142Y-172255571D02*
X180296142Y-170755571D01*
X180796142Y-171827000D01*
X181296142Y-170755571D01*
X181296142Y-172255571D01*
X182581857Y-172184142D02*
X182439000Y-172255571D01*
X182153285Y-172255571D01*
X182010428Y-172184142D01*
X181939000Y-172041285D01*
X181939000Y-171469857D01*
X182010428Y-171327000D01*
X182153285Y-171255571D01*
X182439000Y-171255571D01*
X182581857Y-171327000D01*
X182653285Y-171469857D01*
X182653285Y-171612714D01*
X181939000Y-171755571D01*
X183081857Y-171255571D02*
X183653285Y-171255571D01*
X183296142Y-170755571D02*
X183296142Y-172041285D01*
X183367571Y-172184142D01*
X183510428Y-172255571D01*
X183653285Y-172255571D01*
X184724714Y-172184142D02*
X184581857Y-172255571D01*
X184296142Y-172255571D01*
X184153285Y-172184142D01*
X184081857Y-172041285D01*
X184081857Y-171469857D01*
X184153285Y-171327000D01*
X184296142Y-171255571D01*
X184581857Y-171255571D01*
X184724714Y-171327000D01*
X184796142Y-171469857D01*
X184796142Y-171612714D01*
X184081857Y-171755571D01*
X185439000Y-172255571D02*
X185439000Y-171255571D01*
X185439000Y-171541285D02*
X185510428Y-171398428D01*
X185581857Y-171327000D01*
X185724714Y-171255571D01*
X185867571Y-171255571D01*
D10*
X236728000Y-98933000D02*
X236982000Y-98933000D01*
X236728000Y-92837000D02*
X236728000Y-98933000D01*
X235966000Y-92837000D02*
X236728000Y-92837000D01*
X235966000Y-98933000D02*
X235966000Y-92837000D01*
X235712000Y-98933000D02*
X235966000Y-98933000D01*
X236347000Y-99568000D02*
X235712000Y-98933000D01*
X236982000Y-98933000D02*
X236347000Y-99568000D01*
X227584000Y-91694000D02*
X228219000Y-90932000D01*
X226695000Y-90932000D02*
X227330000Y-91694000D01*
X227457000Y-91694000D02*
X227330000Y-91694000D01*
X227457000Y-91694000D02*
X227584000Y-91694000D01*
X227203000Y-91440000D02*
X227711000Y-91440000D01*
X227457000Y-91186000D02*
X226949000Y-91186000D01*
X227457000Y-91186000D02*
X227965000Y-91186000D01*
X227457000Y-90932000D02*
X226695000Y-90932000D01*
X227457000Y-90932000D02*
X228219000Y-90932000D01*
X227457000Y-90932000D02*
X227457000Y-90551000D01*
X209677095Y-90813000D02*
X209581857Y-90765380D01*
X209439000Y-90765380D01*
X209296142Y-90813000D01*
X209200904Y-90908238D01*
X209153285Y-91003476D01*
X209105666Y-91193952D01*
X209105666Y-91336809D01*
X209153285Y-91527285D01*
X209200904Y-91622523D01*
X209296142Y-91717761D01*
X209439000Y-91765380D01*
X209534238Y-91765380D01*
X209677095Y-91717761D01*
X209724714Y-91670142D01*
X209724714Y-91336809D01*
X209534238Y-91336809D01*
X210153285Y-91765380D02*
X210153285Y-90765380D01*
X210724714Y-91765380D01*
X210724714Y-90765380D01*
X211200904Y-91765380D02*
X211200904Y-90765380D01*
X211439000Y-90765380D01*
X211581857Y-90813000D01*
X211677095Y-90908238D01*
X211724714Y-91003476D01*
X211772333Y-91193952D01*
X211772333Y-91336809D01*
X211724714Y-91527285D01*
X211677095Y-91622523D01*
X211581857Y-91717761D01*
X211439000Y-91765380D01*
X211200904Y-91765380D01*
X214503238Y-91384428D02*
X215265142Y-91384428D01*
X214884190Y-91765380D02*
X214884190Y-91003476D01*
X216074666Y-91241571D02*
X216217523Y-91289190D01*
X216265142Y-91336809D01*
X216312761Y-91432047D01*
X216312761Y-91574904D01*
X216265142Y-91670142D01*
X216217523Y-91717761D01*
X216122285Y-91765380D01*
X215741333Y-91765380D01*
X215741333Y-90765380D01*
X216074666Y-90765380D01*
X216169904Y-90813000D01*
X216217523Y-90860619D01*
X216265142Y-90955857D01*
X216265142Y-91051095D01*
X216217523Y-91146333D01*
X216169904Y-91193952D01*
X216074666Y-91241571D01*
X215741333Y-91241571D01*
X217169904Y-91765380D02*
X217169904Y-91241571D01*
X217122285Y-91146333D01*
X217027047Y-91098714D01*
X216836571Y-91098714D01*
X216741333Y-91146333D01*
X217169904Y-91717761D02*
X217074666Y-91765380D01*
X216836571Y-91765380D01*
X216741333Y-91717761D01*
X216693714Y-91622523D01*
X216693714Y-91527285D01*
X216741333Y-91432047D01*
X216836571Y-91384428D01*
X217074666Y-91384428D01*
X217169904Y-91336809D01*
X217503238Y-91098714D02*
X217884190Y-91098714D01*
X217646095Y-90765380D02*
X217646095Y-91622523D01*
X217693714Y-91717761D01*
X217788952Y-91765380D01*
X217884190Y-91765380D01*
X218074666Y-91098714D02*
X218455619Y-91098714D01*
X218217523Y-90765380D02*
X218217523Y-91622523D01*
X218265142Y-91717761D01*
X218360380Y-91765380D01*
X218455619Y-91765380D01*
X221456285Y-91765380D02*
X221456285Y-90765380D01*
X222027714Y-91765380D01*
X222027714Y-90765380D01*
X231441714Y-91765380D02*
X231441714Y-90765380D01*
X231822666Y-90765380D01*
X231917904Y-90813000D01*
X231965523Y-90860619D01*
X232013142Y-90955857D01*
X232013142Y-91098714D01*
X231965523Y-91193952D01*
X231917904Y-91241571D01*
X231822666Y-91289190D01*
X231441714Y-91289190D01*
X232441714Y-91765380D02*
X232441714Y-90765380D01*
X232870285Y-91765380D02*
X232870285Y-91241571D01*
X232822666Y-91146333D01*
X232727428Y-91098714D01*
X232584571Y-91098714D01*
X232489333Y-91146333D01*
X232441714Y-91193952D01*
D12*
G04 #@! TO.C,L1*
X201377733Y-159891000D02*
X201720267Y-159891000D01*
X201377733Y-160911000D02*
X201720267Y-160911000D01*
G04 #@! TO.C,C23*
X205507000Y-151543936D02*
X205507000Y-152748064D01*
X203687000Y-151543936D02*
X203687000Y-152748064D01*
G04 #@! TO.C,Q3*
X198442000Y-107020000D02*
X200592000Y-107020000D01*
X197517000Y-103800000D02*
X200592000Y-103800000D01*
X200592000Y-103810000D02*
X200592000Y-104710000D01*
X200592000Y-106110000D02*
X200592000Y-107020000D01*
G04 #@! TO.C,Q2*
X210371000Y-146750000D02*
X210371000Y-147660000D01*
X210371000Y-144450000D02*
X210371000Y-145350000D01*
X207296000Y-144440000D02*
X210371000Y-144440000D01*
X208221000Y-147660000D02*
X210371000Y-147660000D01*
G04 #@! TO.C,J7*
X212585647Y-98923845D02*
G75*
G03X211086000Y-98924000I-749647J-1700155D01*
G01*
X217665647Y-98923845D02*
G75*
G03X216166000Y-98924000I-749647J-1700155D01*
G01*
X209186000Y-92314000D02*
X209186000Y-99784000D01*
X209186000Y-99784000D02*
X219566000Y-99784000D01*
X219566000Y-99784000D02*
X219566000Y-92314000D01*
X219566000Y-92314000D02*
X209186000Y-92314000D01*
X211086000Y-98924000D02*
X210336000Y-98924000D01*
X210336000Y-98924000D02*
X210336000Y-94624000D01*
X210336000Y-94624000D02*
X211086000Y-94624000D01*
X211086000Y-94624000D02*
X211086000Y-94274000D01*
X211086000Y-94274000D02*
X210586000Y-94274000D01*
X210586000Y-94274000D02*
X210336000Y-93274000D01*
X210336000Y-93274000D02*
X213336000Y-93274000D01*
X213336000Y-93274000D02*
X213086000Y-94274000D01*
X213086000Y-94274000D02*
X212586000Y-94274000D01*
X212586000Y-94274000D02*
X212586000Y-94624000D01*
X212586000Y-94624000D02*
X213336000Y-94624000D01*
X213336000Y-94624000D02*
X213336000Y-98924000D01*
X213336000Y-98924000D02*
X212586000Y-98924000D01*
X216166000Y-98924000D02*
X215416000Y-98924000D01*
X215416000Y-98924000D02*
X215416000Y-94624000D01*
X215416000Y-94624000D02*
X216166000Y-94624000D01*
X216166000Y-94624000D02*
X216166000Y-94274000D01*
X216166000Y-94274000D02*
X215666000Y-94274000D01*
X215666000Y-94274000D02*
X215416000Y-93274000D01*
X215416000Y-93274000D02*
X218416000Y-93274000D01*
X218416000Y-93274000D02*
X218166000Y-94274000D01*
X218166000Y-94274000D02*
X217666000Y-94274000D01*
X217666000Y-94274000D02*
X217666000Y-94624000D01*
X217666000Y-94624000D02*
X218416000Y-94624000D01*
X218416000Y-94624000D02*
X218416000Y-98924000D01*
X218416000Y-98924000D02*
X217666000Y-98924000D01*
X208796000Y-93174000D02*
X208796000Y-91924000D01*
X208796000Y-91924000D02*
X210796000Y-91924000D01*
D13*
G04 #@! TO.C,PS1*
X237490000Y-136652000D02*
X237490000Y-113792000D01*
X209550000Y-136652000D02*
X237490000Y-136652000D01*
X209550000Y-113792000D02*
X209550000Y-136652000D01*
X237490000Y-113792000D02*
X209550000Y-113792000D01*
X237087210Y-114554000D02*
G75*
G03X237087210Y-114554000I-359210J0D01*
G01*
D12*
G04 #@! TO.C,C1*
X208682000Y-163162064D02*
X208682000Y-161957936D01*
X206862000Y-163162064D02*
X206862000Y-161957936D01*
G04 #@! TO.C,F1*
X236858000Y-106254248D02*
X236858000Y-110661752D01*
X231518000Y-106254248D02*
X231518000Y-110661752D01*
D14*
G04 #@! TO.C,U3*
X173118000Y-91644000D02*
X191118000Y-91644000D01*
X173118000Y-97644000D02*
X191118000Y-97644000D01*
X172527411Y-97864000D02*
G75*
G03X172527411Y-97864000I-339411J0D01*
G01*
X191118000Y-91644000D02*
X191118000Y-98264000D01*
X173118000Y-117144000D02*
X173118000Y-116554000D01*
X173118000Y-117144000D02*
X175488000Y-117144000D01*
X191118000Y-117144000D02*
X188628000Y-117144000D01*
X191118000Y-117144000D02*
X191118000Y-116604000D01*
X173118000Y-91644000D02*
X173118000Y-98264000D01*
D13*
G04 #@! TO.C,R41*
X232156000Y-159766000D02*
X237236000Y-159766000D01*
X232156000Y-157861000D02*
X232156000Y-159766000D01*
X230886000Y-157861000D02*
X232156000Y-157861000D01*
X230886000Y-159766000D02*
X230886000Y-157861000D01*
X229616000Y-159766000D02*
X230886000Y-159766000D01*
X229616000Y-149606000D02*
X229616000Y-159766000D01*
X230886000Y-149606000D02*
X229616000Y-149606000D01*
X232156000Y-151511000D02*
X230886000Y-151511000D01*
X237236000Y-149606000D02*
X232156000Y-149606000D01*
X237236000Y-159766000D02*
X237236000Y-149606000D01*
X230886000Y-151511000D02*
X230886000Y-149606000D01*
X232156000Y-149606000D02*
X232156000Y-151511000D01*
D12*
G04 #@! TO.C,C6*
X203687000Y-158971064D02*
X203687000Y-157766936D01*
X205507000Y-158971064D02*
X205507000Y-157766936D01*
G04 #@! TO.C,C7*
X194658064Y-148992000D02*
X193453936Y-148992000D01*
X194658064Y-147172000D02*
X193453936Y-147172000D01*
G04 #@! TO.C,C8*
X194658064Y-151786000D02*
X193453936Y-151786000D01*
X194658064Y-149966000D02*
X193453936Y-149966000D01*
G04 #@! TO.C,C9*
X200046000Y-151543936D02*
X200046000Y-152748064D01*
X198226000Y-151543936D02*
X198226000Y-152748064D01*
G04 #@! TO.C,C11*
X201020000Y-151543936D02*
X201020000Y-152748064D01*
X202840000Y-151543936D02*
X202840000Y-152748064D01*
G04 #@! TO.C,C12*
X201932000Y-138093267D02*
X201932000Y-137750733D01*
X200912000Y-138093267D02*
X200912000Y-137750733D01*
G04 #@! TO.C,C13*
X205234000Y-138093267D02*
X205234000Y-137750733D01*
X204214000Y-138093267D02*
X204214000Y-137750733D01*
G04 #@! TO.C,C14*
X210648733Y-141349000D02*
X210991267Y-141349000D01*
X210648733Y-142369000D02*
X210991267Y-142369000D01*
G04 #@! TO.C,C15*
X199134000Y-138093267D02*
X199134000Y-137750733D01*
X200154000Y-138093267D02*
X200154000Y-137750733D01*
G04 #@! TO.C,C26*
X211470000Y-110240000D02*
X222710000Y-110240000D01*
X211470000Y-113280000D02*
X222710000Y-113280000D01*
X211470000Y-110240000D02*
X211470000Y-110835000D01*
X211470000Y-112685000D02*
X211470000Y-113280000D01*
X222710000Y-110240000D02*
X222710000Y-110835000D01*
X222710000Y-112685000D02*
X222710000Y-113280000D01*
G04 #@! TO.C,C27*
X196059000Y-113709000D02*
X196059000Y-114959000D01*
X195434000Y-114334000D02*
X196684000Y-114334000D01*
X196924000Y-121289563D02*
X197988437Y-122354000D01*
X196924000Y-112898437D02*
X197988437Y-111834000D01*
X196924000Y-112898437D02*
X196924000Y-115584000D01*
X196924000Y-121289563D02*
X196924000Y-118604000D01*
X197988437Y-122354000D02*
X207444000Y-122354000D01*
X197988437Y-111834000D02*
X207444000Y-111834000D01*
X207444000Y-111834000D02*
X207444000Y-115584000D01*
X207444000Y-122354000D02*
X207444000Y-118604000D01*
G04 #@! TO.C,C28*
X207444000Y-133784000D02*
X207444000Y-130034000D01*
X207444000Y-123264000D02*
X207444000Y-127014000D01*
X197988437Y-123264000D02*
X207444000Y-123264000D01*
X197988437Y-133784000D02*
X207444000Y-133784000D01*
X196924000Y-132719563D02*
X196924000Y-130034000D01*
X196924000Y-124328437D02*
X196924000Y-127014000D01*
X196924000Y-124328437D02*
X197988437Y-123264000D01*
X196924000Y-132719563D02*
X197988437Y-133784000D01*
X195434000Y-125764000D02*
X196684000Y-125764000D01*
X196059000Y-125139000D02*
X196059000Y-126389000D01*
G04 #@! TO.C,D2*
X215028000Y-149544000D02*
X215028000Y-147644000D01*
X212708000Y-148144000D02*
X212708000Y-149544000D01*
G04 #@! TO.C,D4*
X207480000Y-149833000D02*
X209940000Y-149833000D01*
X209940000Y-149833000D02*
X209940000Y-148363000D01*
X209940000Y-148363000D02*
X207480000Y-148363000D01*
G04 #@! TO.C,D5*
X196478000Y-107723000D02*
X194018000Y-107723000D01*
X196478000Y-109193000D02*
X196478000Y-107723000D01*
X194018000Y-109193000D02*
X196478000Y-109193000D01*
G04 #@! TO.C,J1*
X222745647Y-98923845D02*
G75*
G03X221246000Y-98924000I-749647J-1700155D01*
G01*
X227825647Y-98923845D02*
G75*
G03X226326000Y-98924000I-749647J-1700155D01*
G01*
X232905647Y-98923845D02*
G75*
G03X231406000Y-98924000I-749647J-1700155D01*
G01*
X219346000Y-92314000D02*
X219346000Y-99784000D01*
X219346000Y-99784000D02*
X234806000Y-99784000D01*
X234806000Y-99784000D02*
X234806000Y-92314000D01*
X234806000Y-92314000D02*
X219346000Y-92314000D01*
X221246000Y-98924000D02*
X220496000Y-98924000D01*
X220496000Y-98924000D02*
X220496000Y-94624000D01*
X220496000Y-94624000D02*
X221246000Y-94624000D01*
X221246000Y-94624000D02*
X221246000Y-94274000D01*
X221246000Y-94274000D02*
X220746000Y-94274000D01*
X220746000Y-94274000D02*
X220496000Y-93274000D01*
X220496000Y-93274000D02*
X223496000Y-93274000D01*
X223496000Y-93274000D02*
X223246000Y-94274000D01*
X223246000Y-94274000D02*
X222746000Y-94274000D01*
X222746000Y-94274000D02*
X222746000Y-94624000D01*
X222746000Y-94624000D02*
X223496000Y-94624000D01*
X223496000Y-94624000D02*
X223496000Y-98924000D01*
X223496000Y-98924000D02*
X222746000Y-98924000D01*
X226326000Y-98924000D02*
X225576000Y-98924000D01*
X225576000Y-98924000D02*
X225576000Y-94624000D01*
X225576000Y-94624000D02*
X226326000Y-94624000D01*
X226326000Y-94624000D02*
X226326000Y-94274000D01*
X226326000Y-94274000D02*
X225826000Y-94274000D01*
X225826000Y-94274000D02*
X225576000Y-93274000D01*
X225576000Y-93274000D02*
X228576000Y-93274000D01*
X228576000Y-93274000D02*
X228326000Y-94274000D01*
X228326000Y-94274000D02*
X227826000Y-94274000D01*
X227826000Y-94274000D02*
X227826000Y-94624000D01*
X227826000Y-94624000D02*
X228576000Y-94624000D01*
X228576000Y-94624000D02*
X228576000Y-98924000D01*
X228576000Y-98924000D02*
X227826000Y-98924000D01*
X231406000Y-98924000D02*
X230656000Y-98924000D01*
X230656000Y-98924000D02*
X230656000Y-94624000D01*
X230656000Y-94624000D02*
X231406000Y-94624000D01*
X231406000Y-94624000D02*
X231406000Y-94274000D01*
X231406000Y-94274000D02*
X230906000Y-94274000D01*
X230906000Y-94274000D02*
X230656000Y-93274000D01*
X230656000Y-93274000D02*
X233656000Y-93274000D01*
X233656000Y-93274000D02*
X233406000Y-94274000D01*
X233406000Y-94274000D02*
X232906000Y-94274000D01*
X232906000Y-94274000D02*
X232906000Y-94624000D01*
X232906000Y-94624000D02*
X233656000Y-94624000D01*
X233656000Y-94624000D02*
X233656000Y-98924000D01*
X233656000Y-98924000D02*
X232906000Y-98924000D01*
X218956000Y-93174000D02*
X218956000Y-91924000D01*
X218956000Y-91924000D02*
X220956000Y-91924000D01*
G04 #@! TO.C,J2*
X218956000Y-167616000D02*
X220956000Y-167616000D01*
X218956000Y-168866000D02*
X218956000Y-167616000D01*
X233656000Y-174616000D02*
X232906000Y-174616000D01*
X233656000Y-170316000D02*
X233656000Y-174616000D01*
X232906000Y-170316000D02*
X233656000Y-170316000D01*
X232906000Y-169966000D02*
X232906000Y-170316000D01*
X233406000Y-169966000D02*
X232906000Y-169966000D01*
X233656000Y-168966000D02*
X233406000Y-169966000D01*
X230656000Y-168966000D02*
X233656000Y-168966000D01*
X230906000Y-169966000D02*
X230656000Y-168966000D01*
X231406000Y-169966000D02*
X230906000Y-169966000D01*
X231406000Y-170316000D02*
X231406000Y-169966000D01*
X230656000Y-170316000D02*
X231406000Y-170316000D01*
X230656000Y-174616000D02*
X230656000Y-170316000D01*
X231406000Y-174616000D02*
X230656000Y-174616000D01*
X228576000Y-174616000D02*
X227826000Y-174616000D01*
X228576000Y-170316000D02*
X228576000Y-174616000D01*
X227826000Y-170316000D02*
X228576000Y-170316000D01*
X227826000Y-169966000D02*
X227826000Y-170316000D01*
X228326000Y-169966000D02*
X227826000Y-169966000D01*
X228576000Y-168966000D02*
X228326000Y-169966000D01*
X225576000Y-168966000D02*
X228576000Y-168966000D01*
X225826000Y-169966000D02*
X225576000Y-168966000D01*
X226326000Y-169966000D02*
X225826000Y-169966000D01*
X226326000Y-170316000D02*
X226326000Y-169966000D01*
X225576000Y-170316000D02*
X226326000Y-170316000D01*
X225576000Y-174616000D02*
X225576000Y-170316000D01*
X226326000Y-174616000D02*
X225576000Y-174616000D01*
X223496000Y-174616000D02*
X222746000Y-174616000D01*
X223496000Y-170316000D02*
X223496000Y-174616000D01*
X222746000Y-170316000D02*
X223496000Y-170316000D01*
X222746000Y-169966000D02*
X222746000Y-170316000D01*
X223246000Y-169966000D02*
X222746000Y-169966000D01*
X223496000Y-168966000D02*
X223246000Y-169966000D01*
X220496000Y-168966000D02*
X223496000Y-168966000D01*
X220746000Y-169966000D02*
X220496000Y-168966000D01*
X221246000Y-169966000D02*
X220746000Y-169966000D01*
X221246000Y-170316000D02*
X221246000Y-169966000D01*
X220496000Y-170316000D02*
X221246000Y-170316000D01*
X220496000Y-174616000D02*
X220496000Y-170316000D01*
X221246000Y-174616000D02*
X220496000Y-174616000D01*
X234806000Y-168006000D02*
X219346000Y-168006000D01*
X234806000Y-175476000D02*
X234806000Y-168006000D01*
X219346000Y-175476000D02*
X234806000Y-175476000D01*
X219346000Y-168006000D02*
X219346000Y-175476000D01*
X232905647Y-174615845D02*
G75*
G03X231406000Y-174616000I-749647J-1700155D01*
G01*
X227825647Y-174615845D02*
G75*
G03X226326000Y-174616000I-749647J-1700155D01*
G01*
X222745647Y-174615845D02*
G75*
G03X221246000Y-174616000I-749647J-1700155D01*
G01*
G04 #@! TO.C,J3*
X175210000Y-157922000D02*
X171210000Y-157922000D01*
X175210000Y-159822000D02*
X175210000Y-157922000D01*
X189450000Y-159822000D02*
X175210000Y-159822000D01*
X189450000Y-151382000D02*
X189450000Y-159822000D01*
X175210000Y-151382000D02*
X189450000Y-151382000D01*
X175210000Y-151682000D02*
X175210000Y-151382000D01*
X171210000Y-151682000D02*
X175210000Y-151682000D01*
X171210000Y-157922000D02*
X171210000Y-151682000D01*
G04 #@! TO.C,J4*
X171210000Y-167828000D02*
X171210000Y-161588000D01*
X171210000Y-161588000D02*
X175210000Y-161588000D01*
X175210000Y-161588000D02*
X175210000Y-161288000D01*
X175210000Y-161288000D02*
X189450000Y-161288000D01*
X189450000Y-161288000D02*
X189450000Y-169728000D01*
X189450000Y-169728000D02*
X175210000Y-169728000D01*
X175210000Y-169728000D02*
X175210000Y-167828000D01*
X175210000Y-167828000D02*
X171210000Y-167828000D01*
G04 #@! TO.C,J5*
X171701000Y-140673000D02*
X172051000Y-140163000D01*
X171901000Y-143183000D02*
X171901000Y-143443000D01*
X171701000Y-142983000D02*
X171901000Y-143183000D01*
X171701000Y-133583000D02*
X171901000Y-133793000D01*
X172051000Y-133793000D02*
X171901000Y-133793000D01*
X172051000Y-133793000D02*
X172051000Y-140163000D01*
X176661000Y-130693000D02*
X174861000Y-130693000D01*
X182661000Y-130693000D02*
X177961000Y-130693000D01*
X171701000Y-131723000D02*
X171901000Y-131523000D01*
X171701000Y-131723000D02*
X171701000Y-133583000D01*
X171701000Y-142983000D02*
X171701000Y-140673000D01*
X187971000Y-130693000D02*
X184361000Y-130693000D01*
X187971000Y-131143000D02*
X187971000Y-130693000D01*
X187971000Y-144663000D02*
X173961000Y-144663000D01*
X187971000Y-142743000D02*
X187971000Y-144663000D01*
G04 #@! TO.C,J6*
X172152000Y-119828000D02*
X172152000Y-122488000D01*
X187452000Y-119828000D02*
X172152000Y-119828000D01*
X187452000Y-122488000D02*
X172152000Y-122488000D01*
X187452000Y-119828000D02*
X187452000Y-122488000D01*
X188722000Y-119828000D02*
X190052000Y-119828000D01*
X190052000Y-119828000D02*
X190052000Y-121158000D01*
G04 #@! TO.C,Q1*
X208914000Y-138716000D02*
X205614000Y-138716000D01*
X205614000Y-138716000D02*
X205614000Y-142716000D01*
G04 #@! TO.C,R15*
X202440000Y-163150733D02*
X202440000Y-163493267D01*
X201420000Y-163150733D02*
X201420000Y-163493267D01*
G04 #@! TO.C,R16*
X203452000Y-163493267D02*
X203452000Y-163150733D01*
X204472000Y-163493267D02*
X204472000Y-163150733D01*
G04 #@! TO.C,R24*
X199561267Y-156720000D02*
X199218733Y-156720000D01*
X199561267Y-155700000D02*
X199218733Y-155700000D01*
G04 #@! TO.C,R33*
X194646733Y-105920000D02*
X194989267Y-105920000D01*
X194646733Y-104900000D02*
X194989267Y-104900000D01*
G04 #@! TO.C,R34*
X198799267Y-107948000D02*
X198456733Y-107948000D01*
X198799267Y-108968000D02*
X198456733Y-108968000D01*
G04 #@! TO.C,R40*
X193146000Y-122014064D02*
X193146000Y-120809936D01*
X194966000Y-122014064D02*
X194966000Y-120809936D01*
G04 #@! TO.C,RN1*
X193170000Y-124544000D02*
X190370000Y-124544000D01*
X190370000Y-124544000D02*
X190370000Y-142664000D01*
X190370000Y-142664000D02*
X193170000Y-142664000D01*
X193170000Y-142664000D02*
X193170000Y-124544000D01*
X193170000Y-127254000D02*
X190370000Y-127254000D01*
D13*
G04 #@! TO.C,RV1*
X217869000Y-104758000D02*
X233369000Y-104758000D01*
X217869000Y-100858000D02*
X233369000Y-100858000D01*
X233369000Y-100858000D02*
X233369000Y-104758000D01*
X217869000Y-100858000D02*
X217869000Y-104758000D01*
D12*
G04 #@! TO.C,SW1*
X179410000Y-125780000D02*
X179410000Y-125680000D01*
X183810000Y-124180000D02*
X179410000Y-124180000D01*
X179410000Y-127280000D02*
X183810000Y-127280000D01*
X183810000Y-125780000D02*
X183810000Y-125680000D01*
G04 #@! TO.C,SW2*
X177206000Y-125780000D02*
X177206000Y-125680000D01*
X172806000Y-127280000D02*
X177206000Y-127280000D01*
X177206000Y-124180000D02*
X172806000Y-124180000D01*
X172806000Y-125780000D02*
X172806000Y-125680000D01*
G04 #@! TO.C,U2*
X202566000Y-147136000D02*
X203016000Y-147136000D01*
X203016000Y-147136000D02*
X203016000Y-146686000D01*
X198246000Y-147136000D02*
X197796000Y-147136000D01*
X197796000Y-147136000D02*
X197796000Y-146686000D01*
X202566000Y-141916000D02*
X203016000Y-141916000D01*
X203016000Y-141916000D02*
X203016000Y-142366000D01*
X198246000Y-141916000D02*
X197796000Y-141916000D01*
X197796000Y-141916000D02*
X197796000Y-142366000D01*
X197796000Y-142366000D02*
X196481000Y-142366000D01*
D15*
G04 #@! TO.C,REF\002A\002A*
G36*
X233844043Y-139071835D02*
X233867065Y-139109245D01*
X233902534Y-139168514D01*
X233948996Y-139247118D01*
X234004996Y-139342538D01*
X234069081Y-139452250D01*
X234139796Y-139573734D01*
X234215687Y-139704468D01*
X234295299Y-139841930D01*
X234377178Y-139983598D01*
X234459870Y-140126951D01*
X234541921Y-140269467D01*
X234621876Y-140408624D01*
X234698281Y-140541901D01*
X234769682Y-140666776D01*
X234834624Y-140780727D01*
X234891653Y-140881233D01*
X234939315Y-140965772D01*
X234976155Y-141031822D01*
X235000720Y-141076862D01*
X235011554Y-141098370D01*
X235011951Y-141099714D01*
X234998501Y-141117965D01*
X234961114Y-141145882D01*
X234904235Y-141180725D01*
X234832312Y-141219754D01*
X234757015Y-141256843D01*
X234654560Y-141301817D01*
X234546817Y-141342226D01*
X234430073Y-141378969D01*
X234300618Y-141412942D01*
X234154740Y-141445044D01*
X233988726Y-141476173D01*
X233798866Y-141507227D01*
X233602469Y-141536145D01*
X233431834Y-141561800D01*
X233288545Y-141587198D01*
X233169008Y-141613602D01*
X233069630Y-141642273D01*
X232986818Y-141674473D01*
X232916978Y-141711465D01*
X232856518Y-141754512D01*
X232801845Y-141804875D01*
X232784214Y-141823583D01*
X232746000Y-141867139D01*
X232717732Y-141902682D01*
X232704618Y-141923583D01*
X232704268Y-141925297D01*
X232699680Y-141935806D01*
X232683758Y-141935924D01*
X232653266Y-141924254D01*
X232604968Y-141899396D01*
X232535627Y-141859952D01*
X232487439Y-141831587D01*
X232415583Y-141787247D01*
X232359742Y-141749279D01*
X232323667Y-141720416D01*
X232311113Y-141703388D01*
X232311121Y-141703264D01*
X232318906Y-141687037D01*
X232340892Y-141646400D01*
X232375803Y-141583567D01*
X232422363Y-141500752D01*
X232479295Y-141400172D01*
X232545323Y-141284040D01*
X232619172Y-141154571D01*
X232699564Y-141013980D01*
X232785224Y-140864482D01*
X232874876Y-140708292D01*
X232967243Y-140547624D01*
X233061049Y-140384693D01*
X233155018Y-140221713D01*
X233247874Y-140060900D01*
X233338340Y-139904468D01*
X233425141Y-139754633D01*
X233507000Y-139613608D01*
X233582641Y-139483609D01*
X233650787Y-139366849D01*
X233710163Y-139265545D01*
X233759493Y-139181911D01*
X233797500Y-139118162D01*
X233822907Y-139076511D01*
X233834440Y-139059175D01*
X233834923Y-139058805D01*
X233844043Y-139071835D01*
X233844043Y-139071835D01*
G37*
X233844043Y-139071835D02*
X233867065Y-139109245D01*
X233902534Y-139168514D01*
X233948996Y-139247118D01*
X234004996Y-139342538D01*
X234069081Y-139452250D01*
X234139796Y-139573734D01*
X234215687Y-139704468D01*
X234295299Y-139841930D01*
X234377178Y-139983598D01*
X234459870Y-140126951D01*
X234541921Y-140269467D01*
X234621876Y-140408624D01*
X234698281Y-140541901D01*
X234769682Y-140666776D01*
X234834624Y-140780727D01*
X234891653Y-140881233D01*
X234939315Y-140965772D01*
X234976155Y-141031822D01*
X235000720Y-141076862D01*
X235011554Y-141098370D01*
X235011951Y-141099714D01*
X234998501Y-141117965D01*
X234961114Y-141145882D01*
X234904235Y-141180725D01*
X234832312Y-141219754D01*
X234757015Y-141256843D01*
X234654560Y-141301817D01*
X234546817Y-141342226D01*
X234430073Y-141378969D01*
X234300618Y-141412942D01*
X234154740Y-141445044D01*
X233988726Y-141476173D01*
X233798866Y-141507227D01*
X233602469Y-141536145D01*
X233431834Y-141561800D01*
X233288545Y-141587198D01*
X233169008Y-141613602D01*
X233069630Y-141642273D01*
X232986818Y-141674473D01*
X232916978Y-141711465D01*
X232856518Y-141754512D01*
X232801845Y-141804875D01*
X232784214Y-141823583D01*
X232746000Y-141867139D01*
X232717732Y-141902682D01*
X232704618Y-141923583D01*
X232704268Y-141925297D01*
X232699680Y-141935806D01*
X232683758Y-141935924D01*
X232653266Y-141924254D01*
X232604968Y-141899396D01*
X232535627Y-141859952D01*
X232487439Y-141831587D01*
X232415583Y-141787247D01*
X232359742Y-141749279D01*
X232323667Y-141720416D01*
X232311113Y-141703388D01*
X232311121Y-141703264D01*
X232318906Y-141687037D01*
X232340892Y-141646400D01*
X232375803Y-141583567D01*
X232422363Y-141500752D01*
X232479295Y-141400172D01*
X232545323Y-141284040D01*
X232619172Y-141154571D01*
X232699564Y-141013980D01*
X232785224Y-140864482D01*
X232874876Y-140708292D01*
X232967243Y-140547624D01*
X233061049Y-140384693D01*
X233155018Y-140221713D01*
X233247874Y-140060900D01*
X233338340Y-139904468D01*
X233425141Y-139754633D01*
X233507000Y-139613608D01*
X233582641Y-139483609D01*
X233650787Y-139366849D01*
X233710163Y-139265545D01*
X233759493Y-139181911D01*
X233797500Y-139118162D01*
X233822907Y-139076511D01*
X233834440Y-139059175D01*
X233834923Y-139058805D01*
X233844043Y-139071835D01*
G36*
X235667528Y-142220619D02*
X235678908Y-142239693D01*
X235704488Y-142283421D01*
X235743002Y-142349619D01*
X235793186Y-142436102D01*
X235853775Y-142540685D01*
X235923503Y-142661183D01*
X236001107Y-142795412D01*
X236085320Y-142941187D01*
X236174879Y-143096323D01*
X236266998Y-143256000D01*
X236361076Y-143419117D01*
X236451402Y-143575709D01*
X236536665Y-143723506D01*
X236615557Y-143860240D01*
X236686769Y-143983642D01*
X236748991Y-144091444D01*
X236800913Y-144181377D01*
X236841228Y-144251173D01*
X236868624Y-144298564D01*
X236881507Y-144320786D01*
X236902507Y-144358330D01*
X236913925Y-144381831D01*
X236914551Y-144385920D01*
X236900636Y-144378242D01*
X236861941Y-144356203D01*
X236800487Y-144320971D01*
X236718298Y-144273711D01*
X236617396Y-144215589D01*
X236499805Y-144147771D01*
X236367546Y-144071424D01*
X236222642Y-143987714D01*
X236067117Y-143897806D01*
X235902992Y-143802867D01*
X235840549Y-143766732D01*
X235673487Y-143670083D01*
X235514074Y-143577938D01*
X235364355Y-143491475D01*
X235226376Y-143411871D01*
X235102185Y-143340305D01*
X234993827Y-143277955D01*
X234903348Y-143225998D01*
X234832796Y-143185613D01*
X234784215Y-143157978D01*
X234759654Y-143144272D01*
X234757085Y-143142974D01*
X234764569Y-143131220D01*
X234790614Y-143099795D01*
X234832559Y-143051594D01*
X234887746Y-142989510D01*
X234953517Y-142916439D01*
X235027212Y-142835276D01*
X235106173Y-142748916D01*
X235187740Y-142660253D01*
X235269254Y-142572182D01*
X235348057Y-142487599D01*
X235421490Y-142409397D01*
X235486893Y-142340472D01*
X235541608Y-142283719D01*
X235582977Y-142242032D01*
X235597164Y-142228363D01*
X235644180Y-142184201D01*
X235667528Y-142220619D01*
X235667528Y-142220619D01*
G37*
X235667528Y-142220619D02*
X235678908Y-142239693D01*
X235704488Y-142283421D01*
X235743002Y-142349619D01*
X235793186Y-142436102D01*
X235853775Y-142540685D01*
X235923503Y-142661183D01*
X236001107Y-142795412D01*
X236085320Y-142941187D01*
X236174879Y-143096323D01*
X236266998Y-143256000D01*
X236361076Y-143419117D01*
X236451402Y-143575709D01*
X236536665Y-143723506D01*
X236615557Y-143860240D01*
X236686769Y-143983642D01*
X236748991Y-144091444D01*
X236800913Y-144181377D01*
X236841228Y-144251173D01*
X236868624Y-144298564D01*
X236881507Y-144320786D01*
X236902507Y-144358330D01*
X236913925Y-144381831D01*
X236914551Y-144385920D01*
X236900636Y-144378242D01*
X236861941Y-144356203D01*
X236800487Y-144320971D01*
X236718298Y-144273711D01*
X236617396Y-144215589D01*
X236499805Y-144147771D01*
X236367546Y-144071424D01*
X236222642Y-143987714D01*
X236067117Y-143897806D01*
X235902992Y-143802867D01*
X235840549Y-143766732D01*
X235673487Y-143670083D01*
X235514074Y-143577938D01*
X235364355Y-143491475D01*
X235226376Y-143411871D01*
X235102185Y-143340305D01*
X234993827Y-143277955D01*
X234903348Y-143225998D01*
X234832796Y-143185613D01*
X234784215Y-143157978D01*
X234759654Y-143144272D01*
X234757085Y-143142974D01*
X234764569Y-143131220D01*
X234790614Y-143099795D01*
X234832559Y-143051594D01*
X234887746Y-142989510D01*
X234953517Y-142916439D01*
X235027212Y-142835276D01*
X235106173Y-142748916D01*
X235187740Y-142660253D01*
X235269254Y-142572182D01*
X235348057Y-142487599D01*
X235421490Y-142409397D01*
X235486893Y-142340472D01*
X235541608Y-142283719D01*
X235582977Y-142242032D01*
X235597164Y-142228363D01*
X235644180Y-142184201D01*
X235667528Y-142220619D01*
G36*
X232002094Y-142277158D02*
X232034619Y-142289736D01*
X232084193Y-142314712D01*
X232155374Y-142353876D01*
X232160916Y-142356988D01*
X232226474Y-142394476D01*
X232281798Y-142427319D01*
X232321455Y-142452205D01*
X232340012Y-142465820D01*
X232340531Y-142466487D01*
X232336048Y-142485390D01*
X232315486Y-142527605D01*
X232280183Y-142590832D01*
X232231480Y-142672772D01*
X232170718Y-142771122D01*
X232099236Y-142883585D01*
X232081445Y-142911165D01*
X232035093Y-142987699D01*
X232001342Y-143053556D01*
X231983153Y-143102782D01*
X231981286Y-143112507D01*
X231982115Y-143155312D01*
X231991394Y-143223209D01*
X232007968Y-143311843D01*
X232030680Y-143416859D01*
X232058373Y-143533902D01*
X232089890Y-143658616D01*
X232124075Y-143786645D01*
X232159771Y-143913634D01*
X232195821Y-144035228D01*
X232231068Y-144147072D01*
X232264356Y-144244810D01*
X232294528Y-144324087D01*
X232315561Y-144371122D01*
X232340337Y-144421225D01*
X232363730Y-144469168D01*
X232364997Y-144471793D01*
X232403699Y-144520220D01*
X232460184Y-144552828D01*
X232525939Y-144568454D01*
X232592451Y-144565937D01*
X232651205Y-144544114D01*
X232684258Y-144515382D01*
X232731859Y-144436583D01*
X232766739Y-144338378D01*
X232785877Y-144230779D01*
X232788588Y-144169780D01*
X232777670Y-144055935D01*
X232745624Y-143961660D01*
X232690726Y-143882379D01*
X232673607Y-143864733D01*
X232622661Y-143815235D01*
X232619163Y-143465362D01*
X232615664Y-143115489D01*
X232704818Y-142980531D01*
X232746654Y-142919445D01*
X232786945Y-142864493D01*
X232819943Y-142823336D01*
X232834126Y-142808192D01*
X232874281Y-142770810D01*
X232928665Y-142800098D01*
X232963039Y-142821084D01*
X232981846Y-142837378D01*
X232983049Y-142840307D01*
X232995903Y-142852728D01*
X233017896Y-142861977D01*
X233039150Y-142870313D01*
X233071694Y-142886149D01*
X233118322Y-142911033D01*
X233181829Y-142946509D01*
X233265008Y-142994123D01*
X233370653Y-143055422D01*
X233428062Y-143088932D01*
X233495594Y-143129071D01*
X233539885Y-143157659D01*
X233564855Y-143178039D01*
X233574423Y-143193553D01*
X233572508Y-143207546D01*
X233570911Y-143210796D01*
X233555376Y-143231266D01*
X233522136Y-143269665D01*
X233475062Y-143321696D01*
X233418028Y-143383066D01*
X233368700Y-143435090D01*
X233255030Y-143558567D01*
X233166105Y-143665591D01*
X233101134Y-143757240D01*
X233059321Y-143834588D01*
X233045217Y-143873866D01*
X233039392Y-143908249D01*
X233033375Y-143966899D01*
X233027696Y-144043117D01*
X233022884Y-144130202D01*
X233020619Y-144185268D01*
X233017459Y-144280464D01*
X233016069Y-144350062D01*
X233016858Y-144399409D01*
X233020235Y-144433854D01*
X233026608Y-144458743D01*
X233036387Y-144479425D01*
X233044067Y-144492053D01*
X233088421Y-144540726D01*
X233145574Y-144574645D01*
X233205708Y-144589438D01*
X233250773Y-144584086D01*
X233291576Y-144560930D01*
X233342724Y-144519462D01*
X233397042Y-144466912D01*
X233447357Y-144410516D01*
X233486494Y-144357505D01*
X233500905Y-144331889D01*
X233522491Y-144296814D01*
X233561753Y-144243389D01*
X233615102Y-144175789D01*
X233678952Y-144098190D01*
X233749715Y-144014768D01*
X233823804Y-143929698D01*
X233897632Y-143847155D01*
X233967611Y-143771316D01*
X234030155Y-143706356D01*
X234079260Y-143658669D01*
X234133779Y-143611032D01*
X234179642Y-143575908D01*
X234211811Y-143556949D01*
X234222489Y-143554864D01*
X234238853Y-143563274D01*
X234279671Y-143585846D01*
X234342586Y-143621224D01*
X234425244Y-143668054D01*
X234525289Y-143724981D01*
X234640366Y-143790649D01*
X234768119Y-143863703D01*
X234906194Y-143942788D01*
X235052234Y-144026548D01*
X235203884Y-144113629D01*
X235358790Y-144202676D01*
X235514595Y-144292332D01*
X235668944Y-144381243D01*
X235819482Y-144468054D01*
X235963854Y-144551409D01*
X236099704Y-144629954D01*
X236224677Y-144702333D01*
X236336417Y-144767190D01*
X236432570Y-144823171D01*
X236510779Y-144868920D01*
X236568689Y-144903083D01*
X236603946Y-144924304D01*
X236614165Y-144930963D01*
X236600402Y-144932280D01*
X236557104Y-144933559D01*
X236485714Y-144934796D01*
X236387673Y-144935983D01*
X236264422Y-144937115D01*
X236117403Y-144938186D01*
X235948057Y-144939189D01*
X235757826Y-144940119D01*
X235548151Y-144940968D01*
X235320473Y-144941732D01*
X235076235Y-144942403D01*
X234816877Y-144942976D01*
X234543841Y-144943444D01*
X234258568Y-144943802D01*
X233962500Y-144944042D01*
X233657079Y-144944159D01*
X233528924Y-144944171D01*
X230428970Y-144944171D01*
X230650053Y-144560847D01*
X230696856Y-144479680D01*
X230757102Y-144375166D01*
X230828778Y-144250801D01*
X230909869Y-144110082D01*
X230998362Y-143956503D01*
X231092240Y-143793562D01*
X231189491Y-143624754D01*
X231288100Y-143453575D01*
X231386053Y-143283521D01*
X231410825Y-143240512D01*
X231501152Y-143083857D01*
X231587289Y-142934803D01*
X231667942Y-142795568D01*
X231741816Y-142668371D01*
X231807617Y-142555432D01*
X231864050Y-142458968D01*
X231909821Y-142381200D01*
X231943635Y-142324346D01*
X231964198Y-142290625D01*
X231969953Y-142282040D01*
X231982058Y-142275189D01*
X232002094Y-142277158D01*
X232002094Y-142277158D01*
G37*
X232002094Y-142277158D02*
X232034619Y-142289736D01*
X232084193Y-142314712D01*
X232155374Y-142353876D01*
X232160916Y-142356988D01*
X232226474Y-142394476D01*
X232281798Y-142427319D01*
X232321455Y-142452205D01*
X232340012Y-142465820D01*
X232340531Y-142466487D01*
X232336048Y-142485390D01*
X232315486Y-142527605D01*
X232280183Y-142590832D01*
X232231480Y-142672772D01*
X232170718Y-142771122D01*
X232099236Y-142883585D01*
X232081445Y-142911165D01*
X232035093Y-142987699D01*
X232001342Y-143053556D01*
X231983153Y-143102782D01*
X231981286Y-143112507D01*
X231982115Y-143155312D01*
X231991394Y-143223209D01*
X232007968Y-143311843D01*
X232030680Y-143416859D01*
X232058373Y-143533902D01*
X232089890Y-143658616D01*
X232124075Y-143786645D01*
X232159771Y-143913634D01*
X232195821Y-144035228D01*
X232231068Y-144147072D01*
X232264356Y-144244810D01*
X232294528Y-144324087D01*
X232315561Y-144371122D01*
X232340337Y-144421225D01*
X232363730Y-144469168D01*
X232364997Y-144471793D01*
X232403699Y-144520220D01*
X232460184Y-144552828D01*
X232525939Y-144568454D01*
X232592451Y-144565937D01*
X232651205Y-144544114D01*
X232684258Y-144515382D01*
X232731859Y-144436583D01*
X232766739Y-144338378D01*
X232785877Y-144230779D01*
X232788588Y-144169780D01*
X232777670Y-144055935D01*
X232745624Y-143961660D01*
X232690726Y-143882379D01*
X232673607Y-143864733D01*
X232622661Y-143815235D01*
X232619163Y-143465362D01*
X232615664Y-143115489D01*
X232704818Y-142980531D01*
X232746654Y-142919445D01*
X232786945Y-142864493D01*
X232819943Y-142823336D01*
X232834126Y-142808192D01*
X232874281Y-142770810D01*
X232928665Y-142800098D01*
X232963039Y-142821084D01*
X232981846Y-142837378D01*
X232983049Y-142840307D01*
X232995903Y-142852728D01*
X233017896Y-142861977D01*
X233039150Y-142870313D01*
X233071694Y-142886149D01*
X233118322Y-142911033D01*
X233181829Y-142946509D01*
X233265008Y-142994123D01*
X233370653Y-143055422D01*
X233428062Y-143088932D01*
X233495594Y-143129071D01*
X233539885Y-143157659D01*
X233564855Y-143178039D01*
X233574423Y-143193553D01*
X233572508Y-143207546D01*
X233570911Y-143210796D01*
X233555376Y-143231266D01*
X233522136Y-143269665D01*
X233475062Y-143321696D01*
X233418028Y-143383066D01*
X233368700Y-143435090D01*
X233255030Y-143558567D01*
X233166105Y-143665591D01*
X233101134Y-143757240D01*
X233059321Y-143834588D01*
X233045217Y-143873866D01*
X233039392Y-143908249D01*
X233033375Y-143966899D01*
X233027696Y-144043117D01*
X233022884Y-144130202D01*
X233020619Y-144185268D01*
X233017459Y-144280464D01*
X233016069Y-144350062D01*
X233016858Y-144399409D01*
X233020235Y-144433854D01*
X233026608Y-144458743D01*
X233036387Y-144479425D01*
X233044067Y-144492053D01*
X233088421Y-144540726D01*
X233145574Y-144574645D01*
X233205708Y-144589438D01*
X233250773Y-144584086D01*
X233291576Y-144560930D01*
X233342724Y-144519462D01*
X233397042Y-144466912D01*
X233447357Y-144410516D01*
X233486494Y-144357505D01*
X233500905Y-144331889D01*
X233522491Y-144296814D01*
X233561753Y-144243389D01*
X233615102Y-144175789D01*
X233678952Y-144098190D01*
X233749715Y-144014768D01*
X233823804Y-143929698D01*
X233897632Y-143847155D01*
X233967611Y-143771316D01*
X234030155Y-143706356D01*
X234079260Y-143658669D01*
X234133779Y-143611032D01*
X234179642Y-143575908D01*
X234211811Y-143556949D01*
X234222489Y-143554864D01*
X234238853Y-143563274D01*
X234279671Y-143585846D01*
X234342586Y-143621224D01*
X234425244Y-143668054D01*
X234525289Y-143724981D01*
X234640366Y-143790649D01*
X234768119Y-143863703D01*
X234906194Y-143942788D01*
X235052234Y-144026548D01*
X235203884Y-144113629D01*
X235358790Y-144202676D01*
X235514595Y-144292332D01*
X235668944Y-144381243D01*
X235819482Y-144468054D01*
X235963854Y-144551409D01*
X236099704Y-144629954D01*
X236224677Y-144702333D01*
X236336417Y-144767190D01*
X236432570Y-144823171D01*
X236510779Y-144868920D01*
X236568689Y-144903083D01*
X236603946Y-144924304D01*
X236614165Y-144930963D01*
X236600402Y-144932280D01*
X236557104Y-144933559D01*
X236485714Y-144934796D01*
X236387673Y-144935983D01*
X236264422Y-144937115D01*
X236117403Y-144938186D01*
X235948057Y-144939189D01*
X235757826Y-144940119D01*
X235548151Y-144940968D01*
X235320473Y-144941732D01*
X235076235Y-144942403D01*
X234816877Y-144942976D01*
X234543841Y-144943444D01*
X234258568Y-144943802D01*
X233962500Y-144944042D01*
X233657079Y-144944159D01*
X233528924Y-144944171D01*
X230428970Y-144944171D01*
X230650053Y-144560847D01*
X230696856Y-144479680D01*
X230757102Y-144375166D01*
X230828778Y-144250801D01*
X230909869Y-144110082D01*
X230998362Y-143956503D01*
X231092240Y-143793562D01*
X231189491Y-143624754D01*
X231288100Y-143453575D01*
X231386053Y-143283521D01*
X231410825Y-143240512D01*
X231501152Y-143083857D01*
X231587289Y-142934803D01*
X231667942Y-142795568D01*
X231741816Y-142668371D01*
X231807617Y-142555432D01*
X231864050Y-142458968D01*
X231909821Y-142381200D01*
X231943635Y-142324346D01*
X231964198Y-142290625D01*
X231969953Y-142282040D01*
X231982058Y-142275189D01*
X232002094Y-142277158D01*
G04 #@! TO.C,L1*
D13*
X201382333Y-159423380D02*
X200906142Y-159423380D01*
X200906142Y-158423380D01*
X202239476Y-159423380D02*
X201668047Y-159423380D01*
X201953761Y-159423380D02*
X201953761Y-158423380D01*
X201858523Y-158566238D01*
X201763285Y-158661476D01*
X201668047Y-158709095D01*
G04 #@! TO.C,C23*
X206732142Y-153677857D02*
X206779761Y-153725476D01*
X206827380Y-153868333D01*
X206827380Y-153963571D01*
X206779761Y-154106428D01*
X206684523Y-154201666D01*
X206589285Y-154249285D01*
X206398809Y-154296904D01*
X206255952Y-154296904D01*
X206065476Y-154249285D01*
X205970238Y-154201666D01*
X205875000Y-154106428D01*
X205827380Y-153963571D01*
X205827380Y-153868333D01*
X205875000Y-153725476D01*
X205922619Y-153677857D01*
X205922619Y-153296904D02*
X205875000Y-153249285D01*
X205827380Y-153154047D01*
X205827380Y-152915952D01*
X205875000Y-152820714D01*
X205922619Y-152773095D01*
X206017857Y-152725476D01*
X206113095Y-152725476D01*
X206255952Y-152773095D01*
X206827380Y-153344523D01*
X206827380Y-152725476D01*
X205827380Y-152392142D02*
X205827380Y-151773095D01*
X206208333Y-152106428D01*
X206208333Y-151963571D01*
X206255952Y-151868333D01*
X206303571Y-151820714D01*
X206398809Y-151773095D01*
X206636904Y-151773095D01*
X206732142Y-151820714D01*
X206779761Y-151868333D01*
X206827380Y-151963571D01*
X206827380Y-152249285D01*
X206779761Y-152344523D01*
X206732142Y-152392142D01*
G04 #@! TO.C,Q3*
X199421761Y-103457619D02*
X199326523Y-103410000D01*
X199231285Y-103314761D01*
X199088428Y-103171904D01*
X198993190Y-103124285D01*
X198897952Y-103124285D01*
X198945571Y-103362380D02*
X198850333Y-103314761D01*
X198755095Y-103219523D01*
X198707476Y-103029047D01*
X198707476Y-102695714D01*
X198755095Y-102505238D01*
X198850333Y-102410000D01*
X198945571Y-102362380D01*
X199136047Y-102362380D01*
X199231285Y-102410000D01*
X199326523Y-102505238D01*
X199374142Y-102695714D01*
X199374142Y-103029047D01*
X199326523Y-103219523D01*
X199231285Y-103314761D01*
X199136047Y-103362380D01*
X198945571Y-103362380D01*
X199707476Y-102362380D02*
X200326523Y-102362380D01*
X199993190Y-102743333D01*
X200136047Y-102743333D01*
X200231285Y-102790952D01*
X200278904Y-102838571D01*
X200326523Y-102933809D01*
X200326523Y-103171904D01*
X200278904Y-103267142D01*
X200231285Y-103314761D01*
X200136047Y-103362380D01*
X199850333Y-103362380D01*
X199755095Y-103314761D01*
X199707476Y-103267142D01*
G04 #@! TO.C,Q2*
X211359761Y-144819619D02*
X211264523Y-144772000D01*
X211169285Y-144676761D01*
X211026428Y-144533904D01*
X210931190Y-144486285D01*
X210835952Y-144486285D01*
X210883571Y-144724380D02*
X210788333Y-144676761D01*
X210693095Y-144581523D01*
X210645476Y-144391047D01*
X210645476Y-144057714D01*
X210693095Y-143867238D01*
X210788333Y-143772000D01*
X210883571Y-143724380D01*
X211074047Y-143724380D01*
X211169285Y-143772000D01*
X211264523Y-143867238D01*
X211312142Y-144057714D01*
X211312142Y-144391047D01*
X211264523Y-144581523D01*
X211169285Y-144676761D01*
X211074047Y-144724380D01*
X210883571Y-144724380D01*
X211693095Y-143819619D02*
X211740714Y-143772000D01*
X211835952Y-143724380D01*
X212074047Y-143724380D01*
X212169285Y-143772000D01*
X212216904Y-143819619D01*
X212264523Y-143914857D01*
X212264523Y-144010095D01*
X212216904Y-144152952D01*
X211645476Y-144724380D01*
X212264523Y-144724380D01*
G04 #@! TO.C,PS1*
X216717714Y-138120380D02*
X216717714Y-137120380D01*
X217098666Y-137120380D01*
X217193904Y-137168000D01*
X217241523Y-137215619D01*
X217289142Y-137310857D01*
X217289142Y-137453714D01*
X217241523Y-137548952D01*
X217193904Y-137596571D01*
X217098666Y-137644190D01*
X216717714Y-137644190D01*
X217670095Y-138072761D02*
X217812952Y-138120380D01*
X218051047Y-138120380D01*
X218146285Y-138072761D01*
X218193904Y-138025142D01*
X218241523Y-137929904D01*
X218241523Y-137834666D01*
X218193904Y-137739428D01*
X218146285Y-137691809D01*
X218051047Y-137644190D01*
X217860571Y-137596571D01*
X217765333Y-137548952D01*
X217717714Y-137501333D01*
X217670095Y-137406095D01*
X217670095Y-137310857D01*
X217717714Y-137215619D01*
X217765333Y-137168000D01*
X217860571Y-137120380D01*
X218098666Y-137120380D01*
X218241523Y-137168000D01*
X219193904Y-138120380D02*
X218622476Y-138120380D01*
X218908190Y-138120380D02*
X218908190Y-137120380D01*
X218812952Y-137263238D01*
X218717714Y-137358476D01*
X218622476Y-137406095D01*
X234069095Y-131738666D02*
X234545285Y-131738666D01*
X233973857Y-132024380D02*
X234307190Y-131024380D01*
X234640523Y-132024380D01*
X235545285Y-131929142D02*
X235497666Y-131976761D01*
X235354809Y-132024380D01*
X235259571Y-132024380D01*
X235116714Y-131976761D01*
X235021476Y-131881523D01*
X234973857Y-131786285D01*
X234926238Y-131595809D01*
X234926238Y-131452952D01*
X234973857Y-131262476D01*
X235021476Y-131167238D01*
X235116714Y-131072000D01*
X235259571Y-131024380D01*
X235354809Y-131024380D01*
X235497666Y-131072000D01*
X235545285Y-131119619D01*
X235973857Y-132024380D02*
X235973857Y-131024380D01*
X236545285Y-132024380D01*
X236545285Y-131024380D01*
X234061142Y-119038666D02*
X234537333Y-119038666D01*
X233965904Y-119324380D02*
X234299238Y-118324380D01*
X234632571Y-119324380D01*
X235537333Y-119229142D02*
X235489714Y-119276761D01*
X235346857Y-119324380D01*
X235251619Y-119324380D01*
X235108761Y-119276761D01*
X235013523Y-119181523D01*
X234965904Y-119086285D01*
X234918285Y-118895809D01*
X234918285Y-118752952D01*
X234965904Y-118562476D01*
X235013523Y-118467238D01*
X235108761Y-118372000D01*
X235251619Y-118324380D01*
X235346857Y-118324380D01*
X235489714Y-118372000D01*
X235537333Y-118419619D01*
X236442095Y-119324380D02*
X235965904Y-119324380D01*
X235965904Y-118324380D01*
X209836000Y-131389428D02*
X210597904Y-131389428D01*
X210216952Y-131770380D02*
X210216952Y-131008476D01*
X210931238Y-130770380D02*
X211264571Y-131770380D01*
X211597904Y-130770380D01*
X212074095Y-131770380D02*
X211978857Y-131722761D01*
X211931238Y-131675142D01*
X211883619Y-131579904D01*
X211883619Y-131294190D01*
X211931238Y-131198952D01*
X211978857Y-131151333D01*
X212074095Y-131103714D01*
X212216952Y-131103714D01*
X212312190Y-131151333D01*
X212359809Y-131198952D01*
X212407428Y-131294190D01*
X212407428Y-131579904D01*
X212359809Y-131675142D01*
X212312190Y-131722761D01*
X212216952Y-131770380D01*
X212074095Y-131770380D01*
X213264571Y-131103714D02*
X213264571Y-131770380D01*
X212836000Y-131103714D02*
X212836000Y-131627523D01*
X212883619Y-131722761D01*
X212978857Y-131770380D01*
X213121714Y-131770380D01*
X213216952Y-131722761D01*
X213264571Y-131675142D01*
X213597904Y-131103714D02*
X213978857Y-131103714D01*
X213740761Y-130770380D02*
X213740761Y-131627523D01*
X213788380Y-131722761D01*
X213883619Y-131770380D01*
X213978857Y-131770380D01*
X210217000Y-121610428D02*
X210978904Y-121610428D01*
X211312238Y-120991380D02*
X211645571Y-121991380D01*
X211978904Y-120991380D01*
X212455095Y-121991380D02*
X212359857Y-121943761D01*
X212312238Y-121896142D01*
X212264619Y-121800904D01*
X212264619Y-121515190D01*
X212312238Y-121419952D01*
X212359857Y-121372333D01*
X212455095Y-121324714D01*
X212597952Y-121324714D01*
X212693190Y-121372333D01*
X212740809Y-121419952D01*
X212788428Y-121515190D01*
X212788428Y-121800904D01*
X212740809Y-121896142D01*
X212693190Y-121943761D01*
X212597952Y-121991380D01*
X212455095Y-121991380D01*
X213645571Y-121324714D02*
X213645571Y-121991380D01*
X213217000Y-121324714D02*
X213217000Y-121848523D01*
X213264619Y-121943761D01*
X213359857Y-121991380D01*
X213502714Y-121991380D01*
X213597952Y-121943761D01*
X213645571Y-121896142D01*
X213978904Y-121324714D02*
X214359857Y-121324714D01*
X214121761Y-120991380D02*
X214121761Y-121848523D01*
X214169380Y-121943761D01*
X214264619Y-121991380D01*
X214359857Y-121991380D01*
G04 #@! TO.C,C1*
X208129142Y-166028666D02*
X208176761Y-166076285D01*
X208224380Y-166219142D01*
X208224380Y-166314380D01*
X208176761Y-166457238D01*
X208081523Y-166552476D01*
X207986285Y-166600095D01*
X207795809Y-166647714D01*
X207652952Y-166647714D01*
X207462476Y-166600095D01*
X207367238Y-166552476D01*
X207272000Y-166457238D01*
X207224380Y-166314380D01*
X207224380Y-166219142D01*
X207272000Y-166076285D01*
X207319619Y-166028666D01*
X208224380Y-165076285D02*
X208224380Y-165647714D01*
X208224380Y-165362000D02*
X207224380Y-165362000D01*
X207367238Y-165457238D01*
X207462476Y-165552476D01*
X207510095Y-165647714D01*
G04 #@! TO.C,F1*
X235886666Y-102798571D02*
X235553333Y-102798571D01*
X235553333Y-103322380D02*
X235553333Y-102322380D01*
X236029523Y-102322380D01*
X236934285Y-103322380D02*
X236362857Y-103322380D01*
X236648571Y-103322380D02*
X236648571Y-102322380D01*
X236553333Y-102465238D01*
X236458095Y-102560476D01*
X236362857Y-102608095D01*
G04 #@! TO.C,U3*
D16*
X189230095Y-117562380D02*
X189230095Y-118371904D01*
X189277714Y-118467142D01*
X189325333Y-118514761D01*
X189420571Y-118562380D01*
X189611047Y-118562380D01*
X189706285Y-118514761D01*
X189753904Y-118467142D01*
X189801523Y-118371904D01*
X189801523Y-117562380D01*
X190182476Y-117562380D02*
X190801523Y-117562380D01*
X190468190Y-117943333D01*
X190611047Y-117943333D01*
X190706285Y-117990952D01*
X190753904Y-118038571D01*
X190801523Y-118133809D01*
X190801523Y-118371904D01*
X190753904Y-118467142D01*
X190706285Y-118514761D01*
X190611047Y-118562380D01*
X190325333Y-118562380D01*
X190230095Y-118514761D01*
X190182476Y-118467142D01*
G04 #@! TO.C,R41*
D13*
X229227142Y-147264380D02*
X228893809Y-146788190D01*
X228655714Y-147264380D02*
X228655714Y-146264380D01*
X229036666Y-146264380D01*
X229131904Y-146312000D01*
X229179523Y-146359619D01*
X229227142Y-146454857D01*
X229227142Y-146597714D01*
X229179523Y-146692952D01*
X229131904Y-146740571D01*
X229036666Y-146788190D01*
X228655714Y-146788190D01*
X230084285Y-146597714D02*
X230084285Y-147264380D01*
X229846190Y-146216761D02*
X229608095Y-146931047D01*
X230227142Y-146931047D01*
X231131904Y-147264380D02*
X230560476Y-147264380D01*
X230846190Y-147264380D02*
X230846190Y-146264380D01*
X230750952Y-146407238D01*
X230655714Y-146502476D01*
X230560476Y-146550095D01*
G04 #@! TO.C,C6*
X204954142Y-162091666D02*
X205001761Y-162139285D01*
X205049380Y-162282142D01*
X205049380Y-162377380D01*
X205001761Y-162520238D01*
X204906523Y-162615476D01*
X204811285Y-162663095D01*
X204620809Y-162710714D01*
X204477952Y-162710714D01*
X204287476Y-162663095D01*
X204192238Y-162615476D01*
X204097000Y-162520238D01*
X204049380Y-162377380D01*
X204049380Y-162282142D01*
X204097000Y-162139285D01*
X204144619Y-162091666D01*
X204049380Y-161234523D02*
X204049380Y-161425000D01*
X204097000Y-161520238D01*
X204144619Y-161567857D01*
X204287476Y-161663095D01*
X204477952Y-161710714D01*
X204858904Y-161710714D01*
X204954142Y-161663095D01*
X205001761Y-161615476D01*
X205049380Y-161520238D01*
X205049380Y-161329761D01*
X205001761Y-161234523D01*
X204954142Y-161186904D01*
X204858904Y-161139285D01*
X204620809Y-161139285D01*
X204525571Y-161186904D01*
X204477952Y-161234523D01*
X204430333Y-161329761D01*
X204430333Y-161520238D01*
X204477952Y-161615476D01*
X204525571Y-161663095D01*
X204620809Y-161710714D01*
G04 #@! TO.C,C7*
X190333333Y-147931142D02*
X190285714Y-147978761D01*
X190142857Y-148026380D01*
X190047619Y-148026380D01*
X189904761Y-147978761D01*
X189809523Y-147883523D01*
X189761904Y-147788285D01*
X189714285Y-147597809D01*
X189714285Y-147454952D01*
X189761904Y-147264476D01*
X189809523Y-147169238D01*
X189904761Y-147074000D01*
X190047619Y-147026380D01*
X190142857Y-147026380D01*
X190285714Y-147074000D01*
X190333333Y-147121619D01*
X190666666Y-147026380D02*
X191333333Y-147026380D01*
X190904761Y-148026380D01*
G04 #@! TO.C,C8*
X190333333Y-150217142D02*
X190285714Y-150264761D01*
X190142857Y-150312380D01*
X190047619Y-150312380D01*
X189904761Y-150264761D01*
X189809523Y-150169523D01*
X189761904Y-150074285D01*
X189714285Y-149883809D01*
X189714285Y-149740952D01*
X189761904Y-149550476D01*
X189809523Y-149455238D01*
X189904761Y-149360000D01*
X190047619Y-149312380D01*
X190142857Y-149312380D01*
X190285714Y-149360000D01*
X190333333Y-149407619D01*
X190904761Y-149740952D02*
X190809523Y-149693333D01*
X190761904Y-149645714D01*
X190714285Y-149550476D01*
X190714285Y-149502857D01*
X190761904Y-149407619D01*
X190809523Y-149360000D01*
X190904761Y-149312380D01*
X191095238Y-149312380D01*
X191190476Y-149360000D01*
X191238095Y-149407619D01*
X191285714Y-149502857D01*
X191285714Y-149550476D01*
X191238095Y-149645714D01*
X191190476Y-149693333D01*
X191095238Y-149740952D01*
X190904761Y-149740952D01*
X190809523Y-149788571D01*
X190761904Y-149836190D01*
X190714285Y-149931428D01*
X190714285Y-150121904D01*
X190761904Y-150217142D01*
X190809523Y-150264761D01*
X190904761Y-150312380D01*
X191095238Y-150312380D01*
X191190476Y-150264761D01*
X191238095Y-150217142D01*
X191285714Y-150121904D01*
X191285714Y-149931428D01*
X191238095Y-149836190D01*
X191190476Y-149788571D01*
X191095238Y-149740952D01*
G04 #@! TO.C,C9*
X197461142Y-153709666D02*
X197508761Y-153757285D01*
X197556380Y-153900142D01*
X197556380Y-153995380D01*
X197508761Y-154138238D01*
X197413523Y-154233476D01*
X197318285Y-154281095D01*
X197127809Y-154328714D01*
X196984952Y-154328714D01*
X196794476Y-154281095D01*
X196699238Y-154233476D01*
X196604000Y-154138238D01*
X196556380Y-153995380D01*
X196556380Y-153900142D01*
X196604000Y-153757285D01*
X196651619Y-153709666D01*
X197556380Y-153233476D02*
X197556380Y-153043000D01*
X197508761Y-152947761D01*
X197461142Y-152900142D01*
X197318285Y-152804904D01*
X197127809Y-152757285D01*
X196746857Y-152757285D01*
X196651619Y-152804904D01*
X196604000Y-152852523D01*
X196556380Y-152947761D01*
X196556380Y-153138238D01*
X196604000Y-153233476D01*
X196651619Y-153281095D01*
X196746857Y-153328714D01*
X196984952Y-153328714D01*
X197080190Y-153281095D01*
X197127809Y-153233476D01*
X197175428Y-153138238D01*
X197175428Y-152947761D01*
X197127809Y-152852523D01*
X197080190Y-152804904D01*
X196984952Y-152757285D01*
G04 #@! TO.C,C11*
X201922142Y-155678142D02*
X201874523Y-155725761D01*
X201731666Y-155773380D01*
X201636428Y-155773380D01*
X201493571Y-155725761D01*
X201398333Y-155630523D01*
X201350714Y-155535285D01*
X201303095Y-155344809D01*
X201303095Y-155201952D01*
X201350714Y-155011476D01*
X201398333Y-154916238D01*
X201493571Y-154821000D01*
X201636428Y-154773380D01*
X201731666Y-154773380D01*
X201874523Y-154821000D01*
X201922142Y-154868619D01*
X202874523Y-155773380D02*
X202303095Y-155773380D01*
X202588809Y-155773380D02*
X202588809Y-154773380D01*
X202493571Y-154916238D01*
X202398333Y-155011476D01*
X202303095Y-155059095D01*
X203826904Y-155773380D02*
X203255476Y-155773380D01*
X203541190Y-155773380D02*
X203541190Y-154773380D01*
X203445952Y-154916238D01*
X203350714Y-155011476D01*
X203255476Y-155059095D01*
G04 #@! TO.C,C12*
X203303142Y-138564857D02*
X203350761Y-138612476D01*
X203398380Y-138755333D01*
X203398380Y-138850571D01*
X203350761Y-138993428D01*
X203255523Y-139088666D01*
X203160285Y-139136285D01*
X202969809Y-139183904D01*
X202826952Y-139183904D01*
X202636476Y-139136285D01*
X202541238Y-139088666D01*
X202446000Y-138993428D01*
X202398380Y-138850571D01*
X202398380Y-138755333D01*
X202446000Y-138612476D01*
X202493619Y-138564857D01*
X203398380Y-137612476D02*
X203398380Y-138183904D01*
X203398380Y-137898190D02*
X202398380Y-137898190D01*
X202541238Y-137993428D01*
X202636476Y-138088666D01*
X202684095Y-138183904D01*
X202493619Y-137231523D02*
X202446000Y-137183904D01*
X202398380Y-137088666D01*
X202398380Y-136850571D01*
X202446000Y-136755333D01*
X202493619Y-136707714D01*
X202588857Y-136660095D01*
X202684095Y-136660095D01*
X202826952Y-136707714D01*
X203398380Y-137279142D01*
X203398380Y-136660095D01*
G04 #@! TO.C,C13*
X206605142Y-137421857D02*
X206652761Y-137469476D01*
X206700380Y-137612333D01*
X206700380Y-137707571D01*
X206652761Y-137850428D01*
X206557523Y-137945666D01*
X206462285Y-137993285D01*
X206271809Y-138040904D01*
X206128952Y-138040904D01*
X205938476Y-137993285D01*
X205843238Y-137945666D01*
X205748000Y-137850428D01*
X205700380Y-137707571D01*
X205700380Y-137612333D01*
X205748000Y-137469476D01*
X205795619Y-137421857D01*
X206700380Y-136469476D02*
X206700380Y-137040904D01*
X206700380Y-136755190D02*
X205700380Y-136755190D01*
X205843238Y-136850428D01*
X205938476Y-136945666D01*
X205986095Y-137040904D01*
X205700380Y-136136142D02*
X205700380Y-135517095D01*
X206081333Y-135850428D01*
X206081333Y-135707571D01*
X206128952Y-135612333D01*
X206176571Y-135564714D01*
X206271809Y-135517095D01*
X206509904Y-135517095D01*
X206605142Y-135564714D01*
X206652761Y-135612333D01*
X206700380Y-135707571D01*
X206700380Y-135993285D01*
X206652761Y-136088523D01*
X206605142Y-136136142D01*
G04 #@! TO.C,C14*
X210050142Y-140692142D02*
X210002523Y-140739761D01*
X209859666Y-140787380D01*
X209764428Y-140787380D01*
X209621571Y-140739761D01*
X209526333Y-140644523D01*
X209478714Y-140549285D01*
X209431095Y-140358809D01*
X209431095Y-140215952D01*
X209478714Y-140025476D01*
X209526333Y-139930238D01*
X209621571Y-139835000D01*
X209764428Y-139787380D01*
X209859666Y-139787380D01*
X210002523Y-139835000D01*
X210050142Y-139882619D01*
X211002523Y-140787380D02*
X210431095Y-140787380D01*
X210716809Y-140787380D02*
X210716809Y-139787380D01*
X210621571Y-139930238D01*
X210526333Y-140025476D01*
X210431095Y-140073095D01*
X211859666Y-140120714D02*
X211859666Y-140787380D01*
X211621571Y-139739761D02*
X211383476Y-140454047D01*
X212002523Y-140454047D01*
G04 #@! TO.C,C15*
X198477142Y-138437857D02*
X198524761Y-138485476D01*
X198572380Y-138628333D01*
X198572380Y-138723571D01*
X198524761Y-138866428D01*
X198429523Y-138961666D01*
X198334285Y-139009285D01*
X198143809Y-139056904D01*
X198000952Y-139056904D01*
X197810476Y-139009285D01*
X197715238Y-138961666D01*
X197620000Y-138866428D01*
X197572380Y-138723571D01*
X197572380Y-138628333D01*
X197620000Y-138485476D01*
X197667619Y-138437857D01*
X198572380Y-137485476D02*
X198572380Y-138056904D01*
X198572380Y-137771190D02*
X197572380Y-137771190D01*
X197715238Y-137866428D01*
X197810476Y-137961666D01*
X197858095Y-138056904D01*
X197572380Y-136580714D02*
X197572380Y-137056904D01*
X198048571Y-137104523D01*
X198000952Y-137056904D01*
X197953333Y-136961666D01*
X197953333Y-136723571D01*
X198000952Y-136628333D01*
X198048571Y-136580714D01*
X198143809Y-136533095D01*
X198381904Y-136533095D01*
X198477142Y-136580714D01*
X198524761Y-136628333D01*
X198572380Y-136723571D01*
X198572380Y-136961666D01*
X198524761Y-137056904D01*
X198477142Y-137104523D01*
G04 #@! TO.C,C26*
X224147142Y-111609142D02*
X224099523Y-111656761D01*
X223956666Y-111704380D01*
X223861428Y-111704380D01*
X223718571Y-111656761D01*
X223623333Y-111561523D01*
X223575714Y-111466285D01*
X223528095Y-111275809D01*
X223528095Y-111132952D01*
X223575714Y-110942476D01*
X223623333Y-110847238D01*
X223718571Y-110752000D01*
X223861428Y-110704380D01*
X223956666Y-110704380D01*
X224099523Y-110752000D01*
X224147142Y-110799619D01*
X224528095Y-110799619D02*
X224575714Y-110752000D01*
X224670952Y-110704380D01*
X224909047Y-110704380D01*
X225004285Y-110752000D01*
X225051904Y-110799619D01*
X225099523Y-110894857D01*
X225099523Y-110990095D01*
X225051904Y-111132952D01*
X224480476Y-111704380D01*
X225099523Y-111704380D01*
X225956666Y-110704380D02*
X225766190Y-110704380D01*
X225670952Y-110752000D01*
X225623333Y-110799619D01*
X225528095Y-110942476D01*
X225480476Y-111132952D01*
X225480476Y-111513904D01*
X225528095Y-111609142D01*
X225575714Y-111656761D01*
X225670952Y-111704380D01*
X225861428Y-111704380D01*
X225956666Y-111656761D01*
X226004285Y-111609142D01*
X226051904Y-111513904D01*
X226051904Y-111275809D01*
X226004285Y-111180571D01*
X225956666Y-111132952D01*
X225861428Y-111085333D01*
X225670952Y-111085333D01*
X225575714Y-111132952D01*
X225528095Y-111180571D01*
X225480476Y-111275809D01*
G04 #@! TO.C,C27*
X194429142Y-113006142D02*
X194381523Y-113053761D01*
X194238666Y-113101380D01*
X194143428Y-113101380D01*
X194000571Y-113053761D01*
X193905333Y-112958523D01*
X193857714Y-112863285D01*
X193810095Y-112672809D01*
X193810095Y-112529952D01*
X193857714Y-112339476D01*
X193905333Y-112244238D01*
X194000571Y-112149000D01*
X194143428Y-112101380D01*
X194238666Y-112101380D01*
X194381523Y-112149000D01*
X194429142Y-112196619D01*
X194810095Y-112196619D02*
X194857714Y-112149000D01*
X194952952Y-112101380D01*
X195191047Y-112101380D01*
X195286285Y-112149000D01*
X195333904Y-112196619D01*
X195381523Y-112291857D01*
X195381523Y-112387095D01*
X195333904Y-112529952D01*
X194762476Y-113101380D01*
X195381523Y-113101380D01*
X195714857Y-112101380D02*
X196381523Y-112101380D01*
X195952952Y-113101380D01*
G04 #@! TO.C,C28*
X194683142Y-131294142D02*
X194635523Y-131341761D01*
X194492666Y-131389380D01*
X194397428Y-131389380D01*
X194254571Y-131341761D01*
X194159333Y-131246523D01*
X194111714Y-131151285D01*
X194064095Y-130960809D01*
X194064095Y-130817952D01*
X194111714Y-130627476D01*
X194159333Y-130532238D01*
X194254571Y-130437000D01*
X194397428Y-130389380D01*
X194492666Y-130389380D01*
X194635523Y-130437000D01*
X194683142Y-130484619D01*
X195064095Y-130484619D02*
X195111714Y-130437000D01*
X195206952Y-130389380D01*
X195445047Y-130389380D01*
X195540285Y-130437000D01*
X195587904Y-130484619D01*
X195635523Y-130579857D01*
X195635523Y-130675095D01*
X195587904Y-130817952D01*
X195016476Y-131389380D01*
X195635523Y-131389380D01*
X196206952Y-130817952D02*
X196111714Y-130770333D01*
X196064095Y-130722714D01*
X196016476Y-130627476D01*
X196016476Y-130579857D01*
X196064095Y-130484619D01*
X196111714Y-130437000D01*
X196206952Y-130389380D01*
X196397428Y-130389380D01*
X196492666Y-130437000D01*
X196540285Y-130484619D01*
X196587904Y-130579857D01*
X196587904Y-130627476D01*
X196540285Y-130722714D01*
X196492666Y-130770333D01*
X196397428Y-130817952D01*
X196206952Y-130817952D01*
X196111714Y-130865571D01*
X196064095Y-130913190D01*
X196016476Y-131008428D01*
X196016476Y-131198904D01*
X196064095Y-131294142D01*
X196111714Y-131341761D01*
X196206952Y-131389380D01*
X196397428Y-131389380D01*
X196492666Y-131341761D01*
X196540285Y-131294142D01*
X196587904Y-131198904D01*
X196587904Y-131008428D01*
X196540285Y-130913190D01*
X196492666Y-130865571D01*
X196397428Y-130817952D01*
G04 #@! TO.C,D2*
X215669904Y-148280380D02*
X215669904Y-147280380D01*
X215908000Y-147280380D01*
X216050857Y-147328000D01*
X216146095Y-147423238D01*
X216193714Y-147518476D01*
X216241333Y-147708952D01*
X216241333Y-147851809D01*
X216193714Y-148042285D01*
X216146095Y-148137523D01*
X216050857Y-148232761D01*
X215908000Y-148280380D01*
X215669904Y-148280380D01*
X216622285Y-147375619D02*
X216669904Y-147328000D01*
X216765142Y-147280380D01*
X217003238Y-147280380D01*
X217098476Y-147328000D01*
X217146095Y-147375619D01*
X217193714Y-147470857D01*
X217193714Y-147566095D01*
X217146095Y-147708952D01*
X216574666Y-148280380D01*
X217193714Y-148280380D01*
G04 #@! TO.C,D4*
X207922904Y-151201380D02*
X207922904Y-150201380D01*
X208161000Y-150201380D01*
X208303857Y-150249000D01*
X208399095Y-150344238D01*
X208446714Y-150439476D01*
X208494333Y-150629952D01*
X208494333Y-150772809D01*
X208446714Y-150963285D01*
X208399095Y-151058523D01*
X208303857Y-151153761D01*
X208161000Y-151201380D01*
X207922904Y-151201380D01*
X209351476Y-150534714D02*
X209351476Y-151201380D01*
X209113380Y-150153761D02*
X208875285Y-150868047D01*
X209494333Y-150868047D01*
G04 #@! TO.C,D5*
X194079904Y-110434380D02*
X194079904Y-109434380D01*
X194318000Y-109434380D01*
X194460857Y-109482000D01*
X194556095Y-109577238D01*
X194603714Y-109672476D01*
X194651333Y-109862952D01*
X194651333Y-110005809D01*
X194603714Y-110196285D01*
X194556095Y-110291523D01*
X194460857Y-110386761D01*
X194318000Y-110434380D01*
X194079904Y-110434380D01*
X195556095Y-109434380D02*
X195079904Y-109434380D01*
X195032285Y-109910571D01*
X195079904Y-109862952D01*
X195175142Y-109815333D01*
X195413238Y-109815333D01*
X195508476Y-109862952D01*
X195556095Y-109910571D01*
X195603714Y-110005809D01*
X195603714Y-110243904D01*
X195556095Y-110339142D01*
X195508476Y-110386761D01*
X195413238Y-110434380D01*
X195175142Y-110434380D01*
X195079904Y-110386761D01*
X195032285Y-110339142D01*
G04 #@! TO.C,J3*
X172894666Y-158329380D02*
X172894666Y-159043666D01*
X172847047Y-159186523D01*
X172751809Y-159281761D01*
X172608952Y-159329380D01*
X172513714Y-159329380D01*
X173275619Y-158329380D02*
X173894666Y-158329380D01*
X173561333Y-158710333D01*
X173704190Y-158710333D01*
X173799428Y-158757952D01*
X173847047Y-158805571D01*
X173894666Y-158900809D01*
X173894666Y-159138904D01*
X173847047Y-159234142D01*
X173799428Y-159281761D01*
X173704190Y-159329380D01*
X173418476Y-159329380D01*
X173323238Y-159281761D01*
X173275619Y-159234142D01*
G04 #@! TO.C,J4*
X173275666Y-168489380D02*
X173275666Y-169203666D01*
X173228047Y-169346523D01*
X173132809Y-169441761D01*
X172989952Y-169489380D01*
X172894714Y-169489380D01*
X174180428Y-168822714D02*
X174180428Y-169489380D01*
X173942333Y-168441761D02*
X173704238Y-169156047D01*
X174323285Y-169156047D01*
G04 #@! TO.C,J5*
X187118666Y-128484380D02*
X187118666Y-129198666D01*
X187071047Y-129341523D01*
X186975809Y-129436761D01*
X186832952Y-129484380D01*
X186737714Y-129484380D01*
X188071047Y-128484380D02*
X187594857Y-128484380D01*
X187547238Y-128960571D01*
X187594857Y-128912952D01*
X187690095Y-128865333D01*
X187928190Y-128865333D01*
X188023428Y-128912952D01*
X188071047Y-128960571D01*
X188118666Y-129055809D01*
X188118666Y-129293904D01*
X188071047Y-129389142D01*
X188023428Y-129436761D01*
X187928190Y-129484380D01*
X187690095Y-129484380D01*
X187594857Y-129436761D01*
X187547238Y-129389142D01*
G04 #@! TO.C,J6*
X172386666Y-118070380D02*
X172386666Y-118784666D01*
X172339047Y-118927523D01*
X172243809Y-119022761D01*
X172100952Y-119070380D01*
X172005714Y-119070380D01*
X173291428Y-118070380D02*
X173100952Y-118070380D01*
X173005714Y-118118000D01*
X172958095Y-118165619D01*
X172862857Y-118308476D01*
X172815238Y-118498952D01*
X172815238Y-118879904D01*
X172862857Y-118975142D01*
X172910476Y-119022761D01*
X173005714Y-119070380D01*
X173196190Y-119070380D01*
X173291428Y-119022761D01*
X173339047Y-118975142D01*
X173386666Y-118879904D01*
X173386666Y-118641809D01*
X173339047Y-118546571D01*
X173291428Y-118498952D01*
X173196190Y-118451333D01*
X173005714Y-118451333D01*
X172910476Y-118498952D01*
X172862857Y-118546571D01*
X172815238Y-118641809D01*
G04 #@! TO.C,Q1*
X208311761Y-138469619D02*
X208216523Y-138422000D01*
X208121285Y-138326761D01*
X207978428Y-138183904D01*
X207883190Y-138136285D01*
X207787952Y-138136285D01*
X207835571Y-138374380D02*
X207740333Y-138326761D01*
X207645095Y-138231523D01*
X207597476Y-138041047D01*
X207597476Y-137707714D01*
X207645095Y-137517238D01*
X207740333Y-137422000D01*
X207835571Y-137374380D01*
X208026047Y-137374380D01*
X208121285Y-137422000D01*
X208216523Y-137517238D01*
X208264142Y-137707714D01*
X208264142Y-138041047D01*
X208216523Y-138231523D01*
X208121285Y-138326761D01*
X208026047Y-138374380D01*
X207835571Y-138374380D01*
X209216523Y-138374380D02*
X208645095Y-138374380D01*
X208930809Y-138374380D02*
X208930809Y-137374380D01*
X208835571Y-137517238D01*
X208740333Y-137612476D01*
X208645095Y-137660095D01*
G04 #@! TO.C,R15*
X202382380Y-167012857D02*
X201906190Y-167346190D01*
X202382380Y-167584285D02*
X201382380Y-167584285D01*
X201382380Y-167203333D01*
X201430000Y-167108095D01*
X201477619Y-167060476D01*
X201572857Y-167012857D01*
X201715714Y-167012857D01*
X201810952Y-167060476D01*
X201858571Y-167108095D01*
X201906190Y-167203333D01*
X201906190Y-167584285D01*
X202382380Y-166060476D02*
X202382380Y-166631904D01*
X202382380Y-166346190D02*
X201382380Y-166346190D01*
X201525238Y-166441428D01*
X201620476Y-166536666D01*
X201668095Y-166631904D01*
X201382380Y-165155714D02*
X201382380Y-165631904D01*
X201858571Y-165679523D01*
X201810952Y-165631904D01*
X201763333Y-165536666D01*
X201763333Y-165298571D01*
X201810952Y-165203333D01*
X201858571Y-165155714D01*
X201953809Y-165108095D01*
X202191904Y-165108095D01*
X202287142Y-165155714D01*
X202334761Y-165203333D01*
X202382380Y-165298571D01*
X202382380Y-165536666D01*
X202334761Y-165631904D01*
X202287142Y-165679523D01*
G04 #@! TO.C,R16*
X204414380Y-167012857D02*
X203938190Y-167346190D01*
X204414380Y-167584285D02*
X203414380Y-167584285D01*
X203414380Y-167203333D01*
X203462000Y-167108095D01*
X203509619Y-167060476D01*
X203604857Y-167012857D01*
X203747714Y-167012857D01*
X203842952Y-167060476D01*
X203890571Y-167108095D01*
X203938190Y-167203333D01*
X203938190Y-167584285D01*
X204414380Y-166060476D02*
X204414380Y-166631904D01*
X204414380Y-166346190D02*
X203414380Y-166346190D01*
X203557238Y-166441428D01*
X203652476Y-166536666D01*
X203700095Y-166631904D01*
X203414380Y-165203333D02*
X203414380Y-165393809D01*
X203462000Y-165489047D01*
X203509619Y-165536666D01*
X203652476Y-165631904D01*
X203842952Y-165679523D01*
X204223904Y-165679523D01*
X204319142Y-165631904D01*
X204366761Y-165584285D01*
X204414380Y-165489047D01*
X204414380Y-165298571D01*
X204366761Y-165203333D01*
X204319142Y-165155714D01*
X204223904Y-165108095D01*
X203985809Y-165108095D01*
X203890571Y-165155714D01*
X203842952Y-165203333D01*
X203795333Y-165298571D01*
X203795333Y-165489047D01*
X203842952Y-165584285D01*
X203890571Y-165631904D01*
X203985809Y-165679523D01*
G04 #@! TO.C,R24*
X195572142Y-157170380D02*
X195238809Y-156694190D01*
X195000714Y-157170380D02*
X195000714Y-156170380D01*
X195381666Y-156170380D01*
X195476904Y-156218000D01*
X195524523Y-156265619D01*
X195572142Y-156360857D01*
X195572142Y-156503714D01*
X195524523Y-156598952D01*
X195476904Y-156646571D01*
X195381666Y-156694190D01*
X195000714Y-156694190D01*
X195953095Y-156265619D02*
X196000714Y-156218000D01*
X196095952Y-156170380D01*
X196334047Y-156170380D01*
X196429285Y-156218000D01*
X196476904Y-156265619D01*
X196524523Y-156360857D01*
X196524523Y-156456095D01*
X196476904Y-156598952D01*
X195905476Y-157170380D01*
X196524523Y-157170380D01*
X197381666Y-156503714D02*
X197381666Y-157170380D01*
X197143571Y-156122761D02*
X196905476Y-156837047D01*
X197524523Y-156837047D01*
G04 #@! TO.C,R33*
X194302142Y-104338380D02*
X193968809Y-103862190D01*
X193730714Y-104338380D02*
X193730714Y-103338380D01*
X194111666Y-103338380D01*
X194206904Y-103386000D01*
X194254523Y-103433619D01*
X194302142Y-103528857D01*
X194302142Y-103671714D01*
X194254523Y-103766952D01*
X194206904Y-103814571D01*
X194111666Y-103862190D01*
X193730714Y-103862190D01*
X194635476Y-103338380D02*
X195254523Y-103338380D01*
X194921190Y-103719333D01*
X195064047Y-103719333D01*
X195159285Y-103766952D01*
X195206904Y-103814571D01*
X195254523Y-103909809D01*
X195254523Y-104147904D01*
X195206904Y-104243142D01*
X195159285Y-104290761D01*
X195064047Y-104338380D01*
X194778333Y-104338380D01*
X194683095Y-104290761D01*
X194635476Y-104243142D01*
X195587857Y-103338380D02*
X196206904Y-103338380D01*
X195873571Y-103719333D01*
X196016428Y-103719333D01*
X196111666Y-103766952D01*
X196159285Y-103814571D01*
X196206904Y-103909809D01*
X196206904Y-104147904D01*
X196159285Y-104243142D01*
X196111666Y-104290761D01*
X196016428Y-104338380D01*
X195730714Y-104338380D01*
X195635476Y-104290761D01*
X195587857Y-104243142D01*
G04 #@! TO.C,R34*
X197858142Y-110434380D02*
X197524809Y-109958190D01*
X197286714Y-110434380D02*
X197286714Y-109434380D01*
X197667666Y-109434380D01*
X197762904Y-109482000D01*
X197810523Y-109529619D01*
X197858142Y-109624857D01*
X197858142Y-109767714D01*
X197810523Y-109862952D01*
X197762904Y-109910571D01*
X197667666Y-109958190D01*
X197286714Y-109958190D01*
X198191476Y-109434380D02*
X198810523Y-109434380D01*
X198477190Y-109815333D01*
X198620047Y-109815333D01*
X198715285Y-109862952D01*
X198762904Y-109910571D01*
X198810523Y-110005809D01*
X198810523Y-110243904D01*
X198762904Y-110339142D01*
X198715285Y-110386761D01*
X198620047Y-110434380D01*
X198334333Y-110434380D01*
X198239095Y-110386761D01*
X198191476Y-110339142D01*
X199667666Y-109767714D02*
X199667666Y-110434380D01*
X199429571Y-109386761D02*
X199191476Y-110101047D01*
X199810523Y-110101047D01*
G04 #@! TO.C,R40*
X193159142Y-118562380D02*
X192825809Y-118086190D01*
X192587714Y-118562380D02*
X192587714Y-117562380D01*
X192968666Y-117562380D01*
X193063904Y-117610000D01*
X193111523Y-117657619D01*
X193159142Y-117752857D01*
X193159142Y-117895714D01*
X193111523Y-117990952D01*
X193063904Y-118038571D01*
X192968666Y-118086190D01*
X192587714Y-118086190D01*
X194016285Y-117895714D02*
X194016285Y-118562380D01*
X193778190Y-117514761D02*
X193540095Y-118229047D01*
X194159142Y-118229047D01*
X194730571Y-117562380D02*
X194825809Y-117562380D01*
X194921047Y-117610000D01*
X194968666Y-117657619D01*
X195016285Y-117752857D01*
X195063904Y-117943333D01*
X195063904Y-118181428D01*
X195016285Y-118371904D01*
X194968666Y-118467142D01*
X194921047Y-118514761D01*
X194825809Y-118562380D01*
X194730571Y-118562380D01*
X194635333Y-118514761D01*
X194587714Y-118467142D01*
X194540095Y-118371904D01*
X194492476Y-118181428D01*
X194492476Y-117943333D01*
X194540095Y-117752857D01*
X194587714Y-117657619D01*
X194635333Y-117610000D01*
X194730571Y-117562380D01*
G04 #@! TO.C,RN1*
X191079523Y-144470380D02*
X190746190Y-143994190D01*
X190508095Y-144470380D02*
X190508095Y-143470380D01*
X190889047Y-143470380D01*
X190984285Y-143518000D01*
X191031904Y-143565619D01*
X191079523Y-143660857D01*
X191079523Y-143803714D01*
X191031904Y-143898952D01*
X190984285Y-143946571D01*
X190889047Y-143994190D01*
X190508095Y-143994190D01*
X191508095Y-144470380D02*
X191508095Y-143470380D01*
X192079523Y-144470380D01*
X192079523Y-143470380D01*
X193079523Y-144470380D02*
X192508095Y-144470380D01*
X192793809Y-144470380D02*
X192793809Y-143470380D01*
X192698571Y-143613238D01*
X192603333Y-143708476D01*
X192508095Y-143756095D01*
G04 #@! TO.C,RV1*
X215177761Y-104084380D02*
X214844428Y-103608190D01*
X214606333Y-104084380D02*
X214606333Y-103084380D01*
X214987285Y-103084380D01*
X215082523Y-103132000D01*
X215130142Y-103179619D01*
X215177761Y-103274857D01*
X215177761Y-103417714D01*
X215130142Y-103512952D01*
X215082523Y-103560571D01*
X214987285Y-103608190D01*
X214606333Y-103608190D01*
X215463476Y-103084380D02*
X215796809Y-104084380D01*
X216130142Y-103084380D01*
X216987285Y-104084380D02*
X216415857Y-104084380D01*
X216701571Y-104084380D02*
X216701571Y-103084380D01*
X216606333Y-103227238D01*
X216511095Y-103322476D01*
X216415857Y-103370095D01*
G04 #@! TO.C,SW1*
X179768666Y-128674761D02*
X179911523Y-128722380D01*
X180149619Y-128722380D01*
X180244857Y-128674761D01*
X180292476Y-128627142D01*
X180340095Y-128531904D01*
X180340095Y-128436666D01*
X180292476Y-128341428D01*
X180244857Y-128293809D01*
X180149619Y-128246190D01*
X179959142Y-128198571D01*
X179863904Y-128150952D01*
X179816285Y-128103333D01*
X179768666Y-128008095D01*
X179768666Y-127912857D01*
X179816285Y-127817619D01*
X179863904Y-127770000D01*
X179959142Y-127722380D01*
X180197238Y-127722380D01*
X180340095Y-127770000D01*
X180673428Y-127722380D02*
X180911523Y-128722380D01*
X181102000Y-128008095D01*
X181292476Y-128722380D01*
X181530571Y-127722380D01*
X182435333Y-128722380D02*
X181863904Y-128722380D01*
X182149619Y-128722380D02*
X182149619Y-127722380D01*
X182054380Y-127865238D01*
X181959142Y-127960476D01*
X181863904Y-128008095D01*
G04 #@! TO.C,SW2*
X172656666Y-128674761D02*
X172799523Y-128722380D01*
X173037619Y-128722380D01*
X173132857Y-128674761D01*
X173180476Y-128627142D01*
X173228095Y-128531904D01*
X173228095Y-128436666D01*
X173180476Y-128341428D01*
X173132857Y-128293809D01*
X173037619Y-128246190D01*
X172847142Y-128198571D01*
X172751904Y-128150952D01*
X172704285Y-128103333D01*
X172656666Y-128008095D01*
X172656666Y-127912857D01*
X172704285Y-127817619D01*
X172751904Y-127770000D01*
X172847142Y-127722380D01*
X173085238Y-127722380D01*
X173228095Y-127770000D01*
X173561428Y-127722380D02*
X173799523Y-128722380D01*
X173990000Y-128008095D01*
X174180476Y-128722380D01*
X174418571Y-127722380D01*
X174751904Y-127817619D02*
X174799523Y-127770000D01*
X174894761Y-127722380D01*
X175132857Y-127722380D01*
X175228095Y-127770000D01*
X175275714Y-127817619D01*
X175323333Y-127912857D01*
X175323333Y-128008095D01*
X175275714Y-128150952D01*
X174704285Y-128722380D01*
X175323333Y-128722380D01*
G04 #@! TO.C,U2*
X196088095Y-140422380D02*
X196088095Y-141231904D01*
X196135714Y-141327142D01*
X196183333Y-141374761D01*
X196278571Y-141422380D01*
X196469047Y-141422380D01*
X196564285Y-141374761D01*
X196611904Y-141327142D01*
X196659523Y-141231904D01*
X196659523Y-140422380D01*
X197088095Y-140517619D02*
X197135714Y-140470000D01*
X197230952Y-140422380D01*
X197469047Y-140422380D01*
X197564285Y-140470000D01*
X197611904Y-140517619D01*
X197659523Y-140612857D01*
X197659523Y-140708095D01*
X197611904Y-140850952D01*
X197040476Y-141422380D01*
X197659523Y-141422380D01*
G04 #@! TD*
M02*
